<?xml version="1.0" encoding="UTF-8"?>
<svg id="Layer_2" data-name="Layer 2" xmlns="http://www.w3.org/2000/svg" viewBox="0 0 120.3 57.12">
  <defs>
    <style>
      .cls-1 {
        fill: #221f20;
      }
    </style>
  </defs>
  <g id="Layer_1-2" data-name="Layer 1">
    <g>
      <g>
        <g>
          <path class="cls-1" d="M47.15,54.93c-.15.05-.97.27-1.85.27-1.95,0-2.99-.83-2.99-2.61v-10.68h1.09c1.14,0,1.51.66,1.51,1.59v.81h2.23v.63c0,.89-.62,1.4-1.54,1.4h-.69v5.8c0,.63.21,1.09,1.11,1.09.53,0,1.03-.15,1.12-.18,0,.22,0,1.89,0,1.89ZM40.39,46.04c.55,0,1.12.17,1.19.18v-1.92c-.09-.02-1.16-.25-2.17-.25-1.72,0-2.93.71-2.93,2.57v8.31h2.6v-7.8c0-.69.44-1.11,1.31-1.11ZM25.45,47.07c0-1.07-.6-3-4.08-3-1.78,0-2.5.47-2.75.64-.26-.15-1.09-.64-2.76-.64-3.21,0-4.08,1.6-4.08,2.93v7.95h2.62v-7.78c0-.45.25-1.13,1.46-1.13.94,0,1.44.47,1.44,1.13v7.78h2.62v-7.78c0-.66.5-1.13,1.44-1.13,1.03,0,1.46.53,1.46,1.13v5.99c0,1.18.68,1.84,1.77,1.84h.86v-7.93ZM30.99,44.06c3.28,0,4.47,1.56,4.47,3.63v3.37c0,2.37-1.52,4.15-4.66,4.15s-4.65-1.41-4.65-3.31c0-1.52,1.03-2.52,3.27-3.13.33-.09,1.42-.42,1.91-.56,1.13-.33,1.49-.59,1.49-1.08,0-.52-.63-1.08-1.91-1.08-1.53,0-2.01.94-2.02,1.63h-2.38c0-2.11,1.25-3.6,4.46-3.6ZM30.6,53.22c1.01,0,2.24-.64,2.24-2.26v-1.28s-1.99.57-2.54.74c-.99.3-1.47.81-1.47,1.47s.55,1.33,1.77,1.33Z"/>
          <path class="cls-1" d="M5.2,55.2c-3.62,0-5.2-2.22-5.2-5.02v-3.03c0-3.9,2.6-5.42,5.65-5.42,3.68,0,5.29,2,5.29,4.01,0,2.93-2.99,3.64-4.31,4.03-.38.11-1.78.53-2.1.62-1.23.36-1.59.76-1.59,1.21,0,.77.68,1.45,2.26,1.45,1.38,0,2.38-.47,2.55-1.91h2.88c-.3,2.28-1.67,4.07-5.43,4.07ZM5.53,43.89c-1.6,0-2.65,1.07-2.65,2.9v1.92s2.17-.63,3.07-.91c.76-.23,2.11-.71,2.11-1.91,0-1.04-.85-2-2.54-2Z"/>
        </g>
        <g>
          <path class="cls-1" d="M74.07,42.32h-.9c-2.69,0-4.9,2.2-4.9,4.9v.9c0,2.69,2.2,4.9,4.9,4.9h.9c2.69,0,4.9-2.2,4.9-4.9v-.9c0-2.69-2.2-4.9-4.9-4.9ZM74.68,47.83c0,.5-.41.9-.9.9h-.33c-.5,0-.9-.41-.9-.9v-.33c0-.5.41-.9.9-.9h.33c.5,0,.9.41.9.9v.33Z"/>
          <path class="cls-1" d="M83.94,54.13h-3.97c-.09,0-.16-.07-.16-.16v-10.77c0-.82.66-1.48,1.48-1.48h2.65c.09,0,.16.07.16.16v12.09c0,.09-.07.16-.16.16Z"/>
          <path class="cls-1" d="M92.16,39.8h-2.45c-2.28,0-4.13,1.85-4.13,4.13v6.39c0,.1.08.18.18.18h10.34c.1,0,.18-.08.18-.18v-6.39c0-2.28-1.85-4.13-4.13-4.13ZM92,46.04c0,.1-.08.18-.18.18h-1.78c-.1,0-.18-.08-.18-.18v-1.06c0-.5.41-.9.9-.9h.33c.5,0,.9.41.9.9v1.06Z"/>
          <path class="cls-1" d="M103.43,56.97v-2.54c0-.79.64-1.42,1.42-1.42h14.79c.09,0,.16.07.16.16v3.8c0,.09-.07.16-.16.16h-16.05c-.09,0-.16-.07-.16-.16Z"/>
          <path class="cls-1" d="M115.75,47.87c-.31,0-.56-.25-.56-.56v-1.02c0-.31.25-.56.56-.56h2.56c.1,0,.18-.08.18-.18v-3.07c0-.1-.08-.18-.18-.18h-13.4c-.1,0-.18.08-.18.18v3.07c0,.1.08.18.18.18h2.56c.31,0,.56.25.56.56v1.02c0,.31-.25.56-.56.56h-2.56c-.1,0-.18.08-.18.18v3.92c0,.1.08.18.18.18h5.45c.1,0,.18-.08.18-.18v-1.4c0-.31.25-.56.56-.56h1.02c.31,0,.56.25.56.56v1.4c0,.1.08.18.18.18h5.45c.1,0,.18-.08.18-.18v-3.92c0-.1-.08-.18-.18-.18h-2.56Z"/>
          <path class="cls-1" d="M103.25,42.32h-1.47v-2.33c0-.1-.08-.18-.18-.18h-2.43c-.93,0-1.68.75-1.68,1.68v12.47c0,.1.08.18.18.18h3.92c.1,0,.18-.08.18-.18v-7.35h1.47c.1,0,.18-.08.18-.18v-3.92c0-.1-.08-.18-.18-.18Z"/>
        </g>
        <path class="cls-1" d="M56.35,53.57h-1.13l3.11-4.05-2.91-3.83h1.12l2.34,3.1,2.38-3.1h1.07l-2.9,3.82,3.1,4.07h-1.11l-2.54-3.34-2.53,3.34Z"/>
      </g>
      <g>
        <path class="cls-1" d="M7.46,5.08h-3.26v2.75h-.68v-2.75H.31v-.58h7.15v.58ZM3.87.33c1.64,0,2.75.66,2.75,1.72s-1.11,1.7-2.75,1.7c-1.64,0-2.75-.65-2.75-1.7,0-1.06,1.11-1.72,2.75-1.72ZM3.87,3.2c1.22,0,2.04-.45,2.05-1.14,0-.71-.83-1.16-2.05-1.16s-2.05.45-2.04,1.16c0,.69.82,1.14,2.04,1.14Z"/>
        <path class="cls-1" d="M14.94,4.53h-7.12v-.56h7.12v.56ZM11.01,1.36h-2.44v-.55h2.48v-.81h.68v.81h2.5v.55h-2.46c.05.89,1.28,1.5,2.76,1.63l-.23.54c-1.29-.14-2.44-.62-2.91-1.41-.48.79-1.63,1.26-2.91,1.41l-.23-.54c1.46-.13,2.7-.73,2.76-1.63ZM8.62,5.37h5.45v2.46h-.69v-1.9h-4.76v-.56Z"/>
        <path class="cls-1" d="M20.28.67c1.63,0,2.82,1.26,2.81,3.27,0,1.19-.41,2.11-1.09,2.67l.83,1.11h-.86l-.55-.74c-.34.15-.73.23-1.14.23-1.63,0-2.82-1.26-2.81-3.27,0-2.01,1.18-3.27,2.81-3.27ZM20.87,5.12l.67.88c.47-.42.77-1.12.78-2.07,0-1.64-.9-2.53-2.05-2.53s-2.04.89-2.05,2.53c0,1.64.9,2.53,2.05,2.53.24,0,.46-.04.68-.11l-.94-1.23h.86Z"/>
        <path class="cls-1" d="M23.98.76h2.16c1.49,0,2.17.83,2.17,1.96,0,.84-.38,1.5-1.19,1.78l1.43,2.62h-.92l-1.33-2.47s-.1,0-.15,0h-1.38v2.47h-.79V.76ZM26.11,3.93c1.02,0,1.41-.46,1.42-1.21,0-.76-.4-1.26-1.42-1.26h-1.34v2.47h1.34Z"/>
        <path class="cls-1" d="M28.8,6.18h2.79v-2.02h.68v2.02h3.65v.59h-7.12v-.59ZM35.05,1.54c0,.95,0,2.02-.32,3.61l-.68-.08c.15-.71.23-1.33.27-1.88l-4.77.29-.11-.61,4.92-.2c.02-.41.02-.78.02-1.13v-.18h-4.71v-.57h5.39v.76Z"/>
        <path class="cls-1" d="M36.3,6.19h7.15v.58h-7.15v-.58ZM42.62,4.35h-5.4V.75h5.32v.57h-4.63v2.46h4.71v.57Z"/>
        <path class="cls-1" d="M50.96,4.19h-7.15v-.54h7.15v.54ZM44.67,4.82h5.4v1.66h-4.69v.75h4.95v.5h-5.64v-1.72h4.7v-.67h-4.71v-.52ZM44.71.25h5.33v1.62h-4.61v.69h4.75v.5h-5.44v-1.66h4.61v-.64h-4.63V.25Z"/>
        <path class="cls-1" d="M53.31,6.2h7.15v.57h-7.15v-.57ZM60.1,3.96l-.32.58c-1.18-.27-2.42-1.11-2.93-2.26-.51,1.15-1.74,1.98-2.93,2.26l-.32-.58c1.35-.26,2.87-1.44,2.87-2.79v-.6h.72v.6c0,1.34,1.53,2.53,2.89,2.79Z"/>
        <path class="cls-1" d="M63.44,2.15c.1-.28.15-.58.18-.89h-2.36v-.57h3.05c0,1.9-.87,3.42-3.07,4.33l-.34-.5c1.15-.47,1.89-1.1,2.32-1.86l-2.22.24-.11-.59,2.56-.17ZM62.31,5.19h.69v1.9h4.7v.58h-5.39v-2.48ZM67.45,5.9h-.66v-2.87h-1.06v2.62h-.66V.18h.66v2.27h1.06V.03h.66v5.87Z"/>
        <path class="cls-1" d="M68.28,1.27h2.01V.11h.69v1.16h1.95v.57h-4.65v-.57ZM70.65,2.5c1.1,0,1.91.74,1.92,1.79,0,1.06-.81,1.79-1.92,1.79s-1.92-.73-1.92-1.79c0-1.05.8-1.79,1.92-1.79ZM70.65,5.49c.72,0,1.25-.49,1.26-1.2,0-.71-.54-1.22-1.26-1.21-.73,0-1.26.51-1.26,1.21,0,.71.53,1.21,1.26,1.2ZM74.37,3.24h1.31v.57h-1.31v4.02h-.69V.02h.69v3.23Z"/>
        <path class="cls-1" d="M79.57,1.77h2.05V.02h.69v7.83h-.69v-3.03h-2c-.33.79-.93,1.25-1.69,1.25-1.16,0-1.96-1.05-1.96-2.72,0-1.66.8-2.72,1.96-2.72.72,0,1.3.42,1.64,1.14ZM77.94,5.45c.76,0,1.3-.83,1.3-2.1s-.54-2.1-1.3-2.11c-.77,0-1.3.84-1.3,2.11,0,1.27.53,2.11,1.3,2.1ZM79.89,3.35c0,.32-.03.62-.09.9h1.83v-1.9h-1.85c.08.3.11.64.11,1Z"/>
        <path class="cls-1" d="M.64,12.79h.69v4.47c1.14,0,2.31-.09,3.59-.36l.09.59c-1.35.27-2.56.35-3.74.35h-.62v-5.05ZM7.63,15.72h-1.27v4.11h-.69v-7.81h.69v3.12h1.27v.58Z"/>
        <path class="cls-1" d="M13.03,17.27l.05.51c-1.79.33-3.71.34-5.12.34l-.1-.59c1.44,0,3.43,0,5.16-.26ZM12.48,14.43c0,1.09-.87,1.83-2.1,1.84-1.24,0-2.11-.75-2.11-1.84,0-1.08.87-1.83,2.11-1.84,1.23,0,2.1.75,2.1,1.84ZM10.38,15.66c.83,0,1.43-.5,1.42-1.23,0-.72-.6-1.23-1.42-1.23s-1.44.51-1.43,1.23c0,.73.6,1.23,1.43,1.23ZM13.55,12.02h.69v7.83h-.69v-7.83Z"/>
        <path class="cls-1" d="M22.52,16.17l.04.5c-.75.12-1.52.2-2.28.25v2.68h-.69v-2.65c-.79.03-1.54.04-2.2.04l-.1-.58c1.5,0,3.48-.01,5.21-.24ZM22.16,15.2l-.28.55c-.9-.22-1.6-.7-1.94-1.33-.33.69-1.04,1.21-1.96,1.44l-.3-.55c1.13-.25,1.91-.98,1.91-1.81v-.04h-1.74v-.54h1.74v-.87h.69v.87h1.74v.54h-1.74v.04c0,.79.78,1.46,1.89,1.71ZM23.09,12.03h.68v7.81h-.68v-7.81Z"/>
        <path class="cls-1" d="M24.85,12.91h1.99v-.96h.69v.96h1.99v.54h-4.66v-.54ZM27.18,13.86c1.12,0,1.87.54,1.88,1.38,0,.84-.76,1.38-1.88,1.38-1.13,0-1.89-.54-1.88-1.38,0-.83.75-1.38,1.88-1.38ZM28.47,17.12c1.59,0,2.56.5,2.56,1.35s-.97,1.34-2.56,1.34-2.56-.5-2.56-1.34c0-.85.96-1.35,2.56-1.35ZM27.18,16.09c.73,0,1.22-.33,1.23-.84,0-.51-.5-.85-1.23-.86-.74,0-1.23.35-1.22.86,0,.51.48.84,1.22.84ZM28.47,19.28c1.16,0,1.88-.3,1.87-.81,0-.52-.71-.81-1.87-.81s-1.88.29-1.87.81c0,.51.7.81,1.87.81ZM32.1,13.96h-1.16v1.08h1.16v.58h-1.16v1.44h-.69v-5.04h.69v1.37h1.16v.57Z"/>
        <path class="cls-1" d="M35.55,13.53h-2.25v1.55h1.89v.55h-1.89v1.76c1.12-.01,1.81-.06,2.65-.21l.06.56c-.91.18-1.64.21-2.88.21h-.49v-4.97h2.91v.55ZM35.62,14.99h1.15v-2.78h.66v7.22h-.66v-3.87h-1.15v-.57ZM38.36,12.02h.67v7.81h-.67v-7.81Z"/>
        <path class="cls-1" d="M39.85,18.2h7.15v.57h-7.15v-.57ZM46.63,15.96l-.32.58c-1.18-.27-2.42-1.11-2.93-2.26-.51,1.15-1.74,1.98-2.93,2.26l-.32-.58c1.35-.26,2.87-1.44,2.87-2.79v-.6h.72v.6c0,1.34,1.53,2.53,2.89,2.79Z"/>
        <path class="cls-1" d="M47.36,18.24h7.15v.57h-7.15v-.57ZM53.68,16.81h-5.41v-4.11h5.32v.58h-4.62v1.16h4.45v.55h-4.45v1.26h4.7v.56Z"/>
        <path class="cls-1" d="M61.49,17.46l-.42.55c-.86-.45-1.58-1.38-1.93-2.46-.35,1.15-1.08,2.14-1.96,2.61l-.44-.55c1.14-.56,2.05-2.06,2.06-3.49v-1.42h.68v1.42c0,1.38.91,2.79,2.02,3.34ZM62.21,12.02h.69v3.17h1.31v.6h-1.31v4.04h-.69v-7.81Z"/>
        <path class="cls-1" d="M69.18,16.07l-.35.55c-.91-.31-1.63-.95-1.99-1.78-.34.89-1.07,1.59-2,1.93l-.36-.55c1.17-.41,2-1.42,2-2.53v-.46h-1.83v-.56h4.32v.56h-1.8v.46c0,1.05.83,2,2,2.37ZM65.77,17.21h.69v1.87h4.61v.58h-5.29v-2.45ZM70.13,12.03h.69v5.73h-.69v-5.73Z"/>
        <path class="cls-1" d="M71.87,15.4h7.12v.56h-7.12v-.56ZM78.19,13.5c0,.89-1.02,1.37-2.76,1.37-1.74,0-2.77-.48-2.77-1.37s1.02-1.34,2.77-1.34,2.76.48,2.76,1.34ZM72.73,16.64h5.34v1.75h-4.64v.81h4.88v.54h-5.56v-1.86h4.65v-.71h-4.67v-.53ZM75.43,14.35c1.3,0,2.05-.3,2.06-.84,0-.51-.76-.82-2.06-.83-1.3,0-2.06.31-2.05.83,0,.54.75.84,2.05.84Z"/>
        <path class="cls-1" d="M83.38,14.34v-.94h-1.78v-.57h4.27v.57h-1.79v.94c0,1.3.94,2.72,2.07,3.23l-.41.55c-.89-.44-1.64-1.38-2-2.47-.35,1.16-1.12,2.17-2.02,2.63l-.42-.54c1.13-.55,2.08-2.02,2.08-3.41ZM87.84,19.85h-.69v-4.41h-1.71v-.57h1.71v-2.85h.69v7.83Z"/>
        <path class="cls-1" d="M93.44,15.81l-.32.54c-.9-.3-1.58-.92-1.92-1.71-.33.9-1.05,1.6-1.99,1.93l-.35-.55c1.17-.4,1.99-1.4,2-2.53v-.33h-1.79v-.57h4.22v.57h-1.76v.33c0,1.02.77,1.94,1.92,2.31ZM92.48,16.95c1.6,0,2.57.52,2.57,1.42s-.97,1.44-2.57,1.44-2.59-.53-2.59-1.44c0-.9.98-1.42,2.59-1.42ZM92.48,19.26c1.18,0,1.9-.33,1.91-.89,0-.54-.72-.87-1.91-.87s-1.91.33-1.9.87c0,.56.72.89,1.9.89ZM94.3,12.02h.69v2h1.18v.58h-1.18v2.14h-.69v-4.72Z"/>
        <path class="cls-1" d="M96.34,13.27h2.01v-1.16h.69v1.16h1.95v.57h-4.65v-.57ZM98.7,14.5c1.1,0,1.91.74,1.92,1.79,0,1.06-.81,1.79-1.92,1.79s-1.92-.73-1.92-1.79c0-1.05.8-1.79,1.92-1.79ZM98.7,17.49c.72,0,1.25-.49,1.26-1.2,0-.71-.54-1.22-1.26-1.21-.73,0-1.26.51-1.26,1.21,0,.71.53,1.21,1.26,1.2ZM102.43,15.24h1.31v.57h-1.31v4.02h-.69v-7.81h.69v3.23Z"/>
        <path class="cls-1" d="M107.85,17.44l-.4.54c-.76-.46-1.3-1.29-1.57-2.25-.29,1.04-.87,1.94-1.65,2.41l-.44-.52c1.08-.63,1.74-2.02,1.74-3.36v-1.51h.67v1.49c0,1.24.61,2.58,1.64,3.2ZM106.99,14.82h1.33v-2.64h.65v7.25h-.65v-4.03h-1.33v-.59ZM109.92,12.02h.67v7.81h-.67v-7.81Z"/>
        <path class="cls-1" d="M118.55,18.83h-7.15v-.58h1.78v-2.1c-.67-.35-1.07-.91-1.07-1.62,0-1.21,1.19-2,2.86-2.01,1.67,0,2.86.8,2.86,2.01,0,.7-.39,1.25-1.04,1.6v2.13h1.78v.58ZM114.96,15.98c1.27,0,2.19-.58,2.19-1.46s-.92-1.45-2.19-1.44c-1.28,0-2.19.57-2.19,1.44,0,.88.91,1.46,2.19,1.46ZM116.08,18.25v-1.86c-.34.09-.72.14-1.12.14s-.77-.04-1.11-.13v1.85h2.23Z"/>
        <path class="cls-1" d="M119.74,18.04c.31,0,.57.25.56.56,0,.31-.25.57-.56.57-.31,0-.57-.26-.56-.57,0-.31.25-.56.56-.56ZM120.11,17.33h-.74l-.06-4.57h.86l-.06,4.57Z"/>
      </g>
    </g>
  </g>
</svg>