<?xml version="1.0" encoding="UTF-8"?>
<svg id="Layer_2" data-name="Layer 2" xmlns="http://www.w3.org/2000/svg" viewBox="0 0 185.78 37.8">
  <defs>
    <style>
      .cls-1 {
        fill: #221f20;
      }
    </style>
  </defs>
  <g id="Layer_1-2" data-name="Layer 1">
    <g>
      <path class="cls-1" d="M2.11,2.1c.84-.4,1.07-1.17,1.51-1.17.22,0,.38.15.38.41,0,.31-.23.4-.67.5-.58.13-.8.21-1.14.42.96.58,1.82.32,1.82.91,0,.25-.17.41-.38.41-.44,0-.67-.77-1.51-1.17,0,1.03.29,1.3.29,1.68,0,.25-.19.42-.4.42s-.4-.17-.4-.42c0-.42.29-.62.29-1.68-.89.43-1.04,1.17-1.51,1.17-.22,0-.39-.15-.39-.41s.15-.39.67-.5c.47-.1.84-.22,1.14-.42-.32-.2-.68-.33-1.13-.42-.52-.1-.68-.23-.68-.5s.17-.41.39-.41c.46,0,.65.76,1.51,1.17,0-1.03-.29-1.28-.29-1.68,0-.25.19-.42.4-.42s.4.17.4.42c0,.44-.29.58-.29,1.68Z"/>
      <path class="cls-1" d="M9.38,2.1c.84-.4,1.07-1.17,1.51-1.17.22,0,.39.15.39.41,0,.31-.23.4-.67.5-.58.13-.8.21-1.14.42.96.58,1.82.32,1.82.91,0,.25-.17.41-.39.41-.44,0-.67-.77-1.51-1.17,0,1.03.29,1.3.29,1.68,0,.25-.19.42-.4.42s-.4-.17-.4-.42c0-.42.29-.62.29-1.68-.89.43-1.04,1.17-1.51,1.17-.22,0-.39-.15-.39-.41s.15-.39.67-.5c.47-.1.84-.22,1.14-.42-.32-.2-.68-.33-1.13-.42-.52-.1-.68-.23-.68-.5s.17-.41.39-.41c.46,0,.65.76,1.51,1.17,0-1.03-.29-1.28-.29-1.68,0-.25.19-.42.4-.42s.4.17.4.42c0,.44-.29.58-.29,1.68Z"/>
      <path class="cls-1" d="M16.65,2.1c.84-.4,1.07-1.17,1.51-1.17.22,0,.38.15.38.41,0,.31-.23.4-.67.5-.58.13-.8.21-1.14.42.96.58,1.81.32,1.81.91,0,.25-.16.41-.38.41-.44,0-.67-.77-1.51-1.17,0,1.03.29,1.3.29,1.68,0,.25-.19.42-.4.42s-.4-.17-.4-.42c0-.42.29-.62.29-1.68-.89.43-1.04,1.17-1.51,1.17-.22,0-.38-.15-.38-.41s.15-.39.67-.5c.47-.1.84-.22,1.14-.42-.32-.2-.68-.33-1.13-.42-.52-.1-.68-.23-.68-.5s.17-.41.38-.41c.46,0,.65.76,1.51,1.17,0-1.03-.29-1.28-.29-1.68,0-.25.19-.42.4-.42s.4.17.4.42c0,.44-.29.58-.29,1.68Z"/>
      <path class="cls-1" d="M23.92,2.1c.84-.4,1.07-1.17,1.51-1.17.22,0,.38.15.38.41,0,.31-.23.4-.67.5-.58.13-.8.21-1.14.42.96.58,1.81.32,1.81.91,0,.25-.16.41-.38.41-.44,0-.67-.77-1.51-1.17,0,1.03.29,1.3.29,1.68,0,.25-.19.42-.4.42s-.4-.17-.4-.42c0-.42.29-.62.29-1.68-.89.43-1.05,1.17-1.51,1.17-.22,0-.38-.15-.38-.41s.15-.39.67-.5c.47-.1.84-.22,1.14-.42-.32-.2-.68-.33-1.13-.42-.52-.1-.68-.23-.68-.5s.16-.41.38-.41c.46,0,.65.76,1.51,1.17,0-1.03-.29-1.28-.29-1.68,0-.25.19-.42.4-.42s.4.17.4.42c0,.44-.29.58-.29,1.68Z"/>
      <path class="cls-1" d="M31.2,2.1c.84-.4,1.07-1.17,1.51-1.17.22,0,.38.15.38.41,0,.31-.23.4-.67.5-.58.13-.8.21-1.14.42.96.58,1.82.32,1.82.91,0,.25-.17.41-.38.41-.44,0-.67-.77-1.51-1.17,0,1.03.29,1.3.29,1.68,0,.25-.19.42-.4.42s-.4-.17-.4-.42c0-.42.29-.62.29-1.68-.89.43-1.04,1.17-1.51,1.17-.22,0-.39-.15-.39-.41s.15-.39.67-.5c.47-.1.84-.22,1.14-.42-.32-.2-.68-.33-1.13-.42-.52-.1-.68-.23-.68-.5s.17-.41.39-.41c.46,0,.65.76,1.51,1.17,0-1.03-.29-1.28-.29-1.68,0-.25.19-.42.4-.42s.4.17.4.42c0,.44-.29.58-.29,1.68Z"/>
      <path class="cls-1" d="M38.47,2.1c.84-.4,1.07-1.17,1.51-1.17.22,0,.39.15.39.41,0,.31-.23.4-.67.5-.58.13-.8.21-1.14.42.96.58,1.82.32,1.82.91,0,.25-.17.41-.39.41-.44,0-.67-.77-1.51-1.17,0,1.03.29,1.3.29,1.68,0,.25-.19.42-.4.42s-.4-.17-.4-.42c0-.42.29-.62.29-1.68-.89.43-1.04,1.17-1.51,1.17-.22,0-.39-.15-.39-.41s.15-.39.67-.5c.47-.1.84-.22,1.14-.42-.32-.2-.68-.33-1.13-.42-.52-.1-.68-.23-.68-.5s.17-.41.39-.41c.46,0,.65.76,1.51,1.17,0-1.03-.29-1.28-.29-1.68,0-.25.19-.42.4-.42s.4.17.4.42c0,.44-.29.58-.29,1.68Z"/>
      <path class="cls-1" d="M45.74,2.1c.84-.4,1.07-1.17,1.51-1.17.22,0,.38.15.38.41,0,.31-.23.4-.67.5-.58.13-.8.21-1.14.42.96.58,1.81.32,1.81.91,0,.25-.16.41-.38.41-.44,0-.67-.77-1.51-1.17,0,1.03.29,1.3.29,1.68,0,.25-.19.42-.4.42s-.4-.17-.4-.42c0-.42.29-.62.29-1.68-.89.43-1.04,1.17-1.51,1.17-.22,0-.38-.15-.38-.41s.15-.39.67-.5c.47-.1.84-.22,1.14-.42-.32-.2-.68-.33-1.13-.42-.52-.1-.68-.23-.68-.5s.17-.41.38-.41c.46,0,.65.76,1.51,1.17,0-1.03-.29-1.28-.29-1.68,0-.25.19-.42.4-.42s.4.17.4.42c0,.44-.29.58-.29,1.68Z"/>
      <path class="cls-1" d="M53.01,2.1c.84-.4,1.07-1.17,1.51-1.17.22,0,.38.15.38.41,0,.31-.23.4-.67.5-.58.13-.8.21-1.14.42.96.58,1.81.32,1.81.91,0,.25-.16.41-.38.41-.44,0-.67-.77-1.51-1.17,0,1.03.29,1.3.29,1.68,0,.25-.19.42-.4.42s-.4-.17-.4-.42c0-.42.29-.62.29-1.68-.89.43-1.05,1.17-1.51,1.17-.22,0-.38-.15-.38-.41s.15-.39.67-.5c.47-.1.84-.22,1.14-.42-.32-.2-.68-.33-1.13-.42-.52-.1-.68-.23-.68-.5s.16-.41.38-.41c.46,0,.65.76,1.51,1.17,0-1.03-.29-1.28-.29-1.68,0-.25.19-.42.4-.42s.4.17.4.42c0,.44-.29.58-.29,1.68Z"/>
      <path class="cls-1" d="M60.28,2.1c.84-.4,1.07-1.17,1.51-1.17.22,0,.38.15.38.41,0,.31-.23.4-.67.5-.58.13-.8.21-1.14.42.96.58,1.82.32,1.82.91,0,.25-.17.41-.38.41-.44,0-.67-.77-1.51-1.17,0,1.03.29,1.3.29,1.68,0,.25-.19.42-.4.42s-.4-.17-.4-.42c0-.42.29-.62.29-1.68-.89.43-1.04,1.17-1.51,1.17-.22,0-.39-.15-.39-.41s.15-.39.67-.5c.47-.1.84-.22,1.14-.42-.32-.2-.68-.33-1.13-.42-.52-.1-.68-.23-.68-.5s.17-.41.39-.41c.46,0,.65.76,1.51,1.17,0-1.03-.29-1.28-.29-1.68,0-.25.19-.42.4-.42s.4.17.4.42c0,.44-.29.58-.29,1.68Z"/>
      <path class="cls-1" d="M67.55,2.1c.84-.4,1.07-1.17,1.51-1.17.22,0,.39.15.39.41,0,.31-.23.4-.67.5-.58.13-.8.21-1.14.42.96.58,1.82.32,1.82.91,0,.25-.17.41-.39.41-.44,0-.67-.77-1.51-1.17,0,1.03.29,1.3.29,1.68,0,.25-.19.42-.4.42s-.4-.17-.4-.42c0-.42.29-.62.29-1.68-.89.43-1.04,1.17-1.51,1.17-.22,0-.39-.15-.39-.41s.15-.39.67-.5c.47-.1.84-.22,1.14-.42-.32-.2-.68-.33-1.13-.42-.52-.1-.68-.23-.68-.5s.17-.41.39-.41c.46,0,.65.76,1.51,1.17,0-1.03-.29-1.28-.29-1.68,0-.25.19-.42.4-.42s.4.17.4.42c0,.44-.29.58-.29,1.68Z"/>
      <path class="cls-1" d="M74.82,2.1c.84-.4,1.07-1.17,1.51-1.17.22,0,.39.15.39.41,0,.31-.23.4-.67.5-.58.13-.8.21-1.14.42.96.58,1.82.32,1.82.91,0,.25-.17.41-.39.41-.44,0-.67-.77-1.51-1.17,0,1.03.29,1.3.29,1.68,0,.25-.19.42-.4.42s-.39-.17-.39-.42c0-.42.29-.62.29-1.68-.89.43-1.04,1.17-1.51,1.17-.22,0-.38-.15-.38-.41s.15-.39.67-.5c.47-.1.84-.22,1.14-.42-.32-.2-.68-.33-1.13-.42-.52-.1-.68-.23-.68-.5s.17-.41.38-.41c.46,0,.65.76,1.51,1.17,0-1.03-.29-1.28-.29-1.68,0-.25.19-.42.39-.42s.4.17.4.42c0,.44-.29.58-.29,1.68Z"/>
      <path class="cls-1" d="M82.09,2.1c.84-.4,1.07-1.17,1.51-1.17.22,0,.38.15.38.41,0,.31-.23.4-.67.5-.58.13-.8.21-1.14.42.96.58,1.81.32,1.81.91,0,.25-.16.41-.38.41-.44,0-.67-.77-1.51-1.17,0,1.03.29,1.3.29,1.68,0,.25-.19.42-.4.42s-.4-.17-.4-.42c0-.42.29-.62.29-1.68-.89.43-1.04,1.17-1.51,1.17-.22,0-.38-.15-.38-.41s.15-.39.67-.5c.47-.1.84-.22,1.14-.42-.32-.2-.68-.33-1.13-.42-.52-.1-.68-.23-.68-.5s.16-.41.38-.41c.46,0,.65.76,1.51,1.17,0-1.03-.29-1.28-.29-1.68,0-.25.19-.42.4-.42s.4.17.4.42c0,.44-.29.58-.29,1.68Z"/>
      <path class="cls-1" d="M89.36,2.1c.84-.4,1.07-1.17,1.51-1.17.22,0,.38.15.38.41,0,.31-.23.4-.67.5-.58.13-.8.21-1.14.42.96.58,1.81.32,1.81.91,0,.25-.16.41-.38.41-.44,0-.67-.77-1.51-1.17,0,1.03.29,1.3.29,1.68,0,.25-.19.42-.4.42s-.4-.17-.4-.42c0-.42.29-.62.29-1.68-.89.43-1.04,1.17-1.51,1.17-.22,0-.38-.15-.38-.41s.15-.39.67-.5c.47-.1.84-.22,1.14-.42-.32-.2-.68-.33-1.13-.42-.52-.1-.68-.23-.68-.5s.16-.41.38-.41c.46,0,.65.76,1.51,1.17,0-1.03-.29-1.28-.29-1.68,0-.25.19-.42.4-.42s.4.17.4.42c0,.44-.29.58-.29,1.68Z"/>
      <path class="cls-1" d="M96.64,2.1c.84-.4,1.07-1.17,1.51-1.17.22,0,.39.15.39.41,0,.31-.23.4-.67.5-.58.13-.8.21-1.14.42.96.58,1.82.32,1.82.91,0,.25-.17.41-.39.41-.44,0-.67-.77-1.51-1.17,0,1.03.29,1.3.29,1.68,0,.25-.19.42-.4.42s-.39-.17-.39-.42c0-.42.29-.62.29-1.68-.89.43-1.04,1.17-1.51,1.17-.22,0-.38-.15-.38-.41s.15-.39.67-.5c.47-.1.84-.22,1.14-.42-.32-.2-.68-.33-1.13-.42-.52-.1-.68-.23-.68-.5s.17-.41.38-.41c.46,0,.65.76,1.51,1.17,0-1.03-.29-1.28-.29-1.68,0-.25.19-.42.39-.42s.4.17.4.42c0,.44-.29.58-.29,1.68Z"/>
      <path class="cls-1" d="M103.91,2.1c.84-.4,1.07-1.17,1.51-1.17.22,0,.39.15.39.41,0,.31-.23.4-.67.5-.58.13-.8.21-1.14.42.96.58,1.82.32,1.82.91,0,.25-.17.41-.39.41-.44,0-.67-.77-1.51-1.17,0,1.03.29,1.3.29,1.68,0,.25-.19.42-.4.42s-.39-.17-.39-.42c0-.42.29-.62.29-1.68-.89.43-1.04,1.17-1.51,1.17-.22,0-.38-.15-.38-.41s.15-.39.67-.5c.47-.1.84-.22,1.14-.42-.32-.2-.68-.33-1.13-.42-.52-.1-.68-.23-.68-.5s.17-.41.38-.41c.46,0,.65.76,1.51,1.17,0-1.03-.29-1.28-.29-1.68,0-.25.19-.42.39-.42s.4.17.4.42c0,.44-.29.58-.29,1.68Z"/>
      <path class="cls-1" d="M111.18,2.1c.84-.4,1.07-1.17,1.51-1.17.22,0,.38.15.38.41,0,.31-.23.4-.67.5-.58.13-.8.21-1.14.42.96.58,1.81.32,1.81.91,0,.25-.16.41-.38.41-.44,0-.67-.77-1.51-1.17,0,1.03.29,1.3.29,1.68,0,.25-.19.42-.4.42s-.4-.17-.4-.42c0-.42.29-.62.29-1.68-.89.43-1.04,1.17-1.51,1.17-.22,0-.38-.15-.38-.41s.15-.39.67-.5c.47-.1.84-.22,1.14-.42-.32-.2-.68-.33-1.13-.42-.52-.1-.68-.23-.68-.5s.16-.41.38-.41c.46,0,.65.76,1.51,1.17,0-1.03-.29-1.28-.29-1.68,0-.25.19-.42.4-.42s.4.17.4.42c0,.44-.29.58-.29,1.68Z"/>
      <path class="cls-1" d="M118.45,2.1c.84-.4,1.07-1.17,1.51-1.17.22,0,.38.15.38.41,0,.31-.23.4-.67.5-.58.13-.8.21-1.14.42.96.58,1.81.32,1.81.91,0,.25-.16.41-.38.41-.44,0-.67-.77-1.51-1.17,0,1.03.29,1.3.29,1.68,0,.25-.19.42-.4.42s-.4-.17-.4-.42c0-.42.29-.62.29-1.68-.89.43-1.04,1.17-1.51,1.17-.22,0-.38-.15-.38-.41s.15-.39.67-.5c.47-.1.84-.22,1.14-.42-.32-.2-.68-.33-1.13-.42-.52-.1-.68-.23-.68-.5s.16-.41.38-.41c.46,0,.65.76,1.51,1.17,0-1.03-.29-1.28-.29-1.68,0-.25.19-.42.4-.42s.4.17.4.42c0,.44-.29.58-.29,1.68Z"/>
      <path class="cls-1" d="M125.72,2.1c.84-.4,1.07-1.17,1.51-1.17.22,0,.39.15.39.41,0,.31-.23.4-.67.5-.58.13-.8.21-1.14.42.96.58,1.82.32,1.82.91,0,.25-.17.41-.39.41-.44,0-.67-.77-1.51-1.17,0,1.03.29,1.3.29,1.68,0,.25-.19.42-.4.42s-.39-.17-.39-.42c0-.42.29-.62.29-1.68-.89.43-1.04,1.17-1.51,1.17-.22,0-.38-.15-.38-.41s.15-.39.67-.5c.47-.1.84-.22,1.14-.42-.32-.2-.68-.33-1.13-.42-.52-.1-.68-.23-.68-.5s.17-.41.38-.41c.46,0,.65.76,1.51,1.17,0-1.03-.29-1.28-.29-1.68,0-.25.19-.42.39-.42s.4.17.4.42c0,.44-.29.58-.29,1.68Z"/>
      <path class="cls-1" d="M132.99,2.1c.84-.4,1.07-1.17,1.51-1.17.22,0,.39.15.39.41,0,.31-.23.4-.67.5-.58.13-.8.21-1.14.42.96.58,1.82.32,1.82.91,0,.25-.17.41-.39.41-.44,0-.67-.77-1.51-1.17,0,1.03.29,1.3.29,1.68,0,.25-.19.42-.4.42s-.39-.17-.39-.42c0-.42.29-.62.29-1.68-.89.43-1.04,1.17-1.51,1.17-.22,0-.38-.15-.38-.41s.15-.39.67-.5c.47-.1.84-.22,1.14-.42-.32-.2-.68-.33-1.13-.42-.52-.1-.68-.23-.68-.5s.17-.41.38-.41c.46,0,.65.76,1.51,1.17,0-1.03-.29-1.28-.29-1.68,0-.25.19-.42.39-.42s.4.17.4.42c0,.44-.29.58-.29,1.68Z"/>
      <path class="cls-1" d="M140.26,2.1c.84-.4,1.07-1.17,1.51-1.17.22,0,.38.15.38.41,0,.31-.23.4-.67.5-.58.13-.8.21-1.14.42.96.58,1.81.32,1.81.91,0,.25-.16.41-.38.41-.44,0-.67-.77-1.51-1.17,0,1.03.29,1.3.29,1.68,0,.25-.19.42-.4.42s-.4-.17-.4-.42c0-.42.29-.62.29-1.68-.89.43-1.04,1.17-1.51,1.17-.22,0-.38-.15-.38-.41s.15-.39.67-.5c.47-.1.84-.22,1.14-.42-.32-.2-.68-.33-1.13-.42-.52-.1-.68-.23-.68-.5s.16-.41.38-.41c.46,0,.65.76,1.51,1.17,0-1.03-.29-1.28-.29-1.68,0-.25.19-.42.4-.42s.4.17.4.42c0,.44-.29.58-.29,1.68Z"/>
      <path class="cls-1" d="M147.53,2.1c.84-.4,1.07-1.17,1.51-1.17.22,0,.38.15.38.41,0,.31-.23.4-.67.5-.58.13-.8.21-1.14.42.96.58,1.81.32,1.81.91,0,.25-.16.41-.38.41-.44,0-.67-.77-1.51-1.17,0,1.03.29,1.3.29,1.68,0,.25-.19.42-.4.42s-.4-.17-.4-.42c0-.42.29-.62.29-1.68-.89.43-1.04,1.17-1.51,1.17-.22,0-.38-.15-.38-.41s.15-.39.67-.5c.47-.1.84-.22,1.14-.42-.32-.2-.68-.33-1.13-.42-.52-.1-.68-.23-.68-.5s.16-.41.38-.41c.46,0,.65.76,1.51,1.17,0-1.03-.29-1.28-.29-1.68,0-.25.19-.42.4-.42s.4.17.4.42c0,.44-.29.58-.29,1.68Z"/>
      <path class="cls-1" d="M154.8,2.1c.84-.4,1.07-1.17,1.51-1.17.22,0,.39.15.39.41,0,.31-.23.4-.67.5-.58.13-.8.21-1.14.42.96.58,1.82.32,1.82.91,0,.25-.17.41-.39.41-.44,0-.67-.77-1.51-1.17,0,1.03.29,1.3.29,1.68,0,.25-.19.42-.4.42s-.39-.17-.39-.42c0-.42.29-.62.29-1.68-.89.43-1.04,1.17-1.51,1.17-.22,0-.38-.15-.38-.41s.15-.39.67-.5c.47-.1.84-.22,1.14-.42-.32-.2-.68-.33-1.13-.42-.52-.1-.68-.23-.68-.5s.17-.41.38-.41c.46,0,.65.76,1.51,1.17,0-1.03-.29-1.28-.29-1.68,0-.25.19-.42.39-.42s.4.17.4.42c0,.44-.29.58-.29,1.68Z"/>
      <path class="cls-1" d="M162.08,2.1c.84-.4,1.07-1.17,1.51-1.17.22,0,.39.15.39.41,0,.31-.23.4-.67.5-.58.13-.8.21-1.14.42.96.58,1.82.32,1.82.91,0,.25-.17.41-.39.41-.44,0-.67-.77-1.51-1.17,0,1.03.29,1.3.29,1.68,0,.25-.19.42-.4.42s-.39-.17-.39-.42c0-.42.29-.62.29-1.68-.89.43-1.04,1.17-1.51,1.17-.22,0-.38-.15-.38-.41s.15-.39.67-.5c.47-.1.84-.22,1.14-.42-.32-.2-.68-.33-1.13-.42-.52-.1-.68-.23-.68-.5s.17-.41.38-.41c.46,0,.65.76,1.51,1.17,0-1.03-.29-1.28-.29-1.68,0-.25.19-.42.39-.42s.4.17.4.42c0,.44-.29.58-.29,1.68Z"/>
      <path class="cls-1" d="M169.34,2.1c.84-.4,1.07-1.17,1.51-1.17.22,0,.38.15.38.41,0,.31-.23.4-.67.5-.58.13-.8.21-1.14.42.96.58,1.81.32,1.81.91,0,.25-.16.41-.38.41-.44,0-.67-.77-1.51-1.17,0,1.03.29,1.3.29,1.68,0,.25-.19.42-.4.42s-.4-.17-.4-.42c0-.42.29-.62.29-1.68-.89.43-1.04,1.17-1.51,1.17-.22,0-.38-.15-.38-.41s.15-.39.67-.5c.47-.1.84-.22,1.14-.42-.32-.2-.68-.33-1.13-.42-.52-.1-.68-.23-.68-.5s.16-.41.38-.41c.46,0,.65.76,1.51,1.17,0-1.03-.29-1.28-.29-1.68,0-.25.19-.42.4-.42s.4.17.4.42c0,.44-.29.58-.29,1.68Z"/>
      <path class="cls-1" d="M176.62,2.1c.84-.4,1.07-1.17,1.51-1.17.22,0,.38.15.38.41,0,.31-.23.4-.67.5-.58.13-.8.21-1.14.42.96.58,1.81.32,1.81.91,0,.25-.16.41-.38.41-.44,0-.67-.77-1.51-1.17,0,1.03.29,1.3.29,1.68,0,.25-.19.42-.4.42s-.4-.17-.4-.42c0-.42.29-.62.29-1.68-.89.43-1.04,1.17-1.51,1.17-.22,0-.38-.15-.38-.41s.15-.39.67-.5c.47-.1.84-.22,1.14-.42-.32-.2-.68-.33-1.13-.42-.52-.1-.68-.23-.68-.5s.16-.41.38-.41c.46,0,.65.76,1.51,1.17,0-1.03-.29-1.28-.29-1.68,0-.25.19-.42.4-.42s.4.17.4.42c0,.44-.29.58-.29,1.68Z"/>
      <path class="cls-1" d="M183.89,2.1c.84-.4,1.07-1.17,1.51-1.17.22,0,.39.15.39.41,0,.31-.23.4-.67.5-.58.13-.8.21-1.14.42.96.58,1.82.32,1.82.91,0,.25-.17.41-.39.41-.44,0-.67-.77-1.51-1.17,0,1.03.29,1.3.29,1.68,0,.25-.19.42-.4.42s-.39-.17-.39-.42c0-.42.29-.62.29-1.68-.89.43-1.04,1.17-1.51,1.17-.22,0-.38-.15-.38-.41s.15-.39.67-.5c.47-.1.84-.22,1.14-.42-.32-.2-.68-.33-1.13-.42-.52-.1-.68-.23-.68-.5s.17-.41.38-.41c.46,0,.65.76,1.51,1.17,0-1.03-.29-1.28-.29-1.68,0-.25.19-.42.39-.42s.4.17.4.42c0,.44-.29.58-.29,1.68Z"/>
    </g>
    <g>
      <path class="cls-1" d="M17.81,18.52c1.17,0,2.04.79,2.05,1.92,0,1.14-.88,1.93-2.05,1.92-1.17,0-2.05-.79-2.05-1.92,0-1.12.88-1.91,2.05-1.92ZM17.81,21.75c.78,0,1.37-.54,1.37-1.32s-.59-1.31-1.37-1.31-1.38.54-1.37,1.31c0,.78.58,1.32,1.37,1.32ZM16.98,23.11h.69v1.92h4.61v.58h-5.29v-2.5ZM22.02,23.69h-.69v-5.71h.69v5.71Z"/>
      <path class="cls-1" d="M23.08,24.14h7.15v.57h-7.15v-.57ZM29.87,21.9l-.32.58c-1.18-.27-2.42-1.11-2.93-2.26-.51,1.15-1.74,1.98-2.93,2.26l-.32-.58c1.35-.26,2.87-1.44,2.87-2.79v-.6h.72v.6c0,1.34,1.53,2.53,2.89,2.79Z"/>
      <path class="cls-1" d="M34.6,19.26h-2.97v1.62h2.79v.56h-2.79v1.89c1.41,0,2.4-.05,3.57-.25l.08.57c-1.22.21-2.25.25-3.73.25h-.62v-5.22h3.67v.58ZM35.95,17.97h.69v3.15h1.31v.59h-1.31v4.08h-.69v-7.81Z"/>
      <path class="cls-1" d="M38.1,24.06h7.12v.57h-7.12v-.57ZM44.26,19.58c0,.98,0,2.1-.29,3.8l-.7-.07c.32-1.6.32-2.77.32-3.73v-.21h-4.71v-.57h5.39v.78Z"/>
      <path class="cls-1" d="M45.95,18.48h2.96v2.13h-2.28v1.12c1.03,0,1.82-.05,2.74-.24l.08.56c-1.02.19-1.85.22-2.98.22h-.51v-2.21h2.29v-1.03h-2.3v-.56ZM47.08,23h5.16v2.67h-5.16v-2.67ZM51.57,25.11v-1.55h-3.81v1.55h3.81ZM52.24,22.63h-.66v-2.1h-1.1v2h-.64v-4.4h.64v1.84h1.1v-1.99h.66v4.66Z"/>
      <path class="cls-1" d="M54.89,18.63c.95,0,1.59.92,1.68,2.39h1.01v-2.88h.66v7.25h-.66v-3.8h-1.01c-.07,1.52-.72,2.47-1.68,2.47-1.01,0-1.67-1.05-1.68-2.72,0-1.66.66-2.71,1.68-2.72ZM54.89,23.4c.64,0,1.04-.79,1.04-2.06,0-1.27-.4-2.07-1.04-2.07s-1.04.79-1.03,2.07c0,1.27.4,2.07,1.03,2.06ZM59.81,25.78h-.67v-7.81h.67v7.81Z"/>
      <path class="cls-1" d="M65.41,23.42l-.41.56c-.89-.46-1.62-1.39-1.97-2.5-.35,1.17-1.08,2.17-1.97,2.64l-.45-.55c1.15-.56,2.05-2.07,2.06-3.51v-1.42h.7v1.42c0,1.42.91,2.84,2.04,3.36ZM64.56,20.64h1.85v-2.67h.69v7.83h-.69v-4.6h-1.85v-.56Z"/>
      <path class="cls-1" d="M72.04,22.38c0-1.13.65-1.84,1.53-1.85.63,0,.89.41,1,.61h.04v-.54h.67v2.57c.01.34.15.51.44.51.54,0,.91-.63.91-1.55,0-1.66-1.19-2.74-2.87-2.74-1.74,0-2.86,1.35-2.87,2.99,0,1.79.98,3.01,2.83,3,.62,0,1.02-.05,1.56-.19v.6c-.46.12-.98.2-1.56.2-2.15,0-3.47-1.38-3.46-3.6,0-2.08,1.45-3.59,3.5-3.59s3.52,1.43,3.51,3.32c0,1.37-.7,2.16-1.59,2.16-.55,0-.97-.31-1.01-.72h-.06c-.1.2-.37.68-1.05.69-.88,0-1.52-.71-1.52-1.85ZM73.67,23.59c.63,0,.94-.49.95-1.22,0-.71-.32-1.19-.95-1.2-.62,0-.95.52-.95,1.2,0,.69.34,1.22.95,1.22Z"/>
      <path class="cls-1" d="M77.83,22.72c0-1.47.87-2.49,2.16-2.49,1,0,2.06.62,2.06,2.38v.32h-3.46c.04,1.01.63,1.56,1.48,1.56.57,0,.93-.25,1.11-.54h.81c-.22.72-.93,1.22-1.92,1.21-1.38,0-2.23-.98-2.23-2.44ZM81.28,22.29c0-.8-.5-1.39-1.29-1.39-.83,0-1.35.65-1.4,1.39h2.69Z"/>
      <path class="cls-1" d="M86.06,25.76h-3.98v-.69h3.98v.69Z"/>
      <path class="cls-1" d="M86.72,20.29h.73v.75h.06c.2-.51.66-.81,1.28-.81s1.05.3,1.27.81h.05c.24-.49.75-.81,1.43-.81.85,0,1.46.52,1.46,1.64v3.19h-.76v-3.18c0-.7-.44-.98-.97-.98-.66,0-1.04.45-1.05,1.05v3.1h-.76v-3.26c0-.54-.38-.9-.93-.9s-1.07.48-1.07,1.18v2.98h-.76v-4.77Z"/>
      <path class="cls-1" d="M95.52,22.31c.31-.02,1.08-.07,1.29-.07v-.39c0-.61-.36-.96-1.08-.96-.6,0-.97.28-1.07.64h-.79c.1-.77.84-1.3,1.9-1.3.62,0,1.8.18,1.79,1.69v3.15h-.75v-.65h-.04c-.16.32-.59.76-1.42.76-.91,0-1.63-.54-1.63-1.47,0-1.09.97-1.34,1.79-1.41ZM95.48,24.5c.85,0,1.33-.57,1.33-1.17v-.48c-.22.01-.98.07-1.2.08-.69.04-1.12.29-1.12.81,0,.5.42.76,1,.76Z"/>
      <path class="cls-1" d="M98.5,20.29h.73v.73h.05c.17-.48.67-.8,1.23-.81.11,0,.31,0,.4.02v.76c-.06-.01-.26-.05-.46-.05-.69,0-1.2.47-1.2,1.12v3.01h-.76v-4.77Z"/>
      <path class="cls-1" d="M103.06,20.88c-.59,0-1.01.32-1.01.72,0,.32.26.53.82.67l.71.18c.85.2,1.27.63,1.27,1.29,0,.83-.68,1.44-1.87,1.43-1.07,0-1.71-.47-1.84-1.34h.79c.09.47.43.69,1.03.69.68,0,1.11-.28,1.11-.73,0-.34-.24-.56-.78-.69l-.72-.17c-.83-.19-1.27-.65-1.27-1.28,0-.82.72-1.41,1.77-1.41.99,0,1.61.53,1.71,1.3h-.74c-.11-.4-.41-.66-.97-.66Z"/>
      <path class="cls-1" d="M108.87,25.76h-3.98v-.69h3.98v.69Z"/>
      <path class="cls-1" d="M109.11,24.49l2.17-2.29c.75-.8,1.11-1.23,1.12-1.82,0-.66-.55-1.08-1.27-1.08-.76,0-1.24.48-1.24,1.2h-.75c0-1.12.86-1.88,2.01-1.88s1.97.78,1.98,1.77c0,.71-.33,1.27-1.46,2.43l-1.46,1.5v.05h3.03v.7h-4.13v-.58Z"/>
      <path class="cls-1" d="M113.99,21.89c0-2.07.82-3.27,2.22-3.27s2.22,1.2,2.22,3.27-.81,3.27-2.22,3.27-2.23-1.19-2.22-3.27ZM116.21,24.45c.92,0,1.46-.92,1.45-2.57,0-1.65-.54-2.58-1.45-2.58-.91,0-1.45.94-1.46,2.58,0,1.65.54,2.57,1.46,2.57Z"/>
      <path class="cls-1" d="M119.21,24.49l2.17-2.29c.75-.8,1.11-1.23,1.12-1.82,0-.66-.55-1.08-1.27-1.08-.76,0-1.24.48-1.24,1.2h-.75c0-1.12.86-1.88,2.01-1.88s1.97.78,1.98,1.77c0,.71-.33,1.27-1.46,2.43l-1.46,1.5v.05h3.03v.7h-4.13v-.58Z"/>
      <path class="cls-1" d="M124.24,23.47h.76c.06.57.61.99,1.3.99.83,0,1.42-.61,1.42-1.41s-.62-1.44-1.48-1.44c-.54,0-.95.16-1.19.57h-.76l.45-3.48h3.45v.7h-2.79l-.24,1.86h.06c.29-.22.71-.37,1.16-.37,1.21,0,2.11.9,2.11,2.14,0,1.23-.93,2.12-2.2,2.12-1.15,0-2.02-.71-2.07-1.69Z"/>
      <path class="cls-1" d="M138.18,22.14h-7.15v-.54h7.15v.54ZM131.89,22.76h5.4v1.66h-4.69v.75h4.95v.5h-5.64v-1.72h4.7v-.67h-4.71v-.52ZM131.94,18.2h5.33v1.62h-4.61v.69h4.75v.5h-5.44v-1.66h4.61v-.64h-4.63v-.5Z"/>
      <path class="cls-1" d="M143.95,19.43h-2.43v1.5h2.32v.55h-2.32v1.77c1.16,0,1.88-.04,2.73-.19l.06.57c-.92.18-1.67.21-2.95.21h-.5v-4.97h3.09v.56ZM144.82,18.13h.67v2.98h1.07v-3.15h.67v7.81h-.67v-4.1h-1.07v3.7h-.67v-7.25Z"/>
      <path class="cls-1" d="M148.04,24.06h7.12v.57h-7.12v-.57ZM154.21,19.58c0,.98,0,2.1-.29,3.8l-.7-.07c.32-1.6.32-2.77.32-3.73v-.21h-4.71v-.57h5.39v.78Z"/>
      <path class="cls-1" d="M155.51,19.22h2.01v-1.16h.69v1.16h1.95v.57h-4.65v-.57ZM157.87,20.44c1.1,0,1.91.74,1.92,1.79,0,1.06-.81,1.79-1.92,1.79s-1.92-.73-1.92-1.79c0-1.05.8-1.79,1.92-1.79ZM157.87,23.44c.72,0,1.25-.49,1.26-1.2,0-.71-.54-1.22-1.26-1.21-.73,0-1.26.5-1.26,1.21,0,.71.53,1.21,1.26,1.2ZM161.6,21.19h1.31v.57h-1.31v4.02h-.69v-7.81h.69v3.23Z"/>
      <path class="cls-1" d="M163.06,24.1h2.79v-2.79h.68v2.79h3.65v.57h-7.12v-.57ZM169.33,19.54c0,.96,0,2.03-.29,3.6l-.7-.08c.29-1.49.29-2.59.3-3.52v-.21h-4.82v-.57h5.51v.78Z"/>
      <path class="cls-1" d="M30.1,30.74h.69v4.47c1.14,0,2.31-.09,3.59-.36l.09.59c-1.35.27-2.56.35-3.74.35h-.62v-5.05ZM37.08,33.67h-1.27v4.11h-.69v-7.81h.69v3.12h1.27v.58Z"/>
      <path class="cls-1" d="M42.48,35.22l.05.51c-1.79.33-3.71.34-5.12.34l-.1-.59c1.44,0,3.43,0,5.16-.26ZM41.94,32.37c0,1.09-.87,1.83-2.1,1.84-1.23,0-2.11-.75-2.11-1.84,0-1.09.88-1.83,2.11-1.84,1.23,0,2.1.75,2.1,1.84ZM39.84,33.6c.83,0,1.43-.5,1.42-1.23,0-.73-.6-1.23-1.42-1.23s-1.44.5-1.43,1.23c0,.73.6,1.23,1.43,1.23ZM43,29.97h.69v7.83h-.69v-7.83Z"/>
      <path class="cls-1" d="M49.06,30.57c1.16,0,2,1.06,2,2.72,0,1.67-.83,2.72-2,2.72-1.16,0-1.99-1.05-2-2.72,0-1.66.83-2.72,2-2.72ZM49.06,35.4c.79,0,1.33-.83,1.33-2.1s-.54-2.11-1.33-2.11c-.78,0-1.33.84-1.33,2.11s.54,2.1,1.33,2.1ZM53.22,37.8h-.69v-7.83h.69v7.83Z"/>
      <path class="cls-1" d="M58.21,35.79h-3.6v-5.04h3.6v5.04ZM57.53,35.23v-3.92h-2.25v3.92h2.25ZM59.65,29.97h.69v3.12h1.31v.6h-1.31v4.1h-.69v-7.81Z"/>
      <path class="cls-1" d="M61.79,36.19h7.15v.57h-7.15v-.57ZM68.12,34.76h-5.41v-4.11h5.32v.58h-4.61v1.16h4.45v.55h-4.45v1.26h4.7v.56Z"/>
      <path class="cls-1" d="M75.16,34.04h-3.53v-3.47h3.53v3.47ZM74.68,35.02v-.24h.69v.24c0,1.13,1.26,1.95,2.65,2.18l-.28.54c-1.16-.22-2.23-.81-2.7-1.71-.48.9-1.56,1.49-2.72,1.71l-.27-.54c1.38-.23,2.64-1.05,2.64-2.18ZM74.47,33.47v-2.34h-2.17v2.34h2.17ZM76.71,29.97h.69v2.14h1.18v.58h-1.18v2.48h-.69v-5.2Z"/>
      <path class="cls-1" d="M85.98,34.12l.04.5c-.75.12-1.52.2-2.28.25v2.68h-.69v-2.65c-.79.03-1.54.04-2.2.04l-.1-.58c1.5,0,3.48-.01,5.21-.24ZM85.62,33.15l-.28.55c-.9-.22-1.59-.7-1.94-1.33-.33.69-1.04,1.21-1.96,1.44l-.3-.55c1.13-.25,1.91-.98,1.91-1.81v-.04h-1.74v-.54h1.74v-.87h.69v.87h1.74v.54h-1.74v.04c0,.79.78,1.46,1.89,1.71ZM86.55,29.97h.68v7.81h-.68v-7.81Z"/>
      <path class="cls-1" d="M88.31,30.86h1.99v-.96h.69v.96h1.99v.54h-4.66v-.54ZM90.64,31.81c1.12,0,1.87.54,1.88,1.38,0,.84-.76,1.38-1.88,1.38-1.13,0-1.89-.54-1.88-1.38,0-.83.75-1.38,1.88-1.38ZM91.94,35.06c1.59,0,2.56.5,2.56,1.35s-.97,1.34-2.56,1.34-2.56-.5-2.56-1.34c0-.85.96-1.35,2.56-1.35ZM90.64,34.04c.73,0,1.22-.33,1.23-.84,0-.51-.5-.85-1.23-.86-.74,0-1.23.35-1.22.86,0,.51.48.84,1.22.84ZM91.94,37.23c1.16,0,1.88-.3,1.87-.81,0-.52-.71-.81-1.87-.81s-1.88.29-1.87.81c0,.5.7.81,1.87.81ZM95.56,31.91h-1.16v1.08h1.16v.58h-1.16v1.44h-.69v-5.04h.69v1.37h1.16v.57Z"/>
      <path class="cls-1" d="M95.8,33.35h7.12v.56h-7.12v-.56ZM102.12,31.45c0,.89-1.02,1.37-2.76,1.37-1.74,0-2.77-.48-2.77-1.37s1.02-1.34,2.77-1.34,2.76.48,2.76,1.34ZM96.67,34.59h5.34v1.75h-4.64v.81h4.88v.54h-5.56v-1.86h4.65v-.71h-4.67v-.53ZM99.36,32.29c1.3,0,2.05-.3,2.06-.84,0-.51-.76-.82-2.06-.83-1.3,0-2.06.31-2.05.83,0,.54.75.84,2.05.84Z"/>
      <path class="cls-1" d="M105.31,33.61h2.94v-1.51h.68v1.51h3.49v.56h-7.11v-.56ZM111.58,36.34c0,.9-1.07,1.42-2.74,1.42s-2.74-.53-2.73-1.42c0-.91,1.06-1.43,2.73-1.43s2.74.53,2.74,1.43ZM106.15,30.37h5.36v.66c0,.63,0,1.27-.22,2.07l-.68-.08c.21-.8.21-1.38.21-2v-.1h-4.68v-.56ZM108.84,37.22c1.25,0,2.05-.33,2.06-.88,0-.56-.81-.9-2.06-.91-1.24,0-2.05.35-2.05.91,0,.54.8.88,2.05.88Z"/>
      <path class="cls-1" d="M119.96,34.99h-1.89v2.79h-.69v-2.79h-2v2.79h-.71v-2.79h-1.85v-.57h7.15v.57ZM116.36,30.28c1.64,0,2.75.66,2.75,1.71s-1.11,1.69-2.75,1.69c-1.64,0-2.75-.65-2.75-1.69,0-1.04,1.11-1.7,2.75-1.71ZM116.36,33.12c1.22,0,2.04-.44,2.05-1.13,0-.69-.83-1.14-2.05-1.14s-2.05.45-2.04,1.14c0,.69.82,1.13,2.04,1.13Z"/>
      <path class="cls-1" d="M124.22,31.88h-3.92v-.56h1.63v-1.12h.69v1.12h1.61v.56ZM122.26,32.41c.98,0,1.69.74,1.7,1.78,0,1.05-.71,1.79-1.7,1.79-.97,0-1.68-.74-1.68-1.79s.71-1.77,1.68-1.78ZM122.26,35.37c.62,0,1.08-.49,1.08-1.19s-.46-1.19-1.08-1.2c-.62,0-1.06.51-1.06,1.2s.44,1.19,1.06,1.19ZM124.63,30.16h.65v3.1h1.04v-3.3h.66v7.81h-.66v-3.95h-1.04v3.56h-.65v-7.23Z"/>
      <path class="cls-1" d="M129.82,34.42h7.12v.57h-3.23v2.79h-.68v-2.79h-3.21v-.57ZM136.51,33.21l-.25.54c-1.22-.21-2.41-.86-2.88-1.8-.47.94-1.67,1.59-2.87,1.8l-.27-.54c1.36-.2,2.75-1.09,2.75-2.14v-.05h-2.5v-.56h5.77v.56h-2.5v.05c0,1.05,1.39,1.93,2.75,2.14Z"/>
      <path class="cls-1" d="M141.29,35.39l-.4.54c-.76-.46-1.3-1.29-1.57-2.25-.29,1.04-.87,1.94-1.65,2.41l-.44-.52c1.08-.63,1.74-2.02,1.74-3.36v-1.51h.67v1.49c0,1.24.61,2.58,1.64,3.2ZM140.43,32.77h1.33v-2.64h.65v7.25h-.65v-4.03h-1.33v-.59ZM143.35,29.97h.67v7.81h-.67v-7.81Z"/>
      <path class="cls-1" d="M151.99,36.78h-7.15v-.58h1.78v-2.11c-.67-.35-1.07-.91-1.07-1.62,0-1.21,1.19-2,2.86-2.01,1.67,0,2.86.8,2.86,2.01,0,.7-.39,1.25-1.04,1.6v2.13h1.78v.58ZM148.39,33.93c1.27,0,2.19-.58,2.19-1.46s-.92-1.45-2.19-1.44c-1.28,0-2.19.57-2.19,1.44,0,.87.91,1.46,2.19,1.46ZM149.52,36.2v-1.86c-.34.09-.72.14-1.12.14s-.77-.04-1.11-.13v1.85h2.23Z"/>
      <path class="cls-1" d="M153.18,35.99c.31,0,.57.25.56.56,0,.31-.25.57-.56.57-.31,0-.57-.26-.56-.57,0-.31.25-.56.56-.56ZM153.54,35.27h-.74l-.06-4.57h.86l-.06,4.57Z"/>
    </g>
  </g>
</svg>