<?xml version="1.0" encoding="UTF-8"?>
<svg id="Layer_2" data-name="Layer 2" xmlns="http://www.w3.org/2000/svg" viewBox="0 0 187.5 280.8">
  <defs>
    <style>
      .cls-1 {
        fill: #221f20;
      }

      .cls-2 {
        fill: #fff;
      }
    </style>
  </defs>
  <g id="Layer_1-2" data-name="Layer 1">
    <g>
      <path class="cls-1" d="M6.69,171.56h-1.81c-.67-3.17-1.15-5.59-1.45-7.27-.14,1.05-.39,2.38-.72,4l-.66,3.27H0l1.82-8.24H.16v-1.67h6.2v1.67h-1.41l1.74,8.24ZM9.23,167.09v4.59h-1.95v-10.09h1.95v3.83h1.35v1.68h-1.35Z"/>
      <path class="cls-1" d="M11.21,163.51c.12-.68.47-1.18,1.06-1.51.58-.33,1.25-.5,1.99-.5.43,0,.85.07,1.24.2s.71.34.96.63h1.95v-.74h1.96v7.02h-1.96v-1.91h-2.17c-.28.31-.66.54-1.12.67-.47.13-.96.2-1.47.2-.7,0-1.31-.14-1.83-.43-.52-.29-.78-.76-.78-1.41,0-.72.06-1.46.19-2.22ZM20.35,171.94h-8.62v-3.77h1.95v2.1h6.66v1.67ZM13.42,163.31c-.18.11-.29.29-.34.55-.08.41-.12.88-.12,1.41,0,.25.07.42.22.52.14.1.35.14.62.14.28,0,.51-.05.68-.15.17-.1.28-.28.34-.54.1-.43.14-.88.14-1.35,0-.5-.28-.75-.85-.75-.28,0-.51.05-.69.16ZM16.76,165.01h1.64v-1h-1.54c-.02.2-.05.54-.1,1Z"/>
      <path class="cls-1" d="M21.63,171.68v-1.67h6.94v1.67h-6.94ZM22.09,164.71c0-.08.01-.21.01-.39.02-.34.04-.59.06-.75.06-.46.26-.83.59-1.13.33-.29.71-.51,1.16-.64.45-.13.91-.2,1.38-.2s.9.07,1.31.22.74.38,1,.7c.25.32.38.71.38,1.19,0,.51-.02,1.1-.05,1.78s-.08,1.2-.14,1.58c-.11.65-.46,1.11-1.06,1.38-.59.27-1.27.4-2.03.4-.7,0-1.32-.15-1.87-.44-.55-.29-.82-.76-.82-1.41v-.07c.03-1.01.06-1.75.08-2.22ZM24.46,163.46c-.19.13-.32.32-.39.58-.05.19-.08.55-.11,1.09s-.04,1-.04,1.38c0,.47.3.71.9.71.29,0,.53-.05.71-.14s.3-.27.37-.53c.08-.32.13-.67.14-1.03.02-.37.02-.84.02-1.42,0-.27-.09-.47-.26-.62s-.39-.22-.66-.22-.51.06-.69.19ZM29.15,171.68v-10.09h1.96v10.09h-1.96Z"/>
      <path class="cls-1" d="M38.85,171.94h-2.91l3.5-3.84h3.62l2.41,3.84h-2.32l-1.45-2.29h-.88l-1.98,2.29ZM41.66,161.6v5.71h-5.7v-5.71h5.7ZM39.71,163.26h-1.79v2.38h1.79v-2.38ZM44.77,165.12v2.38h-1.96v-5.91h1.96v1.87h1.36v1.67h-1.36Z"/>
      <path class="cls-1" d="M49.63,171.68v-1.67h9.75v1.67h-9.75ZM58.71,161.6l-.72,7.27h-2.06l.58-5.6h-6.23v-1.67h8.44Z"/>
      <path class="cls-1" d="M59.95,171.56v-9.96h4.53v1.67h-2.57v6.63h2.92v1.67h-4.88ZM67.76,165.44v-3.85h1.83v10.09h-1.83v-4.41h-.64v4.41h-1.83v-10.09h1.83v3.85h.64Z"/>
      <path class="cls-1" d="M74.34,168.59h-3.07v-4.34h6.36v-.98h-6.36v-1.67h8.3v4.31h-6.35v1h6.51v1.68h-3.2v1.42h3.77v1.67h-9.74v-1.67h3.78v-1.42Z"/>
    </g>
    <g>
      <path class="cls-1" d="M9.5,211.86h7.12v.57h-7.12v-.57ZM12.71,208.62v-.36h.71v.36c0,.99,1.42,1.86,2.79,2.05l-.27.55c-1.2-.19-2.38-.82-2.88-1.7-.5.9-1.69,1.51-2.89,1.7l-.26-.55c1.38-.19,2.79-1.04,2.79-2.05ZM15.75,215.87h-5.38v-2.57h5.38v2.57ZM15.07,215.31v-1.45h-4.02v1.45h4.02Z"/>
      <path class="cls-1" d="M17.01,211.86h7.12v.57h-7.12v-.57ZM20.22,208.62v-.36h.71v.36c0,.99,1.42,1.86,2.79,2.05l-.27.55c-1.2-.19-2.38-.82-2.87-1.7-.5.9-1.69,1.51-2.89,1.7l-.26-.55c1.38-.19,2.79-1.04,2.79-2.05ZM23.26,215.87h-5.38v-2.57h5.38v2.57ZM22.58,215.31v-1.45h-4.02v1.45h4.02Z"/>
      <path class="cls-1" d="M24.54,209.13h1.99v-.96h.69v.96h1.99v.56h-4.66v-.56ZM26.87,210.12c1.12,0,1.87.57,1.88,1.46,0,.88-.76,1.45-1.88,1.44-1.13,0-1.88-.56-1.88-1.44,0-.89.75-1.46,1.88-1.46ZM26.87,212.48c.73,0,1.22-.35,1.23-.9,0-.56-.5-.92-1.23-.91-.74,0-1.23.36-1.22.91,0,.55.48.91,1.22.9ZM25.74,213.56h.68v1.67h4.57v.58h-5.25v-2.25ZM30.63,210.75h1.18v.58h-1.18v2.7h-.69v-5.85h.69v2.58Z"/>
      <path class="cls-1" d="M34.26,208.55c1.19,0,2.04.73,2.05,1.79,0,1.06-.86,1.8-2.05,1.79-1.19,0-2.05-.73-2.05-1.79,0-1.07.86-1.8,2.05-1.79ZM34.26,211.56c.79,0,1.37-.51,1.37-1.22s-.58-1.22-1.37-1.21c-.8,0-1.38.5-1.37,1.21,0,.71.57,1.22,1.37,1.22ZM33.42,212.75h.69v.95h3.69v-.95h.69v3.12h-5.06v-3.12ZM37.79,215.31v-1.05h-3.69v1.05h3.69ZM38.48,212.35h-.69v-4.19h.69v4.19Z"/>
      <path class="cls-1" d="M46.65,212.85h-7.12v-.56h7.12v.56ZM43.1,208.44c1.68,0,2.75.57,2.76,1.55,0,.97-1.08,1.56-2.76,1.56s-2.77-.58-2.77-1.56,1.07-1.56,2.77-1.55ZM40.46,213.53h.69v1.7h4.71v.58h-5.4v-2.28ZM43.1,210.98c1.25,0,2.05-.37,2.06-.99,0-.61-.8-.99-2.06-.99s-2.06.38-2.06.99c0,.62.79.99,2.06.99Z"/>
      <path class="cls-1" d="M48.99,209.42h2.01v-1.16h.69v1.16h1.95v.57h-4.65v-.57ZM51.35,210.64c1.1,0,1.91.74,1.92,1.79,0,1.06-.81,1.79-1.92,1.79s-1.92-.73-1.92-1.79c0-1.05.8-1.79,1.92-1.79ZM51.35,213.64c.72,0,1.25-.49,1.26-1.2,0-.71-.54-1.22-1.26-1.21-.73,0-1.26.51-1.26,1.21,0,.71.53,1.21,1.26,1.2ZM55.08,211.39h1.31v.57h-1.31v4.02h-.69v-7.81h.69v3.23Z"/>
      <path class="cls-1" d="M56.53,212.92h7.15v.55h-3.25v2.52h-.69v-2.52h-3.22v-.55ZM62.82,210.51h-4.71v1.01h4.88v.57h-5.57v-2.13h4.7v-.92h-4.72v-.56h5.42v2.03Z"/>
      <path class="cls-1" d="M67.38,209.59h-2.91v-.58h3.61c0,2.21-1.04,4.23-3.59,5.48l-.39-.54c2.02-1,3.12-2.51,3.27-4.36ZM70.1,211.34h1.27v.58h-1.27v4.05h-.69v-7.81h.69v3.18Z"/>
      <path class="cls-1" d="M78.46,213.73l-.39.54c-.91-.41-1.7-1.31-2.06-2.4-.37,1.15-1.16,2.14-2.05,2.59l-.41-.54c1.12-.54,2.1-2.01,2.1-3.37v-1.02h-1.85v-.57h4.4v.57h-1.86v1.02c0,1.33.97,2.68,2.12,3.17ZM79.29,208.16h.69v7.81h-.69v-7.81Z"/>
      <path class="cls-1" d="M83.21,209.57h-1.8v-.56h1.8v-.9h.69v.9h1.78v.56h-1.79c.05.91.9,1.71,2.03,2.01l-.32.53c-.95-.26-1.69-.84-2.05-1.6-.34.82-1.09,1.45-2.04,1.74l-.33-.54c1.13-.33,1.96-1.16,2.01-2.14ZM82.43,212.68h5.08v1.81h-4.39v.84h4.67v.55h-5.34v-1.91h4.38v-.76h-4.39v-.54ZM87.51,212.31h-.69v-4.15h.69v4.15Z"/>
      <path class="cls-1" d="M90.8,208.93h1.64v.56h-1v2.45c.29,0,.68-.04,1.09-.15l.07.57c-.66.15-1.17.15-1.5.15h-.3v-3.59ZM92.03,213.29h.69v1.93h4.81v.58h-5.5v-2.51ZM92.84,208.93h1.71v.56h-1.06v2.45c.34,0,.74-.04,1.2-.16l.08.58c-.66.15-1.18.15-1.6.15h-.32v-3.59ZM95.75,210.46h.91v-2.29h.66v5.81h-.66v-2.95h-.91v2.7h-.65v-5.4h.65v2.14Z"/>
      <path class="cls-1" d="M104.73,213.73l-.4.54c-.88-.43-1.62-1.35-1.97-2.41-.36,1.15-1.14,2.16-2.02,2.61l-.42-.54c1.12-.55,2.09-2.03,2.1-3.37v-1.02h-1.82v-.57h4.25v.57h-1.76v1.02c0,1.25.9,2.63,2.03,3.17ZM105.41,208.16h.69v3.16h1.31v.59h-1.31v4.06h-.69v-7.81Z"/>
      <path class="cls-1" d="M113.77,209.08c0,.59,0,1.34-.2,2.37h1.14v.57h-7.15v-.57h5.32c.21-1.02.21-1.77.21-2.35h-4.62v-.56h5.31v.54ZM108.31,213.2h5.52v2.8h-.69v-2.25h-4.83v-.55Z"/>
      <path class="cls-1" d="M119.71,211.98l-.36.54c-.88-.32-1.56-.97-1.89-1.78-.34.9-1.06,1.62-1.99,1.96l-.36-.54c1.15-.41,1.99-1.45,1.99-2.56v-.34h-1.77v-.56h4.21v.56h-1.75v.33c0,1.02.78,1.99,1.92,2.38ZM116.29,213.26h5.26v2.72h-.69v-2.14h-4.56v-.57ZM119.29,210.21h1.56v-2.05h.69v4.68h-.69v-2.06h-1.56v-.58Z"/>
      <path class="cls-1" d="M124.81,208.72c1.17,0,2.04.79,2.05,1.92,0,1.14-.88,1.93-2.05,1.92-1.17,0-2.05-.79-2.05-1.92,0-1.12.88-1.91,2.05-1.92ZM124.81,211.95c.78,0,1.37-.54,1.37-1.32s-.59-1.31-1.37-1.31-1.38.54-1.37,1.31c0,.78.58,1.32,1.37,1.32ZM123.98,213.3h.69v1.92h4.61v.58h-5.29v-2.5ZM129.03,213.88h-.69v-5.71h.69v5.71Z"/>
      <path class="cls-1" d="M133.68,213.66v-2.4h.68v2.37c.87-.03,1.75-.09,2.57-.18l.04.52c-1.64.25-3.48.29-4.88.28l-.09-.57c.51,0,1.09,0,1.69-.02ZM136.4,209.44c0,.62,0,1.65-.23,3.1l-.69-.06c.22-1.31.23-2.26.23-2.88h-3.28v-.56h3.97v.4ZM137.42,208.16h.69v3.27h1.27v.6h-1.27v3.95h-.69v-7.81Z"/>
      <path class="cls-1" d="M144.26,213.73l-.4.54c-.88-.43-1.62-1.35-1.97-2.41-.36,1.15-1.14,2.16-2.02,2.61l-.42-.54c1.12-.55,2.09-2.03,2.1-3.37v-1.02h-1.82v-.57h4.25v.57h-1.76v1.02c0,1.25.9,2.63,2.03,3.17ZM144.94,208.16h.69v3.16h1.31v.59h-1.31v4.06h-.69v-7.81Z"/>
      <path class="cls-1" d="M154.24,214.97h-7.15v-.57h3.22v-1.69h-2.37v-4h.69v1.42h4.06v-1.42h.68v4h-2.38v1.69h3.26v.57ZM152.69,212.15v-1.46h-4.06v1.46h4.06Z"/>
      <path class="cls-1" d="M154.94,208.93h3.65v.57h-2.96v3.96c1.42,0,2.41-.07,3.58-.28l.09.6c-1.23.22-2.25.26-3.74.26h-.62v-5.11ZM160.64,211.26h1.31v.58h-1.31v4.16h-.69v-7.83h.69v3.09Z"/>
      <path class="cls-1" d="M9.87,222.7h3.46v.56h-2.78v2.3c1.57,0,2.46-.05,3.51-.25l.09.56c-1.1.22-2.03.27-3.67.26h-.61v-3.44ZM10.68,227h4.93v2.87h-4.93v-2.87ZM14.93,229.31v-1.74h-3.57v1.74h3.57ZM15.61,224.08h1.18v.58h-1.18v1.94h-.69v-4.44h.69v1.92Z"/>
      <path class="cls-1" d="M18.02,223.9h1.74v-1.24h.65v3.64h-3.04v-3.64h.65v1.24ZM19.76,225.73v-1.27h-1.74v1.27h1.74ZM18.38,227.33h5.26v2.65h-.68v-2.07h-4.59v-.57ZM21.3,222.32h.65v1.88h1.04v-2.03h.66v4.68h-.66v-2.08h-1.04v2.04h-.65v-4.49Z"/>
      <path class="cls-1" d="M24.54,223.13h1.99v-.96h.69v.96h1.99v.56h-4.66v-.56ZM26.87,224.12c1.12,0,1.87.57,1.88,1.46,0,.88-.76,1.45-1.88,1.44-1.13,0-1.88-.56-1.88-1.44,0-.89.75-1.46,1.88-1.46ZM26.87,226.48c.73,0,1.22-.35,1.23-.9,0-.56-.5-.92-1.23-.91-.74,0-1.23.36-1.22.91,0,.55.48.91,1.22.9ZM25.74,227.56h.68v1.67h4.57v.58h-5.25v-2.25ZM30.63,224.75h1.18v.58h-1.18v2.7h-.69v-5.85h.69v2.58Z"/>
      <path class="cls-1" d="M35.62,227.66v-2.4h.68v2.37c.87-.03,1.75-.09,2.57-.18l.04.52c-1.64.25-3.48.29-4.88.28l-.09-.57c.51,0,1.08,0,1.69-.02ZM38.35,223.44c0,.62,0,1.65-.23,3.1l-.7-.06c.22-1.31.23-2.26.23-2.88h-3.28v-.56h3.97v.4ZM39.36,222.16h.69v3.27h1.27v.6h-1.27v3.95h-.69v-7.81Z"/>
      <path class="cls-1" d="M46.2,227.73l-.4.54c-.88-.43-1.62-1.35-1.97-2.41-.36,1.15-1.14,2.16-2.02,2.61l-.42-.54c1.12-.55,2.09-2.03,2.1-3.37v-1.02h-1.82v-.57h4.25v.57h-1.76v1.02c0,1.25.9,2.63,2.03,3.17ZM46.89,222.16h.69v3.16h1.31v.59h-1.31v4.06h-.69v-7.81Z"/>
      <path class="cls-1" d="M56.19,229.01h-7.15v-.58h3.22v-1.48h-2.32v-2.41h4.68v-1.23h-4.69v-.57h5.37v2.36h-4.67v1.27h4.85v.57h-2.54v1.48h3.26v.58Z"/>
      <path class="cls-1" d="M65.68,226.66h-7.15v-.57h3.22v-1.2h.68v1.2h3.25v.57ZM61.74,222.65v-.37h.69v.37c0,1.04,1.41,1.91,2.79,2.1l-.28.55c-1.18-.21-2.36-.83-2.85-1.74-.49.91-1.67,1.53-2.87,1.74l-.26-.55c1.38-.19,2.78-1.06,2.78-2.1ZM59.32,227.43h5.45v2.55h-.69v-2h-4.76v-.55Z"/>
      <path class="cls-1" d="M66.04,225.55h7.12v.56h-7.12v-.56ZM72.36,223.65c0,.89-1.02,1.37-2.76,1.37-1.74,0-2.77-.48-2.77-1.37s1.02-1.34,2.77-1.34,2.76.48,2.76,1.34ZM66.9,226.78h5.34v1.75h-4.64v.81h4.88v.54h-5.56v-1.86h4.65v-.71h-4.67v-.53ZM69.6,224.49c1.3,0,2.05-.3,2.06-.84,0-.51-.76-.82-2.06-.83-1.3,0-2.06.31-2.05.83,0,.54.75.84,2.05.84Z"/>
      <path class="cls-1" d="M78.86,223.59h-2.91v-.58h3.61c0,2.21-1.04,4.23-3.59,5.48l-.39-.54c2.02-1,3.12-2.51,3.27-4.36ZM81.58,225.34h1.27v.58h-1.27v4.05h-.69v-7.81h.69v3.18Z"/>
      <path class="cls-1" d="M84.12,223.79h2.18v-1.22h.68v.78h1.85v-1.19h.7v4.27h-.7v-1.03h-1.85v.75h-3.54v-3.59h.69v1.22ZM86.3,225.58v-1.24h-2.18v1.24h2.18ZM84.48,226.81h.7v.96h3.65v-.96h.69v3.06h-5.03v-3.06ZM88.83,229.3v-.98h-3.65v.98h3.65ZM88.83,224.83v-.91h-1.85v.91h1.85Z"/>
      <path class="cls-1" d="M93.24,223.73h-2.35v-.57h3.03c0,.77-.12,1.51-.39,2.21h1.4v-3h.66v7.21h-.66v-3.65h-1.66c-.47.91-1.23,1.71-2.32,2.36l-.4-.5c1.7-1.01,2.55-2.42,2.68-4.05ZM97.24,229.98h-.66v-7.81h.66v7.81Z"/>
      <path class="cls-1" d="M103.88,223.18h-2.79v2.06c1.53,0,2.46-.05,3.52-.26l.09.55c-1.12.24-2.07.28-3.68.27h-.61v-3.18h3.47v.56ZM101.17,226.49h4.98v1.92h-4.29v.89h4.58v.56h-5.26v-2h4.28v-.82h-4.3v-.56ZM105.47,222.16h.69v1.66h1.18v.57h-1.18v1.71h-.69v-3.95Z"/>
      <path class="cls-1" d="M110.75,225.75h-2.26v1.78c.9,0,1.75-.04,2.76-.21l.06.56c-1.11.19-2,.23-2.98.23h-.51v-2.93h2.26v-1.58h-2.28v-.58h2.94v2.73ZM111.79,222.34h.63v2.92h1.15v-3.09h.66v7.81h-.66v-4.15h-1.15v3.74h-.63v-7.23Z"/>
      <path class="cls-1" d="M118.94,224.04h1.92v-1.88h.69v7.83h-.69v-3.23h-1.92v1.23h-3.56v-5.05h3.56v1.1ZM118.27,227.44v-3.96h-2.21v3.96h2.21ZM120.86,226.2v-1.58h-1.92v1.58h1.92Z"/>
      <path class="cls-1" d="M124.52,223.1h1.67v-.88h.69v.88h1.65v.55h-4.01v-.55ZM126.53,224.08c.99,0,1.67.52,1.68,1.34,0,.8-.69,1.33-1.68,1.33s-1.67-.52-1.67-1.33c0-.82.69-1.34,1.67-1.34ZM126.53,226.22c.62,0,1.05-.33,1.05-.81s-.43-.83-1.05-.83-1.05.33-1.05.83.43.81,1.05.81ZM128.62,227.24c1.64,0,2.62.49,2.63,1.37,0,.86-.98,1.34-2.63,1.34s-2.63-.49-2.62-1.34c0-.88.97-1.37,2.62-1.37ZM128.62,229.42c1.21,0,1.93-.3,1.94-.81,0-.54-.73-.83-1.94-.83-1.22,0-1.94.29-1.93.83,0,.51.72.81,1.93.81ZM131.2,227.11h-.66v-2.24h-1.05v1.96h-.65v-4.51h.65v1.98h1.05v-2.14h.66v4.95Z"/>
      <path class="cls-1" d="M139.19,226.78h-7.12v-.57h3.22v-.94h-2.27v-2.92h.69v.91h3.87v-.91h.69v2.92h-2.29v.94h3.22v.57ZM132.86,227.55h5.45v2.43h-.69v-1.87h-4.75v-.55ZM137.57,224.71v-.93h-3.87v.93h3.87Z"/>
      <path class="cls-1" d="M139.58,225.55h7.12v.56h-7.12v-.56ZM145.9,223.65c0,.89-1.02,1.37-2.76,1.37-1.75,0-2.77-.48-2.77-1.37s1.02-1.34,2.77-1.34,2.75.48,2.76,1.34ZM140.44,226.78h5.34v1.75h-4.64v.81h4.88v.54h-5.56v-1.86h4.65v-.71h-4.67v-.53ZM143.14,224.49c1.3,0,2.05-.3,2.06-.84,0-.51-.76-.82-2.06-.83-1.3,0-2.06.31-2.05.83,0,.54.75.84,2.05.84Z"/>
      <path class="cls-1" d="M153.08,227.66l-.4.52c-.78-.43-1.34-1.23-1.63-2.17-.28,1-.84,1.87-1.62,2.33l-.41-.51c1.05-.62,1.69-1.98,1.7-3.27v-.36h-1.51v-.57h1.51v-1.18h.66v1.18h1.49v.57h-1.5v.36c0,1.25.64,2.53,1.71,3.1ZM153.4,222.33h.66v3h1.06v-3.16h.67v7.81h-.67v-4.06h-1.06v3.67h-.66v-7.25Z"/>
      <path class="cls-1" d="M163.73,226.71h-3.17v1.6h-.69v-1.6h-3.29v-.57h7.15v.57ZM160.14,222.36c1.67,0,2.75.6,2.75,1.57s-1.08,1.56-2.75,1.56c-1.67,0-2.76-.59-2.76-1.56,0-.97,1.09-1.57,2.76-1.57ZM157.5,227.52h.69v1.7h4.74v.59h-5.43v-2.29ZM160.14,224.93c1.21,0,2.02-.39,2.02-.99s-.81-1.01-2.02-1.01c-1.22,0-2.03.39-2.02,1.01,0,.61.8.99,2.02.99Z"/>
      <path class="cls-1" d="M164.44,222.93h3.65v.57h-2.96v3.96c1.42,0,2.41-.07,3.58-.28l.09.6c-1.23.22-2.25.26-3.74.26h-.62v-5.11ZM170.14,225.26h1.31v.58h-1.31v4.16h-.69v-7.83h.69v3.09Z"/>
      <path class="cls-1" d="M171.87,228.74c0-.31.25-.56.56-.56s.57.25.56.56c0,.31-.25.57-.56.57-.31,0-.57-.26-.56-.57Z"/>
      <path class="cls-1" d="M11.57,236.99v-.6h.7v.6c0,1.1.83,2.08,1.99,2.46l-.34.54c-.92-.31-1.64-.97-2-1.81-.35.91-1.08,1.63-2.01,1.96l-.36-.54c1.18-.41,2.01-1.45,2.01-2.6ZM10.87,240.61h5.08v1.87h-4.38v.84h4.67v.56h-5.34v-1.94h4.38v-.78h-4.39v-.55ZM15.95,240.21h-.68v-4.05h.68v4.05Z"/>
      <path class="cls-1" d="M20.13,238.22c.12-.29.19-.6.21-.92h-2.77v-.57h3.5c0,2.02-1.09,3.52-3.57,4.32l-.28-.55c1.31-.42,2.17-1.02,2.65-1.77l-2.57.2-.12-.58,2.95-.13ZM20.61,241.13v-.27h.68v.27c0,1.14,1.25,1.99,2.63,2.25l-.29.55c-1.15-.23-2.21-.84-2.68-1.75-.47.92-1.54,1.54-2.71,1.76l-.28-.54c1.38-.24,2.65-1.11,2.65-2.27ZM23.49,241.55h-.69v-2.49h-1.71v-.57h1.71v-2.32h.69v5.38Z"/>
      <path class="cls-1" d="M26.88,236.75h3.59v1.38h1.83v-1.97h.69v4.61h-.69v-2.07h-1.83v1.54h-3.59v-3.49ZM29.79,239.69v-2.37h-2.22v2.37h2.22ZM32.99,243.99h-.69v-2.22h-4.56v-.55h5.26v2.78Z"/>
      <path class="cls-1" d="M34.02,242.3h2.79v-2.79h.68v2.79h3.65v.57h-7.12v-.57ZM40.28,237.73c0,.96,0,2.03-.29,3.6l-.7-.08c.29-1.49.29-2.59.3-3.52v-.21h-4.82v-.57h5.51v.78Z"/>
      <path class="cls-1" d="M45.58,237.23v-.76h.7v.76c0,1.09.84,2.05,2,2.43l-.33.54c-.92-.31-1.65-.97-2-1.81-.35.9-1.09,1.61-2.02,1.95l-.35-.54c1.18-.41,2.01-1.44,2.01-2.58ZM44.69,243.31h1.17v-1.77h-1.1v-.56h5.26v.56h-1.08v1.77h1.16v.56h-5.4v-.56ZM48.25,243.31v-1.77h-1.71v1.77h1.71ZM49.96,240.51h-.69v-4.34h.69v4.34Z"/>
      <path class="cls-1" d="M58.14,240.85h-7.12v-.56h7.12v.56ZM54.58,236.44c1.68,0,2.75.57,2.76,1.55,0,.97-1.08,1.56-2.76,1.56s-2.77-.58-2.77-1.56,1.07-1.56,2.77-1.55ZM51.94,241.53h.69v1.7h4.71v.58h-5.41v-2.28ZM54.58,238.98c1.25,0,2.05-.37,2.06-.99,0-.61-.8-.99-2.06-.99s-2.06.38-2.06.99c0,.62.8.99,2.06.99Z"/>
      <path class="cls-1" d="M64.45,241.99h-3.6v-5.04h3.6v5.04ZM63.76,241.43v-3.92h-2.25v3.92h2.25ZM65.88,236.16h.69v3.12h1.31v.6h-1.31v4.1h-.69v-7.81Z"/>
      <path class="cls-1" d="M68.03,239.96h7.12v.57h-7.12v-.57ZM74.35,237.82c0,.92-1.06,1.46-2.76,1.46-1.7,0-2.77-.54-2.77-1.46s1.07-1.49,2.77-1.49,2.76.55,2.76,1.49ZM68.9,241.3h5.38v2.57h-5.38v-2.57ZM71.59,238.74c1.25,0,2.05-.35,2.06-.91,0-.58-.8-.93-2.06-.93s-2.06.35-2.06.93c0,.57.79.91,2.06.91ZM73.6,243.31v-1.45h-4.02v1.45h4.02Z"/>
      <path class="cls-1" d="M82.65,240.85h-7.12v-.56h7.12v.56ZM79.09,236.44c1.68,0,2.75.57,2.76,1.55,0,.97-1.08,1.56-2.76,1.56s-2.77-.58-2.77-1.56,1.07-1.56,2.77-1.55ZM76.46,241.53h.69v1.7h4.71v.58h-5.41v-2.28ZM79.09,238.98c1.25,0,2.05-.37,2.06-.99,0-.61-.8-.99-2.06-.99s-2.06.38-2.06.99c0,.62.8.99,2.06.99Z"/>
      <path class="cls-1" d="M87.27,236.63c1.19,0,2.04.74,2.05,1.83,0,1.07-.86,1.81-2.05,1.81s-2.05-.74-2.05-1.81c0-1.09.86-1.83,2.05-1.83ZM88.79,243.25c.75-.46,1.14-1.24,1.14-1.85v-.43h.68v.43c0,.8.59,1.6,1.59,1.95l-.34.51c-.78-.28-1.33-.82-1.6-1.48-.24.63-.72,1.23-1.44,1.54-.76-.29-1.24-.86-1.48-1.52-.28.63-.82,1.17-1.56,1.45l-.35-.51c.99-.37,1.58-1.2,1.59-1.95v-.43h.67v.43c0,.69.37,1.42,1.11,1.85ZM87.27,239.69c.79,0,1.37-.51,1.37-1.24s-.58-1.25-1.37-1.24c-.8,0-1.38.51-1.37,1.24,0,.73.57,1.23,1.37,1.24ZM90.8,236.17h.69v4.46h-.69v-4.46Z"/>
      <path class="cls-1" d="M97.45,241.73l-.39.54c-.91-.41-1.7-1.31-2.07-2.4-.37,1.15-1.16,2.14-2.05,2.59l-.41-.54c1.12-.54,2.1-2.01,2.1-3.37v-1.02h-1.85v-.57h4.4v.57h-1.86v1.02c0,1.33.97,2.68,2.12,3.17ZM98.29,236.16h.69v7.81h-.69v-7.81Z"/>
      <path class="cls-1" d="M104,240.47h-3.61v-3.59h3.61v3.59ZM103.33,239.91v-2.48h-2.27v2.48h2.27ZM101.27,241.35h.68v1.88h4.57v.58h-5.25v-2.46ZM105.47,236.16h.69v2.38h1.18v.58h-1.18v2.77h-.69v-5.73Z"/>
      <path class="cls-1" d="M112.88,237.35h-2.81v-.58h3.57c0,2.01-1.45,3.54-3.67,4.26l-.3-.55c1.8-.59,3.05-1.72,3.21-3.13ZM111.05,241.36h.7v1.87h4.47v.58h-5.18v-2.45ZM116.02,241.94h-.69v-2.79h-1.73v-.58h1.73v-2.41h.69v5.77Z"/>
      <path class="cls-1" d="M120.29,237.31h-2.89v-.57h3.63c0,1.99-1.41,3.45-3.68,4.12l-.29-.56c1.89-.54,3.09-1.63,3.23-2.99ZM120.69,240.94c1.57,0,2.56.57,2.56,1.5s-.99,1.51-2.56,1.51-2.56-.56-2.56-1.51c0-.94,1-1.51,2.56-1.5ZM120.69,243.4c1.15,0,1.89-.37,1.89-.96s-.74-.95-1.89-.95c-1.15,0-1.88.36-1.87.95,0,.59.73.96,1.87.96ZM123.16,238.2h1.18v.57h-1.18v2.08h-.69v-4.69h.69v2.04Z"/>
      <path class="cls-1" d="M124.56,239.55h7.12v.56h-7.12v-.56ZM130.88,237.65c0,.89-1.02,1.37-2.76,1.37-1.74,0-2.77-.48-2.77-1.37s1.02-1.34,2.77-1.34,2.76.48,2.76,1.34ZM125.42,240.78h5.34v1.75h-4.64v.81h4.88v.54h-5.56v-1.86h4.65v-.71h-4.67v-.53ZM128.12,238.49c1.3,0,2.05-.3,2.06-.84,0-.51-.76-.82-2.06-.83-1.3,0-2.06.31-2.05.83,0,.54.75.84,2.05.84Z"/>
      <path class="cls-1" d="M138,239.84l-.36.53c-.75-.29-1.29-.85-1.57-1.52-.29.74-.85,1.41-1.62,1.74l-.38-.54c1.03-.45,1.66-1.46,1.66-2.33v-1.06h.66v1.06c0,.87.61,1.74,1.61,2.12ZM138.11,241.17c1.62,0,2.62.51,2.63,1.4,0,.87-1.01,1.39-2.63,1.39s-2.63-.51-2.62-1.39c0-.88.99-1.4,2.62-1.4ZM138.11,243.42c1.19,0,1.93-.32,1.94-.85,0-.54-.76-.87-1.94-.87-1.2,0-1.94.33-1.93.87,0,.53.73.86,1.93.85ZM138.35,236.32h.65v1.95h1.04v-2.1h.66v4.83h-.66v-2.15h-1.04v1.91h-.65v-4.43Z"/>
      <path class="cls-1" d="M144.8,237.23h-2.89v-.57h3.62c0,1.98-1.38,3.39-3.69,4l-.28-.54c1.92-.52,3.1-1.56,3.24-2.89ZM142.56,241.11h5.12v2.87h-.69v-2.3h-4.43v-.56ZM147.68,238.15h1.18v.59h-1.18v2.01h-.69v-4.59h.69v1.99Z"/>
      <path class="cls-1" d="M152.98,238.08h-3.92v-.56h1.63v-1.12h.69v1.12h1.61v.56ZM151.02,238.6c.98,0,1.69.74,1.7,1.78,0,1.05-.71,1.79-1.7,1.79-.97,0-1.68-.74-1.68-1.79s.71-1.77,1.68-1.78ZM151.02,241.57c.62,0,1.08-.49,1.08-1.19s-.46-1.19-1.08-1.2c-.62,0-1.06.51-1.06,1.2s.44,1.19,1.06,1.19ZM153.38,236.35h.65v3.1h1.04v-3.3h.66v7.81h-.66v-3.95h-1.04v3.56h-.65v-7.23Z"/>
      <path class="cls-1" d="M16.65,255.36h-3.26v2.61h-.68v-2.61h-3.22v-.56h7.15v.56ZM10.41,250.49h.69v1.08h3.94v-1.08h.69v3.37h-5.32v-3.37ZM15.03,253.29v-1.16h-3.94v1.16h3.94Z"/>
      <path class="cls-1" d="M17.38,250.7h3.46v.56h-2.78v2.3c1.57,0,2.46-.05,3.51-.25l.09.56c-1.1.22-2.03.27-3.67.26h-.61v-3.44ZM18.19,255h4.93v2.87h-4.93v-2.87ZM22.43,257.31v-1.74h-3.57v1.74h3.57ZM23.12,252.08h1.18v.58h-1.18v1.94h-.69v-4.44h.69v1.92Z"/>
      <path class="cls-1" d="M28.66,250.51c1.05,0,1.85.59,2,1.49h1.63v-1.85h.69v4.14h-.69v-1.72h-1.63c-.14.92-.94,1.53-2,1.53-1.19,0-2.03-.73-2.03-1.8,0-1.07.84-1.79,2.03-1.79ZM28.66,253.54c.79,0,1.35-.51,1.35-1.23s-.57-1.21-1.35-1.21-1.37.5-1.37,1.21.57,1.23,1.37,1.23ZM28.06,255.73h1.42v-.98h.64v3.12h-2.72v-3.12h.65v.98ZM29.49,257.32v-1.07h-1.42v1.07h1.42ZM31.68,255.36v-.67h.69v.67c0,.82.49,1.69,1.44,2.04l-.36.53c-.72-.29-1.19-.84-1.43-1.49-.25.64-.72,1.19-1.42,1.49l-.36-.53c.94-.39,1.44-1.25,1.44-2.04Z"/>
      <path class="cls-1" d="M34.01,254.15h7.15v.56h-7.15v-.56ZM34.94,255.51h.69v1.7h4.75v.57h-5.44v-2.27ZM40.34,253.09h-5.35v-2.64h.69v2.08h4.67v.55Z"/>
      <path class="cls-1" d="M46.76,251.35h-2.91v-.58h3.66c0,2.01-1.44,3.51-3.69,4.21l-.3-.55c1.88-.58,3.09-1.7,3.24-3.08ZM44.73,255.3h.69v1.92h4.57v.58h-5.26v-2.5ZM49.62,252.54h1.18v.58h-1.18v2.76h-.69v-5.72h.69v2.38Z"/>
      <path class="cls-1" d="M55.77,253.85l-.35.54c-.91-.33-1.62-1.01-1.97-1.87-.34.93-1.06,1.66-1.98,2.01l-.36-.54c1.17-.44,1.99-1.52,1.99-2.7v-.75h.7v.75c0,1.14.82,2.15,1.98,2.56ZM52.22,255.26h5.26v2.72h-.69v-2.14h-4.57v-.57ZM56.79,250.16h.69v4.71h-.69v-4.71Z"/>
      <path class="cls-1" d="M58.53,253.55h7.12v.56h-7.12v-.56ZM64.85,251.65c0,.89-1.02,1.37-2.76,1.37-1.75,0-2.77-.48-2.77-1.37s1.02-1.34,2.77-1.34,2.75.48,2.76,1.34ZM59.39,254.78h5.34v1.75h-4.64v.81h4.88v.54h-5.56v-1.86h4.65v-.71h-4.67v-.53ZM62.09,252.49c1.3,0,2.05-.3,2.06-.84,0-.51-.76-.82-2.06-.83-1.3,0-2.06.31-2.05.83,0,.54.75.84,2.05.84Z"/>
      <path class="cls-1" d="M72.63,253.93l-.33.53c-.9-.27-1.6-.85-1.95-1.6-.34.82-1.06,1.45-1.99,1.75l-.34-.54c1.16-.35,1.98-1.25,1.99-2.28v-.15h-1.77v-.57h1.77v-.95h.69v.95h1.75v.57h-1.77v.15c0,.94.79,1.79,1.94,2.14ZM71.33,255.69h-2.21v-.56h5.15v.56h-2.21c.11.82,1.26,1.52,2.51,1.72l-.25.54c-1.14-.19-2.18-.76-2.63-1.54-.44.78-1.48,1.34-2.61,1.53l-.26-.53c1.26-.2,2.4-.89,2.51-1.72ZM73.45,250.16h.69v1.93h1.18v.58h-1.18v2.03h-.69v-4.54Z"/>
      <path class="cls-1" d="M75.53,254.15h7.15v.56h-7.15v-.56ZM76.46,255.51h.69v1.7h4.75v.57h-5.44v-2.27ZM81.85,253.09h-5.35v-2.64h.69v2.08h4.67v.55Z"/>
      <path class="cls-1" d="M83.39,250.93h3.65v.57h-2.96v3.96c1.41,0,2.41-.07,3.58-.28l.09.6c-1.23.22-2.25.26-3.73.26h-.62v-5.11ZM89.09,253.26h1.31v.58h-1.31v4.16h-.69v-7.83h.69v3.09Z"/>
      <path class="cls-1" d="M90.82,256.74c0-.31.25-.56.56-.56s.57.25.56.56c0,.31-.25.57-.56.57-.31,0-.57-.26-.56-.57Z"/>
      <path class="cls-1" d="M96.83,250.77c1.16,0,2,1.06,2,2.72,0,1.67-.83,2.72-2,2.72-1.16,0-1.99-1.05-2-2.72,0-1.66.83-2.72,2-2.72ZM96.83,255.59c.79,0,1.33-.83,1.33-2.1s-.54-2.1-1.33-2.11c-.78,0-1.33.84-1.33,2.11s.54,2.1,1.33,2.1ZM100.99,257.99h-.69v-7.83h.69v7.83Z"/>
      <path class="cls-1" d="M105.98,255.99h-3.6v-5.04h3.6v5.04ZM105.29,255.43v-3.92h-2.25v3.92h2.25ZM107.41,250.16h.69v3.12h1.31v.6h-1.31v4.1h-.69v-7.81Z"/>
      <path class="cls-1" d="M109.56,256.38h7.15v.57h-7.15v-.57ZM115.89,254.95h-5.41v-4.11h5.32v.58h-4.61v1.16h4.45v.55h-4.45v1.26h4.7v.56Z"/>
      <path class="cls-1" d="M122.27,255.42l.05.51c-1.79.33-3.71.34-5.12.34l-.1-.59c1.44,0,3.43,0,5.16-.26ZM121.73,252.57c0,1.09-.87,1.83-2.1,1.84-1.23,0-2.11-.75-2.11-1.84,0-1.09.88-1.83,2.11-1.84,1.23,0,2.1.75,2.1,1.84ZM119.62,253.8c.83,0,1.43-.5,1.42-1.23,0-.73-.6-1.23-1.42-1.23s-1.44.51-1.43,1.23c0,.73.6,1.23,1.43,1.23ZM122.79,250.16h.69v7.83h-.69v-7.83Z"/>
      <path class="cls-1" d="M131.24,255.73l-.4.54c-.88-.43-1.62-1.35-1.97-2.41-.36,1.15-1.14,2.16-2.02,2.61l-.42-.54c1.12-.55,2.09-2.03,2.1-3.37v-1.02h-1.82v-.57h4.25v.57h-1.76v1.02c0,1.25.9,2.63,2.03,3.17ZM131.93,250.16h.69v3.16h1.31v.59h-1.31v4.06h-.69v-7.81Z"/>
      <path class="cls-1" d="M140.55,255.94h-.69v-2.11h-2.02c-.36.46-.94.74-1.61.74-1.17,0-2.03-.81-2.03-1.95,0-1.15.86-1.96,2.03-1.96.66,0,1.24.28,1.6.73h2.03v-1.22h.69v5.77ZM136.23,253.96c.77,0,1.35-.55,1.35-1.34s-.58-1.34-1.35-1.34c-.8,0-1.37.57-1.37,1.34s.57,1.34,1.37,1.34ZM135.53,255.34h.69v1.89h4.54v.58h-5.24v-2.47ZM138.25,252.62c0,.23-.04.44-.11.64h1.71v-1.3h-1.72c.07.2.11.42.11.66Z"/>
      <path class="cls-1" d="M141.58,254.62h7.12v.57h-3.23v2.79h-.68v-2.79h-3.21v-.57ZM148.28,253.4l-.25.54c-1.22-.21-2.41-.86-2.88-1.8-.47.94-1.67,1.59-2.87,1.8l-.27-.54c1.36-.2,2.75-1.09,2.75-2.14v-.05h-2.5v-.56h5.77v.56h-2.5v.05c0,1.05,1.39,1.93,2.75,2.14Z"/>
      <path class="cls-1" d="M154.29,255.42l.05.51c-1.79.33-3.71.34-5.12.34l-.1-.59c1.44,0,3.43,0,5.16-.26ZM153.75,252.57c0,1.09-.87,1.83-2.1,1.84-1.23,0-2.11-.75-2.11-1.84,0-1.09.88-1.83,2.11-1.84,1.23,0,2.1.75,2.1,1.84ZM151.65,253.8c.83,0,1.43-.5,1.42-1.23,0-.73-.6-1.23-1.42-1.23s-1.44.51-1.43,1.23c0,.73.6,1.23,1.43,1.23ZM154.81,250.16h.69v7.83h-.69v-7.83Z"/>
      <path class="cls-1" d="M16.66,270.94h-7.15v-.58h7.15v.58ZM10.35,264.72h.7v1.46h4.06v-1.46h.68v4.07h-5.43v-4.07ZM15.1,268.24v-1.5h-4.06v1.5h4.06Z"/>
      <path class="cls-1" d="M17.35,264.84h2.96v2.23h-2.28v1.19c1.03,0,1.82-.05,2.74-.24l.08.55c-1.01.2-1.85.24-2.98.24h-.51v-2.29h2.29v-1.12h-2.3v-.56ZM18.52,269.45h.69v1.78h4.68v.58h-5.36v-2.36ZM23.65,269.99h-.66v-2.9h-1.1v2.67h-.64v-5.44h.64v2.19h1.1v-2.34h.66v5.82Z"/>
      <path class="cls-1" d="M24.52,270.33h7.15v.58h-7.15v-.58ZM30.83,268.49h-5.4v-3.6h5.32v.57h-4.63v2.46h4.71v.57Z"/>
      <path class="cls-1" d="M35.62,269.66v-2.4h.68v2.37c.87-.03,1.75-.09,2.57-.18l.04.52c-1.64.25-3.48.29-4.88.28l-.09-.57c.51,0,1.08,0,1.69-.02ZM38.35,265.44c0,.62,0,1.65-.23,3.1l-.7-.06c.22-1.31.23-2.26.23-2.88h-3.28v-.56h3.97v.4ZM39.36,264.16h.69v3.27h1.27v.6h-1.27v3.95h-.69v-7.81Z"/>
      <path class="cls-1" d="M46.2,269.73l-.4.54c-.88-.43-1.62-1.35-1.97-2.41-.36,1.15-1.14,2.16-2.02,2.61l-.42-.54c1.12-.55,2.09-2.03,2.1-3.37v-1.02h-1.82v-.57h4.25v.57h-1.76v1.02c0,1.25.9,2.63,2.03,3.17ZM46.89,264.16h.69v3.16h1.31v.59h-1.31v4.06h-.69v-7.81Z"/>
      <path class="cls-1" d="M52.36,265.59h-2.91v-.58h3.61c0,2.21-1.04,4.23-3.59,5.48l-.39-.54c2.02-1,3.12-2.51,3.27-4.36ZM55.08,267.34h1.27v.58h-1.27v4.05h-.69v-7.81h.69v3.18Z"/>
      <path class="cls-1" d="M58.83,264.79h1.95v.56h-1.29v2.32c.4-.01.9-.05,1.43-.18l.07.59c-.74.16-1.34.16-1.82.17h-.34v-3.45ZM59.58,269.22h5.2v2.78h-.7v-2.22h-4.5v-.55ZM61.25,264.79h2.07v.56h-1.41v2.32c.62,0,1.11-.05,1.69-.18l.08.58c-.71.15-1.25.17-2.04.18h-.39v-3.45ZM64.78,266.26h1.04v.59h-1.04v2h-.7v-4.68h.7v2.1Z"/>
      <path class="cls-1" d="M72.62,267.52l-.32.54c-.91-.27-1.61-.84-1.96-1.58-.34.84-1.08,1.49-2.03,1.78l-.34-.54c1.18-.37,2.01-1.28,2.01-2.3v-.25h-1.78v-.56h4.21v.56h-1.74v.23c0,.93.8,1.78,1.95,2.12ZM69.15,268.56h4.98v1.87h-4.29v.93h4.58v.54h-5.26v-1.99h4.28v-.81h-4.3v-.55ZM73.45,264.16h.69v1.71h1.18v.57h-1.18v1.75h-.69v-4.03Z"/>
      <path class="cls-1" d="M81.47,268.04h-3.61v-3.34h3.61v3.34ZM80.83,269.65h-2.21v-.56h5.15v.56h-2.22c.08.83,1.24,1.56,2.52,1.77l-.26.54c-1.14-.19-2.17-.76-2.63-1.54-.44.79-1.47,1.34-2.61,1.53l-.26-.53c1.29-.2,2.44-.91,2.52-1.77ZM80.8,267.48v-2.21h-2.27v2.21h2.27ZM82.95,264.16h.69v1.88h1.18v.58h-1.18v2h-.69v-4.46Z"/>
      <path class="cls-1" d="M85.02,268.15h7.15v.56h-7.15v-.56ZM85.96,269.51h.69v1.7h4.76v.57h-5.44v-2.27ZM91.35,267.09h-5.35v-2.64h.69v2.08h4.67v.55Z"/>
      <path class="cls-1" d="M92.88,264.93h3.65v.57h-2.96v3.96c1.42,0,2.41-.07,3.58-.28l.09.6c-1.23.22-2.25.26-3.74.26h-.62v-5.11ZM98.59,267.26h1.31v.58h-1.31v4.16h-.69v-7.83h.69v3.09Z"/>
      <path class="cls-1" d="M100.31,270.74c0-.31.25-.56.56-.56s.57.25.56.56c0,.31-.25.57-.56.57-.31,0-.57-.26-.56-.57Z"/>
    </g>
    <g>
      <path class="cls-1" d="M176.97,34.34c-.34-2.9-.51-5.81-.51-8.73h0c0-2.92.17-5.83.51-8.73l.26-2.22c.04-.39-.26-.72-.64-.72h-5.81c-.39,0-.69.34-.64.72l.26,2.22c.03.25.06.51.08.76-.27,0-.58-.04-.92-.11-.18-.04-.36-.08-.52-.13-.48-.15-.96.21-.96.71v4.61c0,.5.48.86.96.71.16-.05.33-.1.52-.13.5-.1.95-.12,1.3-.11.02.77.04,1.55.04,2.32-.36.02-.82,0-1.34-.1-.18-.04-.36-.08-.52-.13-.48-.15-.96.21-.96.71v4.61c0,.5.48.86.96.71.16-.05.33-.1.52-.13.43-.09.82-.11,1.14-.11-.08,1.1-.18,2.2-.31,3.29l-.26,2.22c-.04.39.26.72.64.72h5.81c.39,0,.69-.34.64-.72l-.26-2.22Z"/>
      <path class="cls-1" d="M40.72,14.66c.05-.38-.28-.72-.71-.72h-6.4c-.43,0-.75.34-.71.72.56,4.62.85,9.26.85,13.91v5.16c0,4.65-.28,9.29-.85,13.91-.05.38.28.72.71.72h6.4c.43,0,.75-.34.71-.72-.56-4.62-.85-9.26-.85-13.91v-5.16c0-4.65.28-9.29.85-13.91Z"/>
      <path class="cls-1" d="M21.49,15.21c-.92,0-11.01.16-11.22,15.34-.2,14.8,9.75,15.24,10.81,15.18.93.06,8.71-.28,10.46-10.37.08-.45-.27-.87-.73-.87h-6.7c-.39,0-.72.31-.74.7-.08,1.45-.5,4.66-2.58,4.66-2.71,0-3.24-4.35-2.83-7.18l13.31.04c.4,0,.73-.31.75-.71.12-3.26-.05-16.51-10.52-16.79ZM23.66,26.29h-5.14c-.19,0-.34-.17-.32-.36.4-2.89,1.46-4.17,2.96-4.17s2.51,1.43,2.81,4.18c.02.19-.13.35-.32.35Z"/>
      <path class="cls-1" d="M144.46,31.8h-27.68c-.35,0-.64.29-.64.64v3.76c0,.26.08.51.25.71,0,0,0,0,.01.01.14.17.36.26.59.23,4.17-.42,8.59-.7,13.59-.69,2.45,0,4.86.07,7.17.2.04.04.06.07.1.11v1.31s-.06.06-.11.11h-21.03c-.32,0-.58.26-.58.58v5.72s0,0,0,0v4.11s0,0,0,0v.06c0,.32.26.58.58.58h27.67c.35,0,.64-.29.64-.64v-3.85c0-.19-.06-.37-.16-.52,0,0,0,0,0-.01-.18-.24-.47-.37-.77-.34-4.14.42-8.54.69-13.5.68-2.45,0-4.86-.07-7.17-.2-.04-.04-.06-.07-.1-.11v-1.31s.06-.06.11-.11h20.97c.35,0,.64-.29.64-.64v-5.65h0v-4.11h0v-.07c0-.32-.26-.57-.57-.57Z"/>
      <path class="cls-1" d="M176.15,41.66c-8.72,1.52-18.65,1.5-20.55,1.48-.18,0-.32-.15-.31-.33.03-.72.15-2.05.22-2.61l.29-2.22c.05-.39-.29-.72-.73-.72h-6.35c-.44,0-.8.19-.73.72l.02.1c.53,2.72.81,5.5.85,8.28,0,.01,0,.03,0,.04v2.2c0,.36.28.65.62.65h26.82c.34,0,.62-.29.62-.65v-6.3c0-.43-.38-.7-.78-.63Z"/>
      <path class="cls-1" d="M146.31,19.55c0-.48-.46-.84-.93-.72-.14.04-.28.07-.43.11-.2.04-.39.08-.57.12.08-1.03.21-2.07.39-3.09l.26-1.53c.04-.27-.26-.5-.64-.5h-5.81c-.39,0-.69.23-.64.5l.26,1.53c.34,2,.51,4.01.51,6.02h0c0,2.01-.17,4.02-.51,6.02l-.26,1.53c-.04.27.26.5.64.5h5.81c.39,0,.69-.23.64-.5l-.26-1.53c-.17-1.03-.3-2.06-.39-3.09.19.04.38.07.57.12.15.03.29.07.43.11.47.12.93-.24.93-.72v-2.43h0v-2.43Z"/>
      <path class="cls-1" d="M148.35,34.69c4.73-.06,8.89-.82,11.98-2.89h0c6.1-3.12,6.89-14.09,6.99-17.09.01-.42-.32-.77-.74-.77h-.95s-16.74,0-16.74,0c-.32,0-.59.29-.59.64v5.51c0,.46.42.81.87.73l1.53-.24c.96-.15,1.93-.27,2.91-.35,1.3-.1,3.38-.15,6.39.07.33.02.56.34.48.66-1.53,6.17-7.62,6.95-11.82,5.91-.35-.09-.66.28-.66.65v6.79c0,.21.16.38.36.38Z"/>
      <path class="cls-1" d="M109.76,14.66c.05-.38-.28-.72-.71-.72h-6.4c-.43,0-.75.34-.71.72.56,4.62.85,9.26.85,13.91v5.07c-2.2,4.22-13.53,5.69-20.73,3.24-.69-.23-1.2.36-1.2,1.22l-.03,5.89c0,.57.4.94,1.14,1.06.58.09,1.15.15,1.73.2,8.07.75,13.93-1.01,18.29-3.12.22-.11.48.07.46.31-.13,1.74-.3,3.47-.51,5.2-.05.38.28.72.71.72h6.4c.43,0,.75-.34.71-.72-.56-4.62-.85-9.26-.85-13.91v-5.16c0-4.65.28-9.29.85-13.91Z"/>
      <path class="cls-1" d="M91.23,35.38c5.4,0,9.77-4.8,9.77-10.72s-4.37-10.72-9.77-10.72-9.77,4.8-9.77,10.72,4.37,10.72,9.77,10.72ZM91.23,21.05c1.02,0,1.85,1.62,1.85,3.61s-.83,3.61-1.85,3.61-1.85-1.62-1.85-3.61.83-3.61,1.85-3.61Z"/>
      <path class="cls-1" d="M79.47,22.49c0-.48-.46-.84-.93-.72-.14.04-.28.07-.43.11-.43.1-.83.17-1.21.22.09-1.74.24-3.49.47-5.22l.28-2.22c.05-.39-.28-.72-.71-.72h-6.39c-.43,0-.76.34-.71.72l.28,2.22c.37,2.9.56,5.81.56,8.73h0c0,2.92-.19,4.44-.56,7.34l-.28,2.22c-.05.39.28.72.71.72h6.39c.43,0,.76-.34.71-.72l-.28-2.22c-.27-2.12-.44-3.5-.52-5.23.39.06.81.13,1.26.23.15.03.29.07.43.11.47.12.93-.24.93-.72v-2.43h0v-2.43Z"/>
      <path class="cls-1" d="M48.73,32.74c-.04.31.25.59.64.59h18.82c.38,0,.68-.27.64-.59l-.26-1.8c-.34-2.36-.5-4.72-.5-7.1s.17-4.74.5-7.1l.26-1.8c.04-.31-.25-.59-.64-.59h-18.82c-.38,0-.68.27-.64.59l.26,1.8c.34,2.36.5,4.72.5,7.1s-.17,4.74-.5,7.1l-.26,1.8ZM57.32,20.49h2.91c.07,0,.13.11.12.23-.08.89-.13,1.92-.13,3.06,0,1.2.05,2.27.13,3.19.01.12-.04.23-.12.23h-2.91c-.07,0-.13-.11-.12-.23.08-.92.14-1.99.13-3.19,0-1.15-.06-2.17-.13-3.06-.01-.12.04-.23.12-.23Z"/>
      <path class="cls-1" d="M77.38,40.51c-3.25.08-8.03-1.4-8.99-4.8-.1-.37-.39-.62-.77-.62h-5.64c-.38,0-.66.25-.75.62-.77,3.04-7.46,5.48-13,4.8-.93-.11-1.15.47-1.15,1.06l-.02,5.7c0,.56.17.99.82,1.05.56.06.83.03,1.25.02,4.81-.13,12.84-3.1,14.93-5.79.19-.24.47-.35.75-.32.27-.03.56.08.75.32,2.08,2.7,5.83,5.79,10.64,5.79.42,0,.83.02,1.25-.02.52-.04.82-.47.82-1.05l-.02-5.7c.08-.56-.33-1.07-.86-1.06Z"/>
      <path class="cls-1" d="M136.16,23.51v-3.07c.06-1.5.22-2.99.47-4.48l.26-1.53c.04-.27-.25-.5-.64-.5h-5.69c-.37,0-.78.31-.78.68v2.07c0,.18-.14.32-.32.32h-5.94c-.18,0-.32-.14-.32-.32v-2.07c0-.38-.3-.68-.67-.68h-5.8c-.38,0-.68.23-.64.5l.26,1.53c.24,1.45.4,2.91.46,4.37v3.28c-.07,1.46-.22,2.92-.46,4.37l-.26,1.53c-.04.27.25.5.64.5h19.51c.38,0,.68-.23.64-.5l-.26-1.53c-.25-1.49-.4-2.98-.47-4.48ZM128.42,27.36c-1.02,0-1.61-.64-1.92-1.62-.29.98-.88,1.62-1.95,1.62-1.67,0-2.21-1.72-2.21-3.84s.54-3.84,2.21-3.84c1.04,0,1.64.65,1.94,1.65.31-.99.91-1.65,1.93-1.65,1.69,0,2.21,1.72,2.21,3.84s-.46,3.84-2.21,3.84Z"/>
      <path class="cls-1" d="M129.22,23.49c0,1.3-.28,2.36-1.37,2.36s-1.37-1.06-1.37-2.36.33-2.36,1.37-2.36,1.37,1.06,1.37,2.36Z"/>
      <path class="cls-1" d="M125.08,23.49c0,1.3-.28,2.36-1.37,2.36s-1.37-1.06-1.37-2.36.33-2.36,1.37-2.36,1.37,1.06,1.37,2.36Z"/>
    </g>
    <g>
      <path class="cls-1" d="M50.68,1.65c-.03.47-.06.91-.1,1.31-.04.4-.08.78-.13,1.15s-.09.73-.14,1.08c-.05.35-.1.72-.16,1.09-.05.25-.14.46-.27.62s-.28.29-.46.38c-.18.09-.37.15-.58.19-.21.04-.41.05-.61.05-.35,0-.65-.04-.9-.14-.25-.09-.46-.22-.63-.38s-.28-.36-.34-.59c-.07-.23-.08-.48-.04-.77.07-.7.15-1.38.22-2.06.08-.67.16-1.38.24-2.11.04-.29.13-.54.27-.72.14-.19.3-.34.49-.45.19-.11.39-.19.62-.24s.44-.07.66-.07c.32,0,.6.04.83.13.24.08.43.2.59.35.16.15.27.32.35.52.08.2.11.42.09.65ZM49.59,5.84c.08-.61.16-1.25.24-1.9.07-.65.14-1.37.21-2.15.02-.25,0-.46-.07-.61-.07-.16-.16-.28-.28-.36s-.26-.15-.41-.18c-.16-.03-.32-.04-.49-.04-.13,0-.27.01-.42.04-.15.03-.29.08-.42.17-.13.09-.25.21-.35.37-.1.16-.17.38-.21.65-.05.39-.1.75-.14,1.08-.04.33-.08.66-.11.97s-.06.62-.09.93c-.03.31-.05.63-.08.96-.02.23,0,.43.08.58.07.15.16.27.28.36s.26.14.42.18c.16.03.32.05.48.05.13,0,.27-.01.41-.03.14-.02.28-.07.41-.14.13-.07.25-.18.34-.32.1-.14.16-.34.19-.59ZM52.9,0v7.52h-.63V0h.63Z"/>
      <path class="cls-1" d="M58.48.11v7.33h-3.9V.11h3.9ZM55.21.7v6.15h2.64V.7h-2.64ZM61.95,3.14v.59h-1.29v3.8h-.63V0h.63v3.13h1.29Z"/>
      <path class="cls-1" d="M62.22,6.94h7.26v.59h-7.26v-.59ZM68.9,4.39v.59h-5.97V.02h5.9v.59h-5.27v1.63h5.27v.59h-5.27v1.56h5.34Z"/>
      <path class="cls-1" d="M70.47,7.68v-1.1h1.18v1.1l-.89,1.62h-.48l.73-1.62h-.54Z"/>
      <path class="cls-1" d="M81.72,0v7.52h-.63v-3.61h-1.85c-.05.41-.1.8-.15,1.18-.05.38-.11.77-.17,1.18-.05.25-.13.46-.26.62s-.28.29-.45.38c-.17.09-.36.15-.57.19s-.41.05-.6.05c-.35,0-.65-.04-.9-.14-.25-.09-.46-.22-.62-.38-.16-.17-.27-.36-.33-.59-.06-.23-.08-.48-.04-.77.07-.7.15-1.38.22-2.06.08-.67.16-1.38.24-2.11.04-.29.13-.54.27-.72s.3-.34.48-.45c.19-.11.39-.19.61-.24s.44-.07.65-.07c.32,0,.59.04.83.13.23.08.43.2.58.35.15.15.26.32.33.52.07.2.1.42.08.65-.02.31-.04.61-.06.88-.02.28-.04.54-.07.8h1.78V0h.63ZM78.34,5.84c.08-.61.16-1.25.24-1.9s.15-1.37.21-2.15c.02-.25,0-.46-.07-.61-.06-.16-.15-.28-.27-.36-.11-.09-.25-.15-.4-.18-.15-.03-.31-.04-.48-.04-.13,0-.27.01-.42.04-.15.03-.29.08-.41.17-.13.09-.24.21-.34.37-.1.16-.17.38-.2.65-.05.39-.1.75-.14,1.08-.04.33-.08.66-.11.97s-.06.62-.09.93c-.03.31-.05.63-.08.96-.02.23,0,.43.07.58.07.15.16.27.27.36s.25.14.41.18c.16.03.31.05.48.05.13,0,.27-.01.41-.03.14-.02.27-.07.4-.14.13-.07.24-.18.33-.32.09-.14.15-.34.18-.59Z"/>
      <path class="cls-1" d="M87.81,6.85v.59h-4.3V.11h4.07v.59h-3.44v6.15h3.67ZM89.78,0v7.52h-.63V0h.63Z"/>
      <path class="cls-1" d="M90.86.7V.11h2.56l-1.18,7.33h-.68l1.07-6.74h-1.77ZM93.78.7l.09-.59h2.21l-1.14,7.33h-.67l1.04-6.74h-1.51ZM98.87,3.14v.59h-1.2v3.8h-.63V0h.63v3.13h1.2Z"/>
      <path class="cls-1" d="M103.86.7h-1.52l1.49,6.74h-.64l-1.49-6.74h-.32l-1.49,6.74h-.64l1.49-6.74h-1.61V.11h4.73v.59ZM105.88,0v7.52h-.63V0h.63Z"/>
      <path class="cls-1" d="M109.95.11h3.9v1.53h1.94V0h.63v4.25h-.63v-2.02h-1.94v1.72h-3.9V.11ZM110.36,5.4v-.59h6.05v2.93h-.63v-2.33h-5.42ZM113.21,3.36V.7h-2.64v2.66h2.64Z"/>
      <path class="cls-1" d="M124.38,0v7.52h-.63v-3.61h-1.85c-.05.41-.1.8-.15,1.18-.05.38-.11.77-.17,1.18-.05.25-.13.46-.26.62s-.28.29-.45.38c-.17.09-.36.15-.57.19s-.41.05-.6.05c-.35,0-.65-.04-.9-.14-.25-.09-.46-.22-.62-.38-.16-.17-.27-.36-.33-.59-.06-.23-.08-.48-.04-.77.07-.7.15-1.38.22-2.06.08-.67.16-1.38.24-2.11.04-.29.13-.54.27-.72s.3-.34.48-.45c.19-.11.39-.19.61-.24s.44-.07.65-.07c.32,0,.59.04.83.13.23.08.43.2.58.35.15.15.26.32.33.52.07.2.1.42.08.65-.02.31-.04.61-.06.88-.02.28-.04.54-.07.8h1.78V0h.63ZM121,5.84c.08-.61.16-1.25.24-1.9s.15-1.37.21-2.15c.02-.25,0-.46-.07-.61-.06-.16-.15-.28-.27-.36-.11-.09-.25-.15-.4-.18-.15-.03-.31-.04-.48-.04-.13,0-.27.01-.42.04-.15.03-.29.08-.41.17-.13.09-.24.21-.34.37-.1.16-.17.38-.2.65-.05.39-.1.75-.14,1.08-.04.33-.08.66-.11.97s-.06.62-.09.93c-.03.31-.05.63-.08.96-.02.23,0,.43.07.58.07.15.16.27.27.36s.25.14.41.18c.16.03.31.05.48.05.13,0,.27-.01.41-.03.14-.02.27-.07.4-.14.13-.07.24-.18.33-.32.09-.14.15-.34.18-.59Z"/>
      <path class="cls-1" d="M128.48,3.9h2.29v.59h-5.13v-.59h2.21v-.76h-1.76V.11h.63v.96h2.91V.11h.63v3.03h-1.77v.76ZM132.21,7.73l-.8-1.9h-.5l-.98,1.9h-.77l-.8-1.9h-.5l-.98,1.9h-.77l1.28-2.49h1.4l.73,1.82.94-1.82h1.39l1.01,2.49h-.62ZM129.62,2.55v-.88h-2.91v.88h2.91ZM132.18,2.59v2.12h-.63V0h.63v1.99h1.25v.59h-1.25Z"/>
      <path class="cls-1" d="M138.43,6.85v.59h-4.09V.06h.65v6.79h3.44ZM140.49,0v7.52h-.63V0h.63Z"/>
    </g>
    <g>
      <rect class="cls-1" x=".25" y="70.12" width="187" height="15.94"/>
      <g>
        <path class="cls-2" d="M48.11,82.84v-9.9h5.71v1.66h-3.77v6.59h4.12v1.66h-6.06ZM55.21,82.96v-10.03h1.94v10.03h-1.94Z"/>
        <path class="cls-2" d="M66.02,82.96v-4.44h-1.88l.91,4.32h-1.8c-.06-.29-.11-.5-.13-.65-.58-2.69-1.01-4.89-1.31-6.61-.14,1.05-.38,2.38-.72,4.01l-.66,3.25h-2.03l1.81-8.23h-1.66v-1.66h6.17v1.66h-1.4l.43,2.09h2.27v-3.77h1.94v10.03h-1.94Z"/>
        <path class="cls-2" d="M79.03,82.96h-9.68v-1.66h9.68v1.66ZM70.03,79.89v-6.95h8.3v1.66h-6.37v.97h6.25v1.66h-6.24v1h6.52v1.67h-8.46Z"/>
        <path class="cls-2" d="M88.59,75.46l1.13,2.68h-1.73l-1.08-2.57-1.61,2.6h-2.34l1.73-2.71h-1.43v-1.66h1.98l.22-1.06h2.54l-.22,1.06h1.64v1.66h-.84ZM85.12,82.96v-2.48h-2.16v-1.74h7.02v1.74h-2.66v2.48h-2.2ZM90.51,82.96v-10.03h1.94v10.03h-1.94Z"/>
        <path class="cls-2" d="M93.71,74.98v-1.5h2.02l.18-.83h2.51l-.16.83h1.82v1.5h-6.37ZM95.59,78.89c-.53-.02-.95-.2-1.26-.52-.31-.32-.47-.74-.47-1.27s.11-.91.34-1.17c.22-.26.51-.43.86-.5.35-.07.78-.11,1.29-.11h1.16c.51,0,.94.04,1.28.11.34.07.62.24.84.5.22.26.33.65.33,1.17s-.16.95-.47,1.28c-.32.32-.73.49-1.25.51-.31.02-.79.02-1.43.02-.26,0-.67,0-1.21-.02ZM96.56,83.23c-.66-.02-1.18-.19-1.58-.51-.4-.32-.59-.79-.59-1.42,0-.66.19-1.15.58-1.45.38-.3.92-.46,1.62-.47.48-.02,1.2-.02,2.15-.02.47,0,1.19,0,2.15.02,1.46.02,2.2.66,2.2,1.92,0,.63-.2,1.11-.59,1.42-.4.32-.92.49-1.58.51-.51.02-1.28.04-2.32.04-.68,0-1.36-.01-2.03-.04ZM97.28,77.54c.21,0,.38-.03.52-.1.14-.07.21-.18.21-.34,0-.2-.09-.33-.28-.38-.18-.05-.36-.08-.52-.07-.16,0-.27,0-.31,0s-.16,0-.37,0c-.21,0-.38.03-.52.1-.14.07-.21.19-.21.35,0,.2.09.32.27.37.18.05.35.07.52.07.17,0,.27,0,.31,0s.16,0,.37,0ZM100.6,81.72c.22,0,.39-.03.5-.08s.16-.16.16-.34-.05-.31-.16-.35c-.1-.04-.27-.07-.5-.08-.42-.02-1.04-.02-1.87-.02s-1.46,0-1.87.02c-.23,0-.4.03-.5.08-.1.04-.16.16-.16.35s.05.3.16.34c.11.04.27.07.5.08.42.02,1.04.02,1.87.02s1.46,0,1.87-.02ZM102.83,75.36v.86h1.32v1.54h-1.32v1.2h-1.94v-6.04h1.94v.9h1.32v1.54h-1.32Z"/>
        <path class="cls-2" d="M115.39,77.63v-.7h-2.09l-.12.67h-2.09l.56-3.01h-3.54v-1.66h5.88l-.1.55h1.49v-.56h1.94v4.7h-1.94ZM117.44,83.21h-8.69v-3.32h6.5v-.41h-6.5v-1.48h8.57v3.28h-6.49v.46h6.61v1.48ZM115.39,75.58v-.73h-1.73l-.13.73h1.86Z"/>
        <path class="cls-2" d="M118.71,82.96v-1.66h1.36v-5.06h2.16v5.06h3.14v1.66h-6.66ZM125.21,72.94l-.55,6.74h-1.99l.32-5.09h-3.77v-1.66h5.99ZM127.79,78.39v4.57h-1.94v-10.03h1.94v3.8h1.36v1.66h-1.36Z"/>
        <path class="cls-2" d="M136.01,82.84h-1.8c-.06-.29-.11-.5-.13-.65-.58-2.69-1.01-4.89-1.31-6.61-.14,1.05-.38,2.38-.72,4.01l-.66,3.25h-2.03l1.81-8.23h-1.66v-1.66h6.35v1.66h-1.58l1.73,8.23ZM136.99,82.96v-10.03h1.94v10.03h-1.94Z"/>
      </g>
      <g>
        <path class="cls-1" d="M2.97,63.25c.84-.4,1.07-1.17,1.51-1.17.22,0,.38.15.38.41,0,.31-.23.4-.67.5-.58.13-.8.21-1.14.42.96.58,1.82.32,1.82.91,0,.25-.17.41-.38.41-.44,0-.67-.77-1.51-1.17,0,1.03.29,1.3.29,1.68,0,.25-.19.42-.4.42s-.4-.17-.4-.42c0-.42.29-.62.29-1.68-.89.43-1.04,1.17-1.51,1.17-.22,0-.39-.15-.39-.41s.15-.39.67-.5c.47-.1.84-.22,1.14-.42-.32-.2-.68-.33-1.13-.42-.52-.1-.68-.23-.68-.5s.17-.41.39-.41c.46,0,.65.76,1.51,1.17,0-1.03-.29-1.28-.29-1.68,0-.25.19-.42.4-.42s.4.17.4.42c0,.44-.29.58-.29,1.68Z"/>
        <path class="cls-1" d="M10.24,63.25c.84-.4,1.07-1.17,1.51-1.17.22,0,.39.15.39.41,0,.31-.23.4-.67.5-.58.13-.8.21-1.14.42.96.58,1.82.32,1.82.91,0,.25-.17.41-.39.41-.44,0-.67-.77-1.51-1.17,0,1.03.29,1.3.29,1.68,0,.25-.19.42-.4.42s-.4-.17-.4-.42c0-.42.29-.62.29-1.68-.89.43-1.04,1.17-1.51,1.17-.22,0-.38-.15-.38-.41s.15-.39.67-.5c.47-.1.84-.22,1.14-.42-.32-.2-.68-.33-1.13-.42-.52-.1-.68-.23-.68-.5s.17-.41.38-.41c.46,0,.65.76,1.51,1.17,0-1.03-.29-1.28-.29-1.68,0-.25.19-.42.4-.42s.4.17.4.42c0,.44-.29.58-.29,1.68Z"/>
        <path class="cls-1" d="M17.51,63.25c.84-.4,1.07-1.17,1.51-1.17.22,0,.38.15.38.41,0,.31-.23.4-.67.5-.58.13-.8.21-1.14.42.96.58,1.81.32,1.81.91,0,.25-.16.41-.38.41-.44,0-.67-.77-1.51-1.17,0,1.03.29,1.3.29,1.68,0,.25-.19.42-.4.42s-.4-.17-.4-.42c0-.42.29-.62.29-1.68-.89.43-1.04,1.17-1.51,1.17-.22,0-.38-.15-.38-.41s.15-.39.67-.5c.47-.1.84-.22,1.14-.42-.32-.2-.68-.33-1.13-.42-.52-.1-.68-.23-.68-.5s.16-.41.38-.41c.46,0,.65.76,1.51,1.17,0-1.03-.29-1.28-.29-1.68,0-.25.19-.42.4-.42s.4.17.4.42c0,.44-.29.58-.29,1.68Z"/>
        <path class="cls-1" d="M24.79,63.25c.84-.4,1.07-1.17,1.51-1.17.22,0,.38.15.38.41,0,.31-.23.4-.67.5-.58.13-.8.21-1.14.42.96.58,1.82.32,1.82.91,0,.25-.17.41-.38.41-.44,0-.67-.77-1.51-1.17,0,1.03.29,1.3.29,1.68,0,.25-.19.42-.4.42s-.4-.17-.4-.42c0-.42.29-.62.29-1.68-.89.43-1.05,1.17-1.51,1.17-.22,0-.39-.15-.39-.41s.15-.39.67-.5c.47-.1.84-.22,1.14-.42-.32-.2-.68-.33-1.13-.42-.52-.1-.68-.23-.68-.5s.17-.41.39-.41c.46,0,.65.76,1.51,1.17,0-1.03-.29-1.28-.29-1.68,0-.25.19-.42.4-.42s.4.17.4.42c0,.44-.29.58-.29,1.68Z"/>
        <path class="cls-1" d="M32.06,63.25c.84-.4,1.07-1.17,1.51-1.17.22,0,.38.15.38.41,0,.31-.23.4-.67.5-.58.13-.8.21-1.14.42.96.58,1.82.32,1.82.91,0,.25-.17.41-.38.41-.44,0-.67-.77-1.51-1.17,0,1.03.29,1.3.29,1.68,0,.25-.19.42-.4.42s-.4-.17-.4-.42c0-.42.29-.62.29-1.68-.89.43-1.04,1.17-1.51,1.17-.22,0-.39-.15-.39-.41s.15-.39.67-.5c.47-.1.84-.22,1.14-.42-.32-.2-.68-.33-1.13-.42-.52-.1-.68-.23-.68-.5s.17-.41.39-.41c.46,0,.65.76,1.51,1.17,0-1.03-.29-1.28-.29-1.68,0-.25.19-.42.4-.42s.4.17.4.42c0,.44-.29.58-.29,1.68Z"/>
        <path class="cls-1" d="M39.33,63.25c.84-.4,1.07-1.17,1.51-1.17.22,0,.39.15.39.41,0,.31-.23.4-.67.5-.58.13-.8.21-1.14.42.96.58,1.82.32,1.82.91,0,.25-.17.41-.39.41-.44,0-.67-.77-1.51-1.17,0,1.03.29,1.3.29,1.68,0,.25-.19.42-.4.42s-.4-.17-.4-.42c0-.42.29-.62.29-1.68-.89.43-1.04,1.17-1.51,1.17-.22,0-.38-.15-.38-.41s.15-.39.67-.5c.47-.1.84-.22,1.14-.42-.32-.2-.68-.33-1.13-.42-.52-.1-.68-.23-.68-.5s.17-.41.38-.41c.46,0,.65.76,1.51,1.17,0-1.03-.29-1.28-.29-1.68,0-.25.19-.42.4-.42s.4.17.4.42c0,.44-.29.58-.29,1.68Z"/>
        <path class="cls-1" d="M46.6,63.25c.84-.4,1.07-1.17,1.51-1.17.22,0,.38.15.38.41,0,.31-.23.4-.67.5-.58.13-.8.21-1.14.42.96.58,1.81.32,1.81.91,0,.25-.16.41-.38.41-.44,0-.67-.77-1.51-1.17,0,1.03.29,1.3.29,1.68,0,.25-.19.42-.4.42s-.4-.17-.4-.42c0-.42.29-.62.29-1.68-.89.43-1.04,1.17-1.51,1.17-.22,0-.38-.15-.38-.41s.15-.39.67-.5c.47-.1.84-.22,1.14-.42-.32-.2-.68-.33-1.13-.42-.52-.1-.68-.23-.68-.5s.16-.41.38-.41c.46,0,.65.76,1.51,1.17,0-1.03-.29-1.28-.29-1.68,0-.25.19-.42.4-.42s.4.17.4.42c0,.44-.29.58-.29,1.68Z"/>
        <path class="cls-1" d="M53.87,63.25c.84-.4,1.07-1.17,1.51-1.17.22,0,.38.15.38.41,0,.31-.23.4-.67.5-.58.13-.8.21-1.14.42.96.58,1.82.32,1.82.91,0,.25-.17.41-.38.41-.44,0-.67-.77-1.51-1.17,0,1.03.29,1.3.29,1.68,0,.25-.19.42-.4.42s-.4-.17-.4-.42c0-.42.29-.62.29-1.68-.89.43-1.05,1.17-1.51,1.17-.22,0-.39-.15-.39-.41s.15-.39.67-.5c.47-.1.84-.22,1.14-.42-.32-.2-.68-.33-1.13-.42-.52-.1-.68-.23-.68-.5s.17-.41.39-.41c.46,0,.65.76,1.51,1.17,0-1.03-.29-1.28-.29-1.68,0-.25.19-.42.4-.42s.4.17.4.42c0,.44-.29.58-.29,1.68Z"/>
        <path class="cls-1" d="M61.14,63.25c.84-.4,1.07-1.17,1.51-1.17.22,0,.38.15.38.41,0,.31-.23.4-.67.5-.58.13-.8.21-1.14.42.96.58,1.82.32,1.82.91,0,.25-.17.41-.38.41-.44,0-.67-.77-1.51-1.17,0,1.03.29,1.3.29,1.68,0,.25-.19.42-.4.42s-.4-.17-.4-.42c0-.42.29-.62.29-1.68-.89.43-1.04,1.17-1.51,1.17-.22,0-.39-.15-.39-.41s.15-.39.67-.5c.47-.1.84-.22,1.14-.42-.32-.2-.68-.33-1.13-.42-.52-.1-.68-.23-.68-.5s.17-.41.39-.41c.46,0,.65.76,1.51,1.17,0-1.03-.29-1.28-.29-1.68,0-.25.19-.42.4-.42s.4.17.4.42c0,.44-.29.58-.29,1.68Z"/>
        <path class="cls-1" d="M68.41,63.25c.84-.4,1.07-1.17,1.51-1.17.22,0,.39.15.39.41,0,.31-.23.4-.67.5-.58.13-.8.21-1.14.42.96.58,1.82.32,1.82.91,0,.25-.17.41-.39.41-.44,0-.67-.77-1.51-1.17,0,1.03.29,1.3.29,1.68,0,.25-.19.42-.4.42s-.4-.17-.4-.42c0-.42.29-.62.29-1.68-.89.43-1.04,1.17-1.51,1.17-.22,0-.38-.15-.38-.41s.15-.39.67-.5c.47-.1.84-.22,1.14-.42-.32-.2-.68-.33-1.13-.42-.52-.1-.68-.23-.68-.5s.17-.41.38-.41c.46,0,.65.76,1.51,1.17,0-1.03-.29-1.28-.29-1.68,0-.25.19-.42.4-.42s.4.17.4.42c0,.44-.29.58-.29,1.68Z"/>
        <path class="cls-1" d="M75.68,63.25c.84-.4,1.07-1.17,1.51-1.17.22,0,.39.15.39.41,0,.31-.23.4-.67.5-.58.13-.8.21-1.14.42.96.58,1.82.32,1.82.91,0,.25-.17.41-.39.41-.44,0-.67-.77-1.51-1.17,0,1.03.29,1.3.29,1.68,0,.25-.19.42-.4.42s-.4-.17-.4-.42c0-.42.29-.62.29-1.68-.89.43-1.04,1.17-1.51,1.17-.22,0-.38-.15-.38-.41s.15-.39.67-.5c.47-.1.84-.22,1.14-.42-.32-.2-.68-.33-1.13-.42-.52-.1-.68-.23-.68-.5s.17-.41.38-.41c.46,0,.65.76,1.51,1.17,0-1.03-.29-1.28-.29-1.68,0-.25.19-.42.4-.42s.4.17.4.42c0,.44-.29.58-.29,1.68Z"/>
        <path class="cls-1" d="M82.95,63.25c.84-.4,1.07-1.17,1.51-1.17.22,0,.39.15.39.41,0,.31-.23.4-.67.5-.58.13-.8.21-1.14.42.96.58,1.82.32,1.82.91,0,.25-.17.41-.39.41-.44,0-.67-.77-1.51-1.17,0,1.03.29,1.3.29,1.68,0,.25-.19.42-.4.42s-.4-.17-.4-.42c0-.42.29-.62.29-1.68-.89.43-1.04,1.17-1.51,1.17-.22,0-.38-.15-.38-.41s.15-.39.67-.5c.47-.1.84-.22,1.14-.42-.32-.2-.68-.33-1.13-.42-.52-.1-.68-.23-.68-.5s.17-.41.38-.41c.46,0,.65.76,1.51,1.17,0-1.03-.29-1.28-.29-1.68,0-.25.19-.42.4-.42s.4.17.4.42c0,.44-.29.58-.29,1.68Z"/>
        <path class="cls-1" d="M90.22,63.25c.84-.4,1.07-1.17,1.51-1.17.22,0,.39.15.39.41,0,.31-.23.4-.67.5-.58.13-.8.21-1.14.42.96.58,1.82.32,1.82.91,0,.25-.17.41-.39.41-.44,0-.67-.77-1.51-1.17,0,1.03.29,1.3.29,1.68,0,.25-.19.42-.4.42s-.4-.17-.4-.42c0-.42.29-.62.29-1.68-.89.43-1.04,1.17-1.51,1.17-.22,0-.38-.15-.38-.41s.15-.39.67-.5c.47-.1.84-.22,1.14-.42-.32-.2-.68-.33-1.13-.42-.52-.1-.68-.23-.68-.5s.17-.41.38-.41c.46,0,.65.76,1.51,1.17,0-1.03-.29-1.28-.29-1.68,0-.25.19-.42.4-.42s.4.17.4.42c0,.44-.29.58-.29,1.68Z"/>
        <path class="cls-1" d="M97.5,63.25c.84-.4,1.07-1.17,1.51-1.17.22,0,.39.15.39.41,0,.31-.23.4-.67.5-.58.13-.8.21-1.14.42.96.58,1.82.32,1.82.91,0,.25-.17.41-.39.41-.44,0-.67-.77-1.51-1.17,0,1.03.29,1.3.29,1.68,0,.25-.19.42-.4.42s-.4-.17-.4-.42c0-.42.29-.62.29-1.68-.89.43-1.04,1.17-1.51,1.17-.22,0-.38-.15-.38-.41s.15-.39.67-.5c.47-.1.84-.22,1.14-.42-.32-.2-.68-.33-1.13-.42-.52-.1-.68-.23-.68-.5s.17-.41.38-.41c.46,0,.65.76,1.51,1.17,0-1.03-.29-1.28-.29-1.68,0-.25.19-.42.4-.42s.4.17.4.42c0,.44-.29.58-.29,1.68Z"/>
        <path class="cls-1" d="M104.77,63.25c.84-.4,1.07-1.17,1.51-1.17.22,0,.39.15.39.41,0,.31-.23.4-.67.5-.58.13-.8.21-1.14.42.96.58,1.82.32,1.82.91,0,.25-.17.41-.39.41-.44,0-.67-.77-1.51-1.17,0,1.03.29,1.3.29,1.68,0,.25-.19.42-.4.42s-.4-.17-.4-.42c0-.42.29-.62.29-1.68-.89.43-1.04,1.17-1.51,1.17-.22,0-.38-.15-.38-.41s.15-.39.67-.5c.47-.1.84-.22,1.14-.42-.32-.2-.68-.33-1.13-.42-.52-.1-.68-.23-.68-.5s.17-.41.38-.41c.46,0,.65.76,1.51,1.17,0-1.03-.29-1.28-.29-1.68,0-.25.19-.42.4-.42s.4.17.4.42c0,.44-.29.58-.29,1.68Z"/>
        <path class="cls-1" d="M112.04,63.25c.84-.4,1.07-1.17,1.51-1.17.22,0,.39.15.39.41,0,.31-.23.4-.67.5-.58.13-.8.21-1.14.42.96.58,1.82.32,1.82.91,0,.25-.17.41-.39.41-.44,0-.67-.77-1.51-1.17,0,1.03.29,1.3.29,1.68,0,.25-.19.42-.4.42s-.4-.17-.4-.42c0-.42.29-.62.29-1.68-.89.43-1.04,1.17-1.51,1.17-.22,0-.38-.15-.38-.41s.15-.39.67-.5c.47-.1.84-.22,1.14-.42-.32-.2-.68-.33-1.13-.42-.52-.1-.68-.23-.68-.5s.17-.41.38-.41c.46,0,.65.76,1.51,1.17,0-1.03-.29-1.28-.29-1.68,0-.25.19-.42.4-.42s.4.17.4.42c0,.44-.29.58-.29,1.68Z"/>
        <path class="cls-1" d="M119.31,63.25c.84-.4,1.07-1.17,1.51-1.17.22,0,.39.15.39.41,0,.31-.23.4-.67.5-.58.13-.8.21-1.14.42.96.58,1.82.32,1.82.91,0,.25-.17.41-.39.41-.44,0-.67-.77-1.51-1.17,0,1.03.29,1.3.29,1.68,0,.25-.19.42-.4.42s-.4-.17-.4-.42c0-.42.29-.62.29-1.68-.89.43-1.04,1.17-1.51,1.17-.22,0-.38-.15-.38-.41s.15-.39.67-.5c.47-.1.84-.22,1.14-.42-.32-.2-.68-.33-1.13-.42-.52-.1-.68-.23-.68-.5s.17-.41.38-.41c.46,0,.65.76,1.51,1.17,0-1.03-.29-1.28-.29-1.68,0-.25.19-.42.4-.42s.4.17.4.42c0,.44-.29.58-.29,1.68Z"/>
        <path class="cls-1" d="M126.58,63.25c.84-.4,1.07-1.17,1.51-1.17.22,0,.39.15.39.41,0,.31-.23.4-.67.5-.58.13-.8.21-1.14.42.96.58,1.82.32,1.82.91,0,.25-.17.41-.39.41-.44,0-.67-.77-1.51-1.17,0,1.03.29,1.3.29,1.68,0,.25-.19.42-.4.42s-.4-.17-.4-.42c0-.42.29-.62.29-1.68-.89.43-1.04,1.17-1.51,1.17-.22,0-.38-.15-.38-.41s.15-.39.67-.5c.47-.1.84-.22,1.14-.42-.32-.2-.68-.33-1.13-.42-.52-.1-.68-.23-.68-.5s.17-.41.38-.41c.46,0,.65.76,1.51,1.17,0-1.03-.29-1.28-.29-1.68,0-.25.19-.42.4-.42s.4.17.4.42c0,.44-.29.58-.29,1.68Z"/>
        <path class="cls-1" d="M133.85,63.25c.84-.4,1.07-1.17,1.51-1.17.22,0,.39.15.39.41,0,.31-.23.4-.67.5-.58.13-.8.21-1.14.42.96.58,1.82.32,1.82.91,0,.25-.17.41-.39.41-.44,0-.67-.77-1.51-1.17,0,1.03.29,1.3.29,1.68,0,.25-.19.42-.4.42s-.4-.17-.4-.42c0-.42.29-.62.29-1.68-.89.43-1.04,1.17-1.51,1.17-.22,0-.38-.15-.38-.41s.15-.39.67-.5c.47-.1.84-.22,1.14-.42-.32-.2-.68-.33-1.13-.42-.52-.1-.68-.23-.68-.5s.17-.41.38-.41c.46,0,.65.76,1.51,1.17,0-1.03-.29-1.28-.29-1.68,0-.25.19-.42.4-.42s.4.17.4.42c0,.44-.29.58-.29,1.68Z"/>
        <path class="cls-1" d="M141.12,63.25c.84-.4,1.07-1.17,1.51-1.17.22,0,.39.15.39.41,0,.31-.23.4-.67.5-.58.13-.8.21-1.14.42.96.58,1.82.32,1.82.91,0,.25-.17.41-.39.41-.44,0-.67-.77-1.51-1.17,0,1.03.29,1.3.29,1.68,0,.25-.19.42-.4.42s-.4-.17-.4-.42c0-.42.29-.62.29-1.68-.89.43-1.04,1.17-1.51,1.17-.22,0-.38-.15-.38-.41s.15-.39.67-.5c.47-.1.84-.22,1.14-.42-.32-.2-.68-.33-1.13-.42-.52-.1-.68-.23-.68-.5s.17-.41.38-.41c.46,0,.65.76,1.51,1.17,0-1.03-.29-1.28-.29-1.68,0-.25.19-.42.4-.42s.4.17.4.42c0,.44-.29.58-.29,1.68Z"/>
        <path class="cls-1" d="M148.39,63.25c.84-.4,1.07-1.17,1.51-1.17.22,0,.39.15.39.41,0,.31-.23.4-.67.5-.58.13-.8.21-1.14.42.96.58,1.82.32,1.82.91,0,.25-.17.41-.39.41-.44,0-.67-.77-1.51-1.17,0,1.03.29,1.3.29,1.68,0,.25-.19.42-.4.42s-.4-.17-.4-.42c0-.42.29-.62.29-1.68-.89.43-1.04,1.17-1.51,1.17-.22,0-.38-.15-.38-.41s.15-.39.67-.5c.47-.1.84-.22,1.14-.42-.32-.2-.68-.33-1.13-.42-.52-.1-.68-.23-.68-.5s.17-.41.38-.41c.46,0,.65.76,1.51,1.17,0-1.03-.29-1.28-.29-1.68,0-.25.19-.42.4-.42s.4.17.4.42c0,.44-.29.58-.29,1.68Z"/>
        <path class="cls-1" d="M155.66,63.25c.84-.4,1.07-1.17,1.51-1.17.22,0,.39.15.39.41,0,.31-.23.4-.67.5-.58.13-.8.21-1.14.42.96.58,1.82.32,1.82.91,0,.25-.17.41-.39.41-.44,0-.67-.77-1.51-1.17,0,1.03.29,1.3.29,1.68,0,.25-.19.42-.4.42s-.4-.17-.4-.42c0-.42.29-.62.29-1.68-.89.43-1.04,1.17-1.51,1.17-.22,0-.38-.15-.38-.41s.15-.39.67-.5c.47-.1.84-.22,1.14-.42-.32-.2-.68-.33-1.13-.42-.52-.1-.68-.23-.68-.5s.17-.41.38-.41c.46,0,.65.76,1.51,1.17,0-1.03-.29-1.28-.29-1.68,0-.25.19-.42.4-.42s.4.17.4.42c0,.44-.29.58-.29,1.68Z"/>
        <path class="cls-1" d="M162.93,63.25c.84-.4,1.07-1.17,1.51-1.17.22,0,.39.15.39.41,0,.31-.23.4-.67.5-.58.13-.8.21-1.14.42.96.58,1.82.32,1.82.91,0,.25-.17.41-.39.41-.44,0-.67-.77-1.51-1.17,0,1.03.29,1.3.29,1.68,0,.25-.19.42-.4.42s-.4-.17-.4-.42c0-.42.29-.62.29-1.68-.89.43-1.04,1.17-1.51,1.17-.22,0-.38-.15-.38-.41s.15-.39.67-.5c.47-.1.84-.22,1.14-.42-.32-.2-.68-.33-1.13-.42-.52-.1-.68-.23-.68-.5s.17-.41.38-.41c.46,0,.65.76,1.51,1.17,0-1.03-.29-1.28-.29-1.68,0-.25.19-.42.4-.42s.4.17.4.42c0,.44-.29.58-.29,1.68Z"/>
        <path class="cls-1" d="M170.21,63.25c.84-.4,1.07-1.17,1.51-1.17.22,0,.39.15.39.41,0,.31-.23.4-.67.5-.58.13-.8.21-1.14.42.96.58,1.82.32,1.82.91,0,.25-.17.41-.39.41-.44,0-.67-.77-1.51-1.17,0,1.03.29,1.3.29,1.68,0,.25-.19.42-.4.42s-.4-.17-.4-.42c0-.42.29-.62.29-1.68-.89.43-1.04,1.17-1.51,1.17-.22,0-.38-.15-.38-.41s.15-.39.67-.5c.47-.1.84-.22,1.14-.42-.32-.2-.68-.33-1.13-.42-.52-.1-.68-.23-.68-.5s.17-.41.38-.41c.46,0,.65.76,1.51,1.17,0-1.03-.29-1.28-.29-1.68,0-.25.19-.42.4-.42s.4.17.4.42c0,.44-.29.58-.29,1.68Z"/>
        <path class="cls-1" d="M177.48,63.25c.84-.4,1.07-1.17,1.51-1.17.22,0,.39.15.39.41,0,.31-.23.4-.67.5-.58.13-.8.21-1.14.42.96.58,1.82.32,1.82.91,0,.25-.17.41-.39.41-.44,0-.67-.77-1.51-1.17,0,1.03.29,1.3.29,1.68,0,.25-.19.42-.4.42s-.4-.17-.4-.42c0-.42.29-.62.29-1.68-.89.43-1.04,1.17-1.51,1.17-.22,0-.38-.15-.38-.41s.15-.39.67-.5c.47-.1.84-.22,1.14-.42-.32-.2-.68-.33-1.13-.42-.52-.1-.68-.23-.68-.5s.17-.41.38-.41c.46,0,.65.76,1.51,1.17,0-1.03-.29-1.28-.29-1.68,0-.25.19-.42.4-.42s.4.17.4.42c0,.44-.29.58-.29,1.68Z"/>
        <path class="cls-1" d="M184.75,63.25c.84-.4,1.07-1.17,1.51-1.17.22,0,.39.15.39.41,0,.31-.23.4-.67.5-.58.13-.8.21-1.14.42.96.58,1.82.32,1.82.91,0,.25-.17.41-.39.41-.44,0-.67-.77-1.51-1.17,0,1.03.29,1.3.29,1.68,0,.25-.19.42-.4.42s-.4-.17-.4-.42c0-.42.29-.62.29-1.68-.89.43-1.04,1.17-1.51,1.17-.22,0-.38-.15-.38-.41s.15-.39.67-.5c.47-.1.84-.22,1.14-.42-.32-.2-.68-.33-1.13-.42-.52-.1-.68-.23-.68-.5s.17-.41.38-.41c.46,0,.65.76,1.51,1.17,0-1.03-.29-1.28-.29-1.68,0-.25.19-.42.4-.42s.4.17.4.42c0,.44-.29.58-.29,1.68Z"/>
      </g>
    </g>
    <g>
      <path class="cls-1" d="M2.97,147.46c.84-.4,1.07-1.17,1.51-1.17.22,0,.38.15.38.41,0,.31-.23.4-.67.5-.58.13-.8.21-1.14.42.96.58,1.82.32,1.82.91,0,.25-.17.41-.38.41-.44,0-.67-.77-1.51-1.17,0,1.03.29,1.3.29,1.68,0,.25-.19.42-.4.42s-.4-.17-.4-.42c0-.42.29-.62.29-1.68-.89.43-1.04,1.17-1.51,1.17-.22,0-.39-.15-.39-.41s.15-.39.67-.5c.47-.1.84-.22,1.14-.42-.32-.2-.68-.33-1.13-.42-.52-.1-.68-.23-.68-.5s.17-.41.39-.41c.46,0,.65.76,1.51,1.17,0-1.03-.29-1.28-.29-1.68,0-.25.19-.42.4-.42s.4.17.4.42c0,.44-.29.58-.29,1.68Z"/>
      <path class="cls-1" d="M10.24,147.46c.84-.4,1.07-1.17,1.51-1.17.22,0,.39.15.39.41,0,.31-.23.4-.67.5-.58.13-.8.21-1.14.42.96.58,1.82.32,1.82.91,0,.25-.17.41-.39.41-.44,0-.67-.77-1.51-1.17,0,1.03.29,1.3.29,1.68,0,.25-.19.42-.4.42s-.4-.17-.4-.42c0-.42.29-.62.29-1.68-.89.43-1.04,1.17-1.51,1.17-.22,0-.38-.15-.38-.41s.15-.39.67-.5c.47-.1.84-.22,1.14-.42-.32-.2-.68-.33-1.13-.42-.52-.1-.68-.23-.68-.5s.17-.41.38-.41c.46,0,.65.76,1.51,1.17,0-1.03-.29-1.28-.29-1.68,0-.25.19-.42.4-.42s.4.17.4.42c0,.44-.29.58-.29,1.68Z"/>
      <path class="cls-1" d="M17.51,147.46c.84-.4,1.07-1.17,1.51-1.17.22,0,.38.15.38.41,0,.31-.23.4-.67.5-.58.13-.8.21-1.14.42.96.58,1.81.32,1.81.91,0,.25-.16.41-.38.41-.44,0-.67-.77-1.51-1.17,0,1.03.29,1.3.29,1.68,0,.25-.19.42-.4.42s-.4-.17-.4-.42c0-.42.29-.62.29-1.68-.89.43-1.04,1.17-1.51,1.17-.22,0-.38-.15-.38-.41s.15-.39.67-.5c.47-.1.84-.22,1.14-.42-.32-.2-.68-.33-1.13-.42-.52-.1-.68-.23-.68-.5s.16-.41.38-.41c.46,0,.65.76,1.51,1.17,0-1.03-.29-1.28-.29-1.68,0-.25.19-.42.4-.42s.4.17.4.42c0,.44-.29.58-.29,1.68Z"/>
      <path class="cls-1" d="M24.79,147.46c.84-.4,1.07-1.17,1.51-1.17.22,0,.38.15.38.41,0,.31-.23.4-.67.5-.58.13-.8.21-1.14.42.96.58,1.82.32,1.82.91,0,.25-.17.41-.38.41-.44,0-.67-.77-1.51-1.17,0,1.03.29,1.3.29,1.68,0,.25-.19.42-.4.42s-.4-.17-.4-.42c0-.42.29-.62.29-1.68-.89.43-1.05,1.17-1.51,1.17-.22,0-.39-.15-.39-.41s.15-.39.67-.5c.47-.1.84-.22,1.14-.42-.32-.2-.68-.33-1.13-.42-.52-.1-.68-.23-.68-.5s.17-.41.39-.41c.46,0,.65.76,1.51,1.17,0-1.03-.29-1.28-.29-1.68,0-.25.19-.42.4-.42s.4.17.4.42c0,.44-.29.58-.29,1.68Z"/>
      <path class="cls-1" d="M32.06,147.46c.84-.4,1.07-1.17,1.51-1.17.22,0,.38.15.38.41,0,.31-.23.4-.67.5-.58.13-.8.21-1.14.42.96.58,1.82.32,1.82.91,0,.25-.17.41-.38.41-.44,0-.67-.77-1.51-1.17,0,1.03.29,1.3.29,1.68,0,.25-.19.42-.4.42s-.4-.17-.4-.42c0-.42.29-.62.29-1.68-.89.43-1.04,1.17-1.51,1.17-.22,0-.39-.15-.39-.41s.15-.39.67-.5c.47-.1.84-.22,1.14-.42-.32-.2-.68-.33-1.13-.42-.52-.1-.68-.23-.68-.5s.17-.41.39-.41c.46,0,.65.76,1.51,1.17,0-1.03-.29-1.28-.29-1.68,0-.25.19-.42.4-.42s.4.17.4.42c0,.44-.29.58-.29,1.68Z"/>
      <path class="cls-1" d="M39.33,147.46c.84-.4,1.07-1.17,1.51-1.17.22,0,.39.15.39.41,0,.31-.23.4-.67.5-.58.13-.8.21-1.14.42.96.58,1.82.32,1.82.91,0,.25-.17.41-.39.41-.44,0-.67-.77-1.51-1.17,0,1.03.29,1.3.29,1.68,0,.25-.19.42-.4.42s-.4-.17-.4-.42c0-.42.29-.62.29-1.68-.89.43-1.04,1.17-1.51,1.17-.22,0-.38-.15-.38-.41s.15-.39.67-.5c.47-.1.84-.22,1.14-.42-.32-.2-.68-.33-1.13-.42-.52-.1-.68-.23-.68-.5s.17-.41.38-.41c.46,0,.65.76,1.51,1.17,0-1.03-.29-1.28-.29-1.68,0-.25.19-.42.4-.42s.4.17.4.42c0,.44-.29.58-.29,1.68Z"/>
      <path class="cls-1" d="M46.6,147.46c.84-.4,1.07-1.17,1.51-1.17.22,0,.38.15.38.41,0,.31-.23.4-.67.5-.58.13-.8.21-1.14.42.96.58,1.81.32,1.81.91,0,.25-.16.41-.38.41-.44,0-.67-.77-1.51-1.17,0,1.03.29,1.3.29,1.68,0,.25-.19.42-.4.42s-.4-.17-.4-.42c0-.42.29-.62.29-1.68-.89.43-1.04,1.17-1.51,1.17-.22,0-.38-.15-.38-.41s.15-.39.67-.5c.47-.1.84-.22,1.14-.42-.32-.2-.68-.33-1.13-.42-.52-.1-.68-.23-.68-.5s.16-.41.38-.41c.46,0,.65.76,1.51,1.17,0-1.03-.29-1.28-.29-1.68,0-.25.19-.42.4-.42s.4.17.4.42c0,.44-.29.58-.29,1.68Z"/>
      <path class="cls-1" d="M53.87,147.46c.84-.4,1.07-1.17,1.51-1.17.22,0,.38.15.38.41,0,.31-.23.4-.67.5-.58.13-.8.21-1.14.42.96.58,1.82.32,1.82.91,0,.25-.17.41-.38.41-.44,0-.67-.77-1.51-1.17,0,1.03.29,1.3.29,1.68,0,.25-.19.42-.4.42s-.4-.17-.4-.42c0-.42.29-.62.29-1.68-.89.43-1.05,1.17-1.51,1.17-.22,0-.39-.15-.39-.41s.15-.39.67-.5c.47-.1.84-.22,1.14-.42-.32-.2-.68-.33-1.13-.42-.52-.1-.68-.23-.68-.5s.17-.41.39-.41c.46,0,.65.76,1.51,1.17,0-1.03-.29-1.28-.29-1.68,0-.25.19-.42.4-.42s.4.17.4.42c0,.44-.29.58-.29,1.68Z"/>
      <path class="cls-1" d="M61.14,147.46c.84-.4,1.07-1.17,1.51-1.17.22,0,.38.15.38.41,0,.31-.23.4-.67.5-.58.13-.8.21-1.14.42.96.58,1.82.32,1.82.91,0,.25-.17.41-.38.41-.44,0-.67-.77-1.51-1.17,0,1.03.29,1.3.29,1.68,0,.25-.19.42-.4.42s-.4-.17-.4-.42c0-.42.29-.62.29-1.68-.89.43-1.04,1.17-1.51,1.17-.22,0-.39-.15-.39-.41s.15-.39.67-.5c.47-.1.84-.22,1.14-.42-.32-.2-.68-.33-1.13-.42-.52-.1-.68-.23-.68-.5s.17-.41.39-.41c.46,0,.65.76,1.51,1.17,0-1.03-.29-1.28-.29-1.68,0-.25.19-.42.4-.42s.4.17.4.42c0,.44-.29.58-.29,1.68Z"/>
      <path class="cls-1" d="M68.41,147.46c.84-.4,1.07-1.17,1.51-1.17.22,0,.39.15.39.41,0,.31-.23.4-.67.5-.58.13-.8.21-1.14.42.96.58,1.82.32,1.82.91,0,.25-.17.41-.39.41-.44,0-.67-.77-1.51-1.17,0,1.03.29,1.3.29,1.68,0,.25-.19.42-.4.42s-.4-.17-.4-.42c0-.42.29-.62.29-1.68-.89.43-1.04,1.17-1.51,1.17-.22,0-.38-.15-.38-.41s.15-.39.67-.5c.47-.1.84-.22,1.14-.42-.32-.2-.68-.33-1.13-.42-.52-.1-.68-.23-.68-.5s.17-.41.38-.41c.46,0,.65.76,1.51,1.17,0-1.03-.29-1.28-.29-1.68,0-.25.19-.42.4-.42s.4.17.4.42c0,.44-.29.58-.29,1.68Z"/>
      <path class="cls-1" d="M75.68,147.46c.84-.4,1.07-1.17,1.51-1.17.22,0,.39.15.39.41,0,.31-.23.4-.67.5-.58.13-.8.21-1.14.42.96.58,1.82.32,1.82.91,0,.25-.17.41-.39.41-.44,0-.67-.77-1.51-1.17,0,1.03.29,1.3.29,1.68,0,.25-.19.42-.4.42s-.4-.17-.4-.42c0-.42.29-.62.29-1.68-.89.43-1.04,1.17-1.51,1.17-.22,0-.38-.15-.38-.41s.15-.39.67-.5c.47-.1.84-.22,1.14-.42-.32-.2-.68-.33-1.13-.42-.52-.1-.68-.23-.68-.5s.17-.41.38-.41c.46,0,.65.76,1.51,1.17,0-1.03-.29-1.28-.29-1.68,0-.25.19-.42.4-.42s.4.17.4.42c0,.44-.29.58-.29,1.68Z"/>
      <path class="cls-1" d="M82.95,147.46c.84-.4,1.07-1.17,1.51-1.17.22,0,.39.15.39.41,0,.31-.23.4-.67.5-.58.13-.8.21-1.14.42.96.58,1.82.32,1.82.91,0,.25-.17.41-.39.41-.44,0-.67-.77-1.51-1.17,0,1.03.29,1.3.29,1.68,0,.25-.19.42-.4.42s-.4-.17-.4-.42c0-.42.29-.62.29-1.68-.89.43-1.04,1.17-1.51,1.17-.22,0-.38-.15-.38-.41s.15-.39.67-.5c.47-.1.84-.22,1.14-.42-.32-.2-.68-.33-1.13-.42-.52-.1-.68-.23-.68-.5s.17-.41.38-.41c.46,0,.65.76,1.51,1.17,0-1.03-.29-1.28-.29-1.68,0-.25.19-.42.4-.42s.4.17.4.42c0,.44-.29.58-.29,1.68Z"/>
      <path class="cls-1" d="M90.22,147.46c.84-.4,1.07-1.17,1.51-1.17.22,0,.39.15.39.41,0,.31-.23.4-.67.5-.58.13-.8.21-1.14.42.96.58,1.82.32,1.82.91,0,.25-.17.41-.39.41-.44,0-.67-.77-1.51-1.17,0,1.03.29,1.3.29,1.68,0,.25-.19.42-.4.42s-.4-.17-.4-.42c0-.42.29-.62.29-1.68-.89.43-1.04,1.17-1.51,1.17-.22,0-.38-.15-.38-.41s.15-.39.67-.5c.47-.1.84-.22,1.14-.42-.32-.2-.68-.33-1.13-.42-.52-.1-.68-.23-.68-.5s.17-.41.38-.41c.46,0,.65.76,1.51,1.17,0-1.03-.29-1.28-.29-1.68,0-.25.19-.42.4-.42s.4.17.4.42c0,.44-.29.58-.29,1.68Z"/>
      <path class="cls-1" d="M97.5,147.46c.84-.4,1.07-1.17,1.51-1.17.22,0,.39.15.39.41,0,.31-.23.4-.67.5-.58.13-.8.21-1.14.42.96.58,1.82.32,1.82.91,0,.25-.17.41-.39.41-.44,0-.67-.77-1.51-1.17,0,1.03.29,1.3.29,1.68,0,.25-.19.42-.4.42s-.4-.17-.4-.42c0-.42.29-.62.29-1.68-.89.43-1.04,1.17-1.51,1.17-.22,0-.38-.15-.38-.41s.15-.39.67-.5c.47-.1.84-.22,1.14-.42-.32-.2-.68-.33-1.13-.42-.52-.1-.68-.23-.68-.5s.17-.41.38-.41c.46,0,.65.76,1.51,1.17,0-1.03-.29-1.28-.29-1.68,0-.25.19-.42.4-.42s.4.17.4.42c0,.44-.29.58-.29,1.68Z"/>
      <path class="cls-1" d="M104.77,147.46c.84-.4,1.07-1.17,1.51-1.17.22,0,.39.15.39.41,0,.31-.23.4-.67.5-.58.13-.8.21-1.14.42.96.58,1.82.32,1.82.91,0,.25-.17.41-.39.41-.44,0-.67-.77-1.51-1.17,0,1.03.29,1.3.29,1.68,0,.25-.19.42-.4.42s-.4-.17-.4-.42c0-.42.29-.62.29-1.68-.89.43-1.04,1.17-1.51,1.17-.22,0-.38-.15-.38-.41s.15-.39.67-.5c.47-.1.84-.22,1.14-.42-.32-.2-.68-.33-1.13-.42-.52-.1-.68-.23-.68-.5s.17-.41.38-.41c.46,0,.65.76,1.51,1.17,0-1.03-.29-1.28-.29-1.68,0-.25.19-.42.4-.42s.4.17.4.42c0,.44-.29.58-.29,1.68Z"/>
      <path class="cls-1" d="M112.04,147.46c.84-.4,1.07-1.17,1.51-1.17.22,0,.39.15.39.41,0,.31-.23.4-.67.5-.58.13-.8.21-1.14.42.96.58,1.82.32,1.82.91,0,.25-.17.41-.39.41-.44,0-.67-.77-1.51-1.17,0,1.03.29,1.3.29,1.68,0,.25-.19.42-.4.42s-.4-.17-.4-.42c0-.42.29-.62.29-1.68-.89.43-1.04,1.17-1.51,1.17-.22,0-.38-.15-.38-.41s.15-.39.67-.5c.47-.1.84-.22,1.14-.42-.32-.2-.68-.33-1.13-.42-.52-.1-.68-.23-.68-.5s.17-.41.38-.41c.46,0,.65.76,1.51,1.17,0-1.03-.29-1.28-.29-1.68,0-.25.19-.42.4-.42s.4.17.4.42c0,.44-.29.58-.29,1.68Z"/>
      <path class="cls-1" d="M119.31,147.46c.84-.4,1.07-1.17,1.51-1.17.22,0,.39.15.39.41,0,.31-.23.4-.67.5-.58.13-.8.21-1.14.42.96.58,1.82.32,1.82.91,0,.25-.17.41-.39.41-.44,0-.67-.77-1.51-1.17,0,1.03.29,1.3.29,1.68,0,.25-.19.42-.4.42s-.4-.17-.4-.42c0-.42.29-.62.29-1.68-.89.43-1.04,1.17-1.51,1.17-.22,0-.38-.15-.38-.41s.15-.39.67-.5c.47-.1.84-.22,1.14-.42-.32-.2-.68-.33-1.13-.42-.52-.1-.68-.23-.68-.5s.17-.41.38-.41c.46,0,.65.76,1.51,1.17,0-1.03-.29-1.28-.29-1.68,0-.25.19-.42.4-.42s.4.17.4.42c0,.44-.29.58-.29,1.68Z"/>
      <path class="cls-1" d="M126.58,147.46c.84-.4,1.07-1.17,1.51-1.17.22,0,.39.15.39.41,0,.31-.23.4-.67.5-.58.13-.8.21-1.14.42.96.58,1.82.32,1.82.91,0,.25-.17.41-.39.41-.44,0-.67-.77-1.51-1.17,0,1.03.29,1.3.29,1.68,0,.25-.19.42-.4.42s-.4-.17-.4-.42c0-.42.29-.62.29-1.68-.89.43-1.04,1.17-1.51,1.17-.22,0-.38-.15-.38-.41s.15-.39.67-.5c.47-.1.84-.22,1.14-.42-.32-.2-.68-.33-1.13-.42-.52-.1-.68-.23-.68-.5s.17-.41.38-.41c.46,0,.65.76,1.51,1.17,0-1.03-.29-1.28-.29-1.68,0-.25.19-.42.4-.42s.4.17.4.42c0,.44-.29.58-.29,1.68Z"/>
      <path class="cls-1" d="M133.85,147.46c.84-.4,1.07-1.17,1.51-1.17.22,0,.39.15.39.41,0,.31-.23.4-.67.5-.58.13-.8.21-1.14.42.96.58,1.82.32,1.82.91,0,.25-.17.41-.39.41-.44,0-.67-.77-1.51-1.17,0,1.03.29,1.3.29,1.68,0,.25-.19.42-.4.42s-.4-.17-.4-.42c0-.42.29-.62.29-1.68-.89.43-1.04,1.17-1.51,1.17-.22,0-.38-.15-.38-.41s.15-.39.67-.5c.47-.1.84-.22,1.14-.42-.32-.2-.68-.33-1.13-.42-.52-.1-.68-.23-.68-.5s.17-.41.38-.41c.46,0,.65.76,1.51,1.17,0-1.03-.29-1.28-.29-1.68,0-.25.19-.42.4-.42s.4.17.4.42c0,.44-.29.58-.29,1.68Z"/>
      <path class="cls-1" d="M141.12,147.46c.84-.4,1.07-1.17,1.51-1.17.22,0,.39.15.39.41,0,.31-.23.4-.67.5-.58.13-.8.21-1.14.42.96.58,1.82.32,1.82.91,0,.25-.17.41-.39.41-.44,0-.67-.77-1.51-1.17,0,1.03.29,1.3.29,1.68,0,.25-.19.42-.4.42s-.4-.17-.4-.42c0-.42.29-.62.29-1.68-.89.43-1.04,1.17-1.51,1.17-.22,0-.38-.15-.38-.41s.15-.39.67-.5c.47-.1.84-.22,1.14-.42-.32-.2-.68-.33-1.13-.42-.52-.1-.68-.23-.68-.5s.17-.41.38-.41c.46,0,.65.76,1.51,1.17,0-1.03-.29-1.28-.29-1.68,0-.25.19-.42.4-.42s.4.17.4.42c0,.44-.29.58-.29,1.68Z"/>
      <path class="cls-1" d="M148.39,147.46c.84-.4,1.07-1.17,1.51-1.17.22,0,.39.15.39.41,0,.31-.23.4-.67.5-.58.13-.8.21-1.14.42.96.58,1.82.32,1.82.91,0,.25-.17.41-.39.41-.44,0-.67-.77-1.51-1.17,0,1.03.29,1.3.29,1.68,0,.25-.19.42-.4.42s-.4-.17-.4-.42c0-.42.29-.62.29-1.68-.89.43-1.04,1.17-1.51,1.17-.22,0-.38-.15-.38-.41s.15-.39.67-.5c.47-.1.84-.22,1.14-.42-.32-.2-.68-.33-1.13-.42-.52-.1-.68-.23-.68-.5s.17-.41.38-.41c.46,0,.65.76,1.51,1.17,0-1.03-.29-1.28-.29-1.68,0-.25.19-.42.4-.42s.4.17.4.42c0,.44-.29.58-.29,1.68Z"/>
      <path class="cls-1" d="M155.66,147.46c.84-.4,1.07-1.17,1.51-1.17.22,0,.39.15.39.41,0,.31-.23.4-.67.5-.58.13-.8.21-1.14.42.96.58,1.82.32,1.82.91,0,.25-.17.41-.39.41-.44,0-.67-.77-1.51-1.17,0,1.03.29,1.3.29,1.68,0,.25-.19.42-.4.42s-.4-.17-.4-.42c0-.42.29-.62.29-1.68-.89.43-1.04,1.17-1.51,1.17-.22,0-.38-.15-.38-.41s.15-.39.67-.5c.47-.1.84-.22,1.14-.42-.32-.2-.68-.33-1.13-.42-.52-.1-.68-.23-.68-.5s.17-.41.38-.41c.46,0,.65.76,1.51,1.17,0-1.03-.29-1.28-.29-1.68,0-.25.19-.42.4-.42s.4.17.4.42c0,.44-.29.58-.29,1.68Z"/>
      <path class="cls-1" d="M162.93,147.46c.84-.4,1.07-1.17,1.51-1.17.22,0,.39.15.39.41,0,.31-.23.4-.67.5-.58.13-.8.21-1.14.42.96.58,1.82.32,1.82.91,0,.25-.17.41-.39.41-.44,0-.67-.77-1.51-1.17,0,1.03.29,1.3.29,1.68,0,.25-.19.42-.4.42s-.4-.17-.4-.42c0-.42.29-.62.29-1.68-.89.43-1.04,1.17-1.51,1.17-.22,0-.38-.15-.38-.41s.15-.39.67-.5c.47-.1.84-.22,1.14-.42-.32-.2-.68-.33-1.13-.42-.52-.1-.68-.23-.68-.5s.17-.41.38-.41c.46,0,.65.76,1.51,1.17,0-1.03-.29-1.28-.29-1.68,0-.25.19-.42.4-.42s.4.17.4.42c0,.44-.29.58-.29,1.68Z"/>
      <path class="cls-1" d="M170.21,147.46c.84-.4,1.07-1.17,1.51-1.17.22,0,.39.15.39.41,0,.31-.23.4-.67.5-.58.13-.8.21-1.14.42.96.58,1.82.32,1.82.91,0,.25-.17.41-.39.41-.44,0-.67-.77-1.51-1.17,0,1.03.29,1.3.29,1.68,0,.25-.19.42-.4.42s-.4-.17-.4-.42c0-.42.29-.62.29-1.68-.89.43-1.04,1.17-1.51,1.17-.22,0-.38-.15-.38-.41s.15-.39.67-.5c.47-.1.84-.22,1.14-.42-.32-.2-.68-.33-1.13-.42-.52-.1-.68-.23-.68-.5s.17-.41.38-.41c.46,0,.65.76,1.51,1.17,0-1.03-.29-1.28-.29-1.68,0-.25.19-.42.4-.42s.4.17.4.42c0,.44-.29.58-.29,1.68Z"/>
      <path class="cls-1" d="M177.48,147.46c.84-.4,1.07-1.17,1.51-1.17.22,0,.39.15.39.41,0,.31-.23.4-.67.5-.58.13-.8.21-1.14.42.96.58,1.82.32,1.82.91,0,.25-.17.41-.39.41-.44,0-.67-.77-1.51-1.17,0,1.03.29,1.3.29,1.68,0,.25-.19.42-.4.42s-.4-.17-.4-.42c0-.42.29-.62.29-1.68-.89.43-1.04,1.17-1.51,1.17-.22,0-.38-.15-.38-.41s.15-.39.67-.5c.47-.1.84-.22,1.14-.42-.32-.2-.68-.33-1.13-.42-.52-.1-.68-.23-.68-.5s.17-.41.38-.41c.46,0,.65.76,1.51,1.17,0-1.03-.29-1.28-.29-1.68,0-.25.19-.42.4-.42s.4.17.4.42c0,.44-.29.58-.29,1.68Z"/>
      <path class="cls-1" d="M184.75,147.46c.84-.4,1.07-1.17,1.51-1.17.22,0,.39.15.39.41,0,.31-.23.4-.67.5-.58.13-.8.21-1.14.42.96.58,1.82.32,1.82.91,0,.25-.17.41-.39.41-.44,0-.67-.77-1.51-1.17,0,1.03.29,1.3.29,1.68,0,.25-.19.42-.4.42s-.4-.17-.4-.42c0-.42.29-.62.29-1.68-.89.43-1.04,1.17-1.51,1.17-.22,0-.38-.15-.38-.41s.15-.39.67-.5c.47-.1.84-.22,1.14-.42-.32-.2-.68-.33-1.13-.42-.52-.1-.68-.23-.68-.5s.17-.41.38-.41c.46,0,.65.76,1.51,1.17,0-1.03-.29-1.28-.29-1.68,0-.25.19-.42.4-.42s.4.17.4.42c0,.44-.29.58-.29,1.68Z"/>
    </g>
    <g>
      <g>
        <path class="cls-1" d="M5.25,104.47c-.5.45-1.21.67-2.12.67H.72v-7.27h2.4c.92,0,1.63.24,2.13.73.5.49.75,1.19.75,2.11v1.74c0,.91-.25,1.58-.76,2.03ZM3.94,103.72c.22-.12.38-.3.47-.54.09-.24.14-.56.14-.95v-1.27c0-.59-.11-1.05-.34-1.38-.22-.33-.62-.49-1.18-.49h-.85v4.81h.85c.39,0,.69-.06.91-.18Z"/>
        <path class="cls-1" d="M6.79,102.26c.26-.28.59-.45.98-.52.39-.07.89-.11,1.49-.11h.85v-.38c0-.25-.1-.45-.31-.58-.2-.13-.44-.2-.7-.2-.31,0-.55.04-.73.11-.18.07-.31.23-.38.49h-1.34c.08-.61.34-1.05.77-1.34s.99-.43,1.67-.43c.74,0,1.33.17,1.75.52.43.35.64.9.64,1.65v3.67h-1.23l-.05-.56c-.23.28-.5.46-.8.55-.3.09-.66.14-1.08.14-.59,0-1.05-.15-1.4-.44-.34-.29-.52-.72-.52-1.3s.13-1,.4-1.28ZM10.11,102.76h-1.31c-.34,0-.6.05-.78.14-.18.09-.27.29-.27.6,0,.2.08.35.23.44s.35.13.58.13.48-.04.72-.13.43-.22.59-.4c.16-.18.24-.39.24-.64v-.14Z"/>
        <path class="cls-1" d="M14.29,97.62v1.97h1.07v1.18h-1.07v2.46c0,.25.03.44.09.56.06.12.15.2.26.23.11.03.28.05.5.05h.32v1.18h-.67c-.63,0-1.1-.14-1.41-.43-.31-.29-.47-.74-.47-1.35v-2.69h-.98v-1.18h.98v-1.97h1.39Z"/>
        <path class="cls-1" d="M20.08,104.85c-.46.28-1.01.42-1.66.42-.54,0-1.01-.1-1.42-.29-.41-.19-.73-.47-.95-.84-.23-.37-.34-.82-.34-1.35v-1.03c0-.52.11-.97.34-1.34.23-.37.54-.65.94-.85.4-.19.86-.29,1.38-.29s.98.1,1.38.29c.41.2.72.48.95.86.23.38.34.83.34,1.36v.89h-3.96c0,.47.1.82.31,1.05s.55.34,1.03.34c.62,0,.98-.2,1.06-.59h1.47c-.11.62-.39,1.07-.85,1.35ZM17.46,100.75c-.21.17-.34.45-.38.82h2.52c-.04-.38-.17-.65-.37-.82s-.5-.26-.88-.26-.68.09-.89.26Z"/>
        <path class="cls-1" d="M22.45,100.57v-1.57h1.67v1.57h-1.67ZM22.45,104.02v-1.58h1.67v1.58h-1.67Z"/>
        <path class="cls-1" d="M5.25,118.47c-.5.45-1.21.67-2.12.67H.72v-7.27h2.4c.92,0,1.63.24,2.13.73.5.49.75,1.19.75,2.11v1.74c0,.91-.25,1.58-.76,2.03ZM3.94,117.72c.22-.12.38-.3.47-.54.09-.24.14-.56.14-.95v-1.27c0-.59-.11-1.05-.34-1.38-.22-.33-.62-.49-1.18-.49h-.85v4.81h.85c.39,0,.69-.06.91-.18Z"/>
        <path class="cls-1" d="M10.88,118.85c-.46.28-1.01.42-1.66.42-.54,0-1.01-.1-1.42-.29-.41-.19-.73-.47-.95-.84-.23-.37-.34-.82-.34-1.35v-1.03c0-.52.11-.97.34-1.34.22-.37.54-.65.94-.85.4-.19.86-.29,1.38-.29s.98.1,1.38.29c.41.2.72.48.95.86.23.38.34.83.34,1.36v.89h-3.96c0,.47.1.82.31,1.05s.55.34,1.03.34c.62,0,.98-.2,1.06-.59h1.47c-.11.62-.39,1.07-.85,1.35ZM8.26,114.75c-.21.17-.34.45-.38.82h2.52c-.04-.38-.17-.65-.37-.82s-.5-.26-.88-.26-.68.09-.89.26Z"/>
        <path class="cls-1" d="M13.95,117.91c.2.12.46.18.8.18.32,0,.58-.04.8-.11.21-.07.32-.23.32-.49,0-.2-.18-.38-.54-.52-.36-.14-.82-.28-1.37-.41h-.05s0,0,0,0l-.45-.13c-.32-.11-.56-.28-.73-.51-.17-.23-.26-.52-.26-.86,0-.39.11-.72.32-.98.21-.26.49-.46.83-.59s.7-.19,1.08-.19c.69,0,1.26.15,1.71.46s.7.79.73,1.45h-1.34c-.1-.49-.46-.73-1.08-.73-.24,0-.45.04-.62.12s-.26.22-.26.43c0,.15.05.26.14.34.1.08.23.14.41.2.13.04.31.09.57.15l.11.03c.59.12,1.11.32,1.54.61.44.29.65.68.65,1.18,0,.68-.23,1.14-.68,1.37s-1.06.36-1.81.36-1.35-.16-1.8-.48c-.46-.32-.69-.83-.69-1.54h1.38c.01.31.12.53.31.65Z"/>
        <path class="cls-1" d="M19.32,117.91c.2.12.46.18.8.18.32,0,.58-.04.8-.11.21-.07.32-.23.32-.49,0-.2-.18-.38-.54-.52-.36-.14-.82-.28-1.37-.41h-.05s0,0,0,0l-.45-.13c-.32-.11-.56-.28-.73-.51-.17-.23-.26-.52-.26-.86,0-.39.11-.72.32-.98.21-.26.49-.46.83-.59s.7-.19,1.08-.19c.69,0,1.26.15,1.71.46s.7.79.73,1.45h-1.34c-.1-.49-.46-.73-1.08-.73-.24,0-.45.04-.62.12s-.26.22-.26.43c0,.15.05.26.14.34.1.08.23.14.41.2.13.04.31.09.57.15l.11.03c.59.12,1.11.32,1.54.61.44.29.65.68.65,1.18,0,.68-.23,1.14-.68,1.37s-1.06.36-1.81.36-1.35-.16-1.8-.48c-.46-.32-.69-.83-.69-1.54h1.38c.01.31.12.53.31.65Z"/>
        <path class="cls-1" d="M27.43,118.85c-.46.28-1.01.42-1.66.42-.54,0-1.01-.1-1.42-.29-.41-.19-.73-.47-.95-.84-.23-.37-.34-.82-.34-1.35v-1.03c0-.52.11-.97.34-1.34.23-.37.54-.65.94-.85.4-.19.86-.29,1.38-.29s.98.1,1.38.29c.41.2.72.48.95.86.23.38.34.83.34,1.36v.89h-3.96c0,.47.1.82.31,1.05s.55.34,1.03.34c.62,0,.98-.2,1.06-.59h1.47c-.11.62-.39,1.07-.85,1.35ZM24.81,114.75c-.21.17-.34.45-.38.82h2.52c-.04-.38-.17-.65-.37-.82s-.5-.26-.88-.26-.68.09-.89.26Z"/>
        <path class="cls-1" d="M32.68,113.43v1.35l-2.2.89v3.47h-1.4v-5.63h1.22l.12.74,2.26-.82Z"/>
        <path class="cls-1" d="M35.52,111.62v1.97h1.07v1.18h-1.07v2.46c0,.25.03.44.09.56.06.12.15.2.26.23.11.03.28.05.5.05h.32v1.18h-.68c-.63,0-1.1-.14-1.41-.43-.31-.29-.47-.74-.47-1.35v-2.69h-.98v-1.18h.98v-1.97h1.39Z"/>
        <path class="cls-1" d="M41.91,111.62v1.97h1.07v1.18h-1.07v2.46c0,.25.03.44.09.56.06.12.15.2.26.23.11.03.28.05.5.05h.32v1.18h-.67c-.63,0-1.1-.14-1.41-.43-.31-.29-.47-.74-.47-1.35v-2.69h-.98v-1.18h.98v-1.97h1.39Z"/>
        <path class="cls-1" d="M44.82,121.03l.77-2.22-2.23-5.3h1.48l1.38,3.51,1.18-3.51h1.48l-2.67,7.52h-1.38Z"/>
        <path class="cls-1" d="M49.43,113.51h1.25l.06.35c.19-.17.41-.31.64-.4.23-.09.48-.14.73-.14.78,0,1.39.22,1.84.65.44.43.67,1.04.67,1.82v1.02c0,.79-.22,1.4-.65,1.83-.43.43-1.03.64-1.79.64-.56,0-1.03-.13-1.39-.4v2.15h-1.36v-7.52ZM51.11,114.89c-.21.26-.32.61-.32,1.04v.68c0,.45.1.81.31,1.08.2.27.53.4.97.4.42,0,.72-.12.89-.36s.26-.59.26-1.03v-.81c0-.45-.09-.79-.26-1.03-.17-.24-.47-.36-.88-.36-.44,0-.76.13-.97.39Z"/>
        <path class="cls-1" d="M59.46,118.85c-.46.28-1.01.42-1.66.42-.54,0-1.01-.1-1.42-.29-.41-.19-.73-.47-.95-.84-.23-.37-.34-.82-.34-1.35v-1.03c0-.52.11-.97.34-1.34.22-.37.54-.65.94-.85.4-.19.86-.29,1.38-.29s.98.1,1.38.29c.41.2.72.48.95.86.23.38.34.83.34,1.36v.89h-3.96c0,.47.1.82.31,1.05s.55.34,1.03.34c.62,0,.98-.2,1.06-.59h1.47c-.11.62-.39,1.07-.85,1.35ZM56.84,114.75c-.21.17-.34.45-.38.82h2.52c-.04-.38-.17-.65-.37-.82s-.5-.26-.88-.26-.68.09-.89.26Z"/>
        <path class="cls-1" d="M61.84,114.57v-1.57h1.67v1.57h-1.67ZM61.84,118.02v-1.58h1.67v1.58h-1.67Z"/>
        <path class="cls-1" d="M4.87,132.85c-.46.28-1.01.42-1.66.42-.54,0-1.01-.1-1.42-.29-.41-.19-.73-.47-.95-.84-.23-.37-.34-.82-.34-1.35v-1.03c0-.52.11-.97.34-1.34.23-.37.54-.65.94-.85.4-.19.86-.29,1.38-.29s.98.1,1.38.29c.41.2.72.48.95.86.23.38.34.83.34,1.36v.89H1.86c0,.47.1.82.31,1.05s.55.34,1.03.34c.62,0,.98-.2,1.06-.59h1.47c-.11.62-.39,1.07-.85,1.35ZM2.25,128.75c-.21.17-.34.45-.38.82h2.52c-.04-.38-.17-.65-.37-.82s-.5-.26-.88-.26-.68.09-.89.26Z"/>
        <path class="cls-1" d="M6.44,129.04h3.35v1.23h-3.35v-1.23Z"/>
        <path class="cls-1" d="M12.56,127.53c.25-.14.52-.21.81-.21.34,0,.62.06.85.19.23.13.4.34.53.63.16-.25.38-.44.66-.59s.57-.23.86-.23c.6,0,1.03.17,1.3.52.26.35.4.83.4,1.44v3.86h-1.36v-3.59c0-.32-.04-.57-.13-.76s-.27-.28-.56-.28c-.31,0-.54.12-.7.36-.15.24-.23.53-.23.88v3.4h-1.36v-3.75c0-.26-.04-.48-.13-.64s-.26-.24-.53-.24c-.31,0-.55.12-.72.36-.17.24-.25.53-.25.88v3.4h-1.39v-5.63h1.29l.1.59c.13-.24.32-.43.57-.57Z"/>
        <path class="cls-1" d="M18.92,130.26c.26-.28.59-.45.98-.52.39-.07.89-.11,1.49-.11h.85v-.38c0-.25-.1-.45-.31-.58-.2-.13-.44-.2-.7-.2-.31,0-.55.04-.73.11-.18.07-.31.23-.38.49h-1.34c.08-.61.34-1.05.77-1.34.43-.29.99-.43,1.67-.43.74,0,1.33.17,1.76.52.43.35.64.9.64,1.65v3.67h-1.23l-.05-.56c-.23.28-.5.46-.8.55-.3.09-.66.14-1.08.14-.59,0-1.05-.15-1.4-.44-.35-.29-.52-.72-.52-1.3s.13-1,.4-1.28ZM22.24,130.76h-1.3c-.34,0-.6.05-.78.14-.18.09-.27.29-.27.6,0,.2.08.35.23.44.15.09.35.13.58.13s.48-.04.72-.13c.24-.09.43-.22.59-.4.16-.18.24-.39.24-.64v-.14Z"/>
        <path class="cls-1" d="M28.1,127.43v1.35l-2.2.89v3.47h-1.39v-5.63h1.21l.12.74,2.26-.82Z"/>
        <path class="cls-1" d="M30.95,125.62v1.97h1.07v1.18h-1.07v2.46c0,.25.03.44.09.56.06.12.15.2.26.23.11.03.28.05.5.05h.32v1.18h-.67c-.63,0-1.1-.14-1.41-.43-.31-.29-.47-.74-.47-1.35v-2.69h-.98v-1.18h.98v-1.97h1.39Z"/>
        <path class="cls-1" d="M38.05,127.3c.75,0,1.34.22,1.78.65.43.44.65,1.04.65,1.81v1.03c0,.83-.23,1.45-.68,1.86-.45.41-1.1.62-1.94.62-.23,0-.45-.04-.67-.11-.22-.08-.42-.18-.61-.33l-.05.31h-1.23v-7.52h1.36v2.06c.37-.25.84-.38,1.4-.38ZM36.97,128.9c-.21.27-.32.63-.32,1.07v.48c0,.53.08.94.25,1.22.17.28.5.42.98.42.44,0,.75-.12.93-.36s.27-.58.27-1.03v-.83c0-.45-.08-.79-.26-1.03-.17-.24-.46-.36-.87-.36-.44,0-.77.14-.99.41Z"/>
        <path class="cls-1" d="M44.76,127.43v1.35l-2.2.89v3.47h-1.4v-5.63h1.22l.12.74,2.26-.82Z"/>
        <path class="cls-1" d="M45.2,130.26c.26-.28.59-.45.98-.52.39-.07.89-.11,1.49-.11h.85v-.38c0-.25-.1-.45-.31-.58-.2-.13-.44-.2-.7-.2-.31,0-.55.04-.73.11-.18.07-.31.23-.38.49h-1.34c.08-.61.34-1.05.77-1.34s.99-.43,1.67-.43c.74,0,1.33.17,1.75.52.43.35.64.9.64,1.65v3.67h-1.23l-.05-.56c-.23.28-.5.46-.8.55-.3.09-.66.14-1.08.14-.59,0-1.05-.15-1.4-.44-.34-.29-.52-.72-.52-1.3s.13-1,.4-1.28ZM48.52,130.76h-1.31c-.34,0-.6.05-.78.14-.18.09-.27.29-.27.6,0,.2.08.35.23.44s.35.13.58.13.48-.04.72-.13.43-.22.59-.4c.16-.18.24-.39.24-.64v-.14Z"/>
        <path class="cls-1" d="M52.77,127.49c.25-.12.51-.18.78-.18.78,0,1.38.22,1.8.65.42.43.63,1.04.63,1.82v3.36h-1.39v-3.25c0-.46-.08-.8-.22-1.04-.15-.23-.42-.35-.81-.35-.46,0-.8.15-1.04.44-.24.29-.36.66-.36,1.09v3.1h-1.36v-5.63h1.26l.1.47c.16-.2.36-.36.62-.48Z"/>
        <path class="cls-1" d="M61.75,133.14h-1.23l-.06-.31c-.38.29-.8.44-1.26.44-.84,0-1.49-.21-1.94-.62-.45-.41-.67-1.03-.67-1.86v-1.03c0-.77.21-1.38.64-1.81s1.02-.65,1.77-.65c.56,0,1.02.13,1.39.38v-2.06h1.36v7.52ZM60.12,131.68c.18-.27.27-.65.27-1.15v-.49c0-.46-.1-.83-.3-1.12-.2-.29-.53-.43-1-.43-.41,0-.7.12-.88.36-.18.24-.27.58-.27,1.03v.83c0,.45.09.79.27,1.03.18.24.49.36.93.36.47,0,.79-.13.97-.4Z"/>
        <path class="cls-1" d="M63.4,128.57v-1.57h1.67v1.57h-1.67ZM63.4,132.02v-1.58h1.67v1.58h-1.67Z"/>
      </g>
      <g>
        <path class="cls-1" d="M110.97,104.55v.59h-5.12l2.1-2.28c.44-.47.79-.86,1.06-1.18.27-.32.47-.6.62-.83.14-.23.24-.44.29-.63s.08-.37.08-.56c0-.19-.02-.38-.09-.56-.06-.18-.16-.34-.29-.48s-.3-.25-.5-.34c-.2-.08-.44-.13-.72-.13-.37,0-.67.06-.9.18-.23.12-.4.27-.52.44-.12.17-.2.35-.24.53-.04.18-.06.33-.06.44h-.63c.02-.43.1-.78.25-1.05.15-.27.33-.49.54-.65.22-.16.46-.27.72-.33s.53-.09.78-.09c.34,0,.65.04.93.12s.52.21.72.37c.2.17.35.38.46.64s.17.56.17.91c0,.24-.03.46-.08.67-.05.21-.15.43-.28.67-.13.24-.32.5-.55.79-.23.29-.53.63-.89,1.03l-1.56,1.71h3.71Z"/>
        <path class="cls-1" d="M111.44,100.44c0-.96.24-1.67.71-2.12.47-.46,1.16-.68,2.07-.68s1.6.23,2.07.68c.47.46.71,1.16.71,2.12v2.14c0,.95-.24,1.66-.71,2.11-.47.45-1.16.68-2.07.68s-1.6-.23-2.07-.68c-.47-.45-.71-1.16-.71-2.11v-2.14ZM112.07,102.76c0,.66.19,1.16.58,1.51.39.34.91.52,1.57.52s1.18-.17,1.57-.52c.39-.35.58-.85.58-1.51v-2.5c0-.33-.05-.62-.16-.88-.1-.25-.25-.47-.44-.63-.19-.17-.42-.3-.68-.38-.26-.09-.55-.13-.87-.13s-.62.04-.88.13c-.26.09-.49.21-.68.38-.19.17-.33.38-.44.63-.1.25-.15.55-.15.88v2.5Z"/>
        <path class="cls-1" d="M122.67,104.55v.59h-5.12l2.1-2.28c.44-.47.79-.86,1.06-1.18.27-.32.47-.6.62-.83.14-.23.24-.44.29-.63.05-.18.08-.37.08-.56,0-.19-.02-.38-.09-.56-.06-.18-.16-.34-.29-.48-.13-.14-.3-.25-.5-.34s-.44-.13-.72-.13c-.37,0-.67.06-.9.18-.23.12-.4.27-.52.44-.12.17-.2.35-.24.53-.04.18-.06.33-.06.44h-.63c.02-.43.1-.78.25-1.05.15-.27.33-.49.54-.65.22-.16.46-.27.72-.33.26-.06.52-.09.78-.09.34,0,.65.04.93.12.28.08.52.21.72.37s.35.38.46.64c.11.26.17.56.17.91,0,.24-.03.46-.08.67s-.15.43-.28.67c-.13.24-.32.5-.55.79-.23.29-.53.63-.89,1.03l-1.56,1.71h3.71Z"/>
        <path class="cls-1" d="M127.38,104.77c-.43.4-1.04.6-1.81.6-.25,0-.51-.04-.76-.11-.26-.07-.5-.19-.71-.35s-.4-.37-.54-.63c-.14-.26-.22-.57-.24-.95h.63c.03.45.18.8.46,1.06.27.25.67.38,1.19.38.25,0,.49-.03.71-.09s.42-.16.58-.3c.17-.14.29-.32.39-.56.09-.23.14-.53.14-.88,0-.51-.16-.91-.48-1.21-.32-.29-.76-.44-1.31-.44h-2.16v-3.44h4.24v.59h-3.61v2.25h1.41c.39,0,.74.05,1.06.15.31.1.58.25.8.44.22.19.39.42.5.7s.18.59.18.94c0,.82-.22,1.43-.65,1.84Z"/>
        <path class="cls-1" d="M129.2,105.89v-1.1h1.18v1.1h-1.18Z"/>
        <path class="cls-1" d="M133.19,105.14v-6.58l-1.61.59v-.62l2.25-.85v7.45h-.64Z"/>
        <path class="cls-1" d="M135.51,100.44c0-.96.24-1.67.71-2.12.47-.46,1.16-.68,2.08-.68s1.6.23,2.07.68c.47.46.71,1.16.71,2.12v2.14c0,.95-.24,1.66-.71,2.11-.47.45-1.16.68-2.07.68s-1.6-.23-2.08-.68c-.47-.45-.71-1.16-.71-2.11v-2.14ZM136.14,102.76c0,.66.19,1.16.58,1.51.39.34.91.52,1.57.52s1.18-.17,1.57-.52c.39-.35.58-.85.58-1.51v-2.5c0-.33-.05-.62-.16-.88-.11-.25-.25-.47-.44-.63-.19-.17-.42-.3-.68-.38-.26-.09-.56-.13-.87-.13s-.62.04-.88.13c-.26.09-.49.21-.68.38-.19.17-.33.38-.44.63-.1.25-.15.55-.15.88v2.5Z"/>
        <path class="cls-1" d="M142.17,105.89v-1.1h1.18v1.1h-1.18Z"/>
        <path class="cls-1" d="M146.16,105.14v-6.58l-1.61.59v-.62l2.25-.85v7.45h-.64Z"/>
        <path class="cls-1" d="M160.08,101.94h-3.35v-.59h3.35v.59Z"/>
        <path class="cls-1" d="M164.89,105.14v-6.58l-1.61.59v-.62l2.25-.85v7.45h-.64Z"/>
        <path class="cls-1" d="M167.21,100.44c0-.96.24-1.67.71-2.12.47-.46,1.16-.68,2.07-.68s1.6.23,2.07.68c.47.46.71,1.16.71,2.12v2.14c0,.95-.24,1.66-.71,2.11-.47.45-1.16.68-2.07.68s-1.6-.23-2.07-.68c-.47-.45-.71-1.16-.71-2.11v-2.14ZM167.84,102.76c0,.66.19,1.16.58,1.51.39.34.91.52,1.57.52s1.18-.17,1.57-.52c.39-.35.58-.85.58-1.51v-2.5c0-.33-.05-.62-.16-.88-.1-.25-.25-.47-.44-.63-.19-.17-.42-.3-.68-.38-.26-.09-.55-.13-.87-.13s-.62.04-.88.13c-.26.09-.49.21-.68.38-.19.17-.33.38-.44.63-.1.25-.15.55-.15.88v2.5Z"/>
        <path class="cls-1" d="M173.88,105.89v-1.1h1.18v1.1h-1.18Z"/>
        <path class="cls-1" d="M181.17,104.55v.59h-5.12l2.1-2.28c.44-.47.79-.86,1.06-1.18.27-.32.47-.6.62-.83.14-.23.24-.44.29-.63.05-.18.08-.37.08-.56,0-.19-.02-.38-.09-.56-.06-.18-.16-.34-.29-.48-.13-.14-.3-.25-.5-.34s-.44-.13-.72-.13c-.37,0-.67.06-.9.18-.23.12-.4.27-.52.44-.12.17-.2.35-.24.53-.04.18-.06.33-.06.44h-.63c.02-.43.1-.78.25-1.05.15-.27.33-.49.54-.65.22-.16.46-.27.72-.33.26-.06.52-.09.78-.09.34,0,.65.04.93.12.28.08.52.21.72.37s.35.38.46.64c.11.26.17.56.17.91,0,.24-.03.46-.08.67s-.15.43-.28.67c-.13.24-.32.5-.55.79-.23.29-.53.63-.89,1.03l-1.56,1.71h3.71Z"/>
        <path class="cls-1" d="M185.41,100.75c.3.12.55.29.76.5s.38.45.5.73c.12.28.18.59.18.94,0,.41-.06.77-.17,1.07-.12.31-.29.56-.51.77s-.49.36-.8.47c-.31.1-.66.16-1.04.16-.44,0-.83-.07-1.14-.22-.32-.15-.58-.34-.78-.58-.2-.24-.35-.5-.45-.8-.1-.3-.14-.59-.14-.89,0-.17.02-.34.04-.51.03-.17.07-.33.11-.49.04-.16.09-.3.14-.43s.09-.24.13-.32l1.48-3.28h.73l-1.38,3.07c.1-.08.21-.15.34-.2.13-.05.26-.09.39-.12.13-.03.24-.04.36-.05.11,0,.2-.01.27-.01.36.01.69.08.99.2ZM185.15,104.65c.23-.09.43-.22.59-.38s.28-.36.36-.58.12-.47.12-.73c0-.23-.03-.46-.1-.67-.07-.21-.18-.4-.33-.56-.15-.16-.35-.29-.59-.39-.24-.1-.53-.15-.88-.15-.27,0-.52.04-.75.12-.23.08-.42.2-.59.36-.17.16-.3.34-.39.57s-.14.47-.14.75c0,.25.04.49.12.71s.2.42.36.58c.16.16.36.29.59.39.24.09.51.14.81.14s.58-.05.82-.14Z"/>
        <path class="cls-1" d="M163.16,115.76h-7.27v-.59h7.27v.59ZM161.93,114.41l-2.27-2.24h-.29l-2.26,2.24h-.92l2.85-2.78h.94l2.85,2.78h-.91ZM156.59,119.34v-2.75h5.84v2.75h-5.84ZM157.22,117.18v1.57h4.58v-1.57h-4.58Z"/>
        <path class="cls-1" d="M170.84,115.76h-7.27v-.59h7.27v.59ZM169.62,114.41l-2.27-2.24h-.29l-2.26,2.24h-.92l2.85-2.78h.94l2.85,2.78h-.91ZM164.28,119.34v-2.75h5.84v2.75h-5.84ZM164.91,117.18v1.57h4.58v-1.57h-4.58Z"/>
        <path class="cls-1" d="M176.01,113.06h-4.78v-.59h2.04l.26-1.04h.68l-.25,1.04h2.04v.59ZM172.75,116.35c-.23,0-.43-.05-.59-.14-.17-.08-.31-.19-.42-.32-.11-.13-.2-.28-.25-.45-.06-.16-.09-.33-.09-.49s.03-.32.08-.49c.05-.16.13-.31.24-.44.11-.13.25-.23.42-.32.17-.08.38-.12.63-.13.18,0,.34,0,.47,0h.39c.13,0,.25,0,.39,0s.29,0,.46,0c.25,0,.46.04.63.12s.32.19.42.32c.11.13.19.28.24.44.05.16.08.32.08.49s-.03.33-.09.49c-.06.17-.14.31-.25.45-.11.13-.25.24-.42.32-.17.08-.37.13-.59.14-.2,0-.37.01-.5.01-.13,0-.25,0-.37,0s-.24,0-.37,0c-.13,0-.3,0-.5-.01ZM171.97,119.35v-2.39h.63v1.79h5.54v.59h-6.17ZM174.51,115.75c.19-.01.34-.09.47-.23.13-.14.19-.33.19-.57,0-.25-.06-.45-.19-.58s-.29-.21-.47-.21c-.32-.01-.62-.02-.89-.02s-.57,0-.89.02c-.19,0-.34.08-.47.21s-.19.33-.19.58.06.43.19.57c.13.14.29.21.47.23.32.02.62.03.89.03s.57,0,.89-.03ZM179.04,114.03v.59h-1.29v2.54h-.63v-5.54h.63v2.4h1.29Z"/>
        <path class="cls-1" d="M183.5,114.38c-.11.43-.34.72-.71.9s-.81.26-1.35.26c-.64,0-1.12-.14-1.45-.42-.32-.28-.46-.67-.41-1.17.04-.49.1-.87.18-1.13.23-.83.92-1.24,2.05-1.24.41,0,.76.07,1.05.2.29.13.5.31.63.54.13.22.19.47.18.74-.03.55-.09.99-.17,1.33ZM185.6,117.14v-1.04h.63v3.24h-6.03v-3.24h.63v1.04h4.77ZM182.94,113.72c.04-.24.06-.44.06-.6,0-.37-.11-.62-.32-.76s-.52-.2-.9-.2c-.33,0-.62.05-.87.16s-.42.31-.51.63c-.04.11-.07.29-.11.54s-.05.42-.05.53c0,.36.11.6.34.73s.53.19.9.19c.74,0,1.19-.23,1.34-.68.04-.12.08-.3.12-.54ZM180.83,117.74v1.02h4.77v-1.02h-4.77ZM185.6,115.61v-3.98h.63v3.98h-.63Z"/>
        <path class="cls-1" d="M160.2,126.32h-1.52l1.49,6.74h-.64l-1.49-6.74h-.28l-1.49,6.74h-.64l1.49-6.74h-1.61v-.59h4.69v.59ZM163.25,128.78v.59h-1.36v3.78h-.63v-7.52h.63v3.15h1.36Z"/>
        <path class="cls-1" d="M170.45,125.63v5.54h-.63v-2h-2.32c-.09.17-.2.31-.33.42-.13.11-.28.2-.44.26-.16.06-.33.11-.52.13-.18.03-.37.04-.57.04-.65,0-1.14-.15-1.46-.46-.32-.31-.45-.75-.4-1.31,0-.08.01-.18.03-.29.01-.11.03-.23.04-.35.01-.12.03-.24.05-.36.02-.12.05-.24.08-.35.07-.28.18-.5.32-.67.14-.17.3-.31.49-.41.19-.1.38-.17.6-.2.21-.04.43-.05.64-.05.49,0,.87.08,1.15.25s.48.38.58.65h2.06v-.84h.63ZM164.41,133.35v-2.63h.63v2.03h5.6v.59h-6.23ZM166.99,128.67c.02-.08.05-.18.07-.3.02-.11.05-.23.07-.36.02-.13.04-.25.05-.38.01-.13.02-.24.03-.34,0-.25-.02-.45-.09-.6-.06-.15-.15-.26-.26-.34-.11-.08-.25-.13-.4-.16s-.31-.04-.48-.04c-.13,0-.26,0-.4.03s-.27.06-.4.12-.24.15-.35.27c-.1.12-.18.28-.22.48-.02.08-.04.18-.06.3-.02.11-.04.23-.06.36s-.03.24-.04.36c-.01.11-.02.22-.02.31,0,.23.02.42.09.56.07.14.16.24.27.32s.25.12.4.15c.15.02.31.04.47.04.11,0,.24,0,.37-.02s.26-.05.38-.1.23-.13.33-.23c.1-.1.18-.24.23-.41ZM167.87,127.06v.12c-.01.26-.03.51-.07.75-.03.24-.07.46-.12.66h2.13v-1.52h-1.94Z"/>
        <path class="cls-1" d="M171.68,130.43h7.26v.59h-3.33v2.29h-.63v-2.29h-3.3v-.59ZM171.98,129.53l2.37-3.3h-2.1v-.59h6.07v.59h-2.07l2.38,3.3h-.81l-2.39-3.3h-.24l-2.38,3.3h-.81Z"/>
        <path class="cls-1" d="M179.36,132.47h5.36v.59h-5.36v-.59ZM183.96,127.27c0,.14-.02.33-.03.56-.01.23-.03.47-.05.71-.02.24-.04.46-.06.67-.02.21-.05.36-.07.47-.06.26-.16.47-.3.63-.14.17-.3.3-.49.39-.19.1-.4.16-.62.2-.22.04-.45.05-.69.05-.32,0-.61-.04-.86-.12s-.46-.2-.63-.35c-.17-.15-.29-.33-.37-.55-.08-.22-.11-.47-.09-.75,0-.08.01-.23.03-.42.01-.2.03-.41.04-.63.02-.23.03-.44.05-.65s.04-.37.07-.48c.07-.28.18-.5.33-.68.15-.17.32-.31.52-.41.19-.1.4-.17.62-.2s.44-.05.66-.05c.34,0,.64.04.89.13.25.08.45.2.61.35.16.15.28.32.35.51.08.19.11.4.09.63ZM183.08,129.6c.02-.08.05-.23.07-.43.02-.2.04-.42.06-.65.02-.23.03-.45.04-.67s.02-.37.03-.47c0-.25-.03-.45-.1-.6-.07-.15-.17-.26-.3-.34s-.27-.13-.43-.16-.32-.04-.49-.04c-.13,0-.26,0-.41.03-.15.02-.29.06-.43.12-.14.06-.27.15-.38.27-.11.12-.19.28-.24.48-.02.08-.04.23-.06.43-.02.2-.04.42-.05.64-.02.22-.03.44-.04.64-.01.2-.02.35-.02.44,0,.23.03.42.1.56.08.14.18.24.31.32.13.08.27.12.44.15s.32.04.49.04c.11,0,.24,0,.38-.02.14-.01.28-.05.41-.1.13-.05.26-.13.36-.23.11-.1.19-.24.24-.41ZM186.16,125.63v7.52h-.63v-7.52h.63Z"/>
      </g>
    </g>
    <g>
      <path class="cls-1" d="M108.56,167.49h-9.7v-1.54h9.7v1.54ZM104.81,163.87c-.58-.64-.88-.97-.91-.99-.1.13-.17.22-.23.28l-1.99,2.14h-2.72l3.5-3.68h2.38l3.47,3.68h-2.22c-.27-.3-.7-.78-1.27-1.42ZM99.59,171.93v-3.84h8.26v3.84h-8.26ZM105.91,170.38v-.76h-4.38v.76h4.38Z"/>
      <path class="cls-1" d="M118.81,167.49h-9.7v-1.54h9.7v1.54ZM115.06,163.87c-.58-.64-.88-.97-.91-.99-.1.13-.17.22-.23.28l-1.99,2.14h-2.72l3.5-3.68h2.38l3.47,3.68h-2.22c-.27-.3-.7-.78-1.27-1.42ZM109.84,171.93v-3.84h8.26v3.84h-8.26ZM116.16,170.38v-.76h-4.38v.76h4.38Z"/>
      <path class="cls-1" d="M119.45,162.85h1.97l.2-1.36h2.53l-.19,1.36h1.74v1.6h-6.25v-1.6ZM125.35,166.82l-.32,2.89c-.08.67-.38,1.16-.89,1.48s-1.13.47-1.86.47c-.77,0-1.42-.13-1.97-.4s-.82-.75-.82-1.43c0-.1,0-.18.01-.24.1-1.18.17-2.07.23-2.66.06-.77.36-1.32.88-1.66.52-.34,1.19-.51,2.01-.51.44,0,.87.06,1.28.19s.76.33,1.04.61c.28.28.41.64.41,1.09,0,.09,0,.15-.01.19ZM123.16,169.17c.04-.29.07-.47.08-.55.05-.27.09-.55.13-.84s.05-.53.05-.72c0-.52-.27-.78-.8-.78-.32,0-.56.09-.71.26-.16.18-.25.43-.28.77-.03.3-.06.54-.08.7,0,.07-.03.25-.06.54-.03.29-.05.55-.05.79,0,.26.07.43.22.53.15.1.35.15.62.15.51,0,.81-.28.89-.85ZM128.41,167.42v4.26h-1.94v-10.03h1.94v4.15h1.34v1.62h-1.34Z"/>
      <path class="cls-1" d="M135.02,161.66l-.54,3.23h1.13v-3.24h1.82v10.03h-1.82v-4.97h-1.44l-.8,4.85h-1.87l1.37-8.24h-2.5v-1.66h4.66ZM138.06,171.68v-10.03h1.82v10.03h-1.82Z"/>
      <path class="cls-1" d="M150.33,161.66v1.85h1.48v-1.86h1.94v5.58h-1.94v-2.04h-1.48v1.8h-5.66v-5.33h5.66ZM145.22,169.39v-1.66h8.52v4.21h-1.94v-2.56h-6.58ZM148.38,163.31h-1.78v2.02h1.78v-2.02Z"/>
      <path class="cls-1" d="M161.17,164.27c-.02.3-.04.49-.05.59-.03.28-.05.5-.06.66h1.54v-3.88h1.94v10.03h-1.94v-4.33h-1.7l-.06.55c-.08.82-.16,1.42-.23,1.81-.13.7-.42,1.19-.89,1.49-.46.3-1.07.45-1.81.45s-1.41-.14-1.94-.41c-.52-.27-.79-.76-.79-1.45,0-.1,0-.17.01-.22l.07-.89c.09-1.12.17-2.04.23-2.77.07-.72.15-1.45.26-2.17.11-.78.41-1.33.89-1.67.48-.34,1.13-.5,1.94-.5.7,0,1.32.15,1.84.45.52.3.78.78.78,1.43,0,.24-.01.51-.04.8ZM158.5,169.81c.12-.14.2-.36.25-.65.18-1.15.36-2.76.53-4.81,0-.35-.04-.63-.13-.82-.09-.2-.29-.29-.6-.29s-.52.1-.65.31-.22.48-.28.83c-.18,1.14-.34,2.74-.49,4.8v.11c0,.27.06.46.19.58.12.11.32.17.58.17.28,0,.48-.07.6-.21Z"/>
      <path class="cls-1" d="M170.33,166.37h2.26v1.56h-6.66v-1.56h2.22v-.67h-1.84v-4.04h1.94v.67h2.03v-.67h1.93v4.04h-1.88v.67ZM172.34,168.44h2.08l1.33,3.5h-1.54l-.71-1.8c-.02.11-.24.6-.68,1.45l-.17.35h-2.76l-.71-1.8c-.02.11-.24.6-.68,1.45l-.17.35h-1.98l1.67-3.5h2.08l1,2.62,1.25-2.62ZM170.28,164.27v-.65h-2.03v.65h2.03ZM175.13,165.4v2.64h-1.94v-6.4h1.94v2.1h1.24v1.66h-1.24Z"/>
      <path class="cls-1" d="M177.17,171.56v-9.9h1.93v8.18h3.84v1.72h-5.77ZM184.09,171.68v-10.03h1.94v10.03h-1.94Z"/>
    </g>
    <g>
      <path class="cls-1" d="M187.5,280.8H0v-81.11h187.5v81.11ZM.5,280.3h186.5v-80.11H.5v80.11Z"/>
      <g>
        <path class="cls-1" d="M26.83,188.32h.93l-.44,2.5h-1.25l.76-2.5ZM28.79,188.32h.93l-.44,2.5h-1.25l.76-2.5Z"/>
        <path class="cls-1" d="M37.49,192.87h-3.13v2.62h-1.11v-2.62h-3.08v-.9h7.32v.9ZM31.03,187.89h5.58v3.23h-5.58v-3.23ZM35.49,190.24v-1.46h-3.36v1.46h3.36Z"/>
        <path class="cls-1" d="M40.63,189.22h-2.65v-.88h3.78c0,2.41-.79,4.39-3.58,5.77l-.58-.88c2.02-1,2.86-2.26,3.03-4.02ZM44.43,195.5h-1.12v-4.01h-1.59v-.91h1.59v-3.08h1.12v8Z"/>
        <path class="cls-1" d="M52.51,192.29h-3.03v1.39h-1.13v-1.39h-3.16v-.9h7.32v.9ZM48.84,187.65c1.73,0,2.89.65,2.89,1.66,0,1.02-1.16,1.65-2.89,1.65s-2.9-.63-2.9-1.65,1.16-1.65,2.9-1.66ZM46.05,192.97h1.13v1.49h4.51v.91h-5.64v-2.39ZM48.84,190.07c1.03,0,1.69-.27,1.69-.76s-.65-.77-1.69-.77-1.69.26-1.69.77c0,.49.65.75,1.69.76Z"/>
        <path class="cls-1" d="M54.46,188.7h1.81v-1.07h1.12v1.07h1.77v.9h-4.7v-.9ZM56.83,190.04c1.16,0,2.04.79,2.04,1.91s-.88,1.9-2.04,1.91c-1.18,0-2.05-.79-2.05-1.91,0-1.12.87-1.91,2.05-1.91ZM56.83,192.93c.56,0,.97-.36.97-.98s-.41-.99-.97-1c-.57,0-.98.39-.98,1s.41.99.98.98ZM60.82,190.63h1.18v.92h-1.18v3.95h-1.11v-8h1.11v3.13Z"/>
        <path class="cls-1" d="M62,192.29h7.32v.9h-3.11v2.33h-1.12v-2.33h-3.08v-.9ZM68.48,190.13h-4.47v.67h4.66v.9h-5.79v-2.41h4.46v-.63h-4.48v-.91h5.63v2.38Z"/>
        <path class="cls-1" d="M71.33,188.07c.96,0,1.62.9,1.74,2.39h.66v-2.85h1.05v7.51h-1.05v-3.78h-.65c-.1,1.57-.77,2.52-1.75,2.52-1.06,0-1.74-1.11-1.74-2.91s.68-2.9,1.74-2.89ZM71.33,192.79c.46,0,.73-.6.73-1.83,0-1.23-.27-1.84-.73-1.84s-.71.61-.7,1.84c0,1.23.25,1.84.7,1.83ZM76.46,195.5h-1.07v-8h1.07v8Z"/>
        <path class="cls-1" d="M77.02,191.42h7.32v.88h-7.32v-.88ZM77.87,192.95h1.12v1.48h4.59v.9h-5.71v-2.37ZM83.53,190.56h-5.59v-2.78h1.12v1.9h4.47v.88Z"/>
        <path class="cls-1" d="M89.38,189.23h-2.67v-.91h3.81c0,2.39-.94,4.46-3.63,5.78l-.63-.86c1.89-.95,2.91-2.22,3.12-4.01ZM92.65,190.57h1.13v.92h-1.13v3.99h-1.12v-7.98h1.12v3.07Z"/>
        <path class="cls-1" d="M100.6,195.52h-1.11v-3.07h-1.49v1.17h-3.86v-5.5h1.12v1.94h1.64v-1.94h1.1v1.27h1.49v-1.88h1.11v8.02ZM96.91,192.72v-1.78h-1.64v1.78h1.64ZM99.49,191.54v-1.26h-1.49v1.26h1.49Z"/>
        <path class="cls-1" d="M108.67,192.29h-3.03v1.39h-1.13v-1.39h-3.16v-.9h7.32v.9ZM105.01,187.65c1.73,0,2.89.65,2.89,1.66,0,1.02-1.16,1.65-2.89,1.65s-2.9-.63-2.9-1.65,1.16-1.65,2.9-1.66ZM102.22,192.97h1.13v1.49h4.51v.91h-5.64v-2.39ZM105.01,190.07c1.03,0,1.69-.27,1.69-.76s-.65-.77-1.69-.77-1.69.26-1.69.77c0,.49.65.75,1.69.76Z"/>
        <path class="cls-1" d="M113.6,189.01h-2.63v-.91h3.87c0,2.16-1.35,3.67-3.75,4.35l-.47-.89c1.79-.5,2.81-1.42,2.98-2.55ZM111.81,192.64h1.13v1.82h4.34v.9h-5.48v-2.72ZM117.02,189.74h1.08v.92h-1.08v2.57h-1.13v-5.73h1.13v2.24Z"/>
        <path class="cls-1" d="M123.13,191l-.56.88c-.91-.29-1.54-.86-1.9-1.59-.36.79-1.01,1.41-1.95,1.71l-.56-.88c1.34-.43,1.92-1.47,1.92-2.49v-.76h1.17v.76c0,1,.56,1.97,1.88,2.36ZM119.38,192.62h5.5v2.88h-1.12v-1.99h-4.38v-.9ZM123.75,187.5h1.12v4.77h-1.12v-4.77Z"/>
        <path class="cls-1" d="M128.04,188.06c1.2,0,2.1,1.1,2.1,2.85s-.9,2.86-2.1,2.86-2.12-1.1-2.12-2.86c0-1.74.89-2.85,2.12-2.85ZM128.04,192.75c.61,0,1.02-.65,1.02-1.84,0-1.19-.41-1.84-1.02-1.84s-1.04.65-1.04,1.84c0,1.19.41,1.84,1.04,1.84ZM132.39,195.52h-1.13v-8.02h1.13v8.02Z"/>
        <path class="cls-1" d="M135.99,190.56v-1.71h-.65v-.85h4.35v.85h-.66v1.6c.33-.03.66-.06.97-.09l.05.8c-1.59.25-3.41.3-4.8.3l-.12-.88c.27,0,.56,0,.86,0ZM136.28,191.92h5.44v2.14h-4.32v.5h4.54v.89h-5.64v-2.19h4.32v-.47h-4.33v-.87ZM137.95,190.51v-1.66h-.89v1.69c.29,0,.59-.02.89-.03ZM141.72,191.61h-1.12v-4.1h1.12v4.1Z"/>
        <path class="cls-1" d="M149.83,194.57h-7.32v-.92h1.63v-1.96c-.62-.37-.99-.94-.99-1.64,0-1.3,1.27-2.15,3.01-2.15,1.73,0,3.01.86,3.01,2.15,0,.69-.36,1.25-.97,1.62v1.98h1.63v.92ZM146.16,191.31c1.13,0,1.9-.48,1.91-1.27,0-.8-.78-1.27-1.91-1.27-1.15,0-1.9.46-1.9,1.27s.75,1.27,1.9,1.27ZM147.07,193.65v-1.56c-.29.06-.59.09-.91.09s-.62-.03-.91-.08v1.55h1.82Z"/>
        <path class="cls-1" d="M153.88,189.61h-3.87v-.89h1.39v-1h1.11v1h1.37v.89ZM151.96,189.97c1.02,0,1.75.79,1.76,1.9,0,1.12-.73,1.91-1.76,1.91s-1.77-.79-1.77-1.91.75-1.89,1.77-1.9ZM151.96,192.83c.45,0,.77-.35.77-.96,0-.6-.33-.97-.77-.97s-.78.36-.78.97.32.96.78.96ZM154.17,187.66h1.05v3.09h.65v-3.25h1.06v8h-1.06v-3.85h-.65v3.51h-1.05v-7.5Z"/>
        <path class="cls-1" d="M158.22,188.33h1.25l-.76,2.5h-.93l.44-2.5ZM160.66,190.83h-.93l.44-2.5h1.25l-.76,2.5Z"/>
      </g>
      <polygon class="cls-1" points="187.5 199.93 187 199.93 187 183.92 .5 183.92 .5 199.93 0 199.93 0 183.42 187.5 183.42 187.5 199.93"/>
    </g>
    <g>
      <path class="cls-1" d="M110.96,104.47v.59h-5.12l2.1-2.28c.44-.47.79-.86,1.06-1.18.27-.32.47-.6.62-.83.14-.23.24-.44.29-.63.05-.18.08-.37.08-.56,0-.19-.02-.38-.09-.56-.06-.18-.16-.34-.29-.48-.13-.14-.3-.25-.5-.34s-.44-.13-.72-.13c-.37,0-.67.06-.9.18-.23.12-.4.27-.52.44-.12.17-.2.35-.24.53-.04.18-.06.33-.06.44h-.63c.02-.43.1-.78.25-1.05.15-.27.33-.49.54-.65.22-.16.46-.27.72-.33.26-.06.52-.09.78-.09.34,0,.65.04.93.12.28.08.52.21.72.37s.35.38.46.64c.11.26.17.56.17.91,0,.24-.03.46-.08.67s-.15.43-.28.67c-.13.24-.32.5-.55.79-.23.29-.53.63-.89,1.03l-1.56,1.71h3.71Z"/>
      <path class="cls-1" d="M111.44,100.37c0-.96.24-1.67.71-2.12.47-.46,1.16-.68,2.08-.68s1.6.23,2.07.68c.47.46.71,1.16.71,2.12v2.14c0,.95-.24,1.66-.71,2.11-.47.45-1.16.68-2.07.68s-1.6-.23-2.08-.68c-.47-.45-.71-1.16-.71-2.11v-2.14ZM112.07,102.68c0,.66.19,1.16.58,1.51.39.34.91.52,1.57.52s1.18-.17,1.57-.52c.39-.35.58-.85.58-1.51v-2.5c0-.33-.05-.62-.16-.88-.11-.25-.25-.47-.44-.63-.19-.17-.42-.3-.68-.38-.26-.09-.56-.13-.87-.13s-.62.04-.88.13c-.26.09-.49.21-.68.38-.19.17-.33.38-.44.63-.1.25-.15.55-.15.88v2.5Z"/>
      <path class="cls-1" d="M122.66,104.47v.59h-5.12l2.1-2.28c.44-.47.79-.86,1.06-1.18.27-.32.47-.6.62-.83.14-.23.24-.44.29-.63s.08-.37.08-.56c0-.19-.02-.38-.09-.56-.06-.18-.16-.34-.29-.48s-.3-.25-.5-.34c-.2-.08-.44-.13-.72-.13-.37,0-.67.06-.9.18-.23.12-.4.27-.52.44-.12.17-.2.35-.24.53-.04.18-.06.33-.06.44h-.63c.02-.43.1-.78.25-1.05.15-.27.33-.49.54-.65.22-.16.46-.27.72-.33s.53-.09.78-.09c.34,0,.65.04.93.12s.52.21.72.37c.2.17.35.38.46.64s.17.56.17.91c0,.24-.03.46-.08.67-.05.21-.15.43-.28.67-.13.24-.32.5-.55.79-.23.29-.53.63-.89,1.03l-1.56,1.71h3.71Z"/>
      <path class="cls-1" d="M127.37,104.7c-.44.4-1.04.6-1.81.6-.25,0-.51-.04-.76-.11-.26-.07-.5-.19-.71-.35-.22-.16-.4-.37-.54-.63-.14-.26-.23-.57-.24-.95h.63c.03.45.18.8.45,1.06.27.25.67.38,1.19.38.25,0,.49-.03.71-.09.22-.06.42-.16.58-.3.17-.14.29-.32.39-.56s.14-.53.14-.88c0-.51-.16-.91-.48-1.21s-.76-.44-1.31-.44h-2.16v-3.44h4.24v.59h-3.61v2.25h1.41c.39,0,.74.05,1.06.15.32.1.58.25.8.44.22.19.39.42.5.7.12.28.18.59.18.94,0,.82-.22,1.43-.65,1.84Z"/>
      <path class="cls-1" d="M129.2,105.81v-1.1h1.18v1.1h-1.18Z"/>
      <path class="cls-1" d="M133.18,105.07v-6.58l-1.61.59v-.62l2.25-.85v7.45h-.64Z"/>
      <path class="cls-1" d="M135.5,100.37c0-.96.24-1.67.71-2.12.47-.46,1.16-.68,2.07-.68s1.6.23,2.07.68c.47.46.71,1.16.71,2.12v2.14c0,.95-.24,1.66-.71,2.11-.47.45-1.16.68-2.07.68s-1.6-.23-2.07-.68c-.47-.45-.71-1.16-.71-2.11v-2.14ZM136.13,102.68c0,.66.19,1.16.58,1.51.39.34.91.52,1.57.52s1.18-.17,1.57-.52c.39-.35.58-.85.58-1.51v-2.5c0-.33-.05-.62-.16-.88-.1-.25-.25-.47-.44-.63-.19-.17-.42-.3-.68-.38-.26-.09-.55-.13-.87-.13s-.62.04-.88.13c-.26.09-.49.21-.68.38-.19.17-.33.38-.44.63-.1.25-.15.55-.15.88v2.5Z"/>
      <path class="cls-1" d="M142.16,105.81v-1.1h1.18v1.1h-1.18Z"/>
      <path class="cls-1" d="M146.15,105.07v-6.58l-1.61.59v-.62l2.25-.85v7.45h-.64Z"/>
      <path class="cls-1" d="M152.71,104.7c-.43.4-1.04.6-1.81.6-.25,0-.51-.04-.76-.11-.26-.07-.5-.19-.71-.35s-.4-.37-.54-.63c-.14-.26-.22-.57-.24-.95h.63c.03.45.18.8.46,1.06.27.25.67.38,1.19.38.25,0,.49-.03.71-.09s.42-.16.58-.3c.17-.14.29-.32.39-.56.09-.23.14-.53.14-.88,0-.51-.16-.91-.48-1.21-.32-.29-.76-.44-1.31-.44h-2.16v-3.44h4.24v.59h-3.61v2.25h1.41c.39,0,.74.05,1.06.15.31.1.58.25.8.44.22.19.39.42.5.7s.18.59.18.94c0,.82-.22,1.43-.65,1.84Z"/>
      <path class="cls-1" d="M159.91,101.86h-3.35v-.59h3.35v.59Z"/>
      <path class="cls-1" d="M164.73,105.07v-6.58l-1.61.59v-.62l2.25-.85v7.45h-.64Z"/>
      <path class="cls-1" d="M167.05,100.37c0-.96.24-1.67.71-2.12.47-.46,1.16-.68,2.08-.68s1.6.23,2.07.68c.47.46.71,1.16.71,2.12v2.14c0,.95-.24,1.66-.71,2.11-.47.45-1.16.68-2.07.68s-1.6-.23-2.08-.68c-.47-.45-.71-1.16-.71-2.11v-2.14ZM167.68,102.68c0,.66.19,1.16.58,1.51.39.34.91.52,1.57.52s1.18-.17,1.57-.52c.39-.35.58-.85.58-1.51v-2.5c0-.33-.05-.62-.16-.88-.11-.25-.25-.47-.44-.63-.19-.17-.42-.3-.68-.38-.26-.09-.56-.13-.87-.13s-.62.04-.88.13c-.26.09-.49.21-.68.38-.19.17-.33.38-.44.63-.1.25-.15.55-.15.88v2.5Z"/>
      <path class="cls-1" d="M173.71,105.81v-1.1h1.18v1.1h-1.18Z"/>
      <path class="cls-1" d="M181,104.47v.59h-5.12l2.1-2.28c.44-.47.79-.86,1.06-1.18.27-.32.47-.6.62-.83.14-.23.24-.44.29-.63.05-.18.08-.37.08-.56,0-.19-.02-.38-.09-.56-.06-.18-.16-.34-.29-.48-.13-.14-.3-.25-.5-.34s-.44-.13-.72-.13c-.37,0-.67.06-.9.18-.23.12-.4.27-.52.44-.12.17-.2.35-.24.53-.04.18-.06.33-.06.44h-.63c.02-.43.1-.78.25-1.05.15-.27.33-.49.54-.65.22-.16.46-.27.72-.33.26-.06.52-.09.78-.09.34,0,.65.04.93.12.28.08.52.21.72.37s.35.38.46.64c.11.26.17.56.17.91,0,.24-.03.46-.08.67s-.15.43-.28.67c-.13.24-.32.5-.55.79-.23.29-.53.63-.89,1.03l-1.56,1.71h3.71Z"/>
      <path class="cls-1" d="M185.25,100.68c.3.12.56.29.77.5s.38.45.5.73c.12.28.18.59.18.94,0,.41-.06.77-.18,1.07-.12.31-.29.56-.51.77-.22.21-.49.36-.8.47-.31.1-.66.16-1.04.16-.44,0-.82-.07-1.14-.22s-.58-.34-.78-.58-.35-.5-.45-.8c-.1-.3-.14-.59-.14-.89,0-.17.01-.34.04-.51s.07-.33.11-.49c.04-.16.09-.3.14-.43.05-.13.09-.24.13-.32l1.48-3.28h.73l-1.38,3.07c.1-.08.21-.15.34-.2.13-.05.26-.09.39-.12.13-.03.24-.04.36-.05.11,0,.2-.01.27-.01.36.01.69.08.99.2ZM184.99,104.57c.23-.09.43-.22.59-.38.16-.16.28-.36.36-.58s.12-.47.12-.73c0-.23-.04-.46-.1-.67-.07-.21-.18-.4-.33-.56-.15-.16-.35-.29-.59-.39s-.53-.15-.88-.15c-.27,0-.52.04-.75.12-.23.08-.42.2-.59.36-.17.16-.29.34-.39.57-.1.22-.14.47-.14.75,0,.25.04.49.12.71.08.22.2.42.36.58.16.16.36.29.59.39.24.09.51.14.81.14s.58-.05.82-.14Z"/>
    </g>
  </g>
</svg>