<?xml version="1.0" encoding="UTF-8"?>
<svg id="Layer_2" data-name="Layer 2" xmlns="http://www.w3.org/2000/svg" viewBox="0 0 187.5 282.63">
  <defs>
    <style>
      .cls-1, .cls-2 {
        fill: #221f20;
      }

      .cls-2 {
        font-family: Cafe24-Ohsquareair, 'Cafe24 Ohsquare air';
        font-size: 9px;
        letter-spacing: 0em;
      }

      .cls-3 {
        fill: #fff;
      }
    </style>
  </defs>
  <g id="Layer_1-2" data-name="Layer 1">
    <g>
      <path class="cls-1" d="M176.97,36.17c-.34-2.9-.51-5.81-.51-8.73h0c0-2.92.17-5.83.51-8.73l.26-2.22c.04-.39-.26-.72-.64-.72h-5.81c-.39,0-.69.34-.64.72l.26,2.22c.03.25.06.51.08.76-.27,0-.58-.04-.92-.11-.18-.04-.36-.08-.52-.13-.48-.15-.96.21-.96.71v4.61c0,.5.48.86.96.71.16-.05.33-.1.52-.13.5-.1.95-.12,1.3-.11.02.77.04,1.55.04,2.32-.36.02-.82,0-1.34-.1-.18-.04-.36-.08-.52-.13-.48-.15-.96.21-.96.71v4.61c0,.5.48.86.96.71.16-.05.33-.1.52-.13.43-.09.82-.11,1.14-.11-.08,1.1-.18,2.2-.31,3.29l-.26,2.22c-.04.39.26.72.64.72h5.81c.39,0,.69-.34.64-.72l-.26-2.22Z"/>
      <path class="cls-1" d="M40.72,16.48c.05-.38-.28-.72-.71-.72h-6.4c-.43,0-.75.34-.71.72.56,4.62.85,9.26.85,13.91v5.16c0,4.65-.28,9.29-.85,13.91-.05.38.28.72.71.72h6.4c.43,0,.75-.34.71-.72-.56-4.62-.85-9.26-.85-13.91v-5.16c0-4.65.28-9.29.85-13.91Z"/>
      <path class="cls-1" d="M21.49,17.04c-.92,0-11.01.16-11.22,15.34-.2,14.8,9.75,15.24,10.81,15.18.93.06,8.71-.28,10.46-10.37.08-.45-.27-.87-.73-.87h-6.7c-.39,0-.72.31-.74.7-.08,1.45-.5,4.66-2.58,4.66-2.71,0-3.24-4.35-2.83-7.18l13.31.04c.4,0,.73-.31.75-.71.12-3.26-.05-16.51-10.52-16.79ZM23.66,28.12h-5.14c-.19,0-.34-.17-.32-.36.4-2.89,1.46-4.17,2.96-4.17s2.51,1.43,2.81,4.18c.02.19-.13.35-.32.35Z"/>
      <path class="cls-1" d="M144.46,33.63h-27.68c-.35,0-.64.29-.64.64v3.76c0,.26.08.51.25.71,0,0,0,0,.01.01.14.17.36.26.59.23,4.17-.42,8.59-.7,13.59-.69,2.45,0,4.86.07,7.17.2.04.04.06.07.1.11v1.31s-.06.06-.11.11h-21.03c-.32,0-.58.26-.58.58v5.72s0,0,0,0v4.11s0,0,0,0v.06c0,.32.26.58.58.58h27.67c.35,0,.64-.29.64-.64v-3.85c0-.19-.06-.37-.16-.52,0,0,0,0,0-.01-.18-.24-.47-.37-.77-.34-4.14.42-8.54.69-13.5.68-2.45,0-4.86-.07-7.17-.2-.04-.04-.06-.07-.1-.11v-1.31s.06-.06.11-.11h20.97c.35,0,.64-.29.64-.64v-5.65h0v-4.11h0v-.07c0-.32-.26-.57-.57-.57Z"/>
      <path class="cls-1" d="M176.15,43.48c-8.72,1.52-18.65,1.5-20.55,1.48-.18,0-.32-.15-.31-.33.03-.72.15-2.05.22-2.61l.29-2.22c.05-.39-.29-.72-.73-.72h-6.35c-.44,0-.8.19-.73.72l.02.1c.53,2.72.81,5.5.85,8.28,0,.01,0,.03,0,.04v2.2c0,.36.28.65.62.65h26.82c.34,0,.62-.29.62-.65v-6.3c0-.43-.38-.7-.78-.63Z"/>
      <path class="cls-1" d="M146.31,21.38c0-.48-.46-.84-.93-.72-.14.04-.28.07-.43.11-.2.04-.39.08-.57.12.08-1.03.21-2.07.39-3.09l.26-1.53c.04-.27-.26-.5-.64-.5h-5.81c-.39,0-.69.23-.64.5l.26,1.53c.34,2,.51,4.01.51,6.02h0c0,2.01-.17,4.02-.51,6.02l-.26,1.53c-.04.27.26.5.64.5h5.81c.39,0,.69-.23.64-.5l-.26-1.53c-.17-1.03-.3-2.06-.39-3.09.19.04.38.07.57.12.15.03.29.07.43.11.47.12.93-.24.93-.72v-2.43h0v-2.43Z"/>
      <path class="cls-1" d="M148.35,36.51c4.73-.06,8.89-.82,11.98-2.89h0c6.1-3.12,6.89-14.09,6.99-17.09.01-.42-.32-.77-.74-.77h-.95s-16.74,0-16.74,0c-.32,0-.59.29-.59.64v5.51c0,.46.42.81.87.73l1.53-.24c.96-.15,1.93-.27,2.91-.35,1.3-.1,3.38-.15,6.39.07.33.02.56.34.48.66-1.53,6.17-7.62,6.95-11.82,5.91-.35-.09-.66.28-.66.65v6.79c0,.21.16.38.36.38Z"/>
      <path class="cls-1" d="M109.75,16.48c.05-.38-.28-.72-.71-.72h-6.4c-.43,0-.75.34-.71.72.56,4.62.85,9.26.85,13.91v5.07c-2.2,4.22-13.53,5.69-20.73,3.24-.69-.23-1.2.36-1.2,1.22l-.03,5.89c0,.57.4.94,1.14,1.06.58.09,1.15.15,1.73.2,8.07.75,13.93-1.01,18.29-3.12.22-.11.48.07.46.31-.13,1.74-.3,3.47-.51,5.2-.05.38.28.72.71.72h6.4c.43,0,.75-.34.71-.72-.56-4.62-.85-9.26-.85-13.91v-5.16c0-4.65.28-9.29.85-13.91Z"/>
      <path class="cls-1" d="M91.23,37.2c5.4,0,9.77-4.8,9.77-10.72s-4.37-10.72-9.77-10.72-9.77,4.8-9.77,10.72,4.37,10.72,9.77,10.72ZM91.23,22.87c1.02,0,1.85,1.62,1.85,3.61s-.83,3.61-1.85,3.61-1.85-1.62-1.85-3.61.83-3.61,1.85-3.61Z"/>
      <path class="cls-1" d="M79.47,24.31c0-.48-.46-.84-.93-.72-.14.04-.28.07-.43.11-.43.1-.83.17-1.21.22.09-1.74.24-3.49.47-5.22l.28-2.22c.05-.39-.28-.72-.71-.72h-6.39c-.43,0-.76.34-.71.72l.28,2.22c.37,2.9.56,5.81.56,8.73h0c0,2.92-.19,4.44-.56,7.34l-.28,2.22c-.05.39.28.72.71.72h6.39c.43,0,.76-.34.71-.72l-.28-2.22c-.27-2.12-.44-3.5-.52-5.23.39.06.81.13,1.26.23.15.03.29.07.43.11.47.12.93-.24.93-.72v-2.43h0v-2.43Z"/>
      <path class="cls-1" d="M48.73,34.57c-.04.31.25.59.64.59h18.82c.38,0,.68-.27.64-.59l-.26-1.8c-.34-2.36-.5-4.72-.5-7.1s.17-4.74.5-7.1l.26-1.8c.04-.31-.25-.59-.64-.59h-18.82c-.38,0-.68.27-.64.59l.26,1.8c.34,2.36.5,4.72.5,7.1s-.17,4.74-.5,7.1l-.26,1.8ZM57.32,22.31h2.91c.07,0,.13.11.12.23-.08.89-.13,1.92-.13,3.06,0,1.2.05,2.27.13,3.19.01.12-.04.23-.12.23h-2.91c-.07,0-.13-.11-.12-.23.08-.92.14-1.99.13-3.19,0-1.15-.06-2.17-.13-3.06-.01-.12.04-.23.12-.23Z"/>
      <path class="cls-1" d="M77.38,42.34c-3.25.08-8.03-1.4-8.99-4.8-.1-.37-.39-.62-.77-.62h-5.64c-.38,0-.66.25-.75.62-.77,3.04-7.46,5.48-13,4.8-.93-.11-1.15.47-1.15,1.06l-.02,5.7c0,.56.17.99.82,1.05.56.06.83.03,1.25.02,4.81-.13,12.84-3.1,14.93-5.79.19-.24.47-.35.75-.32.27-.03.56.08.75.32,2.08,2.7,5.83,5.79,10.64,5.79.42,0,.83.02,1.25-.02.52-.04.82-.47.82-1.05l-.02-5.7c.08-.56-.33-1.07-.86-1.06Z"/>
      <path class="cls-1" d="M136.16,25.34v-3.07c.06-1.5.22-2.99.47-4.48l.26-1.53c.04-.27-.25-.5-.64-.5h-5.69c-.37,0-.78.31-.78.68v2.07c0,.18-.14.32-.32.32h-5.94c-.18,0-.32-.14-.32-.32v-2.07c0-.38-.3-.68-.67-.68h-5.8c-.38,0-.68.23-.64.5l.26,1.53c.24,1.45.4,2.91.46,4.37v3.28c-.07,1.46-.22,2.92-.46,4.37l-.26,1.53c-.04.27.25.5.64.5h19.51c.38,0,.68-.23.64-.5l-.26-1.53c-.25-1.49-.4-2.98-.47-4.48ZM128.42,29.18c-1.02,0-1.61-.64-1.92-1.62-.29.98-.88,1.62-1.95,1.62-1.67,0-2.21-1.72-2.21-3.84s.54-3.84,2.21-3.84c1.04,0,1.64.65,1.94,1.65.31-.99.91-1.65,1.93-1.65,1.69,0,2.21,1.72,2.21,3.84s-.46,3.84-2.21,3.84Z"/>
      <path class="cls-1" d="M129.22,25.32c0,1.3-.28,2.36-1.37,2.36s-1.37-1.06-1.37-2.36.33-2.36,1.37-2.36,1.37,1.06,1.37,2.36Z"/>
      <path class="cls-1" d="M125.08,25.32c0,1.3-.28,2.36-1.37,2.36s-1.37-1.06-1.37-2.36.33-2.36,1.37-2.36,1.37,1.06,1.37,2.36Z"/>
    </g>
    <text class="cls-2" transform="translate(45.9 8.13)"><tspan x="0" y="0">이마트, 어디까지 먹어봤니</tspan></text>
    <g>
      <rect class="cls-1" x=".25" y="71.95" width="187" height="15.94"/>
      <g>
        <path class="cls-3" d="M48.11,84.67v-9.9h5.71v1.66h-3.77v6.59h4.12v1.66h-6.06ZM55.21,84.79v-10.03h1.94v10.03h-1.94Z"/>
        <path class="cls-3" d="M66.02,84.79v-4.44h-1.88l.91,4.32h-1.8c-.06-.29-.11-.5-.13-.65-.58-2.69-1.01-4.89-1.31-6.61-.14,1.05-.38,2.38-.72,4.01l-.66,3.25h-2.03l1.81-8.23h-1.66v-1.66h6.17v1.66h-1.4l.43,2.09h2.27v-3.77h1.94v10.03h-1.94Z"/>
        <path class="cls-3" d="M79.02,84.79h-9.68v-1.66h9.68v1.66ZM70.02,81.71v-6.95h8.3v1.66h-6.37v.97h6.25v1.66h-6.24v1h6.52v1.67h-8.46Z"/>
        <path class="cls-3" d="M88.59,77.29l1.13,2.68h-1.73l-1.08-2.57-1.61,2.6h-2.34l1.73-2.71h-1.43v-1.66h1.98l.22-1.06h2.54l-.22,1.06h1.64v1.66h-.84ZM85.12,84.79v-2.48h-2.16v-1.74h7.02v1.74h-2.66v2.48h-2.2ZM90.51,84.79v-10.03h1.94v10.03h-1.94Z"/>
        <path class="cls-3" d="M93.71,76.81v-1.5h2.02l.18-.83h2.51l-.16.83h1.82v1.5h-6.37ZM95.58,80.72c-.53-.02-.95-.2-1.26-.52-.31-.32-.47-.74-.47-1.27s.11-.91.34-1.17c.22-.26.51-.43.86-.5.35-.07.78-.11,1.29-.11h1.16c.51,0,.94.04,1.28.11.34.07.62.24.84.5.22.26.33.65.33,1.17s-.16.95-.47,1.28c-.32.32-.73.49-1.25.51-.31.02-.79.02-1.43.02-.26,0-.67,0-1.21-.02ZM96.56,85.06c-.66-.02-1.18-.19-1.58-.51-.4-.32-.59-.79-.59-1.42,0-.66.19-1.15.58-1.45.38-.3.92-.46,1.62-.47.48-.02,1.2-.02,2.15-.02.47,0,1.19,0,2.15.02,1.46.02,2.2.66,2.2,1.92,0,.63-.2,1.11-.59,1.42-.4.32-.92.49-1.58.51-.51.02-1.28.04-2.32.04-.68,0-1.36-.01-2.03-.04ZM97.28,79.37c.21,0,.38-.03.52-.1.14-.07.21-.18.21-.34,0-.2-.09-.33-.28-.38-.18-.05-.36-.08-.52-.07-.16,0-.27,0-.31,0s-.16,0-.37,0c-.21,0-.38.03-.52.1-.14.07-.21.19-.21.35,0,.2.09.32.27.37.18.05.35.07.52.07s.27,0,.31,0,.16,0,.37,0ZM100.6,83.55c.22,0,.39-.03.5-.08s.16-.16.16-.34-.05-.31-.16-.35c-.1-.04-.27-.07-.5-.08-.42-.02-1.04-.02-1.87-.02s-1.46,0-1.87.02c-.23,0-.4.03-.5.08-.1.04-.16.16-.16.35s.05.3.16.34c.11.04.27.07.5.08.42.02,1.04.02,1.87.02s1.46,0,1.87-.02ZM102.83,77.19v.86h1.32v1.54h-1.32v1.2h-1.94v-6.04h1.94v.9h1.32v1.54h-1.32Z"/>
        <path class="cls-3" d="M115.38,79.46v-.7h-2.09l-.12.67h-2.09l.56-3.01h-3.54v-1.66h5.88l-.1.55h1.49v-.56h1.94v4.7h-1.94ZM117.44,85.04h-8.69v-3.32h6.5v-.41h-6.5v-1.48h8.57v3.28h-6.49v.46h6.61v1.48ZM115.38,77.41v-.73h-1.73l-.13.73h1.86Z"/>
        <path class="cls-3" d="M118.71,84.79v-1.66h1.36v-5.06h2.16v5.06h3.14v1.66h-6.66ZM125.21,74.77l-.55,6.74h-1.99l.32-5.09h-3.77v-1.66h5.99ZM127.79,80.21v4.57h-1.94v-10.03h1.94v3.8h1.36v1.66h-1.36Z"/>
        <path class="cls-3" d="M136.01,84.67h-1.8c-.06-.29-.11-.5-.13-.65-.58-2.69-1.01-4.89-1.31-6.61-.14,1.05-.38,2.38-.72,4.01l-.66,3.25h-2.03l1.81-8.23h-1.66v-1.66h6.35v1.66h-1.58l1.73,8.23ZM136.98,84.79v-10.03h1.94v10.03h-1.94Z"/>
      </g>
      <g>
        <path class="cls-1" d="M2.97,65.07c.84-.4,1.07-1.17,1.51-1.17.22,0,.38.15.38.41,0,.31-.23.4-.67.5-.58.13-.8.21-1.14.42.96.58,1.82.32,1.82.91,0,.25-.17.41-.38.41-.44,0-.67-.77-1.51-1.17,0,1.03.29,1.3.29,1.68,0,.25-.19.42-.4.42s-.4-.17-.4-.42c0-.42.29-.62.29-1.68-.89.43-1.04,1.17-1.51,1.17-.22,0-.39-.15-.39-.41s.15-.39.67-.5c.47-.1.84-.22,1.14-.42-.32-.2-.68-.33-1.13-.42-.52-.1-.68-.23-.68-.5s.17-.41.39-.41c.46,0,.65.76,1.51,1.17,0-1.03-.29-1.28-.29-1.68,0-.25.19-.42.4-.42s.4.17.4.42c0,.44-.29.58-.29,1.68Z"/>
        <path class="cls-1" d="M10.24,65.07c.84-.4,1.07-1.17,1.51-1.17.22,0,.39.15.39.41,0,.31-.23.4-.67.5-.58.13-.8.21-1.14.42.96.58,1.82.32,1.82.91,0,.25-.17.41-.39.41-.44,0-.67-.77-1.51-1.17,0,1.03.29,1.3.29,1.68,0,.25-.19.42-.4.42s-.4-.17-.4-.42c0-.42.29-.62.29-1.68-.89.43-1.04,1.17-1.51,1.17-.22,0-.39-.15-.39-.41s.15-.39.67-.5c.47-.1.84-.22,1.14-.42-.32-.2-.68-.33-1.13-.42-.52-.1-.68-.23-.68-.5s.17-.41.39-.41c.46,0,.65.76,1.51,1.17,0-1.03-.29-1.28-.29-1.68,0-.25.19-.42.4-.42s.4.17.4.42c0,.44-.29.58-.29,1.68Z"/>
        <path class="cls-1" d="M17.51,65.07c.84-.4,1.07-1.17,1.51-1.17.22,0,.38.15.38.41,0,.31-.23.4-.67.5-.58.13-.8.21-1.14.42.96.58,1.81.32,1.81.91,0,.25-.16.41-.38.41-.44,0-.67-.77-1.51-1.17,0,1.03.29,1.3.29,1.68,0,.25-.19.42-.4.42s-.4-.17-.4-.42c0-.42.29-.62.29-1.68-.89.43-1.04,1.17-1.51,1.17-.22,0-.38-.15-.38-.41s.15-.39.67-.5c.47-.1.84-.22,1.14-.42-.32-.2-.68-.33-1.13-.42-.52-.1-.68-.23-.68-.5s.17-.41.38-.41c.46,0,.65.76,1.51,1.17,0-1.03-.29-1.28-.29-1.68,0-.25.19-.42.4-.42s.4.17.4.42c0,.44-.29.58-.29,1.68Z"/>
        <path class="cls-1" d="M24.78,65.07c.84-.4,1.07-1.17,1.51-1.17.22,0,.38.15.38.41,0,.31-.23.4-.67.5-.58.13-.8.21-1.14.42.96.58,1.81.32,1.81.91,0,.25-.16.41-.38.41-.44,0-.67-.77-1.51-1.17,0,1.03.29,1.3.29,1.68,0,.25-.19.42-.4.42s-.4-.17-.4-.42c0-.42.29-.62.29-1.68-.89.43-1.05,1.17-1.51,1.17-.22,0-.38-.15-.38-.41s.15-.39.67-.5c.47-.1.84-.22,1.14-.42-.32-.2-.68-.33-1.13-.42-.52-.1-.68-.23-.68-.5s.16-.41.38-.41c.46,0,.65.76,1.51,1.17,0-1.03-.29-1.28-.29-1.68,0-.25.19-.42.4-.42s.4.17.4.42c0,.44-.29.58-.29,1.68Z"/>
        <path class="cls-1" d="M32.06,65.07c.84-.4,1.07-1.17,1.51-1.17.22,0,.38.15.38.41,0,.31-.23.4-.67.5-.58.13-.8.21-1.14.42.96.58,1.82.32,1.82.91,0,.25-.17.41-.38.41-.44,0-.67-.77-1.51-1.17,0,1.03.29,1.3.29,1.68,0,.25-.19.42-.4.42s-.4-.17-.4-.42c0-.42.29-.62.29-1.68-.89.43-1.04,1.17-1.51,1.17-.22,0-.39-.15-.39-.41s.15-.39.67-.5c.47-.1.84-.22,1.14-.42-.32-.2-.68-.33-1.13-.42-.52-.1-.68-.23-.68-.5s.17-.41.39-.41c.46,0,.65.76,1.51,1.17,0-1.03-.29-1.28-.29-1.68,0-.25.19-.42.4-.42s.4.17.4.42c0,.44-.29.58-.29,1.68Z"/>
        <path class="cls-1" d="M39.33,65.07c.84-.4,1.07-1.17,1.51-1.17.22,0,.39.15.39.41,0,.31-.23.4-.67.5-.58.13-.8.21-1.14.42.96.58,1.82.32,1.82.91,0,.25-.17.41-.39.41-.44,0-.67-.77-1.51-1.17,0,1.03.29,1.3.29,1.68,0,.25-.19.42-.4.42s-.4-.17-.4-.42c0-.42.29-.62.29-1.68-.89.43-1.04,1.17-1.51,1.17-.22,0-.39-.15-.39-.41s.15-.39.67-.5c.47-.1.84-.22,1.14-.42-.32-.2-.68-.33-1.13-.42-.52-.1-.68-.23-.68-.5s.17-.41.39-.41c.46,0,.65.76,1.51,1.17,0-1.03-.29-1.28-.29-1.68,0-.25.19-.42.4-.42s.4.17.4.42c0,.44-.29.58-.29,1.68Z"/>
        <path class="cls-1" d="M46.6,65.07c.84-.4,1.07-1.17,1.51-1.17.22,0,.38.15.38.41,0,.31-.23.4-.67.5-.58.13-.8.21-1.14.42.96.58,1.81.32,1.81.91,0,.25-.16.41-.38.41-.44,0-.67-.77-1.51-1.17,0,1.03.29,1.3.29,1.68,0,.25-.19.42-.4.42s-.4-.17-.4-.42c0-.42.29-.62.29-1.68-.89.43-1.04,1.17-1.51,1.17-.22,0-.38-.15-.38-.41s.15-.39.67-.5c.47-.1.84-.22,1.14-.42-.32-.2-.68-.33-1.13-.42-.52-.1-.68-.23-.68-.5s.17-.41.38-.41c.46,0,.65.76,1.51,1.17,0-1.03-.29-1.28-.29-1.68,0-.25.19-.42.4-.42s.4.17.4.42c0,.44-.29.58-.29,1.68Z"/>
        <path class="cls-1" d="M53.87,65.07c.84-.4,1.07-1.17,1.51-1.17.22,0,.38.15.38.41,0,.31-.23.4-.67.5-.58.13-.8.21-1.14.42.96.58,1.81.32,1.81.91,0,.25-.16.41-.38.41-.44,0-.67-.77-1.51-1.17,0,1.03.29,1.3.29,1.68,0,.25-.19.42-.4.42s-.4-.17-.4-.42c0-.42.29-.62.29-1.68-.89.43-1.05,1.17-1.51,1.17-.22,0-.38-.15-.38-.41s.15-.39.67-.5c.47-.1.84-.22,1.14-.42-.32-.2-.68-.33-1.13-.42-.52-.1-.68-.23-.68-.5s.16-.41.38-.41c.46,0,.65.76,1.51,1.17,0-1.03-.29-1.28-.29-1.68,0-.25.19-.42.4-.42s.4.17.4.42c0,.44-.29.58-.29,1.68Z"/>
        <path class="cls-1" d="M61.14,65.07c.84-.4,1.07-1.17,1.51-1.17.22,0,.38.15.38.41,0,.31-.23.4-.67.5-.58.13-.8.21-1.14.42.96.58,1.82.32,1.82.91,0,.25-.17.41-.38.41-.44,0-.67-.77-1.51-1.17,0,1.03.29,1.3.29,1.68,0,.25-.19.42-.4.42s-.4-.17-.4-.42c0-.42.29-.62.29-1.68-.89.43-1.04,1.17-1.51,1.17-.22,0-.39-.15-.39-.41s.15-.39.67-.5c.47-.1.84-.22,1.14-.42-.32-.2-.68-.33-1.13-.42-.52-.1-.68-.23-.68-.5s.17-.41.39-.41c.46,0,.65.76,1.51,1.17,0-1.03-.29-1.28-.29-1.68,0-.25.19-.42.4-.42s.4.17.4.42c0,.44-.29.58-.29,1.68Z"/>
        <path class="cls-1" d="M68.41,65.07c.84-.4,1.07-1.17,1.51-1.17.22,0,.39.15.39.41,0,.31-.23.4-.67.5-.58.13-.8.21-1.14.42.96.58,1.82.32,1.82.91,0,.25-.17.41-.39.41-.44,0-.67-.77-1.51-1.17,0,1.03.29,1.3.29,1.68,0,.25-.19.42-.4.42s-.4-.17-.4-.42c0-.42.29-.62.29-1.68-.89.43-1.04,1.17-1.51,1.17-.22,0-.39-.15-.39-.41s.15-.39.67-.5c.47-.1.84-.22,1.14-.42-.32-.2-.68-.33-1.13-.42-.52-.1-.68-.23-.68-.5s.17-.41.39-.41c.46,0,.65.76,1.51,1.17,0-1.03-.29-1.28-.29-1.68,0-.25.19-.42.4-.42s.4.17.4.42c0,.44-.29.58-.29,1.68Z"/>
        <path class="cls-1" d="M75.68,65.07c.84-.4,1.07-1.17,1.51-1.17.22,0,.39.15.39.41,0,.31-.23.4-.67.5-.58.13-.8.21-1.14.42.96.58,1.82.32,1.82.91,0,.25-.17.41-.39.41-.44,0-.67-.77-1.51-1.17,0,1.03.29,1.3.29,1.68,0,.25-.19.42-.4.42s-.39-.17-.39-.42c0-.42.29-.62.29-1.68-.89.43-1.04,1.17-1.51,1.17-.22,0-.38-.15-.38-.41s.15-.39.67-.5c.47-.1.84-.22,1.14-.42-.32-.2-.68-.33-1.13-.42-.52-.1-.68-.23-.68-.5s.17-.41.38-.41c.46,0,.65.76,1.51,1.17,0-1.03-.29-1.28-.29-1.68,0-.25.19-.42.39-.42s.4.17.4.42c0,.44-.29.58-.29,1.68Z"/>
        <path class="cls-1" d="M82.95,65.07c.84-.4,1.07-1.17,1.51-1.17.22,0,.38.15.38.41,0,.31-.23.4-.67.5-.58.13-.8.21-1.14.42.96.58,1.81.32,1.81.91,0,.25-.16.41-.38.41-.44,0-.67-.77-1.51-1.17,0,1.03.29,1.3.29,1.68,0,.25-.19.42-.4.42s-.4-.17-.4-.42c0-.42.29-.62.29-1.68-.89.43-1.04,1.17-1.51,1.17-.22,0-.38-.15-.38-.41s.15-.39.67-.5c.47-.1.84-.22,1.14-.42-.32-.2-.68-.33-1.13-.42-.52-.1-.68-.23-.68-.5s.16-.41.38-.41c.46,0,.65.76,1.51,1.17,0-1.03-.29-1.28-.29-1.68,0-.25.19-.42.4-.42s.4.17.4.42c0,.44-.29.58-.29,1.68Z"/>
        <path class="cls-1" d="M90.22,65.07c.84-.4,1.07-1.17,1.51-1.17.22,0,.38.15.38.41,0,.31-.23.4-.67.5-.58.13-.8.21-1.14.42.96.58,1.81.32,1.81.91,0,.25-.16.41-.38.41-.44,0-.67-.77-1.51-1.17,0,1.03.29,1.3.29,1.68,0,.25-.19.42-.4.42s-.4-.17-.4-.42c0-.42.29-.62.29-1.68-.89.43-1.04,1.17-1.51,1.17-.22,0-.38-.15-.38-.41s.15-.39.67-.5c.47-.1.84-.22,1.14-.42-.32-.2-.68-.33-1.13-.42-.52-.1-.68-.23-.68-.5s.16-.41.38-.41c.46,0,.65.76,1.51,1.17,0-1.03-.29-1.28-.29-1.68,0-.25.19-.42.4-.42s.4.17.4.42c0,.44-.29.58-.29,1.68Z"/>
        <path class="cls-1" d="M97.5,65.07c.84-.4,1.07-1.17,1.51-1.17.22,0,.39.15.39.41,0,.31-.23.4-.67.5-.58.13-.8.21-1.14.42.96.58,1.82.32,1.82.91,0,.25-.17.41-.39.41-.44,0-.67-.77-1.51-1.17,0,1.03.29,1.3.29,1.68,0,.25-.19.42-.4.42s-.39-.17-.39-.42c0-.42.29-.62.29-1.68-.89.43-1.04,1.17-1.51,1.17-.22,0-.38-.15-.38-.41s.15-.39.67-.5c.47-.1.84-.22,1.14-.42-.32-.2-.68-.33-1.13-.42-.52-.1-.68-.23-.68-.5s.17-.41.38-.41c.46,0,.65.76,1.51,1.17,0-1.03-.29-1.28-.29-1.68,0-.25.19-.42.39-.42s.4.17.4.42c0,.44-.29.58-.29,1.68Z"/>
        <path class="cls-1" d="M104.77,65.07c.84-.4,1.07-1.17,1.51-1.17.22,0,.39.15.39.41,0,.31-.23.4-.67.5-.58.13-.8.21-1.14.42.96.58,1.82.32,1.82.91,0,.25-.17.41-.39.41-.44,0-.67-.77-1.51-1.17,0,1.03.29,1.3.29,1.68,0,.25-.19.42-.4.42s-.39-.17-.39-.42c0-.42.29-.62.29-1.68-.89.43-1.04,1.17-1.51,1.17-.22,0-.38-.15-.38-.41s.15-.39.67-.5c.47-.1.84-.22,1.14-.42-.32-.2-.68-.33-1.13-.42-.52-.1-.68-.23-.68-.5s.17-.41.38-.41c.46,0,.65.76,1.51,1.17,0-1.03-.29-1.28-.29-1.68,0-.25.19-.42.39-.42s.4.17.4.42c0,.44-.29.58-.29,1.68Z"/>
        <path class="cls-1" d="M112.04,65.07c.84-.4,1.07-1.17,1.51-1.17.22,0,.38.15.38.41,0,.31-.23.4-.67.5-.58.13-.8.21-1.14.42.96.58,1.81.32,1.81.91,0,.25-.16.41-.38.41-.44,0-.67-.77-1.51-1.17,0,1.03.29,1.3.29,1.68,0,.25-.19.42-.4.42s-.4-.17-.4-.42c0-.42.29-.62.29-1.68-.89.43-1.04,1.17-1.51,1.17-.22,0-.38-.15-.38-.41s.15-.39.67-.5c.47-.1.84-.22,1.14-.42-.32-.2-.68-.33-1.13-.42-.52-.1-.68-.23-.68-.5s.16-.41.38-.41c.46,0,.65.76,1.51,1.17,0-1.03-.29-1.28-.29-1.68,0-.25.19-.42.4-.42s.4.17.4.42c0,.44-.29.58-.29,1.68Z"/>
        <path class="cls-1" d="M119.31,65.07c.84-.4,1.07-1.17,1.51-1.17.22,0,.38.15.38.41,0,.31-.23.4-.67.5-.58.13-.8.21-1.14.42.96.58,1.81.32,1.81.91,0,.25-.16.41-.38.41-.44,0-.67-.77-1.51-1.17,0,1.03.29,1.3.29,1.68,0,.25-.19.42-.4.42s-.4-.17-.4-.42c0-.42.29-.62.29-1.68-.89.43-1.04,1.17-1.51,1.17-.22,0-.38-.15-.38-.41s.15-.39.67-.5c.47-.1.84-.22,1.14-.42-.32-.2-.68-.33-1.13-.42-.52-.1-.68-.23-.68-.5s.16-.41.38-.41c.46,0,.65.76,1.51,1.17,0-1.03-.29-1.28-.29-1.68,0-.25.19-.42.4-.42s.4.17.4.42c0,.44-.29.58-.29,1.68Z"/>
        <path class="cls-1" d="M126.58,65.07c.84-.4,1.07-1.17,1.51-1.17.22,0,.39.15.39.41,0,.31-.23.4-.67.5-.58.13-.8.21-1.14.42.96.58,1.82.32,1.82.91,0,.25-.17.41-.39.41-.44,0-.67-.77-1.51-1.17,0,1.03.29,1.3.29,1.68,0,.25-.19.42-.4.42s-.39-.17-.39-.42c0-.42.29-.62.29-1.68-.89.43-1.04,1.17-1.51,1.17-.22,0-.38-.15-.38-.41s.15-.39.67-.5c.47-.1.84-.22,1.14-.42-.32-.2-.68-.33-1.13-.42-.52-.1-.68-.23-.68-.5s.17-.41.38-.41c.46,0,.65.76,1.51,1.17,0-1.03-.29-1.28-.29-1.68,0-.25.19-.42.39-.42s.4.17.4.42c0,.44-.29.58-.29,1.68Z"/>
        <path class="cls-1" d="M133.85,65.07c.84-.4,1.07-1.17,1.51-1.17.22,0,.39.15.39.41,0,.31-.23.4-.67.5-.58.13-.8.21-1.14.42.96.58,1.82.32,1.82.91,0,.25-.17.41-.39.41-.44,0-.67-.77-1.51-1.17,0,1.03.29,1.3.29,1.68,0,.25-.19.42-.4.42s-.39-.17-.39-.42c0-.42.29-.62.29-1.68-.89.43-1.04,1.17-1.51,1.17-.22,0-.38-.15-.38-.41s.15-.39.67-.5c.47-.1.84-.22,1.14-.42-.32-.2-.68-.33-1.13-.42-.52-.1-.68-.23-.68-.5s.17-.41.38-.41c.46,0,.65.76,1.51,1.17,0-1.03-.29-1.28-.29-1.68,0-.25.19-.42.39-.42s.4.17.4.42c0,.44-.29.58-.29,1.68Z"/>
        <path class="cls-1" d="M141.12,65.07c.84-.4,1.07-1.17,1.51-1.17.22,0,.38.15.38.41,0,.31-.23.4-.67.5-.58.13-.8.21-1.14.42.96.58,1.81.32,1.81.91,0,.25-.16.41-.38.41-.44,0-.67-.77-1.51-1.17,0,1.03.29,1.3.29,1.68,0,.25-.19.42-.4.42s-.4-.17-.4-.42c0-.42.29-.62.29-1.68-.89.43-1.04,1.17-1.51,1.17-.22,0-.38-.15-.38-.41s.15-.39.67-.5c.47-.1.84-.22,1.14-.42-.32-.2-.68-.33-1.13-.42-.52-.1-.68-.23-.68-.5s.16-.41.38-.41c.46,0,.65.76,1.51,1.17,0-1.03-.29-1.28-.29-1.68,0-.25.19-.42.4-.42s.4.17.4.42c0,.44-.29.58-.29,1.68Z"/>
        <path class="cls-1" d="M148.39,65.07c.84-.4,1.07-1.17,1.51-1.17.22,0,.38.15.38.41,0,.31-.23.4-.67.5-.58.13-.8.21-1.14.42.96.58,1.81.32,1.81.91,0,.25-.16.41-.38.41-.44,0-.67-.77-1.51-1.17,0,1.03.29,1.3.29,1.68,0,.25-.19.42-.4.42s-.4-.17-.4-.42c0-.42.29-.62.29-1.68-.89.43-1.04,1.17-1.51,1.17-.22,0-.38-.15-.38-.41s.15-.39.67-.5c.47-.1.84-.22,1.14-.42-.32-.2-.68-.33-1.13-.42-.52-.1-.68-.23-.68-.5s.16-.41.38-.41c.46,0,.65.76,1.51,1.17,0-1.03-.29-1.28-.29-1.68,0-.25.19-.42.4-.42s.4.17.4.42c0,.44-.29.58-.29,1.68Z"/>
        <path class="cls-1" d="M155.66,65.07c.84-.4,1.07-1.17,1.51-1.17.22,0,.39.15.39.41,0,.31-.23.4-.67.5-.58.13-.8.21-1.14.42.96.58,1.82.32,1.82.91,0,.25-.17.41-.39.41-.44,0-.67-.77-1.51-1.17,0,1.03.29,1.3.29,1.68,0,.25-.19.42-.4.42s-.39-.17-.39-.42c0-.42.29-.62.29-1.68-.89.43-1.04,1.17-1.51,1.17-.22,0-.38-.15-.38-.41s.15-.39.67-.5c.47-.1.84-.22,1.14-.42-.32-.2-.68-.33-1.13-.42-.52-.1-.68-.23-.68-.5s.17-.41.38-.41c.46,0,.65.76,1.51,1.17,0-1.03-.29-1.28-.29-1.68,0-.25.19-.42.39-.42s.4.17.4.42c0,.44-.29.58-.29,1.68Z"/>
        <path class="cls-1" d="M162.93,65.07c.84-.4,1.07-1.17,1.51-1.17.22,0,.39.15.39.41,0,.31-.23.4-.67.5-.58.13-.8.21-1.14.42.96.58,1.82.32,1.82.91,0,.25-.17.41-.39.41-.44,0-.67-.77-1.51-1.17,0,1.03.29,1.3.29,1.68,0,.25-.19.42-.4.42s-.39-.17-.39-.42c0-.42.29-.62.29-1.68-.89.43-1.04,1.17-1.51,1.17-.22,0-.38-.15-.38-.41s.15-.39.67-.5c.47-.1.84-.22,1.14-.42-.32-.2-.68-.33-1.13-.42-.52-.1-.68-.23-.68-.5s.17-.41.38-.41c.46,0,.65.76,1.51,1.17,0-1.03-.29-1.28-.29-1.68,0-.25.19-.42.39-.42s.4.17.4.42c0,.44-.29.58-.29,1.68Z"/>
        <path class="cls-1" d="M170.2,65.07c.84-.4,1.07-1.17,1.51-1.17.22,0,.38.15.38.41,0,.31-.23.4-.67.5-.58.13-.8.21-1.14.42.96.58,1.81.32,1.81.91,0,.25-.16.41-.38.41-.44,0-.67-.77-1.51-1.17,0,1.03.29,1.3.29,1.68,0,.25-.19.42-.4.42s-.4-.17-.4-.42c0-.42.29-.62.29-1.68-.89.43-1.04,1.17-1.51,1.17-.22,0-.38-.15-.38-.41s.15-.39.67-.5c.47-.1.84-.22,1.14-.42-.32-.2-.68-.33-1.13-.42-.52-.1-.68-.23-.68-.5s.16-.41.38-.41c.46,0,.65.76,1.51,1.17,0-1.03-.29-1.28-.29-1.68,0-.25.19-.42.4-.42s.4.17.4.42c0,.44-.29.58-.29,1.68Z"/>
        <path class="cls-1" d="M177.48,65.07c.84-.4,1.07-1.17,1.51-1.17.22,0,.38.15.38.41,0,.31-.23.4-.67.5-.58.13-.8.21-1.14.42.96.58,1.81.32,1.81.91,0,.25-.16.41-.38.41-.44,0-.67-.77-1.51-1.17,0,1.03.29,1.3.29,1.68,0,.25-.19.42-.4.42s-.4-.17-.4-.42c0-.42.29-.62.29-1.68-.89.43-1.04,1.17-1.51,1.17-.22,0-.38-.15-.38-.41s.15-.39.67-.5c.47-.1.84-.22,1.14-.42-.32-.2-.68-.33-1.13-.42-.52-.1-.68-.23-.68-.5s.16-.41.38-.41c.46,0,.65.76,1.51,1.17,0-1.03-.29-1.28-.29-1.68,0-.25.19-.42.4-.42s.4.17.4.42c0,.44-.29.58-.29,1.68Z"/>
        <path class="cls-1" d="M184.75,65.07c.84-.4,1.07-1.17,1.51-1.17.22,0,.39.15.39.41,0,.31-.23.4-.67.5-.58.13-.8.21-1.14.42.96.58,1.82.32,1.82.91,0,.25-.17.41-.39.41-.44,0-.67-.77-1.51-1.17,0,1.03.29,1.3.29,1.68,0,.25-.19.42-.4.42s-.39-.17-.39-.42c0-.42.29-.62.29-1.68-.89.43-1.04,1.17-1.51,1.17-.22,0-.38-.15-.38-.41s.15-.39.67-.5c.47-.1.84-.22,1.14-.42-.32-.2-.68-.33-1.13-.42-.52-.1-.68-.23-.68-.5s.17-.41.38-.41c.46,0,.65.76,1.51,1.17,0-1.03-.29-1.28-.29-1.68,0-.25.19-.42.39-.42s.4.17.4.42c0,.44-.29.58-.29,1.68Z"/>
      </g>
    </g>
    <g>
      <path class="cls-1" d="M2.97,149.29c.84-.4,1.07-1.17,1.51-1.17.22,0,.38.15.38.41,0,.31-.23.4-.67.5-.58.13-.8.21-1.14.42.96.58,1.82.32,1.82.91,0,.25-.17.41-.38.41-.44,0-.67-.77-1.51-1.17,0,1.03.29,1.3.29,1.68,0,.25-.19.42-.4.42s-.4-.17-.4-.42c0-.42.29-.62.29-1.68-.89.43-1.04,1.17-1.51,1.17-.22,0-.39-.15-.39-.41s.15-.39.67-.5c.47-.1.84-.22,1.14-.42-.32-.2-.68-.33-1.13-.42-.52-.1-.68-.23-.68-.5s.17-.41.39-.41c.46,0,.65.76,1.51,1.17,0-1.03-.29-1.28-.29-1.68,0-.25.19-.42.4-.42s.4.17.4.42c0,.44-.29.58-.29,1.68Z"/>
      <path class="cls-1" d="M10.24,149.29c.84-.4,1.07-1.17,1.51-1.17.22,0,.39.15.39.41,0,.31-.23.4-.67.5-.58.13-.8.21-1.14.42.96.58,1.82.32,1.82.91,0,.25-.17.41-.39.41-.44,0-.67-.77-1.51-1.17,0,1.03.29,1.3.29,1.68,0,.25-.19.42-.4.42s-.4-.17-.4-.42c0-.42.29-.62.29-1.68-.89.43-1.04,1.17-1.51,1.17-.22,0-.39-.15-.39-.41s.15-.39.67-.5c.47-.1.84-.22,1.14-.42-.32-.2-.68-.33-1.13-.42-.52-.1-.68-.23-.68-.5s.17-.41.39-.41c.46,0,.65.76,1.51,1.17,0-1.03-.29-1.28-.29-1.68,0-.25.19-.42.4-.42s.4.17.4.42c0,.44-.29.58-.29,1.68Z"/>
      <path class="cls-1" d="M17.51,149.29c.84-.4,1.07-1.17,1.51-1.17.22,0,.38.15.38.41,0,.31-.23.4-.67.5-.58.13-.8.21-1.14.42.96.58,1.81.32,1.81.91,0,.25-.16.41-.38.41-.44,0-.67-.77-1.51-1.17,0,1.03.29,1.3.29,1.68,0,.25-.19.42-.4.42s-.4-.17-.4-.42c0-.42.29-.62.29-1.68-.89.43-1.04,1.17-1.51,1.17-.22,0-.38-.15-.38-.41s.15-.39.67-.5c.47-.1.84-.22,1.14-.42-.32-.2-.68-.33-1.13-.42-.52-.1-.68-.23-.68-.5s.17-.41.38-.41c.46,0,.65.76,1.51,1.17,0-1.03-.29-1.28-.29-1.68,0-.25.19-.42.4-.42s.4.17.4.42c0,.44-.29.58-.29,1.68Z"/>
      <path class="cls-1" d="M24.78,149.29c.84-.4,1.07-1.17,1.51-1.17.22,0,.38.15.38.41,0,.31-.23.4-.67.5-.58.13-.8.21-1.14.42.96.58,1.81.32,1.81.91,0,.25-.16.41-.38.41-.44,0-.67-.77-1.51-1.17,0,1.03.29,1.3.29,1.68,0,.25-.19.42-.4.42s-.4-.17-.4-.42c0-.42.29-.62.29-1.68-.89.43-1.05,1.17-1.51,1.17-.22,0-.38-.15-.38-.41s.15-.39.67-.5c.47-.1.84-.22,1.14-.42-.32-.2-.68-.33-1.13-.42-.52-.1-.68-.23-.68-.5s.16-.41.38-.41c.46,0,.65.76,1.51,1.17,0-1.03-.29-1.28-.29-1.68,0-.25.19-.42.4-.42s.4.17.4.42c0,.44-.29.58-.29,1.68Z"/>
      <path class="cls-1" d="M32.06,149.29c.84-.4,1.07-1.17,1.51-1.17.22,0,.38.15.38.41,0,.31-.23.4-.67.5-.58.13-.8.21-1.14.42.96.58,1.82.32,1.82.91,0,.25-.17.41-.38.41-.44,0-.67-.77-1.51-1.17,0,1.03.29,1.3.29,1.68,0,.25-.19.42-.4.42s-.4-.17-.4-.42c0-.42.29-.62.29-1.68-.89.43-1.04,1.17-1.51,1.17-.22,0-.39-.15-.39-.41s.15-.39.67-.5c.47-.1.84-.22,1.14-.42-.32-.2-.68-.33-1.13-.42-.52-.1-.68-.23-.68-.5s.17-.41.39-.41c.46,0,.65.76,1.51,1.17,0-1.03-.29-1.28-.29-1.68,0-.25.19-.42.4-.42s.4.17.4.42c0,.44-.29.58-.29,1.68Z"/>
      <path class="cls-1" d="M39.33,149.29c.84-.4,1.07-1.17,1.51-1.17.22,0,.39.15.39.41,0,.31-.23.4-.67.5-.58.13-.8.21-1.14.42.96.58,1.82.32,1.82.91,0,.25-.17.41-.39.41-.44,0-.67-.77-1.51-1.17,0,1.03.29,1.3.29,1.68,0,.25-.19.42-.4.42s-.4-.17-.4-.42c0-.42.29-.62.29-1.68-.89.43-1.04,1.17-1.51,1.17-.22,0-.39-.15-.39-.41s.15-.39.67-.5c.47-.1.84-.22,1.14-.42-.32-.2-.68-.33-1.13-.42-.52-.1-.68-.23-.68-.5s.17-.41.39-.41c.46,0,.65.76,1.51,1.17,0-1.03-.29-1.28-.29-1.68,0-.25.19-.42.4-.42s.4.17.4.42c0,.44-.29.58-.29,1.68Z"/>
      <path class="cls-1" d="M46.6,149.29c.84-.4,1.07-1.17,1.51-1.17.22,0,.38.15.38.41,0,.31-.23.4-.67.5-.58.13-.8.21-1.14.42.96.58,1.81.32,1.81.91,0,.25-.16.41-.38.41-.44,0-.67-.77-1.51-1.17,0,1.03.29,1.3.29,1.68,0,.25-.19.42-.4.42s-.4-.17-.4-.42c0-.42.29-.62.29-1.68-.89.43-1.04,1.17-1.51,1.17-.22,0-.38-.15-.38-.41s.15-.39.67-.5c.47-.1.84-.22,1.14-.42-.32-.2-.68-.33-1.13-.42-.52-.1-.68-.23-.68-.5s.17-.41.38-.41c.46,0,.65.76,1.51,1.17,0-1.03-.29-1.28-.29-1.68,0-.25.19-.42.4-.42s.4.17.4.42c0,.44-.29.58-.29,1.68Z"/>
      <path class="cls-1" d="M53.87,149.29c.84-.4,1.07-1.17,1.51-1.17.22,0,.38.15.38.41,0,.31-.23.4-.67.5-.58.13-.8.21-1.14.42.96.58,1.81.32,1.81.91,0,.25-.16.41-.38.41-.44,0-.67-.77-1.51-1.17,0,1.03.29,1.3.29,1.68,0,.25-.19.42-.4.42s-.4-.17-.4-.42c0-.42.29-.62.29-1.68-.89.43-1.05,1.17-1.51,1.17-.22,0-.38-.15-.38-.41s.15-.39.67-.5c.47-.1.84-.22,1.14-.42-.32-.2-.68-.33-1.13-.42-.52-.1-.68-.23-.68-.5s.16-.41.38-.41c.46,0,.65.76,1.51,1.17,0-1.03-.29-1.28-.29-1.68,0-.25.19-.42.4-.42s.4.17.4.42c0,.44-.29.58-.29,1.68Z"/>
      <path class="cls-1" d="M61.14,149.29c.84-.4,1.07-1.17,1.51-1.17.22,0,.38.15.38.41,0,.31-.23.4-.67.5-.58.13-.8.21-1.14.42.96.58,1.82.32,1.82.91,0,.25-.17.41-.38.41-.44,0-.67-.77-1.51-1.17,0,1.03.29,1.3.29,1.68,0,.25-.19.42-.4.42s-.4-.17-.4-.42c0-.42.29-.62.29-1.68-.89.43-1.04,1.17-1.51,1.17-.22,0-.39-.15-.39-.41s.15-.39.67-.5c.47-.1.84-.22,1.14-.42-.32-.2-.68-.33-1.13-.42-.52-.1-.68-.23-.68-.5s.17-.41.39-.41c.46,0,.65.76,1.51,1.17,0-1.03-.29-1.28-.29-1.68,0-.25.19-.42.4-.42s.4.17.4.42c0,.44-.29.58-.29,1.68Z"/>
      <path class="cls-1" d="M68.41,149.29c.84-.4,1.07-1.17,1.51-1.17.22,0,.39.15.39.41,0,.31-.23.4-.67.5-.58.13-.8.21-1.14.42.96.58,1.82.32,1.82.91,0,.25-.17.41-.39.41-.44,0-.67-.77-1.51-1.17,0,1.03.29,1.3.29,1.68,0,.25-.19.42-.4.42s-.4-.17-.4-.42c0-.42.29-.62.29-1.68-.89.43-1.04,1.17-1.51,1.17-.22,0-.39-.15-.39-.41s.15-.39.67-.5c.47-.1.84-.22,1.14-.42-.32-.2-.68-.33-1.13-.42-.52-.1-.68-.23-.68-.5s.17-.41.39-.41c.46,0,.65.76,1.51,1.17,0-1.03-.29-1.28-.29-1.68,0-.25.19-.42.4-.42s.4.17.4.42c0,.44-.29.58-.29,1.68Z"/>
      <path class="cls-1" d="M75.68,149.29c.84-.4,1.07-1.17,1.51-1.17.22,0,.39.15.39.41,0,.31-.23.4-.67.5-.58.13-.8.21-1.14.42.96.58,1.82.32,1.82.91,0,.25-.17.41-.39.41-.44,0-.67-.77-1.51-1.17,0,1.03.29,1.3.29,1.68,0,.25-.19.42-.4.42s-.39-.17-.39-.42c0-.42.29-.62.29-1.68-.89.43-1.04,1.17-1.51,1.17-.22,0-.38-.15-.38-.41s.15-.39.67-.5c.47-.1.84-.22,1.14-.42-.32-.2-.68-.33-1.13-.42-.52-.1-.68-.23-.68-.5s.17-.41.38-.41c.46,0,.65.76,1.51,1.17,0-1.03-.29-1.28-.29-1.68,0-.25.19-.42.39-.42s.4.17.4.42c0,.44-.29.58-.29,1.68Z"/>
      <path class="cls-1" d="M82.95,149.29c.84-.4,1.07-1.17,1.51-1.17.22,0,.38.15.38.41,0,.31-.23.4-.67.5-.58.13-.8.21-1.14.42.96.58,1.81.32,1.81.91,0,.25-.16.41-.38.41-.44,0-.67-.77-1.51-1.17,0,1.03.29,1.3.29,1.68,0,.25-.19.42-.4.42s-.4-.17-.4-.42c0-.42.29-.62.29-1.68-.89.43-1.04,1.17-1.51,1.17-.22,0-.38-.15-.38-.41s.15-.39.67-.5c.47-.1.84-.22,1.14-.42-.32-.2-.68-.33-1.13-.42-.52-.1-.68-.23-.68-.5s.16-.41.38-.41c.46,0,.65.76,1.51,1.17,0-1.03-.29-1.28-.29-1.68,0-.25.19-.42.4-.42s.4.17.4.42c0,.44-.29.58-.29,1.68Z"/>
      <path class="cls-1" d="M90.22,149.29c.84-.4,1.07-1.17,1.51-1.17.22,0,.38.15.38.41,0,.31-.23.4-.67.5-.58.13-.8.21-1.14.42.96.58,1.81.32,1.81.91,0,.25-.16.41-.38.41-.44,0-.67-.77-1.51-1.17,0,1.03.29,1.3.29,1.68,0,.25-.19.42-.4.42s-.4-.17-.4-.42c0-.42.29-.62.29-1.68-.89.43-1.04,1.17-1.51,1.17-.22,0-.38-.15-.38-.41s.15-.39.67-.5c.47-.1.84-.22,1.14-.42-.32-.2-.68-.33-1.13-.42-.52-.1-.68-.23-.68-.5s.16-.41.38-.41c.46,0,.65.76,1.51,1.17,0-1.03-.29-1.28-.29-1.68,0-.25.19-.42.4-.42s.4.17.4.42c0,.44-.29.58-.29,1.68Z"/>
      <path class="cls-1" d="M97.5,149.29c.84-.4,1.07-1.17,1.51-1.17.22,0,.39.15.39.41,0,.31-.23.4-.67.5-.58.13-.8.21-1.14.42.96.58,1.82.32,1.82.91,0,.25-.17.41-.39.41-.44,0-.67-.77-1.51-1.17,0,1.03.29,1.3.29,1.68,0,.25-.19.42-.4.42s-.39-.17-.39-.42c0-.42.29-.62.29-1.68-.89.43-1.04,1.17-1.51,1.17-.22,0-.38-.15-.38-.41s.15-.39.67-.5c.47-.1.84-.22,1.14-.42-.32-.2-.68-.33-1.13-.42-.52-.1-.68-.23-.68-.5s.17-.41.38-.41c.46,0,.65.76,1.51,1.17,0-1.03-.29-1.28-.29-1.68,0-.25.19-.42.39-.42s.4.17.4.42c0,.44-.29.58-.29,1.68Z"/>
      <path class="cls-1" d="M104.77,149.29c.84-.4,1.07-1.17,1.51-1.17.22,0,.39.15.39.41,0,.31-.23.4-.67.5-.58.13-.8.21-1.14.42.96.58,1.82.32,1.82.91,0,.25-.17.41-.39.41-.44,0-.67-.77-1.51-1.17,0,1.03.29,1.3.29,1.68,0,.25-.19.42-.4.42s-.39-.17-.39-.42c0-.42.29-.62.29-1.68-.89.43-1.04,1.17-1.51,1.17-.22,0-.38-.15-.38-.41s.15-.39.67-.5c.47-.1.84-.22,1.14-.42-.32-.2-.68-.33-1.13-.42-.52-.1-.68-.23-.68-.5s.17-.41.38-.41c.46,0,.65.76,1.51,1.17,0-1.03-.29-1.28-.29-1.68,0-.25.19-.42.39-.42s.4.17.4.42c0,.44-.29.58-.29,1.68Z"/>
      <path class="cls-1" d="M112.04,149.29c.84-.4,1.07-1.17,1.51-1.17.22,0,.38.15.38.41,0,.31-.23.4-.67.5-.58.13-.8.21-1.14.42.96.58,1.81.32,1.81.91,0,.25-.16.41-.38.41-.44,0-.67-.77-1.51-1.17,0,1.03.29,1.3.29,1.68,0,.25-.19.42-.4.42s-.4-.17-.4-.42c0-.42.29-.62.29-1.68-.89.43-1.04,1.17-1.51,1.17-.22,0-.38-.15-.38-.41s.15-.39.67-.5c.47-.1.84-.22,1.14-.42-.32-.2-.68-.33-1.13-.42-.52-.1-.68-.23-.68-.5s.16-.41.38-.41c.46,0,.65.76,1.51,1.17,0-1.03-.29-1.28-.29-1.68,0-.25.19-.42.4-.42s.4.17.4.42c0,.44-.29.58-.29,1.68Z"/>
      <path class="cls-1" d="M119.31,149.29c.84-.4,1.07-1.17,1.51-1.17.22,0,.38.15.38.41,0,.31-.23.4-.67.5-.58.13-.8.21-1.14.42.96.58,1.81.32,1.81.91,0,.25-.16.41-.38.41-.44,0-.67-.77-1.51-1.17,0,1.03.29,1.3.29,1.68,0,.25-.19.42-.4.42s-.4-.17-.4-.42c0-.42.29-.62.29-1.68-.89.43-1.04,1.17-1.51,1.17-.22,0-.38-.15-.38-.41s.15-.39.67-.5c.47-.1.84-.22,1.14-.42-.32-.2-.68-.33-1.13-.42-.52-.1-.68-.23-.68-.5s.16-.41.38-.41c.46,0,.65.76,1.51,1.17,0-1.03-.29-1.28-.29-1.68,0-.25.19-.42.4-.42s.4.17.4.42c0,.44-.29.58-.29,1.68Z"/>
      <path class="cls-1" d="M126.58,149.29c.84-.4,1.07-1.17,1.51-1.17.22,0,.39.15.39.41,0,.31-.23.4-.67.5-.58.13-.8.21-1.14.42.96.58,1.82.32,1.82.91,0,.25-.17.41-.39.41-.44,0-.67-.77-1.51-1.17,0,1.03.29,1.3.29,1.68,0,.25-.19.42-.4.42s-.39-.17-.39-.42c0-.42.29-.62.29-1.68-.89.43-1.04,1.17-1.51,1.17-.22,0-.38-.15-.38-.41s.15-.39.67-.5c.47-.1.84-.22,1.14-.42-.32-.2-.68-.33-1.13-.42-.52-.1-.68-.23-.68-.5s.17-.41.38-.41c.46,0,.65.76,1.51,1.17,0-1.03-.29-1.28-.29-1.68,0-.25.19-.42.39-.42s.4.17.4.42c0,.44-.29.58-.29,1.68Z"/>
      <path class="cls-1" d="M133.85,149.29c.84-.4,1.07-1.17,1.51-1.17.22,0,.39.15.39.41,0,.31-.23.4-.67.5-.58.13-.8.21-1.14.42.96.58,1.82.32,1.82.91,0,.25-.17.41-.39.41-.44,0-.67-.77-1.51-1.17,0,1.03.29,1.3.29,1.68,0,.25-.19.42-.4.42s-.39-.17-.39-.42c0-.42.29-.62.29-1.68-.89.43-1.04,1.17-1.51,1.17-.22,0-.38-.15-.38-.41s.15-.39.67-.5c.47-.1.84-.22,1.14-.42-.32-.2-.68-.33-1.13-.42-.52-.1-.68-.23-.68-.5s.17-.41.38-.41c.46,0,.65.76,1.51,1.17,0-1.03-.29-1.28-.29-1.68,0-.25.19-.42.39-.42s.4.17.4.42c0,.44-.29.58-.29,1.68Z"/>
      <path class="cls-1" d="M141.12,149.29c.84-.4,1.07-1.17,1.51-1.17.22,0,.38.15.38.41,0,.31-.23.4-.67.5-.58.13-.8.21-1.14.42.96.58,1.81.32,1.81.91,0,.25-.16.41-.38.41-.44,0-.67-.77-1.51-1.17,0,1.03.29,1.3.29,1.68,0,.25-.19.42-.4.42s-.4-.17-.4-.42c0-.42.29-.62.29-1.68-.89.43-1.04,1.17-1.51,1.17-.22,0-.38-.15-.38-.41s.15-.39.67-.5c.47-.1.84-.22,1.14-.42-.32-.2-.68-.33-1.13-.42-.52-.1-.68-.23-.68-.5s.16-.41.38-.41c.46,0,.65.76,1.51,1.17,0-1.03-.29-1.28-.29-1.68,0-.25.19-.42.4-.42s.4.17.4.42c0,.44-.29.58-.29,1.68Z"/>
      <path class="cls-1" d="M148.39,149.29c.84-.4,1.07-1.17,1.51-1.17.22,0,.38.15.38.41,0,.31-.23.4-.67.5-.58.13-.8.21-1.14.42.96.58,1.81.32,1.81.91,0,.25-.16.41-.38.41-.44,0-.67-.77-1.51-1.17,0,1.03.29,1.3.29,1.68,0,.25-.19.42-.4.42s-.4-.17-.4-.42c0-.42.29-.62.29-1.68-.89.43-1.04,1.17-1.51,1.17-.22,0-.38-.15-.38-.41s.15-.39.67-.5c.47-.1.84-.22,1.14-.42-.32-.2-.68-.33-1.13-.42-.52-.1-.68-.23-.68-.5s.16-.41.38-.41c.46,0,.65.76,1.51,1.17,0-1.03-.29-1.28-.29-1.68,0-.25.19-.42.4-.42s.4.17.4.42c0,.44-.29.58-.29,1.68Z"/>
      <path class="cls-1" d="M155.66,149.29c.84-.4,1.07-1.17,1.51-1.17.22,0,.39.15.39.41,0,.31-.23.4-.67.5-.58.13-.8.21-1.14.42.96.58,1.82.32,1.82.91,0,.25-.17.41-.39.41-.44,0-.67-.77-1.51-1.17,0,1.03.29,1.3.29,1.68,0,.25-.19.42-.4.42s-.39-.17-.39-.42c0-.42.29-.62.29-1.68-.89.43-1.04,1.17-1.51,1.17-.22,0-.38-.15-.38-.41s.15-.39.67-.5c.47-.1.84-.22,1.14-.42-.32-.2-.68-.33-1.13-.42-.52-.1-.68-.23-.68-.5s.17-.41.38-.41c.46,0,.65.76,1.51,1.17,0-1.03-.29-1.28-.29-1.68,0-.25.19-.42.39-.42s.4.17.4.42c0,.44-.29.58-.29,1.68Z"/>
      <path class="cls-1" d="M162.93,149.29c.84-.4,1.07-1.17,1.51-1.17.22,0,.39.15.39.41,0,.31-.23.4-.67.5-.58.13-.8.21-1.14.42.96.58,1.82.32,1.82.91,0,.25-.17.41-.39.41-.44,0-.67-.77-1.51-1.17,0,1.03.29,1.3.29,1.68,0,.25-.19.42-.4.42s-.39-.17-.39-.42c0-.42.29-.62.29-1.68-.89.43-1.04,1.17-1.51,1.17-.22,0-.38-.15-.38-.41s.15-.39.67-.5c.47-.1.84-.22,1.14-.42-.32-.2-.68-.33-1.13-.42-.52-.1-.68-.23-.68-.5s.17-.41.38-.41c.46,0,.65.76,1.51,1.17,0-1.03-.29-1.28-.29-1.68,0-.25.19-.42.39-.42s.4.17.4.42c0,.44-.29.58-.29,1.68Z"/>
      <path class="cls-1" d="M170.2,149.29c.84-.4,1.07-1.17,1.51-1.17.22,0,.38.15.38.41,0,.31-.23.4-.67.5-.58.13-.8.21-1.14.42.96.58,1.81.32,1.81.91,0,.25-.16.41-.38.41-.44,0-.67-.77-1.51-1.17,0,1.03.29,1.3.29,1.68,0,.25-.19.42-.4.42s-.4-.17-.4-.42c0-.42.29-.62.29-1.68-.89.43-1.04,1.17-1.51,1.17-.22,0-.38-.15-.38-.41s.15-.39.67-.5c.47-.1.84-.22,1.14-.42-.32-.2-.68-.33-1.13-.42-.52-.1-.68-.23-.68-.5s.16-.41.38-.41c.46,0,.65.76,1.51,1.17,0-1.03-.29-1.28-.29-1.68,0-.25.19-.42.4-.42s.4.17.4.42c0,.44-.29.58-.29,1.68Z"/>
      <path class="cls-1" d="M177.48,149.29c.84-.4,1.07-1.17,1.51-1.17.22,0,.38.15.38.41,0,.31-.23.4-.67.5-.58.13-.8.21-1.14.42.96.58,1.81.32,1.81.91,0,.25-.16.41-.38.41-.44,0-.67-.77-1.51-1.17,0,1.03.29,1.3.29,1.68,0,.25-.19.42-.4.42s-.4-.17-.4-.42c0-.42.29-.62.29-1.68-.89.43-1.04,1.17-1.51,1.17-.22,0-.38-.15-.38-.41s.15-.39.67-.5c.47-.1.84-.22,1.14-.42-.32-.2-.68-.33-1.13-.42-.52-.1-.68-.23-.68-.5s.16-.41.38-.41c.46,0,.65.76,1.51,1.17,0-1.03-.29-1.28-.29-1.68,0-.25.19-.42.4-.42s.4.17.4.42c0,.44-.29.58-.29,1.68Z"/>
      <path class="cls-1" d="M184.75,149.29c.84-.4,1.07-1.17,1.51-1.17.22,0,.39.15.39.41,0,.31-.23.4-.67.5-.58.13-.8.21-1.14.42.96.58,1.82.32,1.82.91,0,.25-.17.41-.39.41-.44,0-.67-.77-1.51-1.17,0,1.03.29,1.3.29,1.68,0,.25-.19.42-.4.42s-.39-.17-.39-.42c0-.42.29-.62.29-1.68-.89.43-1.04,1.17-1.51,1.17-.22,0-.38-.15-.38-.41s.15-.39.67-.5c.47-.1.84-.22,1.14-.42-.32-.2-.68-.33-1.13-.42-.52-.1-.68-.23-.68-.5s.17-.41.38-.41c.46,0,.65.76,1.51,1.17,0-1.03-.29-1.28-.29-1.68,0-.25.19-.42.39-.42s.4.17.4.42c0,.44-.29.58-.29,1.68Z"/>
    </g>
    <g>
      <g>
        <path class="cls-1" d="M5.24,106.3c-.5.45-1.21.67-2.12.67H.72v-7.27h2.4c.92,0,1.63.24,2.13.73.5.49.75,1.19.75,2.11v1.74c0,.91-.25,1.58-.76,2.03ZM3.93,105.55c.22-.12.38-.3.47-.54.09-.24.14-.56.14-.95v-1.27c0-.59-.11-1.05-.34-1.38-.23-.33-.62-.49-1.18-.49h-.85v4.81h.85c.39,0,.69-.06.91-.18Z"/>
        <path class="cls-1" d="M6.79,104.09c.26-.28.59-.45.98-.52.39-.07.89-.11,1.49-.11h.85v-.38c0-.25-.1-.45-.31-.58-.2-.13-.44-.2-.7-.2-.31,0-.55.04-.73.11-.18.07-.31.23-.38.49h-1.34c.08-.61.34-1.05.77-1.34.43-.29.99-.43,1.67-.43.74,0,1.33.17,1.76.52.43.35.64.9.64,1.65v3.67h-1.23l-.05-.56c-.23.28-.5.46-.8.55-.3.09-.66.14-1.08.14-.59,0-1.05-.15-1.4-.44-.35-.29-.52-.72-.52-1.3s.13-1,.4-1.28ZM10.11,104.58h-1.3c-.34,0-.6.05-.78.14-.18.09-.27.29-.27.6,0,.2.08.35.23.44.15.09.35.13.58.13s.48-.04.72-.13c.24-.09.43-.22.59-.4.16-.18.24-.39.24-.64v-.14Z"/>
        <path class="cls-1" d="M14.29,99.45v1.97h1.07v1.18h-1.07v2.46c0,.25.03.44.09.56.06.12.15.2.26.23.11.03.28.05.5.05h.32v1.18h-.68c-.63,0-1.1-.14-1.41-.43-.31-.29-.47-.74-.47-1.35v-2.69h-.98v-1.18h.98v-1.97h1.39Z"/>
        <path class="cls-1" d="M20.08,106.68c-.46.28-1.01.42-1.66.42-.54,0-1.01-.1-1.42-.29-.41-.19-.73-.47-.95-.84-.23-.37-.34-.82-.34-1.35v-1.03c0-.52.11-.97.34-1.34.22-.37.54-.65.94-.85.4-.19.86-.29,1.38-.29s.98.1,1.38.29c.41.2.72.48.95.86.23.38.34.83.34,1.36v.89h-3.96c0,.47.1.82.31,1.05s.55.34,1.03.34c.62,0,.98-.2,1.06-.59h1.47c-.11.62-.39,1.07-.85,1.35ZM17.46,102.58c-.21.17-.34.45-.38.82h2.52c-.04-.38-.17-.65-.37-.82s-.5-.26-.88-.26-.68.09-.89.26Z"/>
        <path class="cls-1" d="M22.45,102.4v-1.57h1.67v1.57h-1.67ZM22.45,105.84v-1.58h1.67v1.58h-1.67Z"/>
        <path class="cls-1" d="M5.24,120.3c-.5.45-1.21.67-2.12.67H.72v-7.27h2.4c.92,0,1.63.24,2.13.73.5.49.75,1.19.75,2.11v1.74c0,.91-.25,1.58-.76,2.03ZM3.93,119.55c.22-.12.38-.3.47-.54.09-.24.14-.56.14-.95v-1.27c0-.59-.11-1.05-.34-1.38-.23-.33-.62-.49-1.18-.49h-.85v4.81h.85c.39,0,.69-.06.91-.18Z"/>
        <path class="cls-1" d="M10.88,120.68c-.46.28-1.01.42-1.66.42-.54,0-1.01-.1-1.42-.29-.41-.19-.73-.47-.95-.84-.23-.37-.34-.82-.34-1.35v-1.03c0-.52.11-.97.34-1.34.23-.37.54-.65.94-.85.4-.19.86-.29,1.38-.29s.98.1,1.38.29c.41.2.72.48.95.86.23.38.34.83.34,1.36v.89h-3.96c0,.47.1.82.31,1.05s.55.34,1.03.34c.62,0,.98-.2,1.06-.59h1.47c-.11.62-.39,1.07-.85,1.35ZM8.26,116.58c-.21.17-.34.45-.38.82h2.52c-.04-.38-.17-.65-.37-.82s-.5-.26-.88-.26-.68.09-.89.26Z"/>
        <path class="cls-1" d="M13.95,119.74c.2.12.46.18.8.18.32,0,.58-.04.8-.11.21-.07.32-.23.32-.49,0-.2-.18-.38-.54-.52-.36-.14-.82-.28-1.37-.41h-.05s0,0,0,0l-.45-.13c-.32-.11-.56-.28-.73-.51-.17-.23-.26-.52-.26-.86,0-.39.11-.72.32-.98s.49-.46.83-.59.7-.19,1.08-.19c.69,0,1.26.15,1.71.46s.7.79.73,1.45h-1.34c-.1-.49-.46-.73-1.08-.73-.24,0-.45.04-.62.12-.17.08-.26.22-.26.43,0,.15.05.26.14.34.1.08.23.14.41.2.13.04.32.09.57.15l.11.03c.59.12,1.11.32,1.54.61.43.29.65.68.65,1.18,0,.68-.23,1.14-.68,1.37-.46.24-1.06.36-1.81.36s-1.35-.16-1.8-.48c-.46-.32-.69-.83-.69-1.54h1.38c.01.31.12.53.32.65Z"/>
        <path class="cls-1" d="M19.32,119.74c.2.12.46.18.8.18.32,0,.58-.04.8-.11.21-.07.32-.23.32-.49,0-.2-.18-.38-.54-.52-.36-.14-.82-.28-1.37-.41h-.05s0,0,0,0l-.45-.13c-.32-.11-.56-.28-.73-.51-.17-.23-.26-.52-.26-.86,0-.39.11-.72.32-.98s.49-.46.83-.59.7-.19,1.08-.19c.69,0,1.26.15,1.71.46s.7.79.73,1.45h-1.34c-.1-.49-.46-.73-1.08-.73-.24,0-.45.04-.62.12-.17.08-.26.22-.26.43,0,.15.05.26.14.34.1.08.23.14.41.2.13.04.32.09.57.15l.11.03c.59.12,1.11.32,1.54.61.43.29.65.68.65,1.18,0,.68-.23,1.14-.68,1.37-.46.24-1.06.36-1.81.36s-1.35-.16-1.8-.48c-.46-.32-.69-.83-.69-1.54h1.38c.01.31.12.53.32.65Z"/>
        <path class="cls-1" d="M27.43,120.68c-.46.28-1.01.42-1.66.42-.54,0-1.01-.1-1.42-.29-.41-.19-.73-.47-.95-.84-.23-.37-.34-.82-.34-1.35v-1.03c0-.52.11-.97.34-1.34.22-.37.54-.65.94-.85.4-.19.86-.29,1.38-.29s.98.1,1.38.29c.41.2.72.48.95.86.23.38.34.83.34,1.36v.89h-3.96c0,.47.1.82.31,1.05s.55.34,1.03.34c.62,0,.98-.2,1.06-.59h1.47c-.11.62-.39,1.07-.85,1.35ZM24.81,116.58c-.21.17-.34.45-.38.82h2.52c-.04-.38-.17-.65-.37-.82s-.5-.26-.88-.26-.68.09-.89.26Z"/>
        <path class="cls-1" d="M32.68,115.25v1.35l-2.2.89v3.47h-1.39v-5.63h1.21l.12.74,2.26-.82Z"/>
        <path class="cls-1" d="M35.52,113.45v1.97h1.07v1.18h-1.07v2.46c0,.25.03.44.09.56.06.12.15.2.26.23.11.03.28.05.5.05h.32v1.18h-.67c-.63,0-1.1-.14-1.41-.43-.31-.29-.47-.74-.47-1.35v-2.69h-.98v-1.18h.98v-1.97h1.39Z"/>
        <path class="cls-1" d="M41.91,113.45v1.97h1.07v1.18h-1.07v2.46c0,.25.03.44.09.56.06.12.15.2.26.23.11.03.28.05.5.05h.32v1.18h-.68c-.63,0-1.1-.14-1.41-.43-.31-.29-.47-.74-.47-1.35v-2.69h-.98v-1.18h.98v-1.97h1.39Z"/>
        <path class="cls-1" d="M44.82,122.86l.77-2.22-2.23-5.3h1.48l1.38,3.51,1.18-3.51h1.48l-2.67,7.52h-1.38Z"/>
        <path class="cls-1" d="M49.43,115.33h1.25l.06.35c.19-.17.4-.31.64-.4.23-.09.48-.14.73-.14.78,0,1.39.22,1.84.65.44.43.67,1.04.67,1.82v1.02c0,.79-.22,1.4-.65,1.83-.43.43-1.03.64-1.79.64-.56,0-1.03-.13-1.39-.4v2.15h-1.36v-7.52ZM51.11,116.72c-.21.26-.31.61-.31,1.04v.68c0,.45.1.81.31,1.08.2.27.53.4.97.4.42,0,.72-.12.89-.36.17-.24.26-.59.26-1.03v-.81c0-.45-.09-.79-.26-1.03-.17-.24-.47-.36-.88-.36-.44,0-.76.13-.97.39Z"/>
        <path class="cls-1" d="M59.46,120.68c-.46.28-1.01.42-1.66.42-.54,0-1.01-.1-1.42-.29-.41-.19-.73-.47-.95-.84-.23-.37-.34-.82-.34-1.35v-1.03c0-.52.11-.97.34-1.34.23-.37.54-.65.94-.85.4-.19.86-.29,1.38-.29s.98.1,1.38.29c.41.2.72.48.95.86.23.38.34.83.34,1.36v.89h-3.96c0,.47.1.82.31,1.05s.55.34,1.03.34c.62,0,.98-.2,1.06-.59h1.47c-.11.62-.39,1.07-.85,1.35ZM56.84,116.58c-.21.17-.34.45-.38.82h2.52c-.04-.38-.17-.65-.37-.82s-.5-.26-.88-.26-.68.09-.89.26Z"/>
        <path class="cls-1" d="M61.83,116.4v-1.57h1.67v1.57h-1.67ZM61.83,119.84v-1.58h1.67v1.58h-1.67Z"/>
        <path class="cls-1" d="M4.87,134.68c-.46.28-1.01.42-1.66.42-.54,0-1.01-.1-1.42-.29-.41-.19-.73-.47-.95-.84-.23-.37-.34-.82-.34-1.35v-1.03c0-.52.11-.97.34-1.34.22-.37.54-.65.94-.85.4-.19.86-.29,1.38-.29s.98.1,1.38.29c.41.2.72.48.95.86.23.38.34.83.34,1.36v.89H1.86c0,.47.1.82.31,1.05s.55.34,1.03.34c.62,0,.98-.2,1.06-.59h1.47c-.11.62-.39,1.07-.85,1.35ZM2.25,130.58c-.21.17-.34.45-.38.82h2.52c-.04-.38-.17-.65-.37-.82s-.5-.26-.88-.26-.68.09-.89.26Z"/>
        <path class="cls-1" d="M6.44,130.87h3.35v1.23h-3.35v-1.23Z"/>
        <path class="cls-1" d="M12.56,129.36c.25-.14.52-.21.81-.21.34,0,.62.06.85.19.23.13.41.34.53.63.16-.25.38-.44.66-.59.28-.15.57-.23.86-.23.6,0,1.03.17,1.3.52.26.35.4.83.4,1.44v3.86h-1.36v-3.59c0-.32-.04-.57-.13-.76s-.27-.28-.56-.28c-.31,0-.54.12-.7.36-.15.24-.23.53-.23.88v3.4h-1.36v-3.75c0-.26-.04-.48-.13-.64s-.26-.24-.53-.24c-.31,0-.55.12-.72.36-.17.24-.25.53-.25.88v3.4h-1.39v-5.63h1.29l.1.59c.13-.24.32-.43.57-.57Z"/>
        <path class="cls-1" d="M18.92,132.09c.26-.28.59-.45.98-.52.39-.07.89-.11,1.49-.11h.85v-.38c0-.25-.1-.45-.31-.58-.2-.13-.44-.2-.7-.2-.31,0-.55.04-.73.11-.18.07-.31.23-.38.49h-1.34c.08-.61.34-1.05.77-1.34s.99-.43,1.67-.43c.74,0,1.33.17,1.75.52.43.35.64.9.64,1.65v3.67h-1.23l-.05-.56c-.23.28-.5.46-.8.55-.3.09-.66.14-1.08.14-.59,0-1.05-.15-1.4-.44-.34-.29-.52-.72-.52-1.3s.13-1,.4-1.28ZM22.24,132.58h-1.31c-.34,0-.6.05-.78.14-.18.09-.27.29-.27.6,0,.2.08.35.23.44s.35.13.58.13.48-.04.72-.13.43-.22.59-.4c.16-.18.24-.39.24-.64v-.14Z"/>
        <path class="cls-1" d="M28.1,129.25v1.35l-2.2.89v3.47h-1.4v-5.63h1.22l.12.74,2.26-.82Z"/>
        <path class="cls-1" d="M30.95,127.45v1.97h1.07v1.18h-1.07v2.46c0,.25.03.44.09.56.06.12.15.2.26.23.11.03.28.05.5.05h.32v1.18h-.68c-.63,0-1.1-.14-1.41-.43-.31-.29-.47-.74-.47-1.35v-2.69h-.98v-1.18h.98v-1.97h1.39Z"/>
        <path class="cls-1" d="M38.05,129.13c.75,0,1.34.22,1.78.65.44.44.65,1.04.65,1.81v1.03c0,.83-.23,1.45-.68,1.86-.45.41-1.1.62-1.94.62-.23,0-.45-.04-.67-.11-.22-.08-.42-.18-.61-.33l-.05.31h-1.23v-7.52h1.36v2.06c.37-.25.84-.38,1.39-.38ZM36.97,130.73c-.21.27-.32.63-.32,1.07v.48c0,.53.08.94.25,1.22.17.28.5.42.98.42.44,0,.75-.12.93-.36.18-.24.27-.58.27-1.03v-.83c0-.45-.09-.79-.26-1.03-.17-.24-.46-.36-.87-.36-.44,0-.77.14-.99.41Z"/>
        <path class="cls-1" d="M44.76,129.25v1.35l-2.2.89v3.47h-1.39v-5.63h1.21l.12.74,2.26-.82Z"/>
        <path class="cls-1" d="M45.19,132.09c.26-.28.59-.45.98-.52.39-.07.89-.11,1.49-.11h.85v-.38c0-.25-.1-.45-.31-.58-.2-.13-.44-.2-.7-.2-.31,0-.55.04-.73.11-.18.07-.31.23-.38.49h-1.34c.08-.61.34-1.05.77-1.34.43-.29.99-.43,1.67-.43.74,0,1.33.17,1.76.52.43.35.64.9.64,1.65v3.67h-1.23l-.05-.56c-.23.28-.5.46-.8.55-.3.09-.66.14-1.08.14-.59,0-1.05-.15-1.4-.44-.35-.29-.52-.72-.52-1.3s.13-1,.4-1.28ZM48.52,132.58h-1.3c-.34,0-.6.05-.78.14-.18.09-.27.29-.27.6,0,.2.08.35.23.44.15.09.35.13.58.13s.48-.04.72-.13c.24-.09.43-.22.59-.4.16-.18.24-.39.24-.64v-.14Z"/>
        <path class="cls-1" d="M52.77,129.32c.25-.12.51-.18.78-.18.78,0,1.38.22,1.8.65.42.43.63,1.04.63,1.82v3.36h-1.4v-3.25c0-.46-.07-.8-.22-1.04s-.42-.35-.81-.35c-.46,0-.8.15-1.04.44-.24.29-.36.66-.36,1.09v3.1h-1.36v-5.63h1.26l.1.47c.16-.2.36-.36.62-.48Z"/>
        <path class="cls-1" d="M61.75,134.97h-1.23l-.06-.31c-.38.29-.8.44-1.26.44-.84,0-1.48-.21-1.93-.62-.45-.41-.67-1.03-.67-1.86v-1.03c0-.77.21-1.38.64-1.81.43-.44,1.02-.65,1.77-.65.56,0,1.02.13,1.4.38v-2.06h1.36v7.52ZM60.12,133.51c.18-.27.27-.65.27-1.15v-.49c0-.46-.1-.83-.3-1.12s-.53-.43-.99-.43c-.41,0-.7.12-.88.36-.18.24-.27.58-.27,1.03v.83c0,.45.09.79.27,1.03.18.24.49.36.93.36.47,0,.79-.13.97-.4Z"/>
        <path class="cls-1" d="M63.4,130.4v-1.57h1.67v1.57h-1.67ZM63.4,133.84v-1.58h1.67v1.58h-1.67Z"/>
      </g>
      <g>
        <path class="cls-1" d="M110.97,106.38v.59h-5.12l2.1-2.28c.44-.47.79-.86,1.06-1.18.27-.32.47-.6.62-.83.14-.23.24-.44.29-.63.05-.18.08-.37.08-.56,0-.19-.02-.38-.09-.56-.06-.18-.16-.34-.29-.48-.13-.14-.3-.25-.5-.34s-.44-.13-.72-.13c-.37,0-.67.06-.9.18-.23.12-.4.27-.52.44-.12.17-.2.35-.24.53-.04.18-.06.33-.06.44h-.63c.02-.43.1-.78.25-1.05.15-.27.33-.49.54-.65.22-.16.46-.27.72-.33.26-.06.52-.09.78-.09.34,0,.65.04.93.12.28.08.52.21.72.37s.35.38.46.64c.11.26.17.56.17.91,0,.24-.03.46-.08.67s-.15.43-.28.67c-.13.24-.32.5-.55.79-.23.29-.53.63-.89,1.03l-1.56,1.71h3.71Z"/>
        <path class="cls-1" d="M111.44,102.27c0-.96.24-1.67.71-2.12.47-.46,1.16-.68,2.08-.68s1.6.23,2.07.68c.47.46.71,1.16.71,2.12v2.14c0,.95-.24,1.66-.71,2.11-.47.45-1.16.68-2.07.68s-1.6-.23-2.08-.68c-.47-.45-.71-1.16-.71-2.11v-2.14ZM112.07,104.58c0,.66.19,1.16.58,1.51.39.34.91.52,1.57.52s1.18-.17,1.57-.52c.39-.35.58-.85.58-1.51v-2.5c0-.33-.05-.62-.16-.88-.11-.25-.25-.47-.44-.63-.19-.17-.42-.3-.68-.38-.26-.09-.56-.13-.87-.13s-.62.04-.88.13c-.26.09-.49.21-.68.38-.19.17-.33.38-.44.63-.1.25-.15.55-.15.88v2.5Z"/>
        <path class="cls-1" d="M122.67,106.38v.59h-5.12l2.1-2.28c.44-.47.79-.86,1.06-1.18.27-.32.47-.6.62-.83.14-.23.24-.44.29-.63s.08-.37.08-.56c0-.19-.02-.38-.09-.56-.06-.18-.16-.34-.29-.48s-.3-.25-.5-.34c-.2-.08-.44-.13-.72-.13-.37,0-.67.06-.9.18-.23.12-.4.27-.52.44-.12.17-.2.35-.24.53-.04.18-.06.33-.06.44h-.63c.02-.43.1-.78.25-1.05.15-.27.33-.49.54-.65.22-.16.46-.27.72-.33s.53-.09.78-.09c.34,0,.65.04.93.12s.52.21.72.37c.2.17.35.38.46.64s.17.56.17.91c0,.24-.03.46-.08.67-.05.21-.15.43-.28.67-.13.24-.32.5-.55.79-.23.29-.53.63-.89,1.03l-1.56,1.71h3.71Z"/>
        <path class="cls-1" d="M127.38,106.6c-.44.4-1.04.6-1.81.6-.25,0-.51-.04-.76-.11-.26-.07-.5-.19-.71-.35-.22-.16-.4-.37-.54-.63-.14-.26-.23-.57-.24-.95h.63c.03.45.18.8.45,1.06.27.25.67.38,1.19.38.25,0,.49-.03.71-.09.22-.06.42-.16.58-.3.17-.14.29-.32.39-.56s.14-.53.14-.88c0-.51-.16-.91-.48-1.21s-.76-.44-1.31-.44h-2.16v-3.44h4.24v.59h-3.61v2.25h1.41c.39,0,.74.05,1.06.15.32.1.58.25.8.44.22.19.39.42.5.7.12.28.18.59.18.94,0,.82-.22,1.43-.65,1.84Z"/>
        <path class="cls-1" d="M129.2,107.72v-1.1h1.18v1.1h-1.18Z"/>
        <path class="cls-1" d="M133.19,106.97v-6.58l-1.61.59v-.62l2.25-.85v7.45h-.64Z"/>
        <path class="cls-1" d="M135.51,102.27c0-.96.24-1.67.71-2.12.47-.46,1.16-.68,2.07-.68s1.6.23,2.07.68c.47.46.71,1.16.71,2.12v2.14c0,.95-.24,1.66-.71,2.11-.47.45-1.16.68-2.07.68s-1.6-.23-2.07-.68c-.47-.45-.71-1.16-.71-2.11v-2.14ZM136.14,104.58c0,.66.19,1.16.58,1.51.39.34.91.52,1.57.52s1.18-.17,1.57-.52c.39-.35.58-.85.58-1.51v-2.5c0-.33-.05-.62-.16-.88-.1-.25-.25-.47-.44-.63-.19-.17-.42-.3-.68-.38-.26-.09-.55-.13-.87-.13s-.62.04-.88.13c-.26.09-.49.21-.68.38-.19.17-.33.38-.44.63-.1.25-.15.55-.15.88v2.5Z"/>
        <path class="cls-1" d="M142.17,107.72v-1.1h1.18v1.1h-1.18Z"/>
        <path class="cls-1" d="M146.16,106.97v-6.58l-1.61.59v-.62l2.25-.85v7.45h-.64Z"/>
        <path class="cls-1" d="M148.67,101.41c.06-.59.29-1.06.67-1.41s.93-.53,1.62-.53c.34,0,.64.04.93.12.28.08.52.2.72.36s.36.37.47.63c.11.25.17.55.17.9s-.09.65-.26.95c-.17.3-.45.54-.83.72.23.07.44.18.61.31s.31.29.43.47c.11.17.2.36.25.56.05.2.08.4.07.6,0,.36-.07.67-.21.94-.14.27-.33.49-.56.66-.24.17-.51.3-.83.39-.32.08-.66.13-1.03.13-.34,0-.66-.05-.94-.14-.29-.1-.54-.23-.76-.41-.22-.18-.39-.4-.52-.66-.13-.26-.2-.55-.22-.87h.64c.02.19.07.38.14.56.07.18.18.34.32.48.14.14.33.25.55.33.22.08.5.13.82.13.35,0,.65-.04.9-.13s.45-.2.61-.34c.16-.14.27-.3.35-.49s.11-.38.11-.58c0-.18-.03-.36-.08-.55-.06-.19-.16-.36-.29-.52-.14-.16-.33-.28-.57-.39-.24-.1-.54-.15-.91-.15h-1.01v-.59h.92c.31,0,.56-.05.77-.14s.38-.2.52-.34.23-.29.29-.45c.06-.16.09-.32.09-.48,0-.17-.02-.34-.07-.51-.05-.17-.13-.33-.25-.48-.12-.14-.29-.26-.5-.36-.21-.09-.48-.14-.81-.14-.35,0-.64.05-.85.16s-.37.24-.49.38-.2.3-.24.46c-.04.16-.08.3-.09.41h-.64Z"/>
        <path class="cls-1" d="M160.08,103.77h-3.35v-.59h3.35v.59Z"/>
        <path class="cls-1" d="M164.89,106.97v-6.58l-1.61.59v-.62l2.25-.85v7.45h-.64Z"/>
        <path class="cls-1" d="M167.21,102.27c0-.96.24-1.67.71-2.12.47-.46,1.16-.68,2.08-.68s1.6.23,2.07.68c.47.46.71,1.16.71,2.12v2.14c0,.95-.24,1.66-.71,2.11-.47.45-1.16.68-2.07.68s-1.6-.23-2.08-.68c-.47-.45-.71-1.16-.71-2.11v-2.14ZM167.84,104.58c0,.66.19,1.16.58,1.51.39.34.91.52,1.57.52s1.18-.17,1.57-.52c.39-.35.58-.85.58-1.51v-2.5c0-.33-.05-.62-.16-.88-.11-.25-.25-.47-.44-.63-.19-.17-.42-.3-.68-.38-.26-.09-.56-.13-.87-.13s-.62.04-.88.13c-.26.09-.49.21-.68.38-.19.17-.33.38-.44.63-.1.25-.15.55-.15.88v2.5Z"/>
        <path class="cls-1" d="M173.88,107.72v-1.1h1.18v1.1h-1.18Z"/>
        <path class="cls-1" d="M181.16,106.38v.59h-5.12l2.1-2.28c.44-.47.79-.86,1.06-1.18.27-.32.47-.6.62-.83.14-.23.24-.44.29-.63s.08-.37.08-.56c0-.19-.02-.38-.09-.56-.06-.18-.16-.34-.29-.48s-.3-.25-.5-.34c-.2-.08-.44-.13-.72-.13-.37,0-.67.06-.9.18-.23.12-.4.27-.52.44-.12.17-.2.35-.24.53-.04.18-.06.33-.06.44h-.63c.02-.43.1-.78.25-1.05.15-.27.33-.49.54-.65.22-.16.46-.27.72-.33s.53-.09.78-.09c.34,0,.65.04.93.12s.52.21.72.37c.2.17.35.38.46.64s.17.56.17.91c0,.24-.03.46-.08.67-.05.21-.15.43-.28.67-.13.24-.32.5-.55.79-.23.29-.53.63-.89,1.03l-1.56,1.71h3.71Z"/>
        <path class="cls-1" d="M185.41,102.58c.3.12.56.29.77.5s.38.45.5.73c.12.28.18.59.18.94,0,.41-.06.77-.18,1.07-.12.31-.29.56-.51.77-.22.21-.49.36-.8.47-.31.1-.66.16-1.04.16-.44,0-.82-.07-1.14-.22s-.58-.34-.78-.58-.35-.5-.45-.8c-.1-.3-.14-.59-.14-.89,0-.17.01-.34.04-.51s.07-.33.11-.49c.04-.16.09-.3.14-.43.05-.13.09-.24.13-.32l1.48-3.28h.73l-1.38,3.07c.1-.08.21-.15.34-.2.13-.05.26-.09.39-.12.13-.03.24-.04.36-.05.11,0,.2-.01.27-.01.36.01.69.08.99.2ZM185.15,106.48c.23-.09.43-.22.59-.38.16-.16.28-.36.36-.58s.12-.47.12-.73c0-.23-.04-.46-.1-.67-.07-.21-.18-.4-.33-.56-.15-.16-.35-.29-.59-.39s-.53-.15-.88-.15c-.27,0-.52.04-.75.12-.23.08-.42.2-.59.36-.17.16-.29.34-.39.57-.1.22-.14.47-.14.75,0,.25.04.49.12.71.08.22.2.42.36.58.16.16.36.29.59.39.24.09.51.14.81.14s.58-.05.82-.14Z"/>
        <path class="cls-1" d="M160.19,113.55v7.33h-3.9v-7.33h3.9ZM156.93,114.15v6.15h2.64v-6.15h-2.64ZM163.67,116.59v.59h-1.29v3.8h-.63v-7.52h.63v3.13h1.29Z"/>
        <path class="cls-1" d="M163.99,117.62h7.26v.59h-3.33v2.92h-.63v-2.92h-3.3v-.59ZM164.55,114.08v-.59h6.04l-.45,3.53h-.67l.38-2.93h-5.3Z"/>
        <path class="cls-1" d="M176.36,115.09c0,.14-.02.33-.03.54-.01.22-.03.44-.05.66-.02.22-.04.43-.06.63-.02.19-.04.35-.07.45-.05.22-.13.41-.24.56-.11.15-.24.27-.39.37-.15.1-.32.17-.5.23-.18.05-.37.09-.56.1v1.66h2.24v.59h-5.03v-.59h2.16v-1.64c-.58-.04-1.03-.21-1.34-.52-.31-.31-.44-.73-.39-1.26,0-.08.01-.22.02-.41,0-.19.02-.38.04-.59.02-.21.03-.41.05-.61.02-.2.04-.35.07-.45.07-.28.18-.5.33-.68.15-.17.32-.31.52-.41.19-.1.4-.17.62-.2.22-.04.44-.05.66-.05.34,0,.64.04.89.13.25.08.45.2.61.35.16.15.28.32.35.51.08.19.11.4.09.63ZM175.49,117.3c.02-.08.05-.22.07-.41.02-.19.04-.39.06-.6s.03-.42.04-.62c.01-.2.02-.35.03-.45,0-.25-.03-.45-.1-.6-.07-.15-.17-.26-.3-.34s-.27-.13-.43-.16c-.16-.02-.32-.04-.49-.04-.13,0-.26,0-.41.03-.15.02-.29.06-.43.12-.14.06-.27.15-.38.27-.11.12-.19.28-.24.48-.02.08-.04.22-.06.41-.02.19-.04.39-.05.6-.01.21-.02.41-.04.6-.01.19-.02.33-.02.42,0,.23.03.42.1.56s.18.24.31.32c.13.08.27.12.44.15.16.02.32.04.49.04.11,0,.24,0,.38-.02.14-.01.28-.05.41-.1.13-.05.26-.13.36-.23.11-.1.19-.24.24-.41ZM179.45,116.6v.59h-1.29v3.79h-.63v-7.52h.63v3.14h1.29Z"/>
        <path class="cls-1" d="M179.78,117.62h7.26v.59h-3.33v2.92h-.63v-2.92h-3.3v-.59ZM180.34,114.08v-.59h6.04l-.45,3.53h-.67l.38-2.93h-5.3Z"/>
        <path class="cls-1" d="M148.8,134.6c-.43.4-1.04.6-1.81.6-.25,0-.51-.04-.76-.11-.26-.07-.5-.19-.71-.35s-.4-.37-.54-.63c-.14-.26-.22-.57-.24-.95h.63c.03.45.18.8.46,1.06.27.25.67.38,1.19.38.25,0,.49-.03.71-.09s.42-.16.58-.3c.17-.14.29-.32.39-.56.09-.23.14-.53.14-.88,0-.51-.16-.91-.48-1.21-.32-.29-.76-.44-1.31-.44h-2.16v-3.44h4.24v.59h-3.61v2.25h1.41c.39,0,.74.05,1.06.15.31.1.58.25.8.44.22.19.39.42.5.7s.18.59.18.94c0,.82-.22,1.43-.65,1.84Z"/>
        <path class="cls-1" d="M151.04,132.03v2.94h-.63v-7.27h.63v3.4l3.54-3.4h.85l-3.1,3.06,3.2,4.21h-.82l-2.85-3.75-.82.81Z"/>
        <path class="cls-1" d="M155.88,134.38h7.26v.59h-7.26v-.59ZM156.41,131.64h1.02l.33-3h.67l-.33,3h2.5l.33-3h.67l-.33,3h1.33v.59h-6.2v-.59ZM162.61,128.15h-6.18v-.59h6.18v.59Z"/>
        <path class="cls-1" d="M168.21,134.29v.59h-4.23v-4.18h3.25v-2.56h-3.23v-.59h3.86v3.75h-3.25v2.99h3.6ZM171.35,130.6v.59h-1.29v3.78h-.63v-7.52h.63v3.15h1.29Z"/>
        <path class="cls-1" d="M176.24,129.09c-.03.47-.06.91-.1,1.31-.04.4-.08.78-.13,1.15-.04.37-.09.73-.14,1.08-.05.35-.1.72-.16,1.09-.05.25-.14.46-.27.62s-.28.29-.46.38c-.18.09-.37.15-.58.19s-.41.05-.61.05c-.35,0-.65-.04-.91-.14-.25-.09-.46-.22-.62-.38s-.28-.36-.34-.59c-.07-.23-.08-.48-.04-.77.07-.7.15-1.38.22-2.06.08-.67.16-1.38.24-2.11.04-.29.13-.54.27-.72.14-.19.3-.34.49-.45.19-.11.39-.19.62-.24s.44-.07.66-.07c.32,0,.59.04.83.13s.43.2.59.35c.16.15.27.32.35.52.07.2.11.42.09.65ZM175.14,133.29c.08-.61.16-1.25.24-1.9s.15-1.37.21-2.15c.02-.25,0-.46-.07-.61-.07-.16-.16-.28-.28-.36s-.26-.15-.41-.18c-.16-.03-.32-.04-.49-.04-.13,0-.27.01-.42.04-.15.03-.29.08-.42.17-.13.09-.25.21-.35.37-.1.16-.17.38-.21.65-.05.39-.1.75-.14,1.08s-.08.66-.11.97c-.03.31-.06.62-.09.93-.03.31-.05.63-.08.96-.02.23,0,.43.08.58.07.15.16.27.28.36s.26.14.42.18c.16.03.32.05.48.05.13,0,.27-.01.41-.03.14-.02.28-.07.41-.14s.25-.18.34-.32c.1-.14.16-.34.19-.59ZM178.46,127.45v7.52h-.63v-7.52h.63Z"/>
        <path class="cls-1" d="M179.77,134.38h7.26v.59h-7.26v-.59ZM179.92,132.54l2.83-5.08h1.15l2.83,5.08h-.78l-2.47-4.48h-.32l-2.47,4.48h-.78Z"/>
      </g>
    </g>
    <g>
      <path class="cls-1" d="M.9,173.38v-9.9h5.62v9.9H.9ZM4.57,171.73v-6.59h-1.73v6.59h1.73ZM9.57,168.93v4.57h-1.94v-10.03h1.94v3.8h1.36v1.66h-1.36Z"/>
      <path class="cls-1" d="M15.05,173.72v-3.22h-3.72v-1.74h9.68v1.74h-3.77v3.22h-2.2ZM12.08,165.14v-1.66h8.1l-.61,4.6h-2.08l.38-2.94h-5.8Z"/>
      <path class="cls-1" d="M21.95,173.38v-9.9h5.62v9.9h-5.62ZM25.62,171.73v-6.59h-1.73v6.59h1.73ZM30.62,168.93v4.57h-1.94v-10.03h1.94v3.8h1.36v1.66h-1.36Z"/>
      <path class="cls-1" d="M36.09,173.72v-3.22h-3.72v-1.74h9.68v1.74h-3.77v3.22h-2.2ZM33.13,165.14v-1.66h8.1l-.61,4.6h-2.08l.38-2.94h-5.8Z"/>
      <path class="cls-1" d="M46.23,168.81v-5.33h5.47v1.66h-3.53v2.02h3.88v1.66h-5.82ZM46.58,173.77v-4.19h8.52v4.19h-8.52ZM48.53,172.11h4.63v-.88h-4.63v.88ZM55.07,166.83v2.21h-1.94v-5.56h1.94v1.69h1.32v1.66h-1.32Z"/>
      <path class="cls-1" d="M62.87,165.28v.1s-.01.05-.01.05l-.05.78c-.09,1.25-.17,2.26-.23,3.04-.07.78-.17,1.54-.31,2.29-.13.7-.42,1.19-.89,1.49-.46.3-1.07.45-1.81.45s-1.41-.14-1.94-.41c-.52-.27-.79-.76-.79-1.45,0-.1,0-.17.01-.22.03-.33.07-.83.12-1.5.02-.15.05-.54.1-1.17s.1-1.21.16-1.75c.06-.54.12-1.02.19-1.46.11-.78.41-1.34.89-1.67.48-.33,1.13-.5,1.94-.5.7,0,1.32.15,1.84.45.52.3.78.78.78,1.43v.05ZM60.15,171.64c.12-.14.2-.36.25-.65.18-1.16.36-2.78.53-4.87,0-.35-.04-.63-.13-.82-.09-.2-.29-.29-.6-.29s-.52.1-.65.31c-.13.2-.22.48-.28.83-.18,1.17-.34,2.79-.49,4.86v.11c0,.27.06.46.19.58.12.11.32.17.58.17.28,0,.48-.07.6-.21ZM65.82,168.94v4.56h-1.94v-10.09h1.94v3.86h1.34v1.67h-1.34Z"/>
      <path class="cls-1" d="M75.06,173.5v-4.74h-1.82l.85,4.62h-1.8l-.64-3.13-.05-.24c-.3-1.5-.49-2.68-.59-3.52-.2,1.03-.42,2.07-.66,3.13-.24,1.05-.54,2.31-.89,3.76h-2.14l2.56-9.88h2.38l.64,3.43h2.16v-3.47h1.94v10.03h-1.94Z"/>
    </g>
    <g>
      <path class="cls-1" d="M99.28,167.72c.02-1.02.06-1.78.13-2.27.06-.46.26-.83.58-1.12.32-.29.71-.5,1.16-.64s.9-.2,1.37-.2.9.07,1.31.22c.41.15.74.38.99.7s.38.71.38,1.18-.02,1.01-.05,1.61-.08,1.09-.14,1.45c-.14.82-.73,1.36-1.78,1.62v1.57h2.3v1.66h-6.66v-1.66h2.2v-1.5c-.52-.1-.95-.3-1.3-.59s-.52-.68-.52-1.17v-.07l.02-.79ZM101.69,165.33c-.19.13-.32.32-.38.58-.05.18-.08.51-.11.97-.02.46-.04.86-.04,1.2,0,.47.3.71.9.71.29,0,.52-.05.7-.14s.3-.27.37-.52c.07-.3.12-.63.14-.97.02-.34.03-.74.03-1.19,0-.26-.09-.47-.26-.61-.17-.14-.39-.22-.65-.22s-.5.06-.7.19ZM107.95,168.93v4.57h-1.94v-10.03h1.94v3.8h1.36v1.66h-1.36Z"/>
      <path class="cls-1" d="M113.39,173.72v-3.22h-3.72v-1.74h9.68v1.74h-3.77v3.22h-2.2ZM110.42,165.14v-1.66h8.1l-.61,4.6h-2.08l.38-2.94h-5.8Z"/>
      <path class="cls-1" d="M120.32,167.72c.02-1.02.06-1.78.13-2.27.06-.46.26-.83.58-1.12.32-.29.71-.5,1.16-.64s.9-.2,1.37-.2.9.07,1.31.22c.41.15.74.38.99.7s.38.71.38,1.18-.02,1.01-.05,1.61-.08,1.09-.14,1.45c-.14.82-.73,1.36-1.78,1.62v1.57h2.3v1.66h-6.66v-1.66h2.2v-1.5c-.52-.1-.95-.3-1.3-.59s-.52-.68-.52-1.17v-.07l.02-.79ZM122.74,165.33c-.19.13-.32.32-.38.58-.05.18-.08.51-.11.97-.02.46-.04.86-.04,1.2,0,.47.3.71.9.71.29,0,.52-.05.7-.14s.3-.27.37-.52c.07-.3.12-.63.14-.97.02-.34.03-.74.03-1.19,0-.26-.09-.47-.26-.61-.17-.14-.39-.22-.65-.22s-.5.06-.7.19ZM129,168.93v4.57h-1.94v-10.03h1.94v3.8h1.36v1.66h-1.36Z"/>
      <path class="cls-1" d="M134.44,173.72v-3.22h-3.72v-1.74h9.68v1.74h-3.77v3.22h-2.2ZM131.47,165.14v-1.66h8.1l-.61,4.6h-2.08l.38-2.94h-5.8Z"/>
      <path class="cls-1" d="M150.33,163.48v1.85h1.48v-1.86h1.94v5.58h-1.94v-2.04h-1.48v1.8h-5.66v-5.33h5.66ZM145.22,171.21v-1.66h8.52v4.21h-1.94v-2.56h-6.58ZM148.38,165.14h-1.78v2.02h1.78v-2.02Z"/>
      <path class="cls-1" d="M161.17,166.1c-.02.3-.04.49-.05.59-.03.28-.05.5-.06.66h1.54v-3.88h1.94v10.03h-1.94v-4.33h-1.7l-.06.55c-.08.82-.16,1.42-.23,1.81-.13.7-.42,1.19-.89,1.49-.46.3-1.07.45-1.81.45s-1.41-.14-1.94-.41c-.52-.27-.79-.76-.79-1.45,0-.1,0-.17.01-.22l.07-.89c.09-1.12.17-2.04.23-2.77.07-.72.15-1.45.26-2.17.11-.78.41-1.33.89-1.67.48-.34,1.13-.5,1.94-.5.7,0,1.32.15,1.84.45.52.3.78.78.78,1.43,0,.24-.01.51-.04.8ZM158.5,171.64c.12-.14.2-.36.25-.65.18-1.15.36-2.76.53-4.81,0-.35-.04-.63-.13-.82-.09-.2-.29-.29-.6-.29s-.52.1-.65.31-.22.48-.28.83c-.18,1.14-.34,2.74-.49,4.8v.11c0,.27.06.46.19.58.12.11.32.17.58.17.28,0,.48-.07.6-.21Z"/>
      <path class="cls-1" d="M170.33,168.2h2.26v1.56h-6.66v-1.56h2.22v-.67h-1.84v-4.04h1.94v.67h2.03v-.67h1.93v4.04h-1.88v.67ZM172.34,170.26h2.08l1.33,3.5h-1.54l-.71-1.8c-.02.11-.24.6-.68,1.45l-.17.35h-2.76l-.71-1.8c-.02.11-.24.6-.68,1.45l-.17.35h-1.98l1.67-3.5h2.08l1,2.62,1.25-2.62ZM170.28,166.1v-.65h-2.03v.65h2.03ZM175.13,167.23v2.64h-1.94v-6.4h1.94v2.1h1.24v1.66h-1.24Z"/>
      <path class="cls-1" d="M177.17,173.38v-9.9h1.93v8.18h3.84v1.72h-5.77ZM184.09,173.5v-10.03h1.94v10.03h-1.94Z"/>
    </g>
    <g>
      <path class="cls-1" d="M187.5,282.63H0v-81.11h187.5v81.11ZM.5,282.13h186.5v-80.11H.5v80.11Z"/>
      <g>
        <path class="cls-1" d="M13.59,215.75h-3.6v-5.04h3.6v5.04ZM12.91,215.19v-3.92h-2.25v3.92h2.25ZM15.02,209.93h.69v3.12h1.31v.6h-1.31v4.1h-.69v-7.81Z"/>
        <path class="cls-1" d="M23.35,211.12c0,.74,0,1.55-.22,2.67h1.17v.57h-3.23v3.39h-.69v-3.39h-3.2v-.57h5.26c.24-1.12.24-1.94.24-2.67v-.11h-4.6v-.57h5.28v.69Z"/>
        <path class="cls-1" d="M29.12,212.27c0,.98-.72,1.67-1.73,1.81v1.33c.73-.03,1.46-.08,2.14-.17l.04.52c-1.66.28-3.5.3-4.88.29l-.11-.58c.63,0,1.35,0,2.11-.03v-1.35c-1.04-.12-1.74-.82-1.74-1.81,0-1.09.86-1.83,2.08-1.84,1.2,0,2.08.75,2.08,1.84ZM27.04,213.51c.81,0,1.4-.51,1.41-1.24,0-.73-.6-1.23-1.41-1.24-.82,0-1.42.51-1.41,1.24,0,.73.58,1.24,1.41,1.24ZM30.03,209.93h.69v3.23h1.27v.6h-1.27v3.99h-.69v-7.81Z"/>
        <path class="cls-1" d="M38.37,211.12c0,.74,0,1.55-.22,2.67h1.17v.57h-3.23v3.39h-.69v-3.39h-3.2v-.57h5.26c.24-1.12.24-1.94.24-2.67v-.11h-4.6v-.57h5.28v.69Z"/>
        <path class="cls-1" d="M39.69,213.92h7.15v.56h-7.15v-.56ZM40.62,215.28h.69v1.7h4.75v.57h-5.44v-2.27ZM46.02,212.85h-5.35v-2.64h.69v2.08h4.67v.55Z"/>
        <path class="cls-1" d="M49.7,210.67h3.72v.58h-3.02v3.96c1.52,0,2.52-.04,3.69-.25l.07.58c-1.21.22-2.24.27-3.82.27h-.63v-5.14ZM55.64,217.76h-.69v-7.83h.69v7.83Z"/>
        <path class="cls-1" d="M58.71,212.25v-.94h-1.78v-.57h4.27v.57h-1.79v.94c0,1.3.94,2.72,2.07,3.23l-.41.55c-.89-.44-1.64-1.38-2-2.47-.35,1.16-1.12,2.17-2.02,2.63l-.42-.54c1.13-.55,2.08-2.02,2.08-3.41ZM63.18,217.76h-.69v-4.41h-1.71v-.57h1.71v-2.85h.69v7.83Z"/>
        <path class="cls-1" d="M64.21,216.15h7.15v.57h-7.15v-.57ZM70.54,214.72h-5.41v-4.11h5.32v.58h-4.61v1.16h4.45v.55h-4.45v1.26h4.7v.56Z"/>
        <path class="cls-1" d="M72.03,210.66h3.55v2.79h-2.85v1.83c1.45,0,2.46-.05,3.65-.27l.07.57c-1.23.22-2.27.28-3.78.29h-.62v-2.99h2.85v-1.65h-2.87v-.57ZM77.77,213.04h1.31v.58h-1.31v4.14h-.69v-7.83h.69v3.11Z"/>
        <path class="cls-1" d="M83.18,211.31h1.83v-1.37h.69v5.7h-.69v-2.08h-1.83v.7h-3.59v-3.65h3.59v.69ZM82.5,213.71v-2.52h-2.22v2.52h2.22ZM80.65,215.13h.69v1.86h4.54v.58h-5.23v-2.44ZM85.01,212.99v-1.1h-1.83v1.1h1.83Z"/>
        <path class="cls-1" d="M92.62,213.82h3.23v.57h-7.12v-.57h3.22v-1.12h.68v1.12ZM91.83,210.86h-2.46v-.56h5.84v.56h-2.48c.05.87,1.35,1.54,2.72,1.69l-.25.54c-1.28-.16-2.48-.72-2.91-1.58-.43.87-1.62,1.42-2.91,1.58l-.25-.54c1.36-.15,2.67-.81,2.72-1.69ZM92.28,215.03c1.68,0,2.68.48,2.69,1.34,0,.87-1.01,1.34-2.69,1.34s-2.7-.47-2.7-1.34c0-.87,1-1.34,2.7-1.34ZM92.28,217.19c1.25,0,1.99-.29,2-.81,0-.51-.74-.8-2-.8-1.27,0-2,.29-2,.8,0,.51.73.81,2,.81Z"/>
        <path class="cls-1" d="M103.38,215.15h-1.88v2.59h-.69v-2.59h-2.02v2.59h-.69v-2.59h-1.87v-.55h7.15v.55ZM97.08,210.23h5.42v2h-4.71v.98h4.88v.57h-5.57v-2.08h4.7v-.9h-4.72v-.57Z"/>
        <path class="cls-1" d="M109.06,211.35h-2.91v-.58h3.61c0,2.21-1.04,4.23-3.59,5.48l-.39-.54c2.02-1,3.12-2.51,3.27-4.36ZM111.78,213.11h1.27v.58h-1.27v4.05h-.69v-7.81h.69v3.18Z"/>
        <path class="cls-1" d="M113.68,210.66h3.64v2.78h-2.92v1.85c1.3,0,2.45-.06,3.85-.28l.07.58c-1.44.22-2.62.28-3.97.28h-.65v-2.99h2.93v-1.64h-2.94v-.57ZM119.69,217.76h-.69v-7.83h.69v7.83Z"/>
        <path class="cls-1" d="M125.66,215.5l-.39.54c-.91-.41-1.7-1.31-2.07-2.4-.36,1.15-1.16,2.14-2.05,2.59l-.41-.54c1.12-.54,2.1-2.01,2.1-3.37v-1.02h-1.85v-.57h4.4v.57h-1.86v1.02c0,1.33.97,2.68,2.12,3.17ZM126.49,209.93h.69v7.81h-.69v-7.81Z"/>
        <path class="cls-1" d="M134.45,212.18c0,1.07-.86,1.81-2.03,1.81-1.16,0-2.04-.74-2.03-1.81,0-1.05.87-1.8,2.03-1.8,1.17,0,2.03.75,2.03,1.8ZM132.42,213.42c.77,0,1.36-.52,1.35-1.24,0-.7-.58-1.22-1.35-1.22s-1.36.52-1.35,1.22c0,.72.58,1.24,1.35,1.24ZM131.08,214.68h.67v2.28c.45-.02,1.05-.08,1.61-.27l.11.55c-.76.25-1.5.29-2.01.28h-.37v-2.85ZM133.19,214.72h1.64v-.69h.68v.69h1.63v.54h-3.95v-.54ZM135.16,215.52c.86,0,1.46.43,1.47,1.11,0,.68-.61,1.1-1.47,1.1s-1.45-.42-1.45-1.1c0-.68.59-1.11,1.45-1.11ZM135.16,217.23c.49,0,.83-.24.83-.61s-.35-.6-.83-.61c-.49,0-.83.25-.83.61s.35.6.83.61ZM135.67,209.93h.69v1.77h1.18v.57h-1.18v1.57h-.69v-3.91Z"/>
        <path class="cls-1" d="M137.75,216.06h2.79v-2.79h.68v2.79h3.65v.57h-7.12v-.57ZM144.02,211.5c0,.96,0,2.03-.29,3.6l-.7-.08c.29-1.49.29-2.59.3-3.52v-.21h-4.82v-.57h5.51v.78Z"/>
        <path class="cls-1" d="M151.69,212.27c0,.98-.72,1.67-1.73,1.81v1.33c.73-.03,1.46-.08,2.14-.17l.04.52c-1.66.28-3.5.3-4.88.29l-.11-.58c.63,0,1.35,0,2.11-.03v-1.35c-1.04-.12-1.75-.82-1.74-1.81,0-1.09.86-1.83,2.08-1.84,1.2,0,2.08.75,2.08,1.84ZM149.6,213.51c.81,0,1.4-.51,1.41-1.24,0-.73-.6-1.23-1.41-1.24-.82,0-1.42.51-1.41,1.24,0,.73.58,1.24,1.41,1.24ZM152.6,209.93h.69v3.23h1.27v.6h-1.27v3.99h-.69v-7.81Z"/>
        <path class="cls-1" d="M160.94,211.12c0,.74,0,1.55-.22,2.67h1.16v.57h-3.23v3.39h-.69v-3.39h-3.2v-.57h5.26c.24-1.12.24-1.94.24-2.67v-.11h-4.6v-.57h5.28v.69Z"/>
        <path class="cls-1" d="M166.7,212.27c0,.98-.72,1.67-1.73,1.81v1.33c.73-.03,1.46-.08,2.14-.17l.04.52c-1.66.28-3.5.3-4.88.29l-.11-.58c.63,0,1.35,0,2.11-.03v-1.35c-1.04-.12-1.74-.82-1.74-1.81,0-1.09.86-1.83,2.08-1.84,1.2,0,2.08.75,2.08,1.84ZM164.62,213.51c.81,0,1.4-.51,1.41-1.24,0-.73-.6-1.23-1.41-1.24-.82,0-1.42.51-1.41,1.24,0,.73.58,1.24,1.41,1.24ZM167.62,209.93h.69v3.23h1.27v.6h-1.27v3.99h-.69v-7.81Z"/>
        <path class="cls-1" d="M175.95,211.12c0,.74,0,1.55-.22,2.67h1.16v.57h-3.23v3.39h-.69v-3.39h-3.2v-.57h5.26c.24-1.12.24-1.94.24-2.67v-.11h-4.6v-.57h5.28v.69Z"/>
        <path class="cls-1" d="M10.03,224.52h3.59v1.38h1.83v-1.97h.69v4.61h-.69v-2.07h-1.83v1.54h-3.59v-3.49ZM12.94,227.45v-2.37h-2.22v2.37h2.22ZM16.14,231.76h-.69v-2.22h-4.56v-.55h5.26v2.78Z"/>
        <path class="cls-1" d="M17.16,227.92h7.15v.56h-7.15v-.56ZM18.09,229.28h.69v1.7h4.75v.57h-5.44v-2.27ZM23.49,226.85h-5.35v-2.64h.69v2.08h4.67v.55Z"/>
        <path class="cls-1" d="M30.68,225.22h-2.97v1.62h2.79v.56h-2.79v1.89c1.41,0,2.4-.05,3.57-.25l.08.57c-1.22.21-2.25.25-3.73.25h-.62v-5.22h3.67v.58ZM32.03,223.93h.69v3.15h1.31v.59h-1.31v4.08h-.69v-7.81Z"/>
        <path class="cls-1" d="M36.41,224.31c1.19,0,2.04.73,2.05,1.79,0,1.06-.86,1.8-2.05,1.79-1.19,0-2.05-.73-2.05-1.79,0-1.07.86-1.8,2.05-1.79ZM36.41,227.33c.8,0,1.37-.51,1.37-1.22s-.58-1.22-1.37-1.21c-.8,0-1.38.5-1.37,1.21,0,.71.57,1.22,1.37,1.22ZM35.57,228.51h.69v.95h3.69v-.95h.69v3.12h-5.06v-3.12ZM39.94,231.07v-1.05h-3.69v1.05h3.69ZM40.63,228.12h-.69v-4.19h.69v4.19Z"/>
        <path class="cls-1" d="M43.97,224.53c1.16,0,2,1.06,2,2.72,0,1.67-.83,2.72-2,2.72-1.17,0-1.99-1.05-2-2.72,0-1.66.83-2.72,2-2.72ZM43.97,229.36c.79,0,1.33-.83,1.33-2.1s-.54-2.1-1.33-2.11c-.78,0-1.33.84-1.33,2.11s.54,2.1,1.33,2.1ZM48.13,231.76h-.69v-7.83h.69v7.83Z"/>
        <path class="cls-1" d="M49.54,224.69h3.65v.57h-2.96v3.96c1.42,0,2.41-.07,3.58-.28l.09.6c-1.23.22-2.25.26-3.74.26h-.62v-5.11ZM55.24,227.02h1.31v.58h-1.31v4.16h-.69v-7.83h.69v3.09Z"/>
        <path class="cls-1" d="M56.97,230.51c0-.31.25-.56.56-.56s.57.25.56.56c0,.31-.25.57-.56.57-.31,0-.57-.26-.56-.57Z"/>
        <path class="cls-1" d="M60.69,230.25h3.22v-1.1c-1.39-.07-2.23-.62-2.22-1.49,0-.93.97-1.48,2.57-1.47,1.57,0,2.57.54,2.57,1.47,0,.88-.85,1.42-2.23,1.49v1.1h3.26v.57h-7.15v-.57ZM67.44,225.66h-6.4v-.57h2.87v-1.03h.68v1.03h2.86v.57ZM64.25,228.6c1.15,0,1.87-.35,1.86-.94,0-.58-.71-.92-1.86-.92s-1.88.34-1.87.92c0,.59.71.94,1.87.94Z"/>
        <path class="cls-1" d="M71.65,225.34h-2.99v-.56h3.69c0,2.25-1.05,4.24-3.67,5.49l-.38-.56c2.11-1,3.19-2.5,3.35-4.37ZM74.66,231.74h-.69v-7.81h.69v7.81Z"/>
        <path class="cls-1" d="M77.77,225.01v-.76h.7v.76c0,1.1.83,2.08,1.99,2.49l-.35.53c-.91-.31-1.63-.97-1.98-1.82-.35.91-1.08,1.63-2.01,1.97l-.35-.54c1.18-.41,2-1.47,2-2.62ZM77.08,228.82h5.08v2.81h-5.08v-2.81ZM81.48,231.07v-1.69h-3.73v1.69h3.73ZM82.16,228.37h-.69v-4.44h.69v4.44Z"/>
        <path class="cls-1" d="M89.53,228.15h-2.42v2.02h3.26v.58h-7.15v-.58h3.22v-2.02h-2.3v-3.59h5.32v.56h-4.62v2.46h4.7v.56Z"/>
        <path class="cls-1" d="M93.05,224.45h3.61v3.18h-3.61v-3.18ZM93.55,228.64h.67v2.32c.45-.02,1.05-.08,1.61-.27l.11.55c-.76.25-1.5.29-2.01.28h-.37v-2.89ZM95.99,227.07v-2.07h-2.27v2.07h2.27ZM95.66,228.72h1.64v-.69h.68v.69h1.63v.53h-3.95v-.53ZM97.63,229.53c.86,0,1.46.42,1.47,1.1,0,.68-.61,1.1-1.47,1.1s-1.45-.42-1.45-1.1c0-.68.59-1.09,1.45-1.1ZM97.63,231.23c.49,0,.83-.23.83-.61s-.35-.6-.83-.61c-.49,0-.83.24-.83.61s.35.62.83.61ZM98.82,225.69h1.18v.58h-1.18v1.66h-.69v-4.01h.69v1.77Z"/>
        <path class="cls-1" d="M104.29,227.26c0,1.67-.83,2.72-1.98,2.72-1.16,0-1.97-1.05-1.97-2.72,0-1.66.81-2.72,1.97-2.72,1.15,0,1.97,1.06,1.98,2.72ZM102.32,229.36c.78,0,1.31-.83,1.31-2.1s-.53-2.1-1.31-2.11c-.77,0-1.31.84-1.32,2.11,0,1.27.54,2.1,1.32,2.1ZM105.58,223.93h.69v3.12h1.31v.6h-1.31v4.1h-.69v-7.81Z"/>
        <path class="cls-1" d="M111.79,225.16v-.78h.7v.78c0,1.19.8,2.26,1.97,2.68l-.36.55c-.91-.35-1.61-1.05-1.96-1.95-.34.96-1.05,1.73-1.96,2.09l-.38-.54c1.18-.46,1.99-1.6,1.99-2.84ZM111.13,229.14h.69v1.85h4.61v.58h-5.29v-2.43ZM116.17,229.67h-.69v-5.73h.69v5.73Z"/>
        <path class="cls-1" d="M118.85,226.16v-.74h-1.5v-.57h3.6v.57h-1.43v.74c0,1.35.61,2.7,1.69,3.32l-.42.51c-.77-.46-1.31-1.31-1.59-2.3-.28,1.08-.85,2-1.63,2.48l-.44-.52c1.09-.65,1.73-2.08,1.72-3.5ZM120.36,226.75h1.32v-2.63h.65v7.22h-.65v-4.03h-1.32v-.56ZM123.91,231.74h-.66v-7.81h.66v7.81Z"/>
        <path class="cls-1" d="M131.86,228.28h-3.23v.92h2.36v2.43h-5.38v-2.43h2.35v-.92h-3.22v-.57h7.12v.57ZM125.41,224.18h5.77v.57h-1.2v1.64h1.18v.57h-5.72v-.57h1.18v-1.64h-1.2v-.57ZM130.31,231.07v-1.33h-4.02v1.33h4.02ZM129.29,226.4v-1.64h-2v1.64h2Z"/>
        <path class="cls-1" d="M134.02,224.59c.95,0,1.59.92,1.68,2.39h1.01v-2.88h.66v7.25h-.66v-3.8h-1.01c-.07,1.52-.72,2.47-1.68,2.47-1.02,0-1.67-1.05-1.68-2.72,0-1.66.66-2.71,1.68-2.72ZM134.02,229.36c.64,0,1.04-.79,1.04-2.06,0-1.27-.4-2.07-1.04-2.07s-1.04.8-1.03,2.07c0,1.27.4,2.07,1.03,2.06ZM138.94,231.74h-.67v-7.81h.67v7.81Z"/>
        <path class="cls-1" d="M143.38,227.97v-1.7h.69v1.68c.87-.04,1.76-.1,2.58-.21l.04.51c-1.64.28-3.52.31-4.91.32l-.07-.57c.51,0,1.08,0,1.68-.02ZM146.08,224.95c0,.51,0,1.29-.2,2.31l-.69-.05c.19-.93.21-1.6.21-2.09h-3.21v-.58h3.89v.41ZM142.9,229.28h.69v1.71h4.53v.58h-5.22v-2.29ZM147.17,223.93h.7v2.55h1.14v.59h-1.14v2.74h-.7v-5.88Z"/>
        <path class="cls-1" d="M151.32,225.01v-.76h.7v.76c0,1.1.83,2.08,1.99,2.49l-.35.53c-.91-.31-1.63-.97-1.98-1.82-.35.91-1.08,1.63-2.01,1.97l-.35-.54c1.18-.41,2-1.47,2-2.62ZM150.62,228.82h5.08v2.81h-5.08v-2.81ZM155.03,231.07v-1.69h-3.73v1.69h3.73ZM155.7,228.37h-.69v-4.44h.69v4.44Z"/>
        <path class="cls-1" d="M156.76,227.31h7.12v.56h-7.12v-.56ZM163.08,225.41c0,.89-1.02,1.37-2.76,1.37-1.75,0-2.77-.48-2.77-1.37s1.02-1.34,2.77-1.34,2.75.48,2.76,1.34ZM157.62,228.55h5.34v1.75h-4.64v.81h4.88v.54h-5.56v-1.86h4.65v-.71h-4.67v-.53ZM160.32,226.26c1.3,0,2.05-.3,2.06-.84,0-.51-.76-.82-2.06-.83-1.3,0-2.06.31-2.05.83,0,.54.75.84,2.05.84Z"/>
        <path class="cls-1" d="M12.99,239.35h-2.91v-.58h3.61c0,2.21-1.04,4.23-3.59,5.48l-.39-.54c2.02-1,3.12-2.51,3.27-4.36ZM15.71,241.11h1.27v.58h-1.27v4.05h-.69v-7.81h.69v3.18Z"/>
        <path class="cls-1" d="M22.08,243.5l-.39.54c-.91-.41-1.7-1.31-2.07-2.4-.37,1.15-1.16,2.14-2.05,2.59l-.41-.54c1.12-.54,2.1-2.01,2.1-3.37v-1.02h-1.85v-.57h4.4v.57h-1.86v1.02c0,1.33.97,2.68,2.12,3.17ZM22.92,237.93h.69v7.81h-.69v-7.81Z"/>
        <path class="cls-1" d="M28.56,239.81h1.92v-1.88h.69v7.83h-.69v-3.23h-1.92v1.23h-3.56v-5.05h3.56v1.1ZM27.89,243.21v-3.96h-2.21v3.96h2.21ZM30.47,241.96v-1.58h-1.92v1.58h1.92Z"/>
        <path class="cls-1" d="M38.18,243.31l-.41.54c-.76-.43-1.3-1.23-1.58-2.17-.29,1.02-.87,1.9-1.65,2.36l-.45-.51c1.09-.62,1.76-2.02,1.76-3.36v-1.51h.67v1.47c0,1.28.62,2.61,1.66,3.17ZM38.47,238.09h.67v2.98h1.07v-3.15h.67v7.81h-.67v-4.1h-1.07v3.7h-.67v-7.25Z"/>
        <path class="cls-1" d="M48.84,244.77h-7.15v-.58h3.22v-1.48h-2.32v-2.41h4.68v-1.23h-4.69v-.57h5.37v2.36h-4.67v1.27h4.85v.57h-2.54v1.48h3.26v.58Z"/>
        <path class="cls-1" d="M56.34,242.47h-3.17v1.6h-.69v-1.6h-3.29v-.57h7.15v.57ZM52.75,238.13c1.67,0,2.75.6,2.75,1.57s-1.08,1.56-2.75,1.56c-1.67,0-2.76-.59-2.76-1.56,0-.97,1.09-1.57,2.76-1.57ZM50.11,243.29h.69v1.7h4.74v.59h-5.43v-2.29ZM52.75,240.7c1.21,0,2.02-.39,2.02-.99s-.81-1.01-2.02-1.01c-1.22,0-2.03.39-2.02,1.01,0,.61.8.99,2.02.99Z"/>
        <path class="cls-1" d="M62.56,242h-3.53v-3.47h3.53v3.47ZM62.08,242.98v-.24h.69v.24c0,1.13,1.26,1.95,2.65,2.18l-.28.54c-1.16-.22-2.23-.81-2.7-1.71-.48.9-1.56,1.49-2.72,1.71l-.27-.54c1.38-.23,2.64-1.05,2.64-2.18ZM61.87,241.43v-2.34h-2.17v2.34h2.17ZM64.11,237.93h.69v2.14h1.18v.58h-1.18v2.48h-.69v-5.2Z"/>
        <path class="cls-1" d="M66.2,241.31h7.12v.56h-7.12v-.56ZM72.52,239.41c0,.89-1.02,1.37-2.76,1.37-1.75,0-2.77-.48-2.77-1.37s1.02-1.34,2.77-1.34,2.75.48,2.76,1.34ZM67.06,242.55h5.34v1.75h-4.64v.81h4.88v.54h-5.56v-1.86h4.65v-.71h-4.67v-.53ZM69.76,240.26c1.3,0,2.05-.3,2.06-.84,0-.51-.76-.82-2.06-.83-1.3,0-2.06.31-2.05.83,0,.54.75.84,2.05.84Z"/>
        <path class="cls-1" d="M75.71,241.64h3.37v-1.57h.69v1.57h3.06v.57h-7.11v-.57ZM76.32,238.28h2.38v.26c0,.45,0,1.3-.36,2.45l-.66-.1c.28-.93.33-1.6.34-2.06h-1.71v-.56ZM76.48,243.05h5.45v2.65h-.7v-2.08h-4.75v-.56ZM82.01,238.61c0,.48,0,1.29-.23,2.37l-.68-.09c.19-.92.22-1.59.23-2.06h-1.97v-.56h2.65v.33Z"/>
        <path class="cls-1" d="M90.09,243.41l-.42.54c-.89-.43-1.66-1.36-2.03-2.47-.36,1.18-1.13,2.17-2.04,2.63l-.44-.58c1.17-.53,2.13-2.03,2.14-3.51v-1.42h.69v1.42c0,1.43.97,2.86,2.12,3.38ZM90.94,237.93h.69v7.83h-.69v-7.83Z"/>
        <path class="cls-1" d="M99.01,242.15h-2.42v2.02h3.26v.58h-7.15v-.58h3.22v-2.02h-2.3v-3.59h5.32v.56h-4.62v2.46h4.7v.56Z"/>
        <path class="cls-1" d="M104.11,239.84h-3.92v-.56h1.63v-1.12h.69v1.12h1.61v.56ZM102.15,240.37c.98,0,1.69.74,1.7,1.78,0,1.05-.71,1.79-1.7,1.79-.97,0-1.68-.74-1.68-1.79s.71-1.77,1.68-1.78ZM102.15,243.33c.62,0,1.08-.49,1.08-1.19s-.46-1.19-1.08-1.2c-.62,0-1.06.51-1.06,1.2s.44,1.19,1.06,1.19ZM104.52,238.12h.65v3.1h1.04v-3.3h.66v7.81h-.66v-3.95h-1.04v3.56h-.65v-7.23Z"/>
        <path class="cls-1" d="M109.35,239.24h3.87v-.99h.69v3.12h-2.29v.83h3.22v.57h-7.12v-.57h3.22v-.83h-2.27v-3.12h.69v.99ZM108.64,243.39h.69v1.6h4.71v.58h-5.41v-2.18ZM113.22,240.81v-1.03h-3.87v1.03h3.87Z"/>
        <path class="cls-1" d="M115.57,238.69h3.65v.57h-2.96v3.96c1.42,0,2.41-.07,3.58-.28l.09.6c-1.23.22-2.25.26-3.74.26h-.62v-5.11ZM121.27,241.02h1.31v.58h-1.31v4.16h-.69v-7.83h.69v3.09Z"/>
        <path class="cls-1" d="M123,244.51c0-.31.25-.56.56-.56s.57.25.56.56c0,.31-.25.57-.56.57-.31,0-.57-.26-.56-.57Z"/>
        <path class="cls-1" d="M127.06,238.45h3.61v3.18h-3.61v-3.18ZM127.56,242.64h.67v2.32c.45-.02,1.05-.08,1.61-.27l.11.55c-.76.25-1.5.29-2.01.28h-.37v-2.89ZM130,241.07v-2.07h-2.27v2.07h2.27ZM129.67,242.72h1.64v-.69h.68v.69h1.63v.53h-3.95v-.53ZM131.64,243.53c.86,0,1.46.42,1.47,1.1,0,.68-.61,1.1-1.47,1.1s-1.45-.42-1.45-1.1c0-.68.59-1.09,1.45-1.1ZM131.64,245.23c.49,0,.83-.23.83-.61s-.35-.6-.83-.61c-.49,0-.83.24-.83.61s.35.62.83.61ZM132.83,239.69h1.18v.58h-1.18v1.66h-.69v-4.01h.69v1.77Z"/>
        <path class="cls-1" d="M136.52,238.53c1.16,0,2,1.06,2,2.72,0,1.67-.83,2.72-2,2.72-1.17,0-1.99-1.05-2-2.72,0-1.66.83-2.72,2-2.72ZM136.52,243.36c.79,0,1.33-.83,1.33-2.1s-.54-2.1-1.33-2.11c-.78,0-1.33.84-1.33,2.11s.54,2.1,1.33,2.1ZM140.68,245.76h-.69v-7.83h.69v7.83Z"/>
        <path class="cls-1" d="M144.1,238.52h3.59v1.38h1.83v-1.97h.69v4.61h-.69v-2.07h-1.83v1.54h-3.59v-3.49ZM147.01,241.45v-2.37h-2.22v2.37h2.22ZM150.21,245.76h-.69v-2.22h-4.56v-.55h5.26v2.78Z"/>
        <path class="cls-1" d="M151.58,238.69h3.65v.57h-2.96v3.96c1.42,0,2.41-.07,3.58-.28l.09.6c-1.23.22-2.25.26-3.74.26h-.62v-5.11ZM157.29,241.02h1.31v.58h-1.31v4.16h-.69v-7.83h.69v3.09Z"/>
        <path class="cls-1" d="M167.89,244.74h-7.15v-.57h3.22v-1.69h-2.37v-4h.69v1.42h4.06v-1.42h.68v4h-2.38v1.69h3.26v.57ZM166.34,241.92v-1.46h-4.06v1.46h4.06Z"/>
        <path class="cls-1" d="M168.75,238.7h.68v4.43c1.2,0,2.43-.1,3.74-.38l.1.59c-1.39.29-2.62.39-3.88.39h-.63v-5.03ZM174.69,245.74h-.69v-7.81h.69v7.81Z"/>
        <path class="cls-1" d="M14.24,255.98l-.39.51c-.87-.31-1.55-.94-1.88-1.76-.33.9-1.05,1.62-1.97,1.97l-.37-.55c1.17-.42,1.99-1.47,2-2.58v-.38h-1.77v-.57h4.2v.57h-1.76v.38c0,1.06.78,2.01,1.93,2.42ZM10.88,257.14h.68v1.85h4.57v.58h-5.25v-2.43ZM15.09,251.93h.69v2.4h1.18v.57h-1.18v2.74h-.69v-5.71Z"/>
        <path class="cls-1" d="M17.17,258.06h2.79v-2.79h.68v2.79h3.65v.57h-7.12v-.57ZM23.44,253.5c0,.96,0,2.03-.29,3.6l-.7-.08c.29-1.49.29-2.59.3-3.52v-.21h-4.82v-.57h5.51v.78Z"/>
        <path class="cls-1" d="M28.01,253.35h-2.91v-.58h3.61c0,2.21-1.04,4.23-3.59,5.48l-.39-.54c2.02-1,3.12-2.51,3.27-4.36ZM30.73,255.11h1.27v.58h-1.27v4.05h-.69v-7.81h.69v3.18Z"/>
        <path class="cls-1" d="M34.56,256.44l-.29-.54c1.88-.53,3.06-1.56,3.21-2.89h-2.81v-.57h3.54c0,1.96-1.41,3.37-3.66,4.01ZM35.4,256.87h5.26v2.87h-.69v-2.3h-4.56v-.56ZM38.25,253.98h1.71v-2.05h.69v4.59h-.69v-1.96h-1.71v-.58Z"/>
        <path class="cls-1" d="M43.71,253.37v-.29h-1.77v-.58h4.21v.58h-1.75v.28c0,1.02.78,1.99,1.92,2.38l-.36.55c-.88-.32-1.56-.98-1.89-1.78-.33.91-1.06,1.64-1.99,2l-.36-.55c1.16-.42,1.99-1.48,1.99-2.59ZM45.57,256.83c1.62,0,2.62.53,2.62,1.45s-1,1.45-2.62,1.46c-1.63,0-2.62-.54-2.62-1.46,0-.92.99-1.45,2.62-1.45ZM45.57,259.19c1.2,0,1.93-.34,1.93-.91s-.74-.91-1.93-.91-1.94.34-1.93.91c0,.57.73.91,1.93.91ZM48.16,256.58h-.69v-2.05h-1.57v-.57h1.57v-2.04h.69v4.66Z"/>
        <path class="cls-1" d="M53.85,255.87h-1.71v1.54c.76-.03,1.53-.08,2.26-.17l.05.52c-1.73.25-3.62.29-5.12.28l-.1-.58c.68,0,1.44,0,2.21-.03v-1.56h-1.62v-3.2h3.98v.56h-3.3v2.07h3.34v.57ZM54.92,251.93h.69v7.83h-.69v-7.83Z"/>
        <path class="cls-1" d="M61.62,257.5l-.39.54c-.91-.41-1.7-1.31-2.07-2.4-.37,1.15-1.16,2.14-2.05,2.59l-.41-.54c1.12-.54,2.1-2.01,2.1-3.37v-1.02h-1.85v-.57h4.4v.57h-1.86v1.02c0,1.33.97,2.68,2.12,3.17ZM62.45,251.93h.69v7.81h-.69v-7.81Z"/>
        <path class="cls-1" d="M68.16,256.23h-3.61v-3.59h3.61v3.59ZM67.49,255.68v-2.48h-2.27v2.48h2.27ZM65.43,257.11h.68v1.88h4.57v.58h-5.25v-2.46ZM69.63,251.93h.69v2.38h1.18v.58h-1.18v2.77h-.69v-5.73Z"/>
        <path class="cls-1" d="M72.32,260.83h-.65l.48-2.39h.85l-.69,2.39Z"/>
        <path class="cls-1" d="M78.03,252.53c1.16,0,2,1.06,2,2.72,0,1.67-.83,2.72-2,2.72-1.16,0-1.99-1.05-2-2.72,0-1.66.83-2.72,2-2.72ZM78.03,257.36c.79,0,1.33-.83,1.33-2.1s-.54-2.1-1.33-2.11c-.78,0-1.33.84-1.33,2.11s.54,2.1,1.33,2.1ZM82.19,259.76h-.69v-7.83h.69v7.83Z"/>
        <path class="cls-1" d="M87.18,257.75h-3.6v-5.04h3.6v5.04ZM86.5,257.19v-3.92h-2.25v3.92h2.25ZM88.61,251.93h.69v3.12h1.31v.6h-1.31v4.1h-.69v-7.81Z"/>
        <path class="cls-1" d="M90.76,258.15h7.15v.57h-7.15v-.57ZM97.09,256.72h-5.41v-4.11h5.32v.58h-4.61v1.16h4.45v.55h-4.45v1.26h4.7v.56Z"/>
        <path class="cls-1" d="M103.47,257.18l.05.51c-1.79.33-3.71.34-5.12.34l-.1-.59c1.44,0,3.43,0,5.16-.26ZM102.93,254.33c0,1.09-.88,1.83-2.1,1.84-1.23,0-2.11-.75-2.11-1.84,0-1.09.88-1.83,2.11-1.84,1.23,0,2.1.75,2.1,1.84ZM100.83,255.57c.83,0,1.43-.5,1.42-1.23,0-.73-.6-1.23-1.42-1.23s-1.44.51-1.43,1.23c0,.73.6,1.23,1.43,1.23ZM103.99,251.93h.69v7.83h-.69v-7.83Z"/>
        <path class="cls-1" d="M108.06,257.43h.76c.06.57.61.99,1.3.99.83,0,1.42-.61,1.42-1.41s-.62-1.44-1.48-1.44c-.54,0-.95.16-1.19.57h-.76l.45-3.48h3.45v.7h-2.79l-.24,1.86h.06c.29-.22.71-.37,1.16-.37,1.21,0,2.11.9,2.11,2.14,0,1.23-.93,2.12-2.2,2.12-1.15,0-2.02-.71-2.07-1.69Z"/>
        <path class="cls-1" d="M113.25,252.67h.79v3.15h.08l2.83-3.15h1.04l-2.66,2.87,2.66,3.49h-.97l-2.19-2.94-.79.9v2.05h-.79v-6.36Z"/>
        <path class="cls-1" d="M125.34,258.74h-7.15v-.59h7.15v.59ZM118.82,252.72h5.84v.57h-1.24v2.73h1.22v.56h-5.8v-.56h1.22v-2.73h-1.24v-.57ZM122.74,256.02v-2.73h-2v2.73h2Z"/>
        <path class="cls-1" d="M126,252.66h3.55v2.79h-2.85v1.83c1.45,0,2.46-.05,3.65-.27l.07.57c-1.23.22-2.27.28-3.78.29h-.62v-2.99h2.85v-1.65h-2.87v-.57ZM131.74,255.04h1.31v.58h-1.31v4.14h-.69v-7.83h.69v3.11Z"/>
        <path class="cls-1" d="M135.49,252.53c1.16,0,2,1.06,2,2.72,0,1.67-.83,2.72-2,2.72-1.17,0-1.99-1.05-2-2.72,0-1.66.83-2.72,2-2.72ZM135.49,257.36c.79,0,1.33-.83,1.33-2.1s-.54-2.1-1.33-2.11c-.78,0-1.33.84-1.33,2.11s.54,2.1,1.33,2.1ZM139.65,259.76h-.69v-7.83h.69v7.83Z"/>
        <path class="cls-1" d="M140.71,258.11h7.15v.57h-7.15v-.57ZM147.5,255.86l-.32.58c-1.18-.27-2.42-1.11-2.93-2.26-.51,1.15-1.75,1.98-2.93,2.26l-.32-.58c1.35-.26,2.87-1.44,2.87-2.79v-.6h.72v.6c0,1.34,1.53,2.53,2.89,2.79Z"/>
        <path class="cls-1" d="M151.82,257.42v-2.4h.68v2.37c.87-.03,1.75-.09,2.57-.18l.04.52c-1.64.25-3.48.29-4.88.28l-.09-.57c.51,0,1.09,0,1.69-.02ZM154.54,253.2c0,.62,0,1.65-.23,3.1l-.69-.06c.22-1.31.23-2.26.23-2.88h-3.28v-.56h3.97v.4ZM155.55,251.93h.69v3.27h1.27v.6h-1.27v3.95h-.69v-7.81Z"/>
        <path class="cls-1" d="M162.39,257.5l-.4.54c-.88-.43-1.62-1.35-1.97-2.41-.36,1.15-1.14,2.16-2.02,2.61l-.42-.54c1.12-.55,2.09-2.03,2.1-3.37v-1.02h-1.82v-.57h4.25v.57h-1.76v1.02c0,1.25.9,2.63,2.03,3.17ZM163.08,251.93h.69v3.16h1.31v.59h-1.31v4.06h-.69v-7.81Z"/>
        <path class="cls-1" d="M172.37,256.1h-7.15v-.54h7.15v.54ZM166.08,256.73h5.4v1.66h-4.69v.75h4.95v.5h-5.64v-1.72h4.7v-.67h-4.71v-.52ZM166.12,252.16h5.33v1.62h-4.61v.69h4.75v.5h-5.44v-1.66h4.61v-.64h-4.63v-.5Z"/>
        <path class="cls-1" d="M13.61,270.23h-3.61v-3.59h3.61v3.59ZM12.94,269.68v-2.48h-2.27v2.48h2.27ZM10.88,271.11h.68v1.88h4.57v.58h-5.25v-2.46ZM15.09,265.93h.69v2.38h1.18v.58h-1.18v2.77h-.69v-5.73Z"/>
        <path class="cls-1" d="M17.5,266.7h.69v4.47c1.14,0,2.31-.09,3.59-.36l.09.59c-1.35.27-2.56.35-3.74.35h-.62v-5.05ZM24.48,269.63h-1.27v4.11h-.69v-7.81h.69v3.12h1.27v.58Z"/>
        <path class="cls-1" d="M24.68,272.06h2.79v-2.79h.68v2.79h3.65v.57h-7.12v-.57ZM30.95,267.5c0,.96,0,2.03-.29,3.6l-.7-.08c.29-1.49.29-2.59.3-3.52v-.21h-4.82v-.57h5.51v.78Z"/>
        <path class="cls-1" d="M34.5,266.7h.69v4.47c1.14,0,2.31-.09,3.59-.36l.09.59c-1.35.27-2.56.35-3.74.35h-.62v-5.05ZM41.49,269.63h-1.27v4.11h-.69v-7.81h.69v3.12h1.27v.58Z"/>
        <path class="cls-1" d="M46.48,271.38l-.41.56c-.89-.46-1.62-1.39-1.97-2.5-.35,1.17-1.08,2.17-1.97,2.64l-.45-.55c1.15-.56,2.05-2.07,2.06-3.51v-1.42h.7v1.42c0,1.42.91,2.84,2.04,3.36ZM45.62,268.6h1.85v-2.67h.69v7.83h-.69v-4.6h-1.85v-.56Z"/>
        <path class="cls-1" d="M51.18,272.02h7.12v.57h-7.12v-.57ZM57.34,267.54c0,.98,0,2.1-.29,3.8l-.7-.07c.32-1.6.32-2.77.32-3.73v-.21h-4.71v-.57h5.39v.78Z"/>
        <path class="cls-1" d="M60.68,272.06h2.79v-2.79h.68v2.79h3.65v.57h-7.12v-.57ZM66.95,267.5c0,.96,0,2.03-.29,3.6l-.7-.08c.29-1.49.29-2.59.3-3.52v-.21h-4.82v-.57h5.51v.78Z"/>
        <path class="cls-1" d="M72.27,270.23h-3.67v-3.62h3.67v3.62ZM71.59,269.68v-2.5h-2.31v2.5h2.31ZM69.59,271.01h.69v1.9h4.61v.57h-5.29v-2.47ZM73.95,265.94h.69v5.62h-.69v-5.62Z"/>
        <path class="cls-1" d="M77.98,266.53c1.16,0,2,1.06,2,2.72,0,1.67-.83,2.72-2,2.72-1.17,0-1.99-1.05-2-2.72,0-1.66.83-2.72,2-2.72ZM77.98,271.36c.79,0,1.33-.83,1.33-2.1s-.54-2.1-1.33-2.11c-.78,0-1.33.84-1.33,2.11s.54,2.1,1.33,2.1ZM82.14,273.76h-.69v-7.83h.69v7.83Z"/>
        <path class="cls-1" d="M87.78,269.37c.6-.61.75-1.53.75-2.17v-.8h.65v.8c0,.86.34,1.9,1.25,2.4l-.4.49c-.6-.33-.97-.91-1.16-1.54-.17.65-.5,1.27-1.09,1.63-.6-.37-.94-1.02-1.1-1.68-.2.64-.57,1.24-1.16,1.59l-.39-.49c.9-.53,1.23-1.64,1.23-2.4v-.8h.65v.8c0,.6.16,1.54.76,2.17ZM86.2,270.92h5.26v2.82h-.69v-2.26h-4.57v-.56ZM90.77,265.93h.69v2.02h1v.58h-1v2.03h-.69v-4.63Z"/>
        <path class="cls-1" d="M99.33,271.37l-.42.55c-.86-.45-1.58-1.38-1.93-2.46-.35,1.15-1.09,2.14-1.96,2.61l-.44-.55c1.14-.56,2.05-2.06,2.06-3.49v-1.42h.68v1.42c0,1.38.91,2.79,2.02,3.34ZM100.05,265.93h.69v3.17h1.31v.6h-1.31v4.04h-.69v-7.81Z"/>
        <path class="cls-1" d="M102.51,266.66h3.55v2.79h-2.85v1.83c1.45,0,2.46-.05,3.65-.27l.07.57c-1.23.22-2.27.28-3.78.29h-.62v-2.99h2.85v-1.65h-2.87v-.57ZM108.25,269.04h1.31v.58h-1.31v4.14h-.69v-7.83h.69v3.11Z"/>
        <path class="cls-1" d="M111.74,267.45v-.41h-1.77v-.57h4.19v.57h-1.72v.4c0,1.03.76,1.97,1.91,2.36l-.36.54c-.88-.31-1.56-.94-1.89-1.74-.33.89-1.05,1.58-1.98,1.92l-.37-.54c1.18-.41,1.99-1.4,2-2.52ZM111.74,271.17v-.42h.66v.42c0,.7.37,1.44,1.11,1.87.75-.47,1.13-1.27,1.14-1.87v-.42h.68v.42c0,.81.58,1.62,1.6,1.96l-.36.52c-.78-.29-1.32-.83-1.59-1.49-.25.64-.72,1.24-1.45,1.55-.75-.29-1.23-.87-1.47-1.52-.28.63-.82,1.18-1.56,1.46l-.34-.52c.99-.36,1.58-1.2,1.59-1.96ZM116.18,270.51h-.69v-1.25h-1.46v-.56h1.46v-.71h-1.46v-.57h1.46v-1.49h.69v4.58Z"/>
        <path class="cls-1" d="M117.56,266.69h3.65v.57h-2.96v3.96c1.42,0,2.41-.07,3.58-.28l.09.6c-1.23.22-2.25.26-3.74.26h-.62v-5.11ZM123.26,269.02h1.31v.58h-1.31v4.16h-.69v-7.83h.69v3.09Z"/>
        <path class="cls-1" d="M124.99,272.51c0-.31.25-.56.56-.56s.57.25.56.56c0,.31-.25.57-.56.57-.31,0-.57-.26-.56-.57Z"/>
      </g>
      <g>
        <path class="cls-1" d="M36.85,190.15h.93l-.44,2.5h-1.25l.76-2.5ZM38.8,190.15h.93l-.44,2.5h-1.25l.76-2.5Z"/>
        <path class="cls-1" d="M44.23,190.75h-2.54v.65h2.29v.86h-2.29v.7c1.17,0,1.94-.04,2.83-.18l.1.9c-1.02.17-1.93.21-3.42.21h-.62v-4.04h3.66v.91ZM44.2,194.31c1.72,0,2.76.54,2.76,1.5,0,.95-1.04,1.52-2.76,1.51-1.71,0-2.75-.56-2.75-1.51s1.04-1.5,2.75-1.5ZM44.2,196.47c1.08,0,1.64-.22,1.64-.66,0-.43-.56-.64-1.64-.64s-1.63.22-1.63.64.58.66,1.63.66ZM44.45,191.32h1.37v-2h1.12v4.88h-1.12v-1.97h-1.37v-.91Z"/>
        <path class="cls-1" d="M52.25,190.76h-1.59c0,.93.57,1.83,1.85,2.21l-.54.88c-.88-.27-1.5-.81-1.85-1.49-.36.8-1.01,1.45-1.96,1.76l-.57-.89c1.33-.42,1.93-1.45,1.94-2.47h-1.63v-.9h4.36v.9ZM51.43,194.23c1.67,0,2.69.56,2.7,1.54,0,.98-1.03,1.56-2.7,1.56-1.69,0-2.75-.58-2.74-1.56,0-.98,1.05-1.54,2.74-1.54ZM51.43,196.46c1.04,0,1.59-.23,1.59-.69s-.55-.67-1.59-.67c-1.05,0-1.63.22-1.62.67,0,.46.57.69,1.62.69ZM52.92,189.33h1.12v1.85h1.08v.91h-1.08v1.98h-1.12v-4.75Z"/>
        <path class="cls-1" d="M57.52,193.99l-.44-.87c1.75-.47,2.72-1.35,2.91-2.43h-2.47v-.9h3.67c0,2.09-1.32,3.54-3.67,4.19ZM58.26,194.29h5.49v3.01h-1.12v-2.12h-4.38v-.9ZM61.26,191.27h1.38v-1.93h1.12v4.64h-1.12v-1.78h-1.38v-.92Z"/>
        <path class="cls-1" d="M66.4,190.71h-1.61v-.9h4.34v.9h-1.59c.02.93.59,1.87,1.84,2.29l-.55.88c-.88-.29-1.49-.87-1.84-1.58-.35.81-.99,1.47-1.94,1.79l-.58-.89c1.31-.44,1.91-1.49,1.93-2.49ZM68.53,194.25c1.71,0,2.75.58,2.76,1.55,0,.97-1.05,1.54-2.76,1.54s-2.75-.57-2.75-1.54,1.05-1.54,2.75-1.55ZM68.53,196.48c1.06,0,1.64-.23,1.64-.69,0-.46-.58-.69-1.64-.69-1.06,0-1.63.22-1.63.69s.58.69,1.63.69ZM71.26,194.08h-1.12v-1.89h-1.25v-.91h1.25v-1.95h1.12v4.75Z"/>
        <path class="cls-1" d="M74.26,189.63c1.01,0,1.83.57,2.05,1.42h1.34v-1.71h1.12v4.24h-1.12v-1.6h-1.34c-.21.87-1.03,1.44-2.05,1.44-1.23,0-2.14-.78-2.13-1.9,0-1.1.9-1.88,2.13-1.88ZM73.96,194.8h.86v-.8h1.04v2.43c.89-.4,1.27-1.15,1.27-1.88v-.62h1.12v.62c0,.82.39,1.59,1.39,1.92l-.58.83c-.69-.24-1.13-.69-1.39-1.27-.26.56-.7,1.02-1.35,1.27l-.46-.69v.62h-2.94v-3.23h1.04v.8ZM74.26,192.49c.61,0,1.04-.38,1.05-.98,0-.59-.44-.95-1.05-.96-.63,0-1.07.37-1.06.96,0,.61.44.98,1.06.98ZM74.82,196.39v-.76h-.86v.76h.86Z"/>
        <path class="cls-1" d="M81.9,189.89c1.2,0,2.1,1.1,2.1,2.85s-.9,2.86-2.1,2.86-2.12-1.1-2.12-2.86c0-1.74.89-2.85,2.12-2.85ZM81.9,194.58c.61,0,1.02-.65,1.02-1.84,0-1.19-.41-1.84-1.02-1.84s-1.04.65-1.04,1.84c0,1.19.41,1.84,1.04,1.84ZM86.24,197.34h-1.13v-8.02h1.13v8.02Z"/>
        <path class="cls-1" d="M92.95,195.38h-3.84v-5.29h3.84v5.29ZM91.83,194.49v-3.52h-1.62v3.52h1.62ZM94.04,189.33h1.12v3.01h1.18v.93h-1.18v4.05h-1.12v-8Z"/>
        <path class="cls-1" d="M96.36,193.06h7.29v.9h-7.29v-.9ZM102.92,191.04c0,.97-1.13,1.55-2.91,1.55-1.77,0-2.92-.58-2.92-1.55s1.15-1.57,2.92-1.56c1.78,0,2.91.59,2.91,1.56ZM97.2,194.51h5.58v2.72h-5.58v-2.72ZM100.01,191.72c1.1,0,1.75-.23,1.75-.68s-.65-.69-1.75-.69-1.76.23-1.75.69c0,.45.63.68,1.75.68ZM101.69,196.34v-.94h-3.38v.94h3.38Z"/>
        <path class="cls-1" d="M105.23,190.78h-1.07v-.9h2.14c0,1.71-.39,2.85-1.76,3.86l-.72-.69c.88-.64,1.28-1.26,1.4-2.27ZM107.29,194.35v-.18h1.12v.18c0,.9.83,1.81,2.52,2.06l-.43.89c-1.26-.21-2.18-.77-2.66-1.54-.49.77-1.4,1.34-2.67,1.55l-.43-.89c1.69-.25,2.54-1.16,2.54-2.07ZM110.57,194.72h-1.14v-2.43h-1.25c-.25.64-.66,1.21-1.27,1.75l-.8-.63c.9-.76,1.27-1.5,1.38-2.62h-.9v-.9h1.96c0,.54-.04,1.04-.12,1.49h1v-2.04h1.14v5.38Z"/>
        <path class="cls-1" d="M113.52,189.9h3.8v1.34h1.49v-1.92h1.12v4.73h-1.12v-1.92h-1.49v1.49h-3.8v-3.73ZM119.92,197.34h-1.12v-2.02h-4.38v-.89h5.49v2.91ZM116.21,192.74v-1.93h-1.58v1.93h1.58Z"/>
        <path class="cls-1" d="M120.69,195.44h2.61v-2.75h1.12v2.75h3.57v.91h-7.29v-.91ZM127.28,190.78c0,1,0,2.13-.33,3.82l-1.12-.11c.31-1.51.32-2.64.33-3.58h-4.71v-.89h5.84v.76Z"/>
        <path class="cls-1" d="M131.9,190.38v-.77h1.17v.77c0,.95.57,1.89,1.88,2.25l-.54.89c-.92-.27-1.56-.83-1.92-1.54-.37.77-1.02,1.38-1.98,1.67l-.54-.88c1.34-.4,1.92-1.4,1.92-2.39ZM131.18,196.34h1.04v-1.33h-.97v-.89h5.49v.89h-.96v1.33h1.03v.9h-5.63v-.9ZM134.68,196.34v-1.33h-1.35v1.33h1.35ZM136.7,193.77h-1.12v-4.43h1.12v4.43Z"/>
        <path class="cls-1" d="M141.76,192.22h1.39v-2.89h1.11v8.02h-1.11v-4.23h-1.38c-.12,1.54-.95,2.48-2.06,2.48-1.21,0-2.08-1.1-2.07-2.86,0-1.74.86-2.85,2.07-2.85,1.08,0,1.89.89,2.05,2.33ZM139.72,194.58c.6,0,1-.65,1-1.84s-.4-1.84-1-1.84-1.01.65-1,1.84c0,1.19.4,1.84,1,1.84Z"/>
        <path class="cls-1" d="M146.17,195.13c.39,0,.73.33.73.73s-.34.74-.73.74c-.41,0-.75-.33-.74-.74,0-.4.33-.73.74-.73ZM146.72,194.61h-1.12l-.11-4.46h1.35l-.11,4.46Z"/>
        <path class="cls-1" d="M148.2,190.16h1.25l-.76,2.5h-.93l.44-2.5ZM150.65,192.66h-.93l.44-2.5h1.25l-.76,2.5Z"/>
      </g>
      <polygon class="cls-1" points="187.5 201.76 187 201.76 187 185.75 .5 185.75 .5 201.76 0 201.76 0 185.25 187.5 185.25 187.5 201.76"/>
    </g>
  </g>
</svg>