<?xml version="1.0" encoding="UTF-8"?>
<svg id="Layer_2" data-name="Layer 2" xmlns="http://www.w3.org/2000/svg" viewBox="0 0 187.5 280.8">
  <defs>
    <style>
      .cls-1 {
        fill: #221f20;
      }

      .cls-2 {
        fill: #fff;
      }
    </style>
  </defs>
  <g id="Layer_1-2" data-name="Layer 1">
    <g>
      <path class="cls-1" d="M176.97,34.34c-.34-2.9-.51-5.81-.51-8.73h0c0-2.92.17-5.83.51-8.73l.26-2.22c.04-.39-.26-.72-.64-.72h-5.81c-.39,0-.69.34-.64.72l.26,2.22c.03.25.06.51.08.76-.27,0-.58-.04-.92-.11-.18-.04-.36-.08-.52-.13-.48-.15-.96.21-.96.71v4.61c0,.5.48.86.96.71.16-.05.33-.1.52-.13.5-.1.95-.12,1.3-.11.02.77.04,1.55.04,2.32-.36.02-.82,0-1.34-.1-.18-.04-.36-.08-.52-.13-.48-.15-.96.21-.96.71v4.61c0,.5.48.86.96.71.16-.05.33-.1.52-.13.43-.09.82-.11,1.14-.11-.08,1.1-.18,2.2-.31,3.29l-.26,2.22c-.04.39.26.72.64.72h5.81c.39,0,.69-.34.64-.72l-.26-2.22Z"/>
      <path class="cls-1" d="M40.72,14.66c.05-.38-.28-.72-.71-.72h-6.4c-.43,0-.75.34-.71.72.56,4.62.85,9.26.85,13.91v5.16c0,4.65-.28,9.29-.85,13.91-.05.38.28.72.71.72h6.4c.43,0,.75-.34.71-.72-.56-4.62-.85-9.26-.85-13.91v-5.16c0-4.65.28-9.29.85-13.91Z"/>
      <path class="cls-1" d="M21.49,15.21c-.92,0-11.01.16-11.22,15.34-.2,14.8,9.75,15.24,10.81,15.18.93.06,8.71-.28,10.46-10.37.08-.45-.27-.87-.73-.87h-6.7c-.39,0-.72.31-.74.7-.08,1.45-.5,4.66-2.58,4.66-2.71,0-3.24-4.35-2.83-7.18l13.31.04c.4,0,.73-.31.75-.71.12-3.26-.05-16.51-10.52-16.79ZM23.66,26.29h-5.14c-.19,0-.34-.17-.32-.36.4-2.89,1.46-4.17,2.96-4.17s2.51,1.43,2.81,4.18c.02.19-.13.35-.32.35Z"/>
      <path class="cls-1" d="M144.46,31.8h-27.68c-.35,0-.64.29-.64.64v3.76c0,.26.08.51.25.71,0,0,0,0,.01.01.14.17.36.26.59.23,4.17-.42,8.59-.7,13.59-.69,2.45,0,4.86.07,7.17.2.04.04.06.07.1.11v1.31s-.06.06-.11.11h-21.03c-.32,0-.58.26-.58.58v5.72s0,0,0,0v4.11s0,0,0,0v.06c0,.32.26.58.58.58h27.67c.35,0,.64-.29.64-.64v-3.85c0-.19-.06-.37-.16-.52,0,0,0,0,0-.01-.18-.24-.47-.37-.77-.34-4.14.42-8.54.69-13.5.68-2.45,0-4.86-.07-7.17-.2-.04-.04-.06-.07-.1-.11v-1.31s.06-.06.11-.11h20.97c.35,0,.64-.29.64-.64v-5.65h0v-4.11h0v-.07c0-.32-.26-.57-.57-.57Z"/>
      <path class="cls-1" d="M176.15,41.66c-8.72,1.52-18.65,1.5-20.55,1.48-.18,0-.32-.15-.31-.33.03-.72.15-2.05.22-2.61l.29-2.22c.05-.39-.29-.72-.73-.72h-6.35c-.44,0-.8.19-.73.72l.02.1c.53,2.72.81,5.5.85,8.28,0,.01,0,.03,0,.04v2.2c0,.36.28.65.62.65h26.82c.34,0,.62-.29.62-.65v-6.3c0-.43-.38-.7-.78-.63Z"/>
      <path class="cls-1" d="M146.31,19.55c0-.48-.46-.84-.93-.72-.14.04-.28.07-.43.11-.2.04-.39.08-.57.12.08-1.03.21-2.07.39-3.09l.26-1.53c.04-.27-.26-.5-.64-.5h-5.81c-.39,0-.69.23-.64.5l.26,1.53c.34,2,.51,4.01.51,6.02h0c0,2.01-.17,4.02-.51,6.02l-.26,1.53c-.04.27.26.5.64.5h5.81c.39,0,.69-.23.64-.5l-.26-1.53c-.17-1.03-.3-2.06-.39-3.09.19.04.38.07.57.12.15.03.29.07.43.11.47.12.93-.24.93-.72v-2.43h0v-2.43Z"/>
      <path class="cls-1" d="M148.35,34.69c4.73-.06,8.89-.82,11.98-2.89h0c6.1-3.12,6.89-14.09,6.99-17.09.01-.42-.32-.77-.74-.77h-.95s-16.74,0-16.74,0c-.32,0-.59.29-.59.64v5.51c0,.46.42.81.87.73l1.53-.24c.96-.15,1.93-.27,2.91-.35,1.3-.1,3.38-.15,6.39.07.33.02.56.34.48.66-1.53,6.17-7.62,6.95-11.82,5.91-.35-.09-.66.28-.66.65v6.79c0,.21.16.38.36.38Z"/>
      <path class="cls-1" d="M109.76,14.66c.05-.38-.28-.72-.71-.72h-6.4c-.43,0-.75.34-.71.72.56,4.62.85,9.26.85,13.91v5.07c-2.2,4.22-13.53,5.69-20.73,3.24-.69-.23-1.2.36-1.2,1.22l-.03,5.89c0,.57.4.94,1.14,1.06.58.09,1.15.15,1.73.2,8.07.75,13.93-1.01,18.29-3.12.22-.11.48.07.46.31-.13,1.74-.3,3.47-.51,5.2-.05.38.28.72.71.72h6.4c.43,0,.75-.34.71-.72-.56-4.62-.85-9.26-.85-13.91v-5.16c0-4.65.28-9.29.85-13.91Z"/>
      <path class="cls-1" d="M91.23,35.38c5.4,0,9.77-4.8,9.77-10.72s-4.37-10.72-9.77-10.72-9.77,4.8-9.77,10.72,4.37,10.72,9.77,10.72ZM91.23,21.05c1.02,0,1.85,1.62,1.85,3.61s-.83,3.61-1.85,3.61-1.85-1.62-1.85-3.61.83-3.61,1.85-3.61Z"/>
      <path class="cls-1" d="M79.47,22.49c0-.48-.46-.84-.93-.72-.14.04-.28.07-.43.11-.43.1-.83.17-1.21.22.09-1.74.24-3.49.47-5.22l.28-2.22c.05-.39-.28-.72-.71-.72h-6.39c-.43,0-.76.34-.71.72l.28,2.22c.37,2.9.56,5.81.56,8.73h0c0,2.92-.19,4.44-.56,7.34l-.28,2.22c-.05.39.28.72.71.72h6.39c.43,0,.76-.34.71-.72l-.28-2.22c-.27-2.12-.44-3.5-.52-5.23.39.06.81.13,1.26.23.15.03.29.07.43.11.47.12.93-.24.93-.72v-2.43h0v-2.43Z"/>
      <path class="cls-1" d="M48.73,32.74c-.04.31.25.59.64.59h18.82c.38,0,.68-.27.64-.59l-.26-1.8c-.34-2.36-.5-4.72-.5-7.1s.17-4.74.5-7.1l.26-1.8c.04-.31-.25-.59-.64-.59h-18.82c-.38,0-.68.27-.64.59l.26,1.8c.34,2.36.5,4.72.5,7.1s-.17,4.74-.5,7.1l-.26,1.8ZM57.32,20.49h2.91c.07,0,.13.11.12.23-.08.89-.13,1.92-.13,3.06,0,1.2.05,2.27.13,3.19.01.12-.04.23-.12.23h-2.91c-.07,0-.13-.11-.12-.23.08-.92.14-1.99.13-3.19,0-1.15-.06-2.17-.13-3.06-.01-.12.04-.23.12-.23Z"/>
      <path class="cls-1" d="M77.38,40.51c-3.25.08-8.03-1.4-8.99-4.8-.1-.37-.39-.62-.77-.62h-5.64c-.38,0-.66.25-.75.62-.77,3.04-7.46,5.48-13,4.8-.93-.11-1.15.47-1.15,1.06l-.02,5.7c0,.56.17.99.82,1.05.56.06.83.03,1.25.02,4.81-.13,12.84-3.1,14.93-5.79.19-.24.47-.35.75-.32.27-.03.56.08.75.32,2.08,2.7,5.83,5.79,10.64,5.79.42,0,.83.02,1.25-.02.52-.04.82-.47.82-1.05l-.02-5.7c.08-.56-.33-1.07-.86-1.06Z"/>
      <path class="cls-1" d="M136.16,23.51v-3.07c.06-1.5.22-2.99.47-4.48l.26-1.53c.04-.27-.25-.5-.64-.5h-5.69c-.37,0-.78.31-.78.68v2.07c0,.18-.14.32-.32.32h-5.94c-.18,0-.32-.14-.32-.32v-2.07c0-.38-.3-.68-.67-.68h-5.8c-.38,0-.68.23-.64.5l.26,1.53c.24,1.45.4,2.91.46,4.37v3.28c-.07,1.46-.22,2.92-.46,4.37l-.26,1.53c-.04.27.25.5.64.5h19.51c.38,0,.68-.23.64-.5l-.26-1.53c-.25-1.49-.4-2.98-.47-4.48ZM128.42,27.36c-1.02,0-1.61-.64-1.92-1.62-.29.98-.88,1.62-1.95,1.62-1.67,0-2.21-1.72-2.21-3.84s.54-3.84,2.21-3.84c1.04,0,1.64.65,1.94,1.65.31-.99.91-1.65,1.93-1.65,1.69,0,2.21,1.72,2.21,3.84s-.46,3.84-2.21,3.84Z"/>
      <path class="cls-1" d="M129.22,23.49c0,1.3-.28,2.36-1.37,2.36s-1.37-1.06-1.37-2.36.33-2.36,1.37-2.36,1.37,1.06,1.37,2.36Z"/>
      <path class="cls-1" d="M125.08,23.49c0,1.3-.28,2.36-1.37,2.36s-1.37-1.06-1.37-2.36.33-2.36,1.37-2.36,1.37,1.06,1.37,2.36Z"/>
    </g>
    <g>
      <path class="cls-1" d="M50.68,1.65c-.03.47-.06.91-.1,1.31-.04.4-.08.78-.13,1.15s-.09.73-.14,1.08c-.05.35-.1.72-.16,1.09-.05.25-.14.46-.27.62s-.28.29-.46.38c-.18.09-.37.15-.58.19s-.41.05-.61.05c-.35,0-.65-.04-.9-.14-.25-.09-.46-.22-.63-.38s-.28-.36-.34-.59c-.07-.23-.08-.48-.04-.77.07-.7.15-1.38.22-2.06.08-.67.16-1.38.24-2.11.04-.29.13-.54.27-.72.14-.19.3-.34.49-.45.19-.11.39-.19.62-.24s.44-.07.66-.07c.32,0,.6.04.83.13.24.08.43.2.59.35.16.15.27.32.35.52.08.2.11.42.09.65ZM49.59,5.84c.08-.61.16-1.25.24-1.9.07-.65.14-1.37.21-2.15.02-.25,0-.46-.07-.61-.07-.16-.16-.28-.28-.36s-.26-.15-.41-.18c-.16-.03-.32-.04-.49-.04-.13,0-.27.01-.42.04-.15.03-.29.08-.42.17-.13.09-.25.21-.35.37-.1.16-.17.38-.21.65-.05.39-.1.75-.14,1.08-.04.33-.08.66-.11.97s-.06.62-.09.93c-.03.31-.05.63-.08.96-.02.23,0,.43.08.58.07.15.16.27.28.36s.26.14.42.18c.16.03.32.05.48.05.13,0,.27-.01.41-.03.14-.02.28-.07.41-.14.13-.07.25-.18.34-.32.1-.14.16-.34.19-.59ZM52.9,0v7.52h-.63V0h.63Z"/>
      <path class="cls-1" d="M58.48.11v7.33h-3.9V.11h3.9ZM55.21.7v6.15h2.64V.7h-2.64ZM61.95,3.14v.59h-1.29v3.8h-.63V0h.63v3.13h1.29Z"/>
      <path class="cls-1" d="M62.22,6.94h7.26v.59h-7.26v-.59ZM68.9,4.39v.59h-5.97V.02h5.9v.59h-5.27v1.63h5.27v.59h-5.27v1.56h5.34Z"/>
      <path class="cls-1" d="M70.47,7.68v-1.1h1.18v1.1l-.89,1.62h-.48l.73-1.62h-.54Z"/>
      <path class="cls-1" d="M81.72,0v7.52h-.63v-3.61h-1.85c-.05.41-.1.8-.15,1.18-.05.38-.11.77-.17,1.18-.05.25-.13.46-.26.62s-.28.29-.45.38c-.17.09-.36.15-.57.19s-.41.05-.6.05c-.35,0-.65-.04-.9-.14-.25-.09-.46-.22-.62-.38-.16-.17-.27-.36-.33-.59-.06-.23-.08-.48-.04-.77.07-.7.15-1.38.22-2.06.08-.67.16-1.38.24-2.11.04-.29.13-.54.27-.72s.3-.34.48-.45c.19-.11.39-.19.61-.24s.44-.07.65-.07c.32,0,.59.04.83.13.23.08.43.2.58.35.15.15.26.32.33.52.07.2.1.42.08.65-.02.31-.04.61-.06.88-.02.28-.04.54-.07.8h1.78V0h.63ZM78.34,5.84c.08-.61.16-1.25.24-1.9s.15-1.37.21-2.15c.02-.25,0-.46-.07-.61-.06-.16-.15-.28-.27-.36-.11-.09-.25-.15-.4-.18-.15-.03-.31-.04-.48-.04-.13,0-.27.01-.42.04-.15.03-.29.08-.41.17-.13.09-.24.21-.34.37-.1.16-.17.38-.2.65-.05.39-.1.75-.14,1.08-.04.33-.08.66-.11.97s-.06.62-.09.93c-.03.31-.05.63-.08.96-.02.23,0,.43.07.58.07.15.16.27.27.36s.25.14.41.18c.16.03.31.05.48.05.13,0,.27-.01.41-.03.14-.02.27-.07.4-.14.13-.07.24-.18.33-.32.09-.14.15-.34.18-.59Z"/>
      <path class="cls-1" d="M87.81,6.85v.59h-4.3V.11h4.07v.59h-3.44v6.15h3.67ZM89.78,0v7.52h-.63V0h.63Z"/>
      <path class="cls-1" d="M90.86.7V.11h2.56l-1.18,7.33h-.68l1.07-6.74h-1.77ZM93.78.7l.09-.59h2.21l-1.14,7.33h-.67l1.04-6.74h-1.51ZM98.87,3.14v.59h-1.2v3.8h-.63V0h.63v3.13h1.2Z"/>
      <path class="cls-1" d="M103.86.7h-1.52l1.49,6.74h-.64l-1.49-6.74h-.32l-1.49,6.74h-.64l1.49-6.74h-1.61V.11h4.73v.59ZM105.88,0v7.52h-.63V0h.63Z"/>
      <path class="cls-1" d="M109.95.11h3.9v1.53h1.94V0h.63v4.25h-.63v-2.02h-1.94v1.72h-3.9V.11ZM110.36,5.4v-.59h6.05v2.93h-.63v-2.33h-5.42ZM113.21,3.36V.7h-2.64v2.66h2.64Z"/>
      <path class="cls-1" d="M124.38,0v7.52h-.63v-3.61h-1.85c-.05.41-.1.8-.15,1.18-.05.38-.11.77-.17,1.18-.05.25-.13.46-.26.62s-.28.29-.45.38c-.17.09-.36.15-.57.19s-.41.05-.6.05c-.35,0-.65-.04-.9-.14-.25-.09-.46-.22-.62-.38-.16-.17-.27-.36-.33-.59-.06-.23-.08-.48-.04-.77.07-.7.15-1.38.22-2.06.08-.67.16-1.38.24-2.11.04-.29.13-.54.27-.72s.3-.34.48-.45c.19-.11.39-.19.61-.24s.44-.07.65-.07c.32,0,.59.04.83.13.23.08.43.2.58.35.15.15.26.32.33.52.07.2.1.42.08.65-.02.31-.04.61-.06.88-.02.28-.04.54-.07.8h1.78V0h.63ZM121,5.84c.08-.61.16-1.25.24-1.9s.15-1.37.21-2.15c.02-.25,0-.46-.07-.61-.06-.16-.15-.28-.27-.36-.11-.09-.25-.15-.4-.18-.15-.03-.31-.04-.48-.04-.13,0-.27.01-.42.04-.15.03-.29.08-.41.17-.13.09-.24.21-.34.37-.1.16-.17.38-.2.65-.05.39-.1.75-.14,1.08-.04.33-.08.66-.11.97s-.06.62-.09.93c-.03.31-.05.63-.08.96-.02.23,0,.43.07.58.07.15.16.27.27.36s.25.14.41.18c.16.03.31.05.48.05.13,0,.27-.01.41-.03.14-.02.27-.07.4-.14.13-.07.24-.18.33-.32.09-.14.15-.34.18-.59Z"/>
      <path class="cls-1" d="M128.48,3.9h2.29v.59h-5.13v-.59h2.21v-.76h-1.76V.11h.63v.96h2.91V.11h.63v3.03h-1.77v.76ZM132.21,7.73l-.8-1.9h-.5l-.98,1.9h-.77l-.8-1.9h-.5l-.98,1.9h-.77l1.28-2.49h1.4l.73,1.82.94-1.82h1.39l1.01,2.49h-.62ZM129.62,2.55v-.88h-2.91v.88h2.91ZM132.18,2.59v2.12h-.63V0h.63v1.99h1.25v.59h-1.25Z"/>
      <path class="cls-1" d="M138.43,6.85v.59h-4.09V.06h.65v6.79h3.44ZM140.49,0v7.52h-.63V0h.63Z"/>
    </g>
    <g>
      <rect class="cls-1" x=".25" y="70.12" width="187" height="15.94"/>
      <g>
        <path class="cls-2" d="M48.11,82.84v-9.9h5.71v1.66h-3.77v6.59h4.12v1.66h-6.06ZM55.21,82.96v-10.03h1.94v10.03h-1.94Z"/>
        <path class="cls-2" d="M66.02,82.96v-4.44h-1.88l.91,4.32h-1.8c-.06-.29-.11-.5-.13-.65-.58-2.69-1.01-4.89-1.31-6.61-.14,1.05-.38,2.38-.72,4.01l-.66,3.25h-2.03l1.81-8.23h-1.66v-1.66h6.17v1.66h-1.4l.43,2.09h2.27v-3.77h1.94v10.03h-1.94Z"/>
        <path class="cls-2" d="M79.03,82.96h-9.68v-1.66h9.68v1.66ZM70.03,79.89v-6.95h8.3v1.66h-6.37v.97h6.25v1.66h-6.24v1h6.52v1.67h-8.46Z"/>
        <path class="cls-2" d="M88.59,75.46l1.13,2.68h-1.73l-1.08-2.57-1.61,2.6h-2.34l1.73-2.71h-1.43v-1.66h1.98l.22-1.06h2.54l-.22,1.06h1.64v1.66h-.84ZM85.12,82.96v-2.48h-2.16v-1.74h7.02v1.74h-2.66v2.48h-2.2ZM90.51,82.96v-10.03h1.94v10.03h-1.94Z"/>
        <path class="cls-2" d="M93.71,74.98v-1.5h2.02l.18-.83h2.51l-.16.83h1.82v1.5h-6.37ZM95.59,78.89c-.53-.02-.95-.2-1.26-.52-.31-.32-.47-.74-.47-1.27s.11-.91.34-1.17c.22-.26.51-.43.86-.5.35-.07.78-.11,1.29-.11h1.16c.51,0,.94.04,1.28.11.34.07.62.24.84.5.22.26.33.65.33,1.17s-.16.95-.47,1.28c-.32.32-.73.49-1.25.51-.31.02-.79.02-1.43.02-.26,0-.67,0-1.21-.02ZM96.56,83.23c-.66-.02-1.18-.19-1.58-.51-.4-.32-.59-.79-.59-1.42,0-.66.19-1.15.58-1.45.38-.3.92-.46,1.62-.47.48-.02,1.2-.02,2.15-.02.47,0,1.19,0,2.15.02,1.46.02,2.2.66,2.2,1.92,0,.63-.2,1.11-.59,1.42-.4.32-.92.49-1.58.51-.51.02-1.28.04-2.32.04-.68,0-1.36-.01-2.03-.04ZM97.28,77.54c.21,0,.38-.03.52-.1.14-.07.21-.18.21-.34,0-.2-.09-.33-.28-.38-.18-.05-.36-.08-.52-.07-.16,0-.27,0-.31,0s-.16,0-.37,0c-.21,0-.38.03-.52.1-.14.07-.21.19-.21.35,0,.2.09.32.27.37.18.05.35.07.52.07s.27,0,.31,0,.16,0,.37,0ZM100.6,81.72c.22,0,.39-.03.5-.08s.16-.16.16-.34-.05-.31-.16-.35c-.1-.04-.27-.07-.5-.08-.42-.02-1.04-.02-1.87-.02s-1.46,0-1.87.02c-.23,0-.4.03-.5.08-.1.04-.16.16-.16.35s.05.3.16.34c.11.04.27.07.5.08.42.02,1.04.02,1.87.02s1.46,0,1.87-.02ZM102.83,75.36v.86h1.32v1.54h-1.32v1.2h-1.94v-6.04h1.94v.9h1.32v1.54h-1.32Z"/>
        <path class="cls-2" d="M115.39,77.63v-.7h-2.09l-.12.67h-2.09l.56-3.01h-3.54v-1.66h5.88l-.1.55h1.49v-.56h1.94v4.7h-1.94ZM117.44,83.21h-8.69v-3.32h6.5v-.41h-6.5v-1.48h8.57v3.28h-6.49v.46h6.61v1.48ZM115.39,75.58v-.73h-1.73l-.13.73h1.86Z"/>
        <path class="cls-2" d="M118.71,82.96v-1.66h1.36v-5.06h2.16v5.06h3.14v1.66h-6.66ZM125.21,72.94l-.55,6.74h-1.99l.32-5.09h-3.77v-1.66h5.99ZM127.79,78.39v4.57h-1.94v-10.03h1.94v3.8h1.36v1.66h-1.36Z"/>
        <path class="cls-2" d="M136.01,82.84h-1.8c-.06-.29-.11-.5-.13-.65-.58-2.69-1.01-4.89-1.31-6.61-.14,1.05-.38,2.38-.72,4.01l-.66,3.25h-2.03l1.81-8.23h-1.66v-1.66h6.35v1.66h-1.58l1.73,8.23ZM136.99,82.96v-10.03h1.94v10.03h-1.94Z"/>
      </g>
      <g>
        <path class="cls-1" d="M2.97,63.25c.84-.4,1.07-1.17,1.51-1.17.22,0,.38.15.38.41,0,.31-.23.4-.67.5-.58.13-.8.21-1.14.42.96.58,1.82.32,1.82.91,0,.25-.17.41-.38.41-.44,0-.67-.77-1.51-1.17,0,1.03.29,1.3.29,1.68,0,.25-.19.42-.4.42s-.4-.17-.4-.42c0-.42.29-.62.29-1.68-.89.43-1.04,1.17-1.51,1.17-.22,0-.39-.15-.39-.41s.15-.39.67-.5c.47-.1.84-.22,1.14-.42-.32-.2-.68-.33-1.13-.42-.52-.1-.68-.23-.68-.5s.17-.41.39-.41c.46,0,.65.76,1.51,1.17,0-1.03-.29-1.28-.29-1.68,0-.25.19-.42.4-.42s.4.17.4.42c0,.44-.29.58-.29,1.68Z"/>
        <path class="cls-1" d="M10.24,63.25c.84-.4,1.07-1.17,1.51-1.17.22,0,.39.15.39.41,0,.31-.23.4-.67.5-.58.13-.8.21-1.14.42.96.58,1.82.32,1.82.91,0,.25-.17.41-.39.41-.44,0-.67-.77-1.51-1.17,0,1.03.29,1.3.29,1.68,0,.25-.19.42-.4.42s-.4-.17-.4-.42c0-.42.29-.62.29-1.68-.89.43-1.05,1.17-1.51,1.17-.22,0-.38-.15-.38-.41s.15-.39.67-.5c.47-.1.84-.22,1.14-.42-.32-.2-.68-.33-1.13-.42-.52-.1-.68-.23-.68-.5s.17-.41.38-.41c.46,0,.65.76,1.51,1.17,0-1.03-.29-1.28-.29-1.68,0-.25.19-.42.4-.42s.4.17.4.42c0,.44-.29.58-.29,1.68Z"/>
        <path class="cls-1" d="M17.51,63.25c.84-.4,1.07-1.17,1.51-1.17.22,0,.38.15.38.41,0,.31-.23.4-.67.5-.58.13-.8.21-1.14.42.96.58,1.82.32,1.82.91,0,.25-.17.41-.38.41-.44,0-.67-.77-1.51-1.17,0,1.03.29,1.3.29,1.68,0,.25-.19.42-.4.42s-.4-.17-.4-.42c0-.42.29-.62.29-1.68-.89.43-1.04,1.17-1.51,1.17-.22,0-.39-.15-.39-.41s.15-.39.67-.5c.47-.1.84-.22,1.14-.42-.32-.2-.68-.33-1.13-.42-.52-.1-.68-.23-.68-.5s.17-.41.39-.41c.46,0,.65.76,1.51,1.17,0-1.03-.29-1.28-.29-1.68,0-.25.19-.42.4-.42s.4.17.4.42c0,.44-.29.58-.29,1.68Z"/>
        <path class="cls-1" d="M24.79,63.25c.84-.4,1.07-1.17,1.51-1.17.22,0,.39.15.39.41,0,.31-.23.4-.67.5-.58.13-.8.21-1.14.42.96.58,1.82.32,1.82.91,0,.25-.17.41-.39.41-.44,0-.67-.77-1.51-1.17,0,1.03.29,1.3.29,1.68,0,.25-.19.42-.4.42s-.4-.17-.4-.42c0-.42.29-.62.29-1.68-.89.43-1.05,1.17-1.51,1.17-.22,0-.38-.15-.38-.41s.15-.39.67-.5c.47-.1.84-.22,1.14-.42-.32-.2-.68-.33-1.13-.42-.52-.1-.68-.23-.68-.5s.17-.41.38-.41c.46,0,.65.76,1.51,1.17,0-1.03-.29-1.28-.29-1.68,0-.25.19-.42.4-.42s.4.17.4.42c0,.44-.29.58-.29,1.68Z"/>
        <path class="cls-1" d="M32.06,63.25c.84-.4,1.07-1.17,1.51-1.17.22,0,.38.15.38.41,0,.31-.23.4-.67.5-.58.13-.8.21-1.14.42.96.58,1.82.32,1.82.91,0,.25-.17.41-.38.41-.44,0-.67-.77-1.51-1.17,0,1.03.29,1.3.29,1.68,0,.25-.19.42-.4.42s-.4-.17-.4-.42c0-.42.29-.62.29-1.68-.89.43-1.04,1.17-1.51,1.17-.22,0-.39-.15-.39-.41s.15-.39.67-.5c.47-.1.84-.22,1.14-.42-.32-.2-.68-.33-1.13-.42-.52-.1-.68-.23-.68-.5s.17-.41.39-.41c.46,0,.65.76,1.51,1.17,0-1.03-.29-1.28-.29-1.68,0-.25.19-.42.4-.42s.4.17.4.42c0,.44-.29.58-.29,1.68Z"/>
        <path class="cls-1" d="M39.33,63.25c.84-.4,1.07-1.17,1.51-1.17.22,0,.39.15.39.41,0,.31-.23.4-.67.5-.58.13-.8.21-1.14.42.96.58,1.82.32,1.82.91,0,.25-.17.41-.39.41-.44,0-.67-.77-1.51-1.17,0,1.03.29,1.3.29,1.68,0,.25-.19.42-.4.42s-.4-.17-.4-.42c0-.42.29-.62.29-1.68-.89.43-1.05,1.17-1.51,1.17-.22,0-.38-.15-.38-.41s.15-.39.67-.5c.47-.1.84-.22,1.14-.42-.32-.2-.68-.33-1.13-.42-.52-.1-.68-.23-.68-.5s.17-.41.38-.41c.46,0,.65.76,1.51,1.17,0-1.03-.29-1.28-.29-1.68,0-.25.19-.42.4-.42s.4.17.4.42c0,.44-.29.58-.29,1.68Z"/>
        <path class="cls-1" d="M46.6,63.25c.84-.4,1.07-1.17,1.51-1.17.22,0,.38.15.38.41,0,.31-.23.4-.67.5-.58.13-.8.21-1.14.42.96.58,1.82.32,1.82.91,0,.25-.17.41-.38.41-.44,0-.67-.77-1.51-1.17,0,1.03.29,1.3.29,1.68,0,.25-.19.42-.4.42s-.4-.17-.4-.42c0-.42.29-.62.29-1.68-.89.43-1.04,1.17-1.51,1.17-.22,0-.39-.15-.39-.41s.15-.39.67-.5c.47-.1.84-.22,1.14-.42-.32-.2-.68-.33-1.13-.42-.52-.1-.68-.23-.68-.5s.17-.41.39-.41c.46,0,.65.76,1.51,1.17,0-1.03-.29-1.28-.29-1.68,0-.25.19-.42.4-.42s.4.17.4.42c0,.44-.29.58-.29,1.68Z"/>
        <path class="cls-1" d="M53.87,63.25c.84-.4,1.07-1.17,1.51-1.17.22,0,.39.15.39.41,0,.31-.23.4-.67.5-.58.13-.8.21-1.14.42.96.58,1.82.32,1.82.91,0,.25-.17.41-.39.41-.44,0-.67-.77-1.51-1.17,0,1.03.29,1.3.29,1.68,0,.25-.19.42-.4.42s-.4-.17-.4-.42c0-.42.29-.62.29-1.68-.89.43-1.05,1.17-1.51,1.17-.22,0-.38-.15-.38-.41s.15-.39.67-.5c.47-.1.84-.22,1.14-.42-.32-.2-.68-.33-1.13-.42-.52-.1-.68-.23-.68-.5s.17-.41.38-.41c.46,0,.65.76,1.51,1.17,0-1.03-.29-1.28-.29-1.68,0-.25.19-.42.4-.42s.4.17.4.42c0,.44-.29.58-.29,1.68Z"/>
        <path class="cls-1" d="M61.14,63.25c.84-.4,1.07-1.17,1.51-1.17.22,0,.38.15.38.41,0,.31-.23.4-.67.5-.58.13-.8.21-1.14.42.96.58,1.82.32,1.82.91,0,.25-.17.41-.38.41-.44,0-.67-.77-1.51-1.17,0,1.03.29,1.3.29,1.68,0,.25-.19.42-.4.42s-.4-.17-.4-.42c0-.42.29-.62.29-1.68-.89.43-1.04,1.17-1.51,1.17-.22,0-.39-.15-.39-.41s.15-.39.67-.5c.47-.1.84-.22,1.14-.42-.32-.2-.68-.33-1.13-.42-.52-.1-.68-.23-.68-.5s.17-.41.39-.41c.46,0,.65.76,1.51,1.17,0-1.03-.29-1.28-.29-1.68,0-.25.19-.42.4-.42s.4.17.4.42c0,.44-.29.58-.29,1.68Z"/>
        <path class="cls-1" d="M68.41,63.25c.84-.4,1.07-1.17,1.51-1.17.22,0,.39.15.39.41,0,.31-.23.4-.67.5-.58.13-.8.21-1.14.42.96.58,1.82.32,1.82.91,0,.25-.17.41-.39.41-.44,0-.67-.77-1.51-1.17,0,1.03.29,1.3.29,1.68,0,.25-.19.42-.4.42s-.4-.17-.4-.42c0-.42.29-.62.29-1.68-.89.43-1.05,1.17-1.51,1.17-.22,0-.38-.15-.38-.41s.15-.39.67-.5c.47-.1.84-.22,1.14-.42-.32-.2-.68-.33-1.13-.42-.52-.1-.68-.23-.68-.5s.17-.41.38-.41c.46,0,.65.76,1.51,1.17,0-1.03-.29-1.28-.29-1.68,0-.25.19-.42.4-.42s.4.17.4.42c0,.44-.29.58-.29,1.68Z"/>
        <path class="cls-1" d="M75.68,63.25c.84-.4,1.07-1.17,1.51-1.17.22,0,.39.15.39.41,0,.31-.23.4-.67.5-.58.13-.8.21-1.14.42.96.58,1.82.32,1.82.91,0,.25-.17.41-.39.41-.44,0-.67-.77-1.51-1.17,0,1.03.29,1.3.29,1.68,0,.25-.19.42-.4.42s-.4-.17-.4-.42c0-.42.29-.62.29-1.68-.89.43-1.04,1.17-1.51,1.17-.22,0-.38-.15-.38-.41s.15-.39.67-.5c.47-.1.84-.22,1.14-.42-.32-.2-.68-.33-1.13-.42-.52-.1-.68-.23-.68-.5s.17-.41.38-.41c.46,0,.65.76,1.51,1.17,0-1.03-.29-1.28-.29-1.68,0-.25.19-.42.4-.42s.4.17.4.42c0,.44-.29.58-.29,1.68Z"/>
        <path class="cls-1" d="M82.95,63.25c.84-.4,1.07-1.17,1.51-1.17.22,0,.39.15.39.41,0,.31-.23.4-.67.5-.58.13-.8.21-1.14.42.96.58,1.82.32,1.82.91,0,.25-.17.41-.39.41-.44,0-.67-.77-1.51-1.17,0,1.03.29,1.3.29,1.68,0,.25-.19.42-.4.42s-.4-.17-.4-.42c0-.42.29-.62.29-1.68-.89.43-1.04,1.17-1.51,1.17-.22,0-.38-.15-.38-.41s.15-.39.67-.5c.47-.1.84-.22,1.14-.42-.32-.2-.68-.33-1.13-.42-.52-.1-.68-.23-.68-.5s.17-.41.38-.41c.46,0,.65.76,1.51,1.17,0-1.03-.29-1.28-.29-1.68,0-.25.19-.42.4-.42s.4.17.4.42c0,.44-.29.58-.29,1.68Z"/>
        <path class="cls-1" d="M90.22,63.25c.84-.4,1.07-1.17,1.51-1.17.22,0,.39.15.39.41,0,.31-.23.4-.67.5-.58.13-.8.21-1.14.42.96.58,1.82.32,1.82.91,0,.25-.17.41-.39.41-.44,0-.67-.77-1.51-1.17,0,1.03.29,1.3.29,1.68,0,.25-.19.42-.4.42s-.4-.17-.4-.42c0-.42.29-.62.29-1.68-.89.43-1.04,1.17-1.51,1.17-.22,0-.38-.15-.38-.41s.15-.39.67-.5c.47-.1.84-.22,1.14-.42-.32-.2-.68-.33-1.13-.42-.52-.1-.68-.23-.68-.5s.17-.41.38-.41c.46,0,.65.76,1.51,1.17,0-1.03-.29-1.28-.29-1.68,0-.25.19-.42.4-.42s.4.17.4.42c0,.44-.29.58-.29,1.68Z"/>
        <path class="cls-1" d="M97.5,63.25c.84-.4,1.07-1.17,1.51-1.17.22,0,.39.15.39.41,0,.31-.23.4-.67.5-.58.13-.8.21-1.14.42.96.58,1.82.32,1.82.91,0,.25-.17.41-.39.41-.44,0-.67-.77-1.51-1.17,0,1.03.29,1.3.29,1.68,0,.25-.19.42-.4.42s-.4-.17-.4-.42c0-.42.29-.62.29-1.68-.89.43-1.04,1.17-1.51,1.17-.22,0-.38-.15-.38-.41s.15-.39.67-.5c.47-.1.84-.22,1.14-.42-.32-.2-.68-.33-1.13-.42-.52-.1-.68-.23-.68-.5s.17-.41.38-.41c.46,0,.65.76,1.51,1.17,0-1.03-.29-1.28-.29-1.68,0-.25.19-.42.4-.42s.4.17.4.42c0,.44-.29.58-.29,1.68Z"/>
        <path class="cls-1" d="M104.77,63.25c.84-.4,1.07-1.17,1.51-1.17.22,0,.39.15.39.41,0,.31-.23.4-.67.5-.58.13-.8.21-1.14.42.96.58,1.82.32,1.82.91,0,.25-.17.41-.39.41-.44,0-.67-.77-1.51-1.17,0,1.03.29,1.3.29,1.68,0,.25-.19.42-.4.42s-.4-.17-.4-.42c0-.42.29-.62.29-1.68-.89.43-1.04,1.17-1.51,1.17-.22,0-.38-.15-.38-.41s.15-.39.67-.5c.47-.1.84-.22,1.14-.42-.32-.2-.68-.33-1.13-.42-.52-.1-.68-.23-.68-.5s.17-.41.38-.41c.46,0,.65.76,1.51,1.17,0-1.03-.29-1.28-.29-1.68,0-.25.19-.42.4-.42s.4.17.4.42c0,.44-.29.58-.29,1.68Z"/>
        <path class="cls-1" d="M112.04,63.25c.84-.4,1.07-1.17,1.51-1.17.22,0,.39.15.39.41,0,.31-.23.4-.67.5-.58.13-.8.21-1.14.42.96.58,1.82.32,1.82.91,0,.25-.17.41-.39.41-.44,0-.67-.77-1.51-1.17,0,1.03.29,1.3.29,1.68,0,.25-.19.42-.4.42s-.4-.17-.4-.42c0-.42.29-.62.29-1.68-.89.43-1.04,1.17-1.51,1.17-.22,0-.38-.15-.38-.41s.15-.39.67-.5c.47-.1.84-.22,1.14-.42-.32-.2-.68-.33-1.13-.42-.52-.1-.68-.23-.68-.5s.17-.41.38-.41c.46,0,.65.76,1.51,1.17,0-1.03-.29-1.28-.29-1.68,0-.25.19-.42.4-.42s.4.17.4.42c0,.44-.29.58-.29,1.68Z"/>
        <path class="cls-1" d="M119.31,63.25c.84-.4,1.07-1.17,1.51-1.17.22,0,.39.15.39.41,0,.31-.23.4-.67.5-.58.13-.8.21-1.14.42.96.58,1.82.32,1.82.91,0,.25-.17.41-.39.41-.44,0-.67-.77-1.51-1.17,0,1.03.29,1.3.29,1.68,0,.25-.19.42-.4.42s-.4-.17-.4-.42c0-.42.29-.62.29-1.68-.89.43-1.04,1.17-1.51,1.17-.22,0-.38-.15-.38-.41s.15-.39.67-.5c.47-.1.84-.22,1.14-.42-.32-.2-.68-.33-1.13-.42-.52-.1-.68-.23-.68-.5s.17-.41.38-.41c.46,0,.65.76,1.51,1.17,0-1.03-.29-1.28-.29-1.68,0-.25.19-.42.4-.42s.4.17.4.42c0,.44-.29.58-.29,1.68Z"/>
        <path class="cls-1" d="M126.58,63.25c.84-.4,1.07-1.17,1.51-1.17.22,0,.39.15.39.41,0,.31-.23.4-.67.5-.58.13-.8.21-1.14.42.96.58,1.82.32,1.82.91,0,.25-.17.41-.39.41-.44,0-.67-.77-1.51-1.17,0,1.03.29,1.3.29,1.68,0,.25-.19.42-.4.42s-.4-.17-.4-.42c0-.42.29-.62.29-1.68-.89.43-1.04,1.17-1.51,1.17-.22,0-.38-.15-.38-.41s.15-.39.67-.5c.47-.1.84-.22,1.14-.42-.32-.2-.68-.33-1.13-.42-.52-.1-.68-.23-.68-.5s.17-.41.38-.41c.46,0,.65.76,1.51,1.17,0-1.03-.29-1.28-.29-1.68,0-.25.19-.42.4-.42s.4.17.4.42c0,.44-.29.58-.29,1.68Z"/>
        <path class="cls-1" d="M133.85,63.25c.84-.4,1.07-1.17,1.51-1.17.22,0,.39.15.39.41,0,.31-.23.4-.67.5-.58.13-.8.21-1.14.42.96.58,1.82.32,1.82.91,0,.25-.17.41-.39.41-.44,0-.67-.77-1.51-1.17,0,1.03.29,1.3.29,1.68,0,.25-.19.42-.4.42s-.4-.17-.4-.42c0-.42.29-.62.29-1.68-.89.43-1.04,1.17-1.51,1.17-.22,0-.38-.15-.38-.41s.15-.39.67-.5c.47-.1.84-.22,1.14-.42-.32-.2-.68-.33-1.13-.42-.52-.1-.68-.23-.68-.5s.17-.41.38-.41c.46,0,.65.76,1.51,1.17,0-1.03-.29-1.28-.29-1.68,0-.25.19-.42.4-.42s.4.17.4.42c0,.44-.29.58-.29,1.68Z"/>
        <path class="cls-1" d="M141.12,63.25c.84-.4,1.07-1.17,1.51-1.17.22,0,.39.15.39.41,0,.31-.23.4-.67.5-.58.13-.8.21-1.14.42.96.58,1.82.32,1.82.91,0,.25-.17.41-.39.41-.44,0-.67-.77-1.51-1.17,0,1.03.29,1.3.29,1.68,0,.25-.19.42-.4.42s-.4-.17-.4-.42c0-.42.29-.62.29-1.68-.89.43-1.04,1.17-1.51,1.17-.22,0-.38-.15-.38-.41s.15-.39.67-.5c.47-.1.84-.22,1.14-.42-.32-.2-.68-.33-1.13-.42-.52-.1-.68-.23-.68-.5s.17-.41.38-.41c.46,0,.65.76,1.51,1.17,0-1.03-.29-1.28-.29-1.68,0-.25.19-.42.4-.42s.4.17.4.42c0,.44-.29.58-.29,1.68Z"/>
        <path class="cls-1" d="M148.39,63.25c.84-.4,1.07-1.17,1.51-1.17.22,0,.39.15.39.41,0,.31-.23.4-.67.5-.58.13-.8.21-1.14.42.96.58,1.82.32,1.82.91,0,.25-.17.41-.39.41-.44,0-.67-.77-1.51-1.17,0,1.03.29,1.3.29,1.68,0,.25-.19.42-.4.42s-.4-.17-.4-.42c0-.42.29-.62.29-1.68-.89.43-1.04,1.17-1.51,1.17-.22,0-.38-.15-.38-.41s.15-.39.67-.5c.47-.1.84-.22,1.14-.42-.32-.2-.68-.33-1.13-.42-.52-.1-.68-.23-.68-.5s.17-.41.38-.41c.46,0,.65.76,1.51,1.17,0-1.03-.29-1.28-.29-1.68,0-.25.19-.42.4-.42s.4.17.4.42c0,.44-.29.58-.29,1.68Z"/>
        <path class="cls-1" d="M155.66,63.25c.84-.4,1.07-1.17,1.51-1.17.22,0,.39.15.39.41,0,.31-.23.4-.67.5-.58.13-.8.21-1.14.42.96.58,1.82.32,1.82.91,0,.25-.17.41-.39.41-.44,0-.67-.77-1.51-1.17,0,1.03.29,1.3.29,1.68,0,.25-.19.42-.4.42s-.4-.17-.4-.42c0-.42.29-.62.29-1.68-.89.43-1.04,1.17-1.51,1.17-.22,0-.38-.15-.38-.41s.15-.39.67-.5c.47-.1.84-.22,1.14-.42-.32-.2-.68-.33-1.13-.42-.52-.1-.68-.23-.68-.5s.17-.41.38-.41c.46,0,.65.76,1.51,1.17,0-1.03-.29-1.28-.29-1.68,0-.25.19-.42.4-.42s.4.17.4.42c0,.44-.29.58-.29,1.68Z"/>
        <path class="cls-1" d="M162.93,63.25c.84-.4,1.07-1.17,1.51-1.17.22,0,.39.15.39.41,0,.31-.23.4-.67.5-.58.13-.8.21-1.14.42.96.58,1.82.32,1.82.91,0,.25-.17.41-.39.41-.44,0-.67-.77-1.51-1.17,0,1.03.29,1.3.29,1.68,0,.25-.19.42-.4.42s-.4-.17-.4-.42c0-.42.29-.62.29-1.68-.89.43-1.04,1.17-1.51,1.17-.22,0-.38-.15-.38-.41s.15-.39.67-.5c.47-.1.84-.22,1.14-.42-.32-.2-.68-.33-1.13-.42-.52-.1-.68-.23-.68-.5s.17-.41.38-.41c.46,0,.65.76,1.51,1.17,0-1.03-.29-1.28-.29-1.68,0-.25.19-.42.4-.42s.4.17.4.42c0,.44-.29.58-.29,1.68Z"/>
        <path class="cls-1" d="M170.21,63.25c.84-.4,1.07-1.17,1.51-1.17.22,0,.39.15.39.41,0,.31-.23.4-.67.5-.58.13-.8.21-1.14.42.96.58,1.82.32,1.82.91,0,.25-.17.41-.39.41-.44,0-.67-.77-1.51-1.17,0,1.03.29,1.3.29,1.68,0,.25-.19.42-.4.42s-.4-.17-.4-.42c0-.42.29-.62.29-1.68-.89.43-1.04,1.17-1.51,1.17-.22,0-.38-.15-.38-.41s.15-.39.67-.5c.47-.1.84-.22,1.14-.42-.32-.2-.68-.33-1.13-.42-.52-.1-.68-.23-.68-.5s.17-.41.38-.41c.46,0,.65.76,1.51,1.17,0-1.03-.29-1.28-.29-1.68,0-.25.19-.42.4-.42s.4.17.4.42c0,.44-.29.58-.29,1.68Z"/>
        <path class="cls-1" d="M177.48,63.25c.84-.4,1.07-1.17,1.51-1.17.22,0,.39.15.39.41,0,.31-.23.4-.67.5-.58.13-.8.21-1.14.42.96.58,1.82.32,1.82.91,0,.25-.17.41-.39.41-.44,0-.67-.77-1.51-1.17,0,1.03.29,1.3.29,1.68,0,.25-.19.42-.4.42s-.4-.17-.4-.42c0-.42.29-.62.29-1.68-.89.43-1.04,1.17-1.51,1.17-.22,0-.38-.15-.38-.41s.15-.39.67-.5c.47-.1.84-.22,1.14-.42-.32-.2-.68-.33-1.13-.42-.52-.1-.68-.23-.68-.5s.17-.41.38-.41c.46,0,.65.76,1.51,1.17,0-1.03-.29-1.28-.29-1.68,0-.25.19-.42.4-.42s.4.17.4.42c0,.44-.29.58-.29,1.68Z"/>
        <path class="cls-1" d="M184.75,63.25c.84-.4,1.07-1.17,1.51-1.17.22,0,.39.15.39.41,0,.31-.23.4-.67.5-.58.13-.8.21-1.14.42.96.58,1.82.32,1.82.91,0,.25-.17.41-.39.41-.44,0-.67-.77-1.51-1.17,0,1.03.29,1.3.29,1.68,0,.25-.19.42-.4.42s-.4-.17-.4-.42c0-.42.29-.62.29-1.68-.89.43-1.04,1.17-1.51,1.17-.22,0-.38-.15-.38-.41s.15-.39.67-.5c.47-.1.84-.22,1.14-.42-.32-.2-.68-.33-1.13-.42-.52-.1-.68-.23-.68-.5s.17-.41.38-.41c.46,0,.65.76,1.51,1.17,0-1.03-.29-1.28-.29-1.68,0-.25.19-.42.4-.42s.4.17.4.42c0,.44-.29.58-.29,1.68Z"/>
      </g>
    </g>
    <g>
      <path class="cls-1" d="M2.97,147.46c.84-.4,1.07-1.17,1.51-1.17.22,0,.38.15.38.41,0,.31-.23.4-.67.5-.58.13-.8.21-1.14.42.96.58,1.82.32,1.82.91,0,.25-.17.41-.38.41-.44,0-.67-.77-1.51-1.17,0,1.03.29,1.3.29,1.68,0,.25-.19.42-.4.42s-.4-.17-.4-.42c0-.42.29-.62.29-1.68-.89.43-1.04,1.17-1.51,1.17-.22,0-.39-.15-.39-.41s.15-.39.67-.5c.47-.1.84-.22,1.14-.42-.32-.2-.68-.33-1.13-.42-.52-.1-.68-.23-.68-.5s.17-.41.39-.41c.46,0,.65.76,1.51,1.17,0-1.03-.29-1.28-.29-1.68,0-.25.19-.42.4-.42s.4.17.4.42c0,.44-.29.58-.29,1.68Z"/>
      <path class="cls-1" d="M10.24,147.46c.84-.4,1.07-1.17,1.51-1.17.22,0,.39.15.39.41,0,.31-.23.4-.67.5-.58.13-.8.21-1.14.42.96.58,1.82.32,1.82.91,0,.25-.17.41-.39.41-.44,0-.67-.77-1.51-1.17,0,1.03.29,1.3.29,1.68,0,.25-.19.42-.4.42s-.4-.17-.4-.42c0-.42.29-.62.29-1.68-.89.43-1.05,1.17-1.51,1.17-.22,0-.38-.15-.38-.41s.15-.39.67-.5c.47-.1.84-.22,1.14-.42-.32-.2-.68-.33-1.13-.42-.52-.1-.68-.23-.68-.5s.17-.41.38-.41c.46,0,.65.76,1.51,1.17,0-1.03-.29-1.28-.29-1.68,0-.25.19-.42.4-.42s.4.17.4.42c0,.44-.29.58-.29,1.68Z"/>
      <path class="cls-1" d="M17.51,147.46c.84-.4,1.07-1.17,1.51-1.17.22,0,.38.15.38.41,0,.31-.23.4-.67.5-.58.13-.8.21-1.14.42.96.58,1.82.32,1.82.91,0,.25-.17.41-.38.41-.44,0-.67-.77-1.51-1.17,0,1.03.29,1.3.29,1.68,0,.25-.19.42-.4.42s-.4-.17-.4-.42c0-.42.29-.62.29-1.68-.89.43-1.04,1.17-1.51,1.17-.22,0-.39-.15-.39-.41s.15-.39.67-.5c.47-.1.84-.22,1.14-.42-.32-.2-.68-.33-1.13-.42-.52-.1-.68-.23-.68-.5s.17-.41.39-.41c.46,0,.65.76,1.51,1.17,0-1.03-.29-1.28-.29-1.68,0-.25.19-.42.4-.42s.4.17.4.42c0,.44-.29.58-.29,1.68Z"/>
      <path class="cls-1" d="M24.79,147.46c.84-.4,1.07-1.17,1.51-1.17.22,0,.39.15.39.41,0,.31-.23.4-.67.5-.58.13-.8.21-1.14.42.96.58,1.82.32,1.82.91,0,.25-.17.41-.39.41-.44,0-.67-.77-1.51-1.17,0,1.03.29,1.3.29,1.68,0,.25-.19.42-.4.42s-.4-.17-.4-.42c0-.42.29-.62.29-1.68-.89.43-1.05,1.17-1.51,1.17-.22,0-.38-.15-.38-.41s.15-.39.67-.5c.47-.1.84-.22,1.14-.42-.32-.2-.68-.33-1.13-.42-.52-.1-.68-.23-.68-.5s.17-.41.38-.41c.46,0,.65.76,1.51,1.17,0-1.03-.29-1.28-.29-1.68,0-.25.19-.42.4-.42s.4.17.4.42c0,.44-.29.58-.29,1.68Z"/>
      <path class="cls-1" d="M32.06,147.46c.84-.4,1.07-1.17,1.51-1.17.22,0,.38.15.38.41,0,.31-.23.4-.67.5-.58.13-.8.21-1.14.42.96.58,1.82.32,1.82.91,0,.25-.17.41-.38.41-.44,0-.67-.77-1.51-1.17,0,1.03.29,1.3.29,1.68,0,.25-.19.42-.4.42s-.4-.17-.4-.42c0-.42.29-.62.29-1.68-.89.43-1.04,1.17-1.51,1.17-.22,0-.39-.15-.39-.41s.15-.39.67-.5c.47-.1.84-.22,1.14-.42-.32-.2-.68-.33-1.13-.42-.52-.1-.68-.23-.68-.5s.17-.41.39-.41c.46,0,.65.76,1.51,1.17,0-1.03-.29-1.28-.29-1.68,0-.25.19-.42.4-.42s.4.17.4.42c0,.44-.29.58-.29,1.68Z"/>
      <path class="cls-1" d="M39.33,147.46c.84-.4,1.07-1.17,1.51-1.17.22,0,.39.15.39.41,0,.31-.23.4-.67.5-.58.13-.8.21-1.14.42.96.58,1.82.32,1.82.91,0,.25-.17.41-.39.41-.44,0-.67-.77-1.51-1.17,0,1.03.29,1.3.29,1.68,0,.25-.19.42-.4.42s-.4-.17-.4-.42c0-.42.29-.62.29-1.68-.89.43-1.05,1.17-1.51,1.17-.22,0-.38-.15-.38-.41s.15-.39.67-.5c.47-.1.84-.22,1.14-.42-.32-.2-.68-.33-1.13-.42-.52-.1-.68-.23-.68-.5s.17-.41.38-.41c.46,0,.65.76,1.51,1.17,0-1.03-.29-1.28-.29-1.68,0-.25.19-.42.4-.42s.4.17.4.42c0,.44-.29.58-.29,1.68Z"/>
      <path class="cls-1" d="M46.6,147.46c.84-.4,1.07-1.17,1.51-1.17.22,0,.38.15.38.41,0,.31-.23.4-.67.5-.58.13-.8.21-1.14.42.96.58,1.82.32,1.82.91,0,.25-.17.41-.38.41-.44,0-.67-.77-1.51-1.17,0,1.03.29,1.3.29,1.68,0,.25-.19.42-.4.42s-.4-.17-.4-.42c0-.42.29-.62.29-1.68-.89.43-1.04,1.17-1.51,1.17-.22,0-.39-.15-.39-.41s.15-.39.67-.5c.47-.1.84-.22,1.14-.42-.32-.2-.68-.33-1.13-.42-.52-.1-.68-.23-.68-.5s.17-.41.39-.41c.46,0,.65.76,1.51,1.17,0-1.03-.29-1.28-.29-1.68,0-.25.19-.42.4-.42s.4.17.4.42c0,.44-.29.58-.29,1.68Z"/>
      <path class="cls-1" d="M53.87,147.46c.84-.4,1.07-1.17,1.51-1.17.22,0,.39.15.39.41,0,.31-.23.4-.67.5-.58.13-.8.21-1.14.42.96.58,1.82.32,1.82.91,0,.25-.17.41-.39.41-.44,0-.67-.77-1.51-1.17,0,1.03.29,1.3.29,1.68,0,.25-.19.42-.4.42s-.4-.17-.4-.42c0-.42.29-.62.29-1.68-.89.43-1.05,1.17-1.51,1.17-.22,0-.38-.15-.38-.41s.15-.39.67-.5c.47-.1.84-.22,1.14-.42-.32-.2-.68-.33-1.13-.42-.52-.1-.68-.23-.68-.5s.17-.41.38-.41c.46,0,.65.76,1.51,1.17,0-1.03-.29-1.28-.29-1.68,0-.25.19-.42.4-.42s.4.17.4.42c0,.44-.29.58-.29,1.68Z"/>
      <path class="cls-1" d="M61.14,147.46c.84-.4,1.07-1.17,1.51-1.17.22,0,.38.15.38.41,0,.31-.23.4-.67.5-.58.13-.8.21-1.14.42.96.58,1.82.32,1.82.91,0,.25-.17.41-.38.41-.44,0-.67-.77-1.51-1.17,0,1.03.29,1.3.29,1.68,0,.25-.19.42-.4.42s-.4-.17-.4-.42c0-.42.29-.62.29-1.68-.89.43-1.04,1.17-1.51,1.17-.22,0-.39-.15-.39-.41s.15-.39.67-.5c.47-.1.84-.22,1.14-.42-.32-.2-.68-.33-1.13-.42-.52-.1-.68-.23-.68-.5s.17-.41.39-.41c.46,0,.65.76,1.51,1.17,0-1.03-.29-1.28-.29-1.68,0-.25.19-.42.4-.42s.4.17.4.42c0,.44-.29.58-.29,1.68Z"/>
      <path class="cls-1" d="M68.41,147.46c.84-.4,1.07-1.17,1.51-1.17.22,0,.39.15.39.41,0,.31-.23.4-.67.5-.58.13-.8.21-1.14.42.96.58,1.82.32,1.82.91,0,.25-.17.41-.39.41-.44,0-.67-.77-1.51-1.17,0,1.03.29,1.3.29,1.68,0,.25-.19.42-.4.42s-.4-.17-.4-.42c0-.42.29-.62.29-1.68-.89.43-1.05,1.17-1.51,1.17-.22,0-.38-.15-.38-.41s.15-.39.67-.5c.47-.1.84-.22,1.14-.42-.32-.2-.68-.33-1.13-.42-.52-.1-.68-.23-.68-.5s.17-.41.38-.41c.46,0,.65.76,1.51,1.17,0-1.03-.29-1.28-.29-1.68,0-.25.19-.42.4-.42s.4.17.4.42c0,.44-.29.58-.29,1.68Z"/>
      <path class="cls-1" d="M75.68,147.46c.84-.4,1.07-1.17,1.51-1.17.22,0,.39.15.39.41,0,.31-.23.4-.67.5-.58.13-.8.21-1.14.42.96.58,1.82.32,1.82.91,0,.25-.17.41-.39.41-.44,0-.67-.77-1.51-1.17,0,1.03.29,1.3.29,1.68,0,.25-.19.42-.4.42s-.4-.17-.4-.42c0-.42.29-.62.29-1.68-.89.43-1.04,1.17-1.51,1.17-.22,0-.38-.15-.38-.41s.15-.39.67-.5c.47-.1.84-.22,1.14-.42-.32-.2-.68-.33-1.13-.42-.52-.1-.68-.23-.68-.5s.17-.41.38-.41c.46,0,.65.76,1.51,1.17,0-1.03-.29-1.28-.29-1.68,0-.25.19-.42.4-.42s.4.17.4.42c0,.44-.29.58-.29,1.68Z"/>
      <path class="cls-1" d="M82.95,147.46c.84-.4,1.07-1.17,1.51-1.17.22,0,.39.15.39.41,0,.31-.23.4-.67.5-.58.13-.8.21-1.14.42.96.58,1.82.32,1.82.91,0,.25-.17.41-.39.41-.44,0-.67-.77-1.51-1.17,0,1.03.29,1.3.29,1.68,0,.25-.19.42-.4.42s-.4-.17-.4-.42c0-.42.29-.62.29-1.68-.89.43-1.04,1.17-1.51,1.17-.22,0-.38-.15-.38-.41s.15-.39.67-.5c.47-.1.84-.22,1.14-.42-.32-.2-.68-.33-1.13-.42-.52-.1-.68-.23-.68-.5s.17-.41.38-.41c.46,0,.65.76,1.51,1.17,0-1.03-.29-1.28-.29-1.68,0-.25.19-.42.4-.42s.4.17.4.42c0,.44-.29.58-.29,1.68Z"/>
      <path class="cls-1" d="M90.22,147.46c.84-.4,1.07-1.17,1.51-1.17.22,0,.39.15.39.41,0,.31-.23.4-.67.5-.58.13-.8.21-1.14.42.96.58,1.82.32,1.82.91,0,.25-.17.41-.39.41-.44,0-.67-.77-1.51-1.17,0,1.03.29,1.3.29,1.68,0,.25-.19.42-.4.42s-.4-.17-.4-.42c0-.42.29-.62.29-1.68-.89.43-1.04,1.17-1.51,1.17-.22,0-.38-.15-.38-.41s.15-.39.67-.5c.47-.1.84-.22,1.14-.42-.32-.2-.68-.33-1.13-.42-.52-.1-.68-.23-.68-.5s.17-.41.38-.41c.46,0,.65.76,1.51,1.17,0-1.03-.29-1.28-.29-1.68,0-.25.19-.42.4-.42s.4.17.4.42c0,.44-.29.58-.29,1.68Z"/>
      <path class="cls-1" d="M97.5,147.46c.84-.4,1.07-1.17,1.51-1.17.22,0,.39.15.39.41,0,.31-.23.4-.67.5-.58.13-.8.21-1.14.42.96.58,1.82.32,1.82.91,0,.25-.17.41-.39.41-.44,0-.67-.77-1.51-1.17,0,1.03.29,1.3.29,1.68,0,.25-.19.42-.4.42s-.4-.17-.4-.42c0-.42.29-.62.29-1.68-.89.43-1.04,1.17-1.51,1.17-.22,0-.38-.15-.38-.41s.15-.39.67-.5c.47-.1.84-.22,1.14-.42-.32-.2-.68-.33-1.13-.42-.52-.1-.68-.23-.68-.5s.17-.41.38-.41c.46,0,.65.76,1.51,1.17,0-1.03-.29-1.28-.29-1.68,0-.25.19-.42.4-.42s.4.17.4.42c0,.44-.29.58-.29,1.68Z"/>
      <path class="cls-1" d="M104.77,147.46c.84-.4,1.07-1.17,1.51-1.17.22,0,.39.15.39.41,0,.31-.23.4-.67.5-.58.13-.8.21-1.14.42.96.58,1.82.32,1.82.91,0,.25-.17.41-.39.41-.44,0-.67-.77-1.51-1.17,0,1.03.29,1.3.29,1.68,0,.25-.19.42-.4.42s-.4-.17-.4-.42c0-.42.29-.62.29-1.68-.89.43-1.04,1.17-1.51,1.17-.22,0-.38-.15-.38-.41s.15-.39.67-.5c.47-.1.84-.22,1.14-.42-.32-.2-.68-.33-1.13-.42-.52-.1-.68-.23-.68-.5s.17-.41.38-.41c.46,0,.65.76,1.51,1.17,0-1.03-.29-1.28-.29-1.68,0-.25.19-.42.4-.42s.4.17.4.42c0,.44-.29.58-.29,1.68Z"/>
      <path class="cls-1" d="M112.04,147.46c.84-.4,1.07-1.17,1.51-1.17.22,0,.39.15.39.41,0,.31-.23.4-.67.5-.58.13-.8.21-1.14.42.96.58,1.82.32,1.82.91,0,.25-.17.41-.39.41-.44,0-.67-.77-1.51-1.17,0,1.03.29,1.3.29,1.68,0,.25-.19.42-.4.42s-.4-.17-.4-.42c0-.42.29-.62.29-1.68-.89.43-1.04,1.17-1.51,1.17-.22,0-.38-.15-.38-.41s.15-.39.67-.5c.47-.1.84-.22,1.14-.42-.32-.2-.68-.33-1.13-.42-.52-.1-.68-.23-.68-.5s.17-.41.38-.41c.46,0,.65.76,1.51,1.17,0-1.03-.29-1.28-.29-1.68,0-.25.19-.42.4-.42s.4.17.4.42c0,.44-.29.58-.29,1.68Z"/>
      <path class="cls-1" d="M119.31,147.46c.84-.4,1.07-1.17,1.51-1.17.22,0,.39.15.39.41,0,.31-.23.4-.67.5-.58.13-.8.21-1.14.42.96.58,1.82.32,1.82.91,0,.25-.17.41-.39.41-.44,0-.67-.77-1.51-1.17,0,1.03.29,1.3.29,1.68,0,.25-.19.42-.4.42s-.4-.17-.4-.42c0-.42.29-.62.29-1.68-.89.43-1.04,1.17-1.51,1.17-.22,0-.38-.15-.38-.41s.15-.39.67-.5c.47-.1.84-.22,1.14-.42-.32-.2-.68-.33-1.13-.42-.52-.1-.68-.23-.68-.5s.17-.41.38-.41c.46,0,.65.76,1.51,1.17,0-1.03-.29-1.28-.29-1.68,0-.25.19-.42.4-.42s.4.17.4.42c0,.44-.29.58-.29,1.68Z"/>
      <path class="cls-1" d="M126.58,147.46c.84-.4,1.07-1.17,1.51-1.17.22,0,.39.15.39.41,0,.31-.23.4-.67.5-.58.13-.8.21-1.14.42.96.58,1.82.32,1.82.91,0,.25-.17.41-.39.41-.44,0-.67-.77-1.51-1.17,0,1.03.29,1.3.29,1.68,0,.25-.19.42-.4.42s-.4-.17-.4-.42c0-.42.29-.62.29-1.68-.89.43-1.04,1.17-1.51,1.17-.22,0-.38-.15-.38-.41s.15-.39.67-.5c.47-.1.84-.22,1.14-.42-.32-.2-.68-.33-1.13-.42-.52-.1-.68-.23-.68-.5s.17-.41.38-.41c.46,0,.65.76,1.51,1.17,0-1.03-.29-1.28-.29-1.68,0-.25.19-.42.4-.42s.4.17.4.42c0,.44-.29.58-.29,1.68Z"/>
      <path class="cls-1" d="M133.85,147.46c.84-.4,1.07-1.17,1.51-1.17.22,0,.39.15.39.41,0,.31-.23.4-.67.5-.58.13-.8.21-1.14.42.96.58,1.82.32,1.82.91,0,.25-.17.41-.39.41-.44,0-.67-.77-1.51-1.17,0,1.03.29,1.3.29,1.68,0,.25-.19.42-.4.42s-.4-.17-.4-.42c0-.42.29-.62.29-1.68-.89.43-1.04,1.17-1.51,1.17-.22,0-.38-.15-.38-.41s.15-.39.67-.5c.47-.1.84-.22,1.14-.42-.32-.2-.68-.33-1.13-.42-.52-.1-.68-.23-.68-.5s.17-.41.38-.41c.46,0,.65.76,1.51,1.17,0-1.03-.29-1.28-.29-1.68,0-.25.19-.42.4-.42s.4.17.4.42c0,.44-.29.58-.29,1.68Z"/>
      <path class="cls-1" d="M141.12,147.46c.84-.4,1.07-1.17,1.51-1.17.22,0,.39.15.39.41,0,.31-.23.4-.67.5-.58.13-.8.21-1.14.42.96.58,1.82.32,1.82.91,0,.25-.17.41-.39.41-.44,0-.67-.77-1.51-1.17,0,1.03.29,1.3.29,1.68,0,.25-.19.42-.4.42s-.4-.17-.4-.42c0-.42.29-.62.29-1.68-.89.43-1.04,1.17-1.51,1.17-.22,0-.38-.15-.38-.41s.15-.39.67-.5c.47-.1.84-.22,1.14-.42-.32-.2-.68-.33-1.13-.42-.52-.1-.68-.23-.68-.5s.17-.41.38-.41c.46,0,.65.76,1.51,1.17,0-1.03-.29-1.28-.29-1.68,0-.25.19-.42.4-.42s.4.17.4.42c0,.44-.29.58-.29,1.68Z"/>
      <path class="cls-1" d="M148.39,147.46c.84-.4,1.07-1.17,1.51-1.17.22,0,.39.15.39.41,0,.31-.23.4-.67.5-.58.13-.8.21-1.14.42.96.58,1.82.32,1.82.91,0,.25-.17.41-.39.41-.44,0-.67-.77-1.51-1.17,0,1.03.29,1.3.29,1.68,0,.25-.19.42-.4.42s-.4-.17-.4-.42c0-.42.29-.62.29-1.68-.89.43-1.04,1.17-1.51,1.17-.22,0-.38-.15-.38-.41s.15-.39.67-.5c.47-.1.84-.22,1.14-.42-.32-.2-.68-.33-1.13-.42-.52-.1-.68-.23-.68-.5s.17-.41.38-.41c.46,0,.65.76,1.51,1.17,0-1.03-.29-1.28-.29-1.68,0-.25.19-.42.4-.42s.4.17.4.42c0,.44-.29.58-.29,1.68Z"/>
      <path class="cls-1" d="M155.66,147.46c.84-.4,1.07-1.17,1.51-1.17.22,0,.39.15.39.41,0,.31-.23.4-.67.5-.58.13-.8.21-1.14.42.96.58,1.82.32,1.82.91,0,.25-.17.41-.39.41-.44,0-.67-.77-1.51-1.17,0,1.03.29,1.3.29,1.68,0,.25-.19.42-.4.42s-.4-.17-.4-.42c0-.42.29-.62.29-1.68-.89.43-1.04,1.17-1.51,1.17-.22,0-.38-.15-.38-.41s.15-.39.67-.5c.47-.1.84-.22,1.14-.42-.32-.2-.68-.33-1.13-.42-.52-.1-.68-.23-.68-.5s.17-.41.38-.41c.46,0,.65.76,1.51,1.17,0-1.03-.29-1.28-.29-1.68,0-.25.19-.42.4-.42s.4.17.4.42c0,.44-.29.58-.29,1.68Z"/>
      <path class="cls-1" d="M162.93,147.46c.84-.4,1.07-1.17,1.51-1.17.22,0,.39.15.39.41,0,.31-.23.4-.67.5-.58.13-.8.21-1.14.42.96.58,1.82.32,1.82.91,0,.25-.17.41-.39.41-.44,0-.67-.77-1.51-1.17,0,1.03.29,1.3.29,1.68,0,.25-.19.42-.4.42s-.4-.17-.4-.42c0-.42.29-.62.29-1.68-.89.43-1.04,1.17-1.51,1.17-.22,0-.38-.15-.38-.41s.15-.39.67-.5c.47-.1.84-.22,1.14-.42-.32-.2-.68-.33-1.13-.42-.52-.1-.68-.23-.68-.5s.17-.41.38-.41c.46,0,.65.76,1.51,1.17,0-1.03-.29-1.28-.29-1.68,0-.25.19-.42.4-.42s.4.17.4.42c0,.44-.29.58-.29,1.68Z"/>
      <path class="cls-1" d="M170.21,147.46c.84-.4,1.07-1.17,1.51-1.17.22,0,.39.15.39.41,0,.31-.23.4-.67.5-.58.13-.8.21-1.14.42.96.58,1.82.32,1.82.91,0,.25-.17.41-.39.41-.44,0-.67-.77-1.51-1.17,0,1.03.29,1.3.29,1.68,0,.25-.19.42-.4.42s-.4-.17-.4-.42c0-.42.29-.62.29-1.68-.89.43-1.04,1.17-1.51,1.17-.22,0-.38-.15-.38-.41s.15-.39.67-.5c.47-.1.84-.22,1.14-.42-.32-.2-.68-.33-1.13-.42-.52-.1-.68-.23-.68-.5s.17-.41.38-.41c.46,0,.65.76,1.51,1.17,0-1.03-.29-1.28-.29-1.68,0-.25.19-.42.4-.42s.4.17.4.42c0,.44-.29.58-.29,1.68Z"/>
      <path class="cls-1" d="M177.48,147.46c.84-.4,1.07-1.17,1.51-1.17.22,0,.39.15.39.41,0,.31-.23.4-.67.5-.58.13-.8.21-1.14.42.96.58,1.82.32,1.82.91,0,.25-.17.41-.39.41-.44,0-.67-.77-1.51-1.17,0,1.03.29,1.3.29,1.68,0,.25-.19.42-.4.42s-.4-.17-.4-.42c0-.42.29-.62.29-1.68-.89.43-1.04,1.17-1.51,1.17-.22,0-.38-.15-.38-.41s.15-.39.67-.5c.47-.1.84-.22,1.14-.42-.32-.2-.68-.33-1.13-.42-.52-.1-.68-.23-.68-.5s.17-.41.38-.41c.46,0,.65.76,1.51,1.17,0-1.03-.29-1.28-.29-1.68,0-.25.19-.42.4-.42s.4.17.4.42c0,.44-.29.58-.29,1.68Z"/>
      <path class="cls-1" d="M184.75,147.46c.84-.4,1.07-1.17,1.51-1.17.22,0,.39.15.39.41,0,.31-.23.4-.67.5-.58.13-.8.21-1.14.42.96.58,1.82.32,1.82.91,0,.25-.17.41-.39.41-.44,0-.67-.77-1.51-1.17,0,1.03.29,1.3.29,1.68,0,.25-.19.42-.4.42s-.4-.17-.4-.42c0-.42.29-.62.29-1.68-.89.43-1.04,1.17-1.51,1.17-.22,0-.38-.15-.38-.41s.15-.39.67-.5c.47-.1.84-.22,1.14-.42-.32-.2-.68-.33-1.13-.42-.52-.1-.68-.23-.68-.5s.17-.41.38-.41c.46,0,.65.76,1.51,1.17,0-1.03-.29-1.28-.29-1.68,0-.25.19-.42.4-.42s.4.17.4.42c0,.44-.29.58-.29,1.68Z"/>
    </g>
    <g>
      <g>
        <path class="cls-1" d="M5.25,104.47c-.5.45-1.21.67-2.12.67H.72v-7.27h2.4c.92,0,1.63.24,2.13.73.5.49.75,1.19.75,2.11v1.74c0,.91-.25,1.58-.76,2.03ZM3.94,103.72c.22-.12.38-.3.47-.54.09-.24.14-.56.14-.95v-1.27c0-.59-.11-1.05-.34-1.38-.22-.33-.62-.49-1.18-.49h-.85v4.81h.85c.39,0,.69-.06.91-.18Z"/>
        <path class="cls-1" d="M6.79,102.26c.26-.28.59-.45.98-.52.39-.07.89-.11,1.49-.11h.85v-.38c0-.25-.1-.45-.31-.58-.2-.13-.44-.2-.7-.2-.31,0-.55.04-.73.11-.18.07-.31.23-.38.49h-1.34c.08-.61.34-1.05.77-1.34s.99-.43,1.67-.43c.74,0,1.33.17,1.75.52.43.35.64.9.64,1.65v3.67h-1.23l-.05-.56c-.23.28-.5.46-.8.55-.3.09-.66.14-1.08.14-.59,0-1.05-.15-1.4-.44-.34-.29-.52-.72-.52-1.3s.13-1,.4-1.28ZM10.11,102.76h-1.31c-.34,0-.6.05-.78.14-.18.09-.27.29-.27.6,0,.2.08.35.23.44s.35.13.58.13.48-.04.72-.13.43-.22.59-.4c.16-.18.24-.39.24-.64v-.14Z"/>
        <path class="cls-1" d="M14.29,97.62v1.97h1.07v1.18h-1.07v2.46c0,.25.03.44.09.56.06.12.15.2.26.23.11.03.28.05.5.05h.32v1.18h-.67c-.63,0-1.1-.14-1.41-.43-.31-.29-.47-.74-.47-1.35v-2.69h-.98v-1.18h.98v-1.97h1.39Z"/>
        <path class="cls-1" d="M20.08,104.85c-.46.28-1.01.42-1.66.42-.54,0-1.01-.1-1.42-.29-.41-.19-.73-.47-.95-.84-.23-.37-.34-.82-.34-1.35v-1.03c0-.52.11-.97.34-1.34.23-.37.54-.65.94-.85.4-.19.86-.29,1.38-.29s.98.1,1.38.29c.41.2.72.48.95.86.23.38.34.83.34,1.36v.89h-3.96c0,.47.1.82.31,1.05s.55.34,1.03.34c.62,0,.98-.2,1.06-.59h1.47c-.11.62-.39,1.07-.85,1.35ZM17.46,100.75c-.21.17-.34.45-.38.82h2.52c-.04-.38-.17-.65-.37-.82s-.5-.26-.88-.26-.68.09-.89.26Z"/>
        <path class="cls-1" d="M22.45,100.57v-1.57h1.67v1.57h-1.67ZM22.45,104.02v-1.58h1.67v1.58h-1.67Z"/>
        <path class="cls-1" d="M5.25,118.47c-.5.45-1.21.67-2.12.67H.72v-7.27h2.4c.92,0,1.63.24,2.13.73.5.49.75,1.19.75,2.11v1.74c0,.91-.25,1.58-.76,2.03ZM3.94,117.72c.22-.12.38-.3.47-.54.09-.24.14-.56.14-.95v-1.27c0-.59-.11-1.05-.34-1.38-.22-.33-.62-.49-1.18-.49h-.85v4.81h.85c.39,0,.69-.06.91-.18Z"/>
        <path class="cls-1" d="M10.88,118.85c-.46.28-1.01.42-1.66.42-.54,0-1.01-.1-1.42-.29-.41-.19-.73-.47-.95-.84-.23-.37-.34-.82-.34-1.35v-1.03c0-.52.11-.97.34-1.34.22-.37.54-.65.94-.85.4-.19.86-.29,1.38-.29s.98.1,1.38.29c.41.2.72.48.95.86.23.38.34.83.34,1.36v.89h-3.96c0,.47.1.82.31,1.05s.55.34,1.03.34c.62,0,.98-.2,1.06-.59h1.47c-.11.62-.39,1.07-.85,1.35ZM8.26,114.75c-.21.17-.34.45-.38.82h2.52c-.04-.38-.17-.65-.37-.82s-.5-.26-.88-.26-.68.09-.89.26Z"/>
        <path class="cls-1" d="M13.95,117.91c.2.12.46.18.8.18.32,0,.58-.04.8-.11.21-.07.32-.23.32-.49,0-.2-.18-.38-.54-.52-.36-.14-.82-.28-1.37-.41h-.05s0,0,0,0l-.45-.13c-.32-.11-.56-.28-.73-.51-.17-.23-.26-.52-.26-.86,0-.39.11-.72.32-.98.21-.26.49-.46.83-.59s.7-.19,1.08-.19c.69,0,1.26.15,1.71.46s.7.79.73,1.45h-1.34c-.1-.49-.46-.73-1.08-.73-.24,0-.45.04-.62.12s-.26.22-.26.43c0,.15.05.26.14.34.1.08.23.14.41.2.13.04.31.09.57.15l.11.03c.59.12,1.11.32,1.54.61.44.29.65.68.65,1.18,0,.68-.23,1.14-.68,1.37s-1.06.36-1.81.36-1.35-.16-1.8-.48c-.46-.32-.69-.83-.69-1.54h1.38c.01.31.12.53.31.65Z"/>
        <path class="cls-1" d="M19.32,117.91c.2.12.46.18.8.18.32,0,.58-.04.8-.11.21-.07.32-.23.32-.49,0-.2-.18-.38-.54-.52-.36-.14-.82-.28-1.37-.41h-.05s0,0,0,0l-.45-.13c-.32-.11-.56-.28-.73-.51-.17-.23-.26-.52-.26-.86,0-.39.11-.72.32-.98.21-.26.49-.46.83-.59s.7-.19,1.08-.19c.69,0,1.26.15,1.71.46s.7.79.73,1.45h-1.34c-.1-.49-.46-.73-1.08-.73-.24,0-.45.04-.62.12s-.26.22-.26.43c0,.15.05.26.14.34.1.08.23.14.41.2.13.04.31.09.57.15l.11.03c.59.12,1.11.32,1.54.61.44.29.65.68.65,1.18,0,.68-.23,1.14-.68,1.37s-1.06.36-1.81.36-1.35-.16-1.8-.48c-.46-.32-.69-.83-.69-1.54h1.38c.01.31.12.53.31.65Z"/>
        <path class="cls-1" d="M27.43,118.85c-.46.28-1.01.42-1.66.42-.54,0-1.01-.1-1.42-.29-.41-.19-.73-.47-.95-.84-.23-.37-.34-.82-.34-1.35v-1.03c0-.52.11-.97.34-1.34.23-.37.54-.65.94-.85.4-.19.86-.29,1.38-.29s.98.1,1.38.29c.41.2.72.48.95.86.23.38.34.83.34,1.36v.89h-3.96c0,.47.1.82.31,1.05s.55.34,1.03.34c.62,0,.98-.2,1.06-.59h1.47c-.11.62-.39,1.07-.85,1.35ZM24.81,114.75c-.21.17-.34.45-.38.82h2.52c-.04-.38-.17-.65-.37-.82s-.5-.26-.88-.26-.68.09-.89.26Z"/>
        <path class="cls-1" d="M32.68,113.43v1.35l-2.2.89v3.47h-1.4v-5.63h1.22l.12.74,2.26-.82Z"/>
        <path class="cls-1" d="M35.52,111.62v1.97h1.07v1.18h-1.07v2.46c0,.25.03.44.09.56.06.12.15.2.26.23.11.03.28.05.5.05h.32v1.18h-.68c-.63,0-1.1-.14-1.41-.43-.31-.29-.47-.74-.47-1.35v-2.69h-.98v-1.18h.98v-1.97h1.39Z"/>
        <path class="cls-1" d="M41.91,111.62v1.97h1.07v1.18h-1.07v2.46c0,.25.03.44.09.56.06.12.15.2.26.23.11.03.28.05.5.05h.32v1.18h-.67c-.63,0-1.1-.14-1.41-.43-.31-.29-.47-.74-.47-1.35v-2.69h-.98v-1.18h.98v-1.97h1.39Z"/>
        <path class="cls-1" d="M44.82,121.03l.77-2.22-2.23-5.3h1.48l1.38,3.51,1.18-3.51h1.48l-2.67,7.52h-1.38Z"/>
        <path class="cls-1" d="M49.43,113.51h1.25l.06.35c.19-.17.41-.31.64-.4.23-.09.48-.14.73-.14.78,0,1.39.22,1.84.65.44.43.67,1.04.67,1.82v1.02c0,.79-.22,1.4-.65,1.83-.43.43-1.03.64-1.79.64-.56,0-1.03-.13-1.39-.4v2.15h-1.36v-7.52ZM51.11,114.89c-.21.26-.32.61-.32,1.04v.68c0,.45.1.81.31,1.08.2.27.53.4.97.4.42,0,.72-.12.89-.36s.26-.59.26-1.03v-.81c0-.45-.09-.79-.26-1.03-.17-.24-.47-.36-.88-.36-.44,0-.76.13-.97.39Z"/>
        <path class="cls-1" d="M59.46,118.85c-.46.28-1.01.42-1.66.42-.54,0-1.01-.1-1.42-.29-.41-.19-.73-.47-.95-.84-.23-.37-.34-.82-.34-1.35v-1.03c0-.52.11-.97.34-1.34.22-.37.54-.65.94-.85.4-.19.86-.29,1.38-.29s.98.1,1.38.29c.41.2.72.48.95.86.23.38.34.83.34,1.36v.89h-3.96c0,.47.1.82.31,1.05s.55.34,1.03.34c.62,0,.98-.2,1.06-.59h1.47c-.11.62-.39,1.07-.85,1.35ZM56.84,114.75c-.21.17-.34.45-.38.82h2.52c-.04-.38-.17-.65-.37-.82s-.5-.26-.88-.26-.68.09-.89.26Z"/>
        <path class="cls-1" d="M61.84,114.57v-1.57h1.67v1.57h-1.67ZM61.84,118.02v-1.58h1.67v1.58h-1.67Z"/>
        <path class="cls-1" d="M4.87,132.85c-.46.28-1.01.42-1.66.42-.54,0-1.01-.1-1.42-.29-.41-.19-.73-.47-.95-.84-.23-.37-.34-.82-.34-1.35v-1.03c0-.52.11-.97.34-1.34.23-.37.54-.65.94-.85.4-.19.86-.29,1.38-.29s.98.1,1.38.29c.41.2.72.48.95.86.23.38.34.83.34,1.36v.89H1.86c0,.47.1.82.31,1.05s.55.34,1.03.34c.62,0,.98-.2,1.06-.59h1.47c-.11.62-.39,1.07-.85,1.35ZM2.25,128.75c-.21.17-.34.45-.38.82h2.52c-.04-.38-.17-.65-.37-.82s-.5-.26-.88-.26-.68.09-.89.26Z"/>
        <path class="cls-1" d="M6.44,129.04h3.35v1.23h-3.35v-1.23Z"/>
        <path class="cls-1" d="M12.56,127.53c.25-.14.52-.21.81-.21.34,0,.62.06.85.19.23.13.4.34.53.63.16-.25.38-.44.66-.59s.57-.23.86-.23c.6,0,1.03.17,1.3.52.26.35.4.83.4,1.44v3.86h-1.36v-3.59c0-.32-.04-.57-.13-.76s-.27-.28-.56-.28c-.31,0-.54.12-.7.36-.15.24-.23.53-.23.88v3.4h-1.36v-3.75c0-.26-.04-.48-.13-.64s-.26-.24-.53-.24c-.31,0-.55.12-.72.36-.17.24-.25.53-.25.88v3.4h-1.39v-5.63h1.29l.1.59c.13-.24.32-.43.57-.57Z"/>
        <path class="cls-1" d="M18.92,130.26c.26-.28.59-.45.98-.52.39-.07.89-.11,1.49-.11h.85v-.38c0-.25-.1-.45-.31-.58-.2-.13-.44-.2-.7-.2-.31,0-.55.04-.73.11-.18.07-.31.23-.38.49h-1.34c.08-.61.34-1.05.77-1.34.43-.29.99-.43,1.67-.43.74,0,1.33.17,1.76.52.43.35.64.9.64,1.65v3.67h-1.23l-.05-.56c-.23.28-.5.46-.8.55-.3.09-.66.14-1.08.14-.59,0-1.05-.15-1.4-.44-.35-.29-.52-.72-.52-1.3s.13-1,.4-1.28ZM22.24,130.76h-1.3c-.34,0-.6.05-.78.14-.18.09-.27.29-.27.6,0,.2.08.35.23.44.15.09.35.13.58.13s.48-.04.72-.13c.24-.09.43-.22.59-.4.16-.18.24-.39.24-.64v-.14Z"/>
        <path class="cls-1" d="M28.1,127.43v1.35l-2.2.89v3.47h-1.39v-5.63h1.21l.12.74,2.26-.82Z"/>
        <path class="cls-1" d="M30.95,125.62v1.97h1.07v1.18h-1.07v2.46c0,.25.03.44.09.56.06.12.15.2.26.23.11.03.28.05.5.05h.32v1.18h-.67c-.63,0-1.1-.14-1.41-.43-.31-.29-.47-.74-.47-1.35v-2.69h-.98v-1.18h.98v-1.97h1.39Z"/>
        <path class="cls-1" d="M38.05,127.3c.75,0,1.34.22,1.78.65.43.44.65,1.04.65,1.81v1.03c0,.83-.23,1.45-.68,1.86-.45.41-1.1.62-1.94.62-.23,0-.45-.04-.67-.11-.22-.08-.42-.18-.61-.33l-.05.31h-1.23v-7.52h1.36v2.06c.37-.25.84-.38,1.4-.38ZM36.97,128.9c-.21.27-.32.63-.32,1.07v.48c0,.53.08.94.25,1.22.17.28.5.42.98.42.44,0,.75-.12.93-.36s.27-.58.27-1.03v-.83c0-.45-.08-.79-.26-1.03-.17-.24-.46-.36-.87-.36-.44,0-.77.14-.99.41Z"/>
        <path class="cls-1" d="M44.76,127.43v1.35l-2.2.89v3.47h-1.4v-5.63h1.22l.12.74,2.26-.82Z"/>
        <path class="cls-1" d="M45.2,130.26c.26-.28.59-.45.98-.52.39-.07.89-.11,1.49-.11h.85v-.38c0-.25-.1-.45-.31-.58-.2-.13-.44-.2-.7-.2-.31,0-.55.04-.73.11-.18.07-.31.23-.38.49h-1.34c.08-.61.34-1.05.77-1.34s.99-.43,1.67-.43c.74,0,1.33.17,1.75.52.43.35.64.9.64,1.65v3.67h-1.23l-.05-.56c-.23.28-.5.46-.8.55-.3.09-.66.14-1.08.14-.59,0-1.05-.15-1.4-.44-.34-.29-.52-.72-.52-1.3s.13-1,.4-1.28ZM48.52,130.76h-1.31c-.34,0-.6.05-.78.14-.18.09-.27.29-.27.6,0,.2.08.35.23.44s.35.13.58.13.48-.04.72-.13.43-.22.59-.4c.16-.18.24-.39.24-.64v-.14Z"/>
        <path class="cls-1" d="M52.77,127.49c.25-.12.51-.18.78-.18.78,0,1.38.22,1.8.65.42.43.63,1.04.63,1.82v3.36h-1.39v-3.25c0-.46-.08-.8-.22-1.04-.15-.23-.42-.35-.81-.35-.46,0-.8.15-1.04.44-.24.29-.36.66-.36,1.09v3.1h-1.36v-5.63h1.26l.1.47c.16-.2.36-.36.62-.48Z"/>
        <path class="cls-1" d="M61.75,133.14h-1.23l-.06-.31c-.38.29-.8.44-1.26.44-.84,0-1.49-.21-1.94-.62-.45-.41-.67-1.03-.67-1.86v-1.03c0-.77.21-1.38.64-1.81s1.02-.65,1.77-.65c.56,0,1.02.13,1.39.38v-2.06h1.36v7.52ZM60.12,131.68c.18-.27.27-.65.27-1.15v-.49c0-.46-.1-.83-.3-1.12-.2-.29-.53-.43-1-.43-.41,0-.7.12-.88.36-.18.24-.27.58-.27,1.03v.83c0,.45.09.79.27,1.03.18.24.49.36.93.36.47,0,.79-.13.97-.4Z"/>
        <path class="cls-1" d="M63.4,128.57v-1.57h1.67v1.57h-1.67ZM63.4,132.02v-1.58h1.67v1.58h-1.67Z"/>
      </g>
      <g>
        <path class="cls-1" d="M110.97,104.55v.59h-5.12l2.1-2.28c.44-.47.79-.86,1.06-1.18.27-.32.47-.6.62-.83.14-.23.24-.44.29-.63s.08-.37.08-.56c0-.19-.02-.38-.09-.56-.06-.18-.16-.34-.29-.48s-.3-.25-.5-.34c-.2-.08-.44-.13-.72-.13-.37,0-.67.06-.9.18-.23.12-.4.27-.52.44-.12.17-.2.35-.24.53-.04.18-.06.33-.06.44h-.63c.02-.43.1-.78.25-1.05.15-.27.33-.49.54-.65.22-.16.46-.27.72-.33s.53-.09.78-.09c.34,0,.65.04.93.12s.52.21.72.37c.2.17.35.38.46.64s.17.56.17.91c0,.24-.03.46-.08.67-.05.21-.15.43-.28.67-.13.24-.32.5-.55.79-.23.29-.53.63-.89,1.03l-1.56,1.71h3.71Z"/>
        <path class="cls-1" d="M111.44,100.44c0-.96.24-1.67.71-2.12.47-.46,1.16-.68,2.07-.68s1.6.23,2.07.68c.47.46.71,1.16.71,2.12v2.14c0,.95-.24,1.66-.71,2.11-.47.45-1.16.68-2.07.68s-1.6-.23-2.07-.68c-.47-.45-.71-1.16-.71-2.11v-2.14ZM112.07,102.76c0,.66.19,1.16.58,1.51.39.34.91.52,1.57.52s1.18-.17,1.57-.52c.39-.35.58-.85.58-1.51v-2.5c0-.33-.05-.62-.16-.88-.1-.25-.25-.47-.44-.63-.19-.17-.42-.3-.68-.38-.26-.09-.55-.13-.87-.13s-.62.04-.88.13c-.26.09-.49.21-.68.38-.19.17-.33.38-.44.63-.1.25-.15.55-.15.88v2.5Z"/>
        <path class="cls-1" d="M122.67,104.55v.59h-5.12l2.1-2.28c.44-.47.79-.86,1.06-1.18.27-.32.47-.6.62-.83.14-.23.24-.44.29-.63.05-.18.08-.37.08-.56,0-.19-.02-.38-.09-.56-.06-.18-.16-.34-.29-.48-.13-.14-.3-.25-.5-.34s-.44-.13-.72-.13c-.37,0-.67.06-.9.18-.23.12-.4.27-.52.44-.12.17-.2.35-.24.53-.04.18-.06.33-.06.44h-.63c.02-.43.1-.78.25-1.05.15-.27.33-.49.54-.65.22-.16.46-.27.72-.33.26-.06.52-.09.78-.09.34,0,.65.04.93.12.28.08.52.21.72.37s.35.38.46.64c.11.26.17.56.17.91,0,.24-.03.46-.08.67s-.15.43-.28.67c-.13.24-.32.5-.55.79-.23.29-.53.63-.89,1.03l-1.56,1.71h3.71Z"/>
        <path class="cls-1" d="M127.38,104.77c-.43.4-1.04.6-1.81.6-.25,0-.51-.04-.76-.11-.26-.07-.5-.19-.71-.35s-.4-.37-.54-.63c-.14-.26-.22-.57-.24-.95h.63c.03.45.18.8.46,1.06.27.25.67.38,1.19.38.25,0,.49-.03.71-.09s.42-.16.58-.3c.17-.14.29-.32.39-.56.09-.23.14-.53.14-.88,0-.51-.16-.91-.48-1.21-.32-.29-.76-.44-1.31-.44h-2.16v-3.44h4.24v.59h-3.61v2.25h1.41c.39,0,.74.05,1.06.15.31.1.58.25.8.44.22.19.39.42.5.7s.18.59.18.94c0,.82-.22,1.43-.65,1.84Z"/>
        <path class="cls-1" d="M129.2,105.89v-1.1h1.18v1.1h-1.18Z"/>
        <path class="cls-1" d="M133.19,105.14v-6.58l-1.61.59v-.62l2.25-.85v7.45h-.64Z"/>
        <path class="cls-1" d="M135.51,100.44c0-.96.24-1.67.71-2.12.47-.46,1.16-.68,2.08-.68s1.6.23,2.07.68c.47.46.71,1.16.71,2.12v2.14c0,.95-.24,1.66-.71,2.11-.47.45-1.16.68-2.07.68s-1.6-.23-2.08-.68c-.47-.45-.71-1.16-.71-2.11v-2.14ZM136.14,102.76c0,.66.19,1.16.58,1.51.39.34.91.52,1.57.52s1.18-.17,1.57-.52c.39-.35.58-.85.58-1.51v-2.5c0-.33-.05-.62-.16-.88-.11-.25-.25-.47-.44-.63-.19-.17-.42-.3-.68-.38-.26-.09-.56-.13-.87-.13s-.62.04-.88.13c-.26.09-.49.21-.68.38-.19.17-.33.38-.44.63-.1.25-.15.55-.15.88v2.5Z"/>
        <path class="cls-1" d="M142.17,105.89v-1.1h1.18v1.1h-1.18Z"/>
        <path class="cls-1" d="M146.16,105.14v-6.58l-1.61.59v-.62l2.25-.85v7.45h-.64Z"/>
        <path class="cls-1" d="M160.08,101.94h-3.35v-.59h3.35v.59Z"/>
        <path class="cls-1" d="M164.89,105.14v-6.58l-1.61.59v-.62l2.25-.85v7.45h-.64Z"/>
        <path class="cls-1" d="M167.21,100.44c0-.96.24-1.67.71-2.12.47-.46,1.16-.68,2.07-.68s1.6.23,2.07.68c.47.46.71,1.16.71,2.12v2.14c0,.95-.24,1.66-.71,2.11-.47.45-1.16.68-2.07.68s-1.6-.23-2.07-.68c-.47-.45-.71-1.16-.71-2.11v-2.14ZM167.84,102.76c0,.66.19,1.16.58,1.51.39.34.91.52,1.57.52s1.18-.17,1.57-.52c.39-.35.58-.85.58-1.51v-2.5c0-.33-.05-.62-.16-.88-.1-.25-.25-.47-.44-.63-.19-.17-.42-.3-.68-.38-.26-.09-.55-.13-.87-.13s-.62.04-.88.13c-.26.09-.49.21-.68.38-.19.17-.33.38-.44.63-.1.25-.15.55-.15.88v2.5Z"/>
        <path class="cls-1" d="M173.88,105.89v-1.1h1.18v1.1h-1.18Z"/>
        <path class="cls-1" d="M181.17,104.55v.59h-5.12l2.1-2.28c.44-.47.79-.86,1.06-1.18.27-.32.47-.6.62-.83.14-.23.24-.44.29-.63.05-.18.08-.37.08-.56,0-.19-.02-.38-.09-.56-.06-.18-.16-.34-.29-.48-.13-.14-.3-.25-.5-.34s-.44-.13-.72-.13c-.37,0-.67.06-.9.18-.23.12-.4.27-.52.44-.12.17-.2.35-.24.53-.04.18-.06.33-.06.44h-.63c.02-.43.1-.78.25-1.05.15-.27.33-.49.54-.65.22-.16.46-.27.72-.33.26-.06.52-.09.78-.09.34,0,.65.04.93.12.28.08.52.21.72.37s.35.38.46.64c.11.26.17.56.17.91,0,.24-.03.46-.08.67s-.15.43-.28.67c-.13.24-.32.5-.55.79-.23.29-.53.63-.89,1.03l-1.56,1.71h3.71Z"/>
        <path class="cls-1" d="M185.41,100.75c.3.12.55.29.76.5s.38.45.5.73c.12.28.18.59.18.94,0,.41-.06.77-.17,1.07-.12.31-.29.56-.51.77s-.49.36-.8.47c-.31.1-.66.16-1.04.16-.44,0-.83-.07-1.14-.22-.32-.15-.58-.34-.78-.58-.2-.24-.35-.5-.45-.8-.1-.3-.14-.59-.14-.89,0-.17.02-.34.04-.51.03-.17.07-.33.11-.49.04-.16.09-.3.14-.43s.09-.24.13-.32l1.48-3.28h.73l-1.38,3.07c.1-.08.21-.15.34-.2.13-.05.26-.09.39-.12.13-.03.24-.04.36-.05.11,0,.2-.01.27-.01.36.01.69.08.99.2ZM185.15,104.65c.23-.09.43-.22.59-.38s.28-.36.36-.58.12-.47.12-.73c0-.23-.03-.46-.1-.67-.07-.21-.18-.4-.33-.56-.15-.16-.35-.29-.59-.39-.24-.1-.53-.15-.88-.15-.27,0-.52.04-.75.12-.23.08-.42.2-.59.36-.17.16-.3.34-.39.57s-.14.47-.14.75c0,.25.04.49.12.71s.2.42.36.58c.16.16.36.29.59.39.24.09.51.14.81.14s.58-.05.82-.14Z"/>
        <path class="cls-1" d="M159.87,119.06h-3.99v-7.33h3.99v7.33ZM156.51,112.32v6.15h2.73v-6.15h-2.73ZM162.26,111.63v7.52h-.63v-7.52h.63Z"/>
        <path class="cls-1" d="M165.62,112.28l-1.3,3.43h-.68l1.51-4.02h1.67l1.51,4.02h-.67l-1.28-3.43h-.76ZM169.82,119.35v-2.33h-5.42v-.59h6.05v2.93h-.63ZM170.45,111.63v4.25h-.63v-4.25h.63Z"/>
        <path class="cls-1" d="M174.42,114.1h.63v4.46h3.88v.59h-7.26v-.59h2.75v-4.46ZM172.15,112.26v-.59h6.18l-.61,5.03h-.67l.54-4.44h-5.45Z"/>
        <path class="cls-1" d="M184.02,112.32h-1.42l1.45,3.18h-.69l-1.46-3.18h-.16l-1.49,3.18h-.69l1.46-3.18h-1.42v-.59h4.44v.59ZM180.83,116.11v1.04h4.77v-1.04h.63v3.24h-6.03v-3.24h.63ZM185.6,118.76v-1.02h-4.77v1.02h4.77ZM186.23,111.63v3.98h-.63v-3.98h.63Z"/>
        <path class="cls-1" d="M164,132.47h.87l.32-5.67h.67l-.32,5.67h1.59l.32-5.67h.68l-.32,5.67h1.12v.59h-4.94v-.59ZM169.09,126.32h-5v-.59h5v.59ZM170.88,125.63v7.52h-.63v-7.52h.63Z"/>
        <path class="cls-1" d="M174.84,129.91h.63v2.65h3.88v.59h-7.26v-.59h2.75v-2.65ZM172.56,126.26v-.59h6.23l-.67,5.46h-.67l.25-2.12h-5.24v-.59h5.31l.27-2.16h-5.49Z"/>
        <path class="cls-1" d="M179.77,132.56h7.26v.59h-7.26v-.59ZM180.25,126.26v-.59h6.23l-.61,5.61h-.67l.23-2.17h-5.27v-.59h5.34l.24-2.25h-5.49Z"/>
      </g>
    </g>
    <g>
      <path class="cls-1" d="M.9,161.66h5.78v9.9H.9v-9.9ZM4.74,169.9v-6.59h-1.9v6.59h1.9ZM7.99,171.68v-10.03h1.94v10.03h-1.94Z"/>
      <path class="cls-1" d="M15.79,167.05l-1.01-3.23c-.02.06-.04.16-.08.3-.04.14-.07.25-.11.34l-1.16,2.63h-2.15l2.35-5.41h2.28l1.64,5.38h-1.76ZM12.23,169.39v-1.66h8.52v4.21h-1.94v-2.56h-6.58ZM18.8,167.23v-5.58h1.94v5.58h-1.94Z"/>
      <path class="cls-1" d="M28.21,161.66l-1.66,9.9h-1.99l1.37-8.24h-3.6v-1.66h5.88ZM31.21,167.11v4.57h-1.94v-10.03h1.94v3.8h1.36v1.66h-1.36Z"/>
      <path class="cls-1" d="M36.29,171.68v-1.66h2.8v-5.06h2.16v5.06h4.74v1.66h-9.7ZM45.31,161.66l-.79,6.74h-1.99l.56-5.09h-6.17v-1.66h8.39Z"/>
      <path class="cls-1" d="M51.62,163.24l1.14,3.56h-1.76c-.13-.42-.22-.73-.28-.94-.03-.1-.12-.39-.26-.88-.14-.49-.3-.94-.47-1.36-.09.27-.15.45-.19.54l-1.16,2.66h-2.15l1.63-3.6h-1.5v-1.58h6.25v1.58h-1.25ZM47.43,171.94v-4.56h1.94v.73h4.63v-.73h1.94v4.56h-8.52ZM54.01,169.65h-4.63v.76h4.63v-.76ZM54.01,166.95v-5.3h1.94v5.3h-1.94Z"/>
      <path class="cls-1" d="M67.03,171.62h-9.68v-1.66h9.68v1.66ZM58.2,163.24c.22-.49.55-.88.97-1.19s.92-.46,1.5-.48c.66-.02,1.14-.02,1.46-.02.66,0,1.15,0,1.48.02.58.02,1.08.19,1.5.49.42.3.75.7.98,1.19.23.49.34,1.02.34,1.58s-.11,1.1-.34,1.59-.55.89-.97,1.19c-.42.3-.92.47-1.5.49-.32.02-.8.02-1.44.02s-1.18,0-1.51-.02c-.58-.02-1.09-.19-1.51-.49-.42-.3-.75-.7-.97-1.19-.22-.49-.33-1.03-.33-1.6s.11-1.11.34-1.6ZM60.11,165.91c.23.32.54.49.93.52.22.02.54.02.96.02.29,0,.7,0,1.25-.02.38-.02.69-.19.92-.51.23-.32.34-.69.34-1.09s-.11-.77-.34-1.09c-.23-.32-.54-.48-.93-.49-.51-.02-.9-.02-1.16-.02-.46,0-.8,0-1.03.02-.39.02-.7.19-.93.5-.23.31-.34.67-.34,1.08s.11.76.34,1.07Z"/>
      <path class="cls-1" d="M71.34,168.61h-3.05v-4.32h6.32v-.97h-6.32v-1.66h8.26v4.28h-6.31v1h6.47v1.67h-3.18v1.42h3.74v1.66h-9.68v-1.66h3.76v-1.42Z"/>
    </g>
    <g>
      <path class="cls-1" d="M108.56,167.72h-3.76v.67h3.04v3.54h-8.26v-3.54h3.04v-.67h-3.76v-1.44h9.7v1.44ZM100.85,163.16h-1.26v-1.5h8.26v1.5h-1.14l-.19,1.15h1.33v1.51h-8.26v-1.51h1.07l.19-1.15ZM105.91,170.5v-.7h-4.38v.7h4.38ZM104.57,164.31l.19-1.15h-1.97l-.19,1.15h1.97Z"/>
      <path class="cls-1" d="M115.2,161.66l-.11.59h1.5v-.6h1.94v5.58h-1.94v-.77h-2.23l-.1.54h-2.09l.68-3.68h-3.54v-1.66h5.88ZM110.02,169.39v-1.66h8.52v4.21h-1.94v-2.56h-6.58ZM116.59,164.75v-.8h-1.8l-.13.8h1.93Z"/>
      <path class="cls-1" d="M120.36,163.55c.12-.67.47-1.17,1.05-1.51s1.24-.5,1.97-.5,1.36.17,1.86.52c.5.34.76.86.76,1.56,0,.47-.06,1.03-.17,1.68-.12.66-.46,1.12-1.03,1.39-.57.27-1.23.4-1.98.4-.7,0-1.3-.14-1.82-.43-.52-.29-.78-.76-.78-1.4,0-.58.05-1.15.14-1.7ZM126.76,167.67h2.08l1.33,4.27h-1.54l-.71-2.17c-.02.1-.26.73-.72,1.87l-.13.3h-2.76l-.71-2.17c-.02.1-.26.73-.72,1.87l-.13.3h-1.98l1.67-4.27h2.08l1,3.19,1.25-3.19ZM122.51,163.4c-.16.14-.26.32-.3.53-.04.22-.06.5-.06.86,0,.25.07.42.22.52.14.1.35.14.61.14.46,0,.75-.13.89-.39.14-.26.21-.64.21-1.13s-.28-.74-.84-.74c-.33,0-.57.07-.73.21ZM127.51,167.23v-5.58h1.94v5.58h-1.94Z"/>
      <path class="cls-1" d="M135.58,161.66l-.54,3.23h1.13v-3.24h1.82v10.03h-1.82v-4.97h-1.44l-.8,4.85h-1.87l1.37-8.24h-2.5v-1.66h4.66ZM138.61,171.68v-10.03h1.82v10.03h-1.82Z"/>
      <path class="cls-1" d="M150.88,161.66v1.85h1.48v-1.86h1.94v5.58h-1.94v-2.04h-1.48v1.8h-5.66v-5.33h5.66ZM145.78,169.39v-1.66h8.52v4.21h-1.94v-2.56h-6.58ZM148.93,163.31h-1.78v2.02h1.78v-2.02Z"/>
      <path class="cls-1" d="M161.72,164.27c-.02.3-.04.49-.05.59-.03.28-.05.5-.06.66h1.54v-3.88h1.94v10.03h-1.94v-4.33h-1.7l-.06.55c-.08.82-.16,1.42-.23,1.81-.13.7-.42,1.19-.89,1.49-.46.3-1.07.45-1.81.45s-1.41-.14-1.94-.41c-.52-.27-.79-.76-.79-1.45,0-.1,0-.17.01-.22l.07-.89c.09-1.12.17-2.04.23-2.77.07-.72.15-1.45.26-2.17.11-.78.41-1.33.89-1.67.48-.34,1.13-.5,1.94-.5.7,0,1.32.15,1.84.45.52.3.78.78.78,1.43,0,.24-.01.51-.04.8ZM159.05,169.81c.12-.14.2-.36.25-.65.18-1.15.36-2.76.53-4.81,0-.35-.04-.63-.13-.82-.09-.2-.29-.29-.6-.29s-.52.1-.65.31-.22.48-.28.83c-.18,1.14-.34,2.74-.49,4.8v.11c0,.27.06.46.19.58.12.11.32.17.58.17.28,0,.48-.07.6-.21Z"/>
      <path class="cls-1" d="M170.88,166.37h2.26v1.56h-6.66v-1.56h2.22v-.67h-1.84v-4.04h1.94v.67h2.03v-.67h1.93v4.04h-1.88v.67ZM172.9,168.44h2.08l1.33,3.5h-1.54l-.71-1.8c-.02.11-.24.6-.68,1.45l-.17.35h-2.76l-.71-1.8c-.02.11-.24.6-.68,1.45l-.17.35h-1.98l1.67-3.5h2.08l1,2.62,1.25-2.62ZM170.83,164.27v-.65h-2.03v.65h2.03ZM175.68,165.4v2.64h-1.94v-6.4h1.94v2.1h1.24v1.66h-1.24Z"/>
      <path class="cls-1" d="M177.72,171.56v-9.9h1.93v8.18h3.84v1.72h-5.77ZM184.64,171.68v-10.03h1.94v10.03h-1.94Z"/>
    </g>
    <g>
      <path class="cls-1" d="M187.5,280.8H0v-81.11h187.5v81.11ZM.5,280.3h186.5v-80.11H.5v80.11Z"/>
      <g>
        <path class="cls-1" d="M13.73,213.95h-3.61v-5.08h3.61v5.08ZM13.06,213.39v-3.96h-2.26v3.96h2.26ZM15.41,208.1h.69v7.83h-.69v-7.83Z"/>
        <path class="cls-1" d="M21.92,211.79l-.35.54c-.91-.33-1.62-1.01-1.97-1.87-.34.93-1.06,1.66-1.98,2.01l-.36-.54c1.17-.44,1.99-1.52,1.99-2.7v-.75h.7v.75c0,1.14.82,2.15,1.98,2.56ZM18.37,213.2h5.26v2.72h-.69v-2.14h-4.57v-.57ZM22.94,208.1h.69v4.71h-.69v-4.71Z"/>
        <path class="cls-1" d="M24.68,214.23h2.79v-2.79h.68v2.79h3.65v.57h-7.12v-.57ZM30.95,209.67c0,.96,0,2.03-.29,3.6l-.7-.08c.29-1.49.29-2.59.3-3.52v-.21h-4.82v-.57h5.51v.78Z"/>
        <path class="cls-1" d="M37.01,211.67l-.35.54c-.91-.29-1.65-.92-2-1.73-.35.87-1.09,1.54-2.02,1.86l-.36-.54c1.18-.37,2.02-1.34,2.02-2.41v-.2h-1.83v-.56h4.32v.56h-1.8v.2c0,1.02.85,1.92,2.01,2.28ZM33.58,212.71h.69v.95h3.69v-.95h.69v3.09h-5.06v-3.09ZM37.95,215.25v-1.03h-3.69v1.03h3.69ZM37.95,208.1h.69v4.23h-.69v-4.23Z"/>
        <path class="cls-1" d="M46.82,212.78h-7.12v-.56h7.12v.56ZM43.26,208.38c1.68,0,2.75.57,2.76,1.55,0,.97-1.08,1.56-2.76,1.56s-2.77-.58-2.77-1.56,1.07-1.56,2.77-1.55ZM40.62,213.47h.69v1.7h4.71v.58h-5.41v-2.28ZM43.26,210.92c1.25,0,2.05-.37,2.06-.99,0-.61-.8-.99-2.06-.99s-2.06.38-2.06.99c0,.62.79.99,2.06.99Z"/>
        <path class="cls-1" d="M49.7,208.85h3.72v.58h-3.02v3.96c1.52,0,2.52-.04,3.69-.25l.07.58c-1.21.22-2.24.27-3.82.27h-.63v-5.14ZM55.64,215.93h-.69v-7.83h.69v7.83Z"/>
        <path class="cls-1" d="M58.71,210.42v-.94h-1.78v-.57h4.27v.57h-1.79v.94c0,1.3.94,2.72,2.07,3.23l-.41.55c-.89-.44-1.64-1.38-2-2.47-.35,1.16-1.12,2.17-2.02,2.63l-.42-.54c1.13-.55,2.08-2.02,2.08-3.41ZM63.18,215.93h-.69v-4.41h-1.71v-.57h1.71v-2.85h.69v7.83Z"/>
        <path class="cls-1" d="M64.21,214.32h7.15v.57h-7.15v-.57ZM70.54,212.89h-5.41v-4.11h5.32v.58h-4.61v1.16h4.45v.55h-4.45v1.26h4.7v.56Z"/>
        <path class="cls-1" d="M73.49,208.76c.95,0,1.59.92,1.68,2.39h1.01v-2.88h.66v7.25h-.66v-3.8h-1.01c-.07,1.52-.72,2.47-1.68,2.47-1.01,0-1.67-1.05-1.68-2.72,0-1.66.66-2.71,1.68-2.72ZM73.49,213.53c.64,0,1.04-.79,1.04-2.06,0-1.27-.4-2.07-1.04-2.07s-1.04.8-1.03,2.07c0,1.27.4,2.07,1.03,2.06ZM78.42,215.91h-.67v-7.81h.67v7.81Z"/>
        <path class="cls-1" d="M86.03,212.15l-.35.55c-.91-.31-1.63-.95-1.99-1.78-.34.89-1.07,1.59-2,1.93l-.36-.55c1.17-.41,2-1.42,2-2.53v-.46h-1.83v-.56h4.32v.56h-1.8v.46c0,1.05.83,2,2,2.37ZM82.62,213.29h.69v1.87h4.61v.58h-5.29v-2.45ZM86.98,208.11h.69v5.73h-.69v-5.73Z"/>
        <path class="cls-1" d="M90.79,209.18v-.76h.7v.76c0,1.1.83,2.08,1.99,2.49l-.35.53c-.91-.31-1.63-.97-1.98-1.82-.35.91-1.08,1.63-2.01,1.97l-.35-.54c1.18-.41,2-1.47,2-2.62ZM90.1,213h5.08v2.81h-5.08v-2.81ZM94.5,215.25v-1.69h-3.73v1.69h3.73ZM95.18,212.55h-.69v-4.44h.69v4.44Z"/>
        <path class="cls-1" d="M98.52,208.71c1.16,0,2,1.06,2,2.72,0,1.67-.83,2.72-2,2.72-1.17,0-1.99-1.05-2-2.72,0-1.66.83-2.72,2-2.72ZM98.52,213.53c.79,0,1.33-.83,1.33-2.1s-.54-2.1-1.33-2.11c-.78,0-1.33.84-1.33,2.11s.54,2.1,1.33,2.1ZM102.67,215.93h-.69v-7.83h.69v7.83Z"/>
        <path class="cls-1" d="M104.05,208.83h3.55v2.79h-2.85v1.83c1.45,0,2.47-.05,3.65-.27l.07.57c-1.23.22-2.27.28-3.78.29h-.62v-2.99h2.85v-1.65h-2.87v-.57ZM109.79,211.21h1.31v.58h-1.31v4.14h-.69v-7.83h.69v3.11Z"/>
        <path class="cls-1" d="M116.2,213.66c.76-.04,1.52-.1,2.24-.21l.05.51c-1.79.33-3.71.34-5.12.33l-.1-.57c.65,0,1.43,0,2.24-.04v-1.47h.68v1.44ZM115.51,209.7h-1.79v-.57h1.81v-.97h.68v.97h1.84v.57h-1.84c.02,1.01.86,1.83,2.01,2.16l-.33.54c-.94-.28-1.67-.88-2.03-1.67-.34.83-1.07,1.46-2.01,1.74l-.33-.53c1.16-.34,1.97-1.2,1.99-2.25ZM118.96,208.1h.69v7.83h-.69v-7.83Z"/>
        <path class="cls-1" d="M120.75,214.23h2.79v-2.79h.68v2.79h3.65v.57h-7.12v-.57ZM127.01,209.67c0,.96,0,2.03-.29,3.6l-.7-.08c.29-1.49.29-2.59.3-3.52v-.21h-4.82v-.57h5.51v.78Z"/>
        <path class="cls-1" d="M133.46,213.36l.05.51c-1.79.33-3.71.34-5.12.34l-.1-.59c1.44,0,3.43,0,5.16-.26ZM132.91,210.51c0,1.09-.88,1.83-2.1,1.84-1.24,0-2.11-.75-2.11-1.84,0-1.09.87-1.83,2.11-1.84,1.23,0,2.1.75,2.1,1.84ZM130.81,211.74c.83,0,1.43-.5,1.42-1.23,0-.73-.6-1.23-1.42-1.23s-1.44.51-1.43,1.23c0,.73.6,1.23,1.43,1.23ZM133.98,208.1h.69v7.83h-.69v-7.83Z"/>
        <path class="cls-1" d="M141.62,212.17h-3.53v-3.47h3.53v3.47ZM141.14,213.15v-.24h.69v.24c0,1.13,1.26,1.95,2.65,2.18l-.28.54c-1.16-.22-2.23-.81-2.7-1.71-.48.9-1.56,1.49-2.72,1.71l-.27-.54c1.38-.23,2.64-1.05,2.64-2.18ZM140.93,211.61v-2.34h-2.17v2.34h2.17ZM143.17,208.1h.69v2.14h1.18v.58h-1.18v2.48h-.69v-5.2Z"/>
        <path class="cls-1" d="M145.26,211.48h7.12v.56h-7.12v-.56ZM151.58,209.58c0,.89-1.02,1.37-2.76,1.37-1.74,0-2.77-.48-2.77-1.37s1.02-1.34,2.77-1.34,2.76.48,2.76,1.34ZM146.12,212.72h5.34v1.75h-4.64v.81h4.88v.54h-5.56v-1.86h4.65v-.71h-4.67v-.53ZM148.82,210.43c1.3,0,2.05-.3,2.06-.84,0-.51-.76-.82-2.06-.83-1.3,0-2.06.31-2.05.83,0,.54.75.84,2.05.84Z"/>
        <path class="cls-1" d="M159.36,211.87l-.33.53c-.9-.27-1.6-.85-1.95-1.6-.34.82-1.06,1.45-1.99,1.75l-.34-.54c1.16-.35,1.98-1.25,1.99-2.28v-.15h-1.77v-.57h1.77v-.95h.69v.95h1.75v.57h-1.77v.15c0,.94.79,1.79,1.94,2.14ZM158.06,213.63h-2.21v-.56h5.15v.56h-2.21c.11.82,1.26,1.52,2.51,1.72l-.25.54c-1.14-.19-2.18-.76-2.63-1.54-.44.78-1.48,1.34-2.61,1.53l-.26-.53c1.26-.2,2.4-.89,2.51-1.72ZM160.18,208.1h.69v1.93h1.18v.58h-1.18v2.03h-.69v-4.54Z"/>
        <path class="cls-1" d="M165.71,209.51h-2.99v-.56h3.69c0,2.25-1.05,4.24-3.67,5.49l-.38-.56c2.11-1,3.2-2.5,3.35-4.37ZM168.73,215.91h-.69v-7.81h.69v7.81Z"/>
        <path class="cls-1" d="M14.86,226.06l.04.52c-.75.14-1.52.22-2.28.27v2.83h-.69v-2.79c-.8.04-1.55.04-2.2.04l-.1-.59c1.47,0,3.48-.03,5.21-.28ZM14.24,224.08c0,.95-.83,1.6-2,1.6-1.17,0-2-.65-2-1.6s.83-1.6,2-1.59c1.17,0,2.01.64,2,1.59ZM12.24,225.11c.79,0,1.35-.42,1.34-1.03,0-.61-.56-1.04-1.34-1.03-.78,0-1.34.42-1.33,1.03,0,.61.55,1.03,1.33,1.03ZM15.43,222.11h.68v7.81h-.68v-7.81Z"/>
        <path class="cls-1" d="M21.07,224.02h-3.92v-.56h1.63v-1.12h.69v1.12h1.61v.56ZM19.11,224.54c.98,0,1.69.74,1.7,1.78,0,1.05-.71,1.79-1.7,1.79-.97,0-1.68-.74-1.68-1.79s.71-1.77,1.68-1.78ZM19.11,227.5c.62,0,1.08-.49,1.08-1.19s-.46-1.19-1.08-1.2c-.62,0-1.06.51-1.06,1.2s.44,1.19,1.06,1.19ZM21.48,222.29h.65v3.1h1.04v-3.3h.66v7.81h-.66v-3.95h-1.04v3.56h-.65v-7.23Z"/>
        <path class="cls-1" d="M31.42,225.79l-.35.54c-.91-.33-1.62-1.01-1.97-1.87-.34.93-1.06,1.66-1.98,2.01l-.36-.54c1.17-.44,1.99-1.52,1.99-2.7v-.75h.7v.75c0,1.14.82,2.15,1.98,2.56ZM27.86,227.2h5.26v2.72h-.69v-2.14h-4.57v-.57ZM32.43,222.1h.69v4.71h-.69v-4.71Z"/>
        <path class="cls-1" d="M37.41,223.18h-2.89v-.57h3.63c0,1.97-1.38,3.38-3.7,4.01l-.28-.55c1.92-.52,3.09-1.56,3.24-2.88ZM35.34,226.9h4.95v2.91h-4.95v-2.91ZM39.6,229.25v-1.78h-3.58v1.78h3.58ZM40.29,224.02h1.18v.57h-1.18v1.95h-.69v-4.44h.69v1.92Z"/>
        <path class="cls-1" d="M48.83,227.3h-3.26v2.61h-.68v-2.61h-3.22v-.56h7.15v.56ZM42.59,222.42h.69v1.08h3.94v-1.08h.69v3.37h-5.32v-3.37ZM47.21,225.23v-1.16h-3.94v1.16h3.94Z"/>
        <path class="cls-1" d="M49.55,222.82h3.65v.57h-2.95v1.63h2.61v.56h-2.61v1.89c1.43,0,2.36-.04,3.43-.24l.08.57c-1.14.18-2.09.24-3.6.24h-.6v-5.22ZM55.67,229.93h-.69v-4.31h-1.65v-.57h1.65v-2.95h.69v7.83Z"/>
        <path class="cls-1" d="M65.81,226.48h-3.23v.76c1.48.06,2.35.52,2.36,1.33,0,.86-1.01,1.33-2.69,1.33s-2.69-.47-2.7-1.33c0-.8.87-1.27,2.36-1.33v-.76h-3.22v-.56h7.12v.56ZM59.36,222.4h5.77v.57h-1.2v1.64h1.18v.57h-5.72v-.57h1.18v-1.64h-1.2v-.57ZM62.25,229.36c1.24,0,1.99-.28,1.99-.79s-.75-.8-1.99-.8c-1.25,0-2,.29-2,.8,0,.51.74.8,2,.79ZM63.24,224.61v-1.64h-2v1.64h2Z"/>
        <path class="cls-1" d="M70.27,227.95h-3.61v-5.08h3.61v5.08ZM69.59,227.39v-3.96h-2.26v3.96h2.26ZM71.95,222.1h.69v7.83h-.69v-7.83Z"/>
        <path class="cls-1" d="M75.43,223.53h-1.5v-.58h2.15c0,1.86-.43,3.7-1.85,5.19l-.55-.4c1.18-1.21,1.66-2.66,1.74-4.22ZM77.58,223.53h-1.25v-.58h1.9c0,1.85-.28,4.01-1.74,5.71l-.56-.39c1.22-1.38,1.59-3.12,1.65-4.75ZM79.9,225.33h1.19v.58h-1.19v4.01h-.69v-7.81h.69v3.23Z"/>
        <path class="cls-1" d="M86.13,227.67l-.39.54c-.91-.41-1.7-1.31-2.07-2.4-.36,1.15-1.16,2.14-2.05,2.59l-.41-.54c1.12-.54,2.1-2.01,2.1-3.37v-1.02h-1.85v-.57h4.4v.57h-1.86v1.02c0,1.33.97,2.68,2.12,3.17ZM86.96,222.1h.69v7.81h-.69v-7.81Z"/>
        <path class="cls-1" d="M90.72,225.69h3.37v-1.49h.69v1.49h3.06v.58h-7.11v-.58ZM91.34,222.44h2.38v.26c0,.44,0,1.28-.36,2.41l-.66-.09c.28-.91.33-1.58.34-2.03h-1.71v-.55ZM91.6,227.13h5.34v2.68h-5.34v-2.68ZM96.26,229.25v-1.58h-3.98v1.58h3.98ZM97.02,222.78c0,.47,0,1.27-.23,2.34l-.67-.06c.19-.93.22-1.6.23-2.06h-1.98v-.55h2.65v.33Z"/>
        <path class="cls-1" d="M98.23,225.69h3.37v-1.49h.69v1.49h3.06v.58h-7.11v-.58ZM98.85,222.44h2.38v.26c0,.44,0,1.28-.36,2.41l-.66-.09c.28-.91.33-1.58.34-2.03h-1.71v-.55ZM99.11,227.13h5.34v2.68h-5.34v-2.68ZM103.77,229.25v-1.58h-3.98v1.58h3.98ZM104.52,222.78c0,.47,0,1.27-.23,2.34l-.67-.06c.19-.93.22-1.6.23-2.06h-1.98v-.55h2.65v.33Z"/>
        <path class="cls-1" d="M105.91,223.37h2.01v-1.2h.69v1.2h2.02v.56h-4.73v-.56ZM108.29,224.58c1.12,0,1.94.74,1.93,1.79,0,1.06-.81,1.79-1.93,1.79s-1.95-.73-1.94-1.79c0-1.05.81-1.79,1.94-1.79ZM108.29,227.58c.74,0,1.28-.49,1.27-1.2,0-.71-.54-1.22-1.27-1.21-.75,0-1.29.51-1.29,1.21,0,.71.54,1.21,1.29,1.2ZM112.17,229.91h-.69v-7.81h.69v7.81Z"/>
        <path class="cls-1" d="M115.46,222.93h1.99v.57h-1.3v3.78c.39-.01.86-.05,1.38-.16l.07.58c-.74.15-1.33.17-1.79.17h-.34v-4.94ZM117.9,222.93h2.08v.57h-1.4v3.79c.61,0,1.1-.04,1.65-.18l.07.58c-.69.17-1.24.18-2.03.18h-.38v-4.94ZM121.41,225.18h1.14v.59h-1.14v4.15h-.69v-7.82h.69v3.08Z"/>
        <path class="cls-1" d="M127.55,226.15l-.35.55c-.91-.31-1.63-.95-1.99-1.78-.34.89-1.07,1.59-2,1.93l-.36-.55c1.17-.41,2-1.42,2-2.53v-.46h-1.83v-.56h4.32v.56h-1.8v.46c0,1.05.83,2,2,2.37ZM124.14,227.29h.69v1.87h4.61v.58h-5.29v-2.45ZM128.5,222.11h.69v5.73h-.69v-5.73Z"/>
        <path class="cls-1" d="M130.59,222.86h3.65v.57h-2.96v3.96c1.42,0,2.41-.07,3.58-.28l.09.6c-1.23.22-2.25.26-3.74.26h-.62v-5.11ZM136.29,225.19h1.31v.58h-1.31v4.16h-.69v-7.83h.69v3.09Z"/>
        <path class="cls-1" d="M138.02,228.68c0-.31.25-.56.56-.56s.57.25.56.56c0,.31-.25.57-.56.57-.31,0-.57-.26-.56-.57Z"/>
        <path class="cls-1" d="M142.25,222.85h3.72v.58h-3.02v3.96c1.52,0,2.52-.04,3.69-.25l.07.58c-1.21.22-2.24.27-3.82.27h-.63v-5.14ZM148.18,229.93h-.69v-7.83h.69v7.83Z"/>
        <path class="cls-1" d="M151.26,224.42v-.94h-1.78v-.57h4.27v.57h-1.79v.94c0,1.3.94,2.72,2.07,3.23l-.41.55c-.89-.44-1.64-1.38-2-2.47-.35,1.16-1.12,2.17-2.02,2.63l-.42-.54c1.13-.55,2.08-2.02,2.08-3.41ZM155.73,229.93h-.69v-4.41h-1.71v-.57h1.71v-2.85h.69v7.83Z"/>
        <path class="cls-1" d="M156.76,228.32h7.15v.57h-7.15v-.57ZM163.09,226.89h-5.41v-4.11h5.32v.58h-4.61v1.16h4.45v.55h-4.45v1.26h4.7v.56Z"/>
        <path class="cls-1" d="M169.47,227.36l.05.51c-1.79.33-3.71.34-5.12.34l-.1-.59c1.44,0,3.43,0,5.16-.26ZM168.93,224.51c0,1.09-.87,1.83-2.1,1.84-1.23,0-2.11-.75-2.11-1.84,0-1.09.88-1.83,2.11-1.84,1.23,0,2.1.75,2.1,1.84ZM166.83,225.74c.83,0,1.43-.5,1.42-1.23,0-.73-.6-1.23-1.42-1.23s-1.44.51-1.43,1.23c0,.73.6,1.23,1.43,1.23ZM169.99,222.1h.69v7.83h-.69v-7.83Z"/>
        <path class="cls-1" d="M14.41,239.79l-.35.54c-.91-.33-1.62-1.01-1.97-1.87-.34.93-1.06,1.66-1.98,2.01l-.36-.54c1.17-.44,1.99-1.52,1.99-2.7v-.75h.7v.75c0,1.14.82,2.15,1.98,2.56ZM10.86,241.2h5.26v2.72h-.69v-2.14h-4.57v-.57ZM15.43,236.1h.69v4.71h-.69v-4.71Z"/>
        <path class="cls-1" d="M20.4,237.18h-2.89v-.57h3.63c0,1.97-1.38,3.38-3.7,4.01l-.28-.55c1.92-.52,3.09-1.56,3.24-2.88ZM18.33,240.9h4.95v2.91h-4.95v-2.91ZM22.59,243.25v-1.78h-3.58v1.78h3.58ZM23.28,238.02h1.18v.57h-1.18v1.95h-.69v-4.44h.69v1.92Z"/>
        <path class="cls-1" d="M26.97,236.71c1.16,0,2,1.06,2,2.72,0,1.67-.83,2.72-2,2.72-1.17,0-1.99-1.05-2-2.72,0-1.66.83-2.72,2-2.72ZM26.97,241.53c.79,0,1.33-.83,1.33-2.1s-.54-2.1-1.33-2.11c-.78,0-1.33.84-1.33,2.11s.54,2.1,1.33,2.1ZM31.12,243.93h-.69v-7.83h.69v7.83Z"/>
        <path class="cls-1" d="M32.51,236.87h.69v4.47c1.14,0,2.31-.09,3.59-.36l.09.59c-1.35.27-2.56.35-3.74.35h-.62v-5.05ZM39.5,239.8h-1.27v4.11h-.69v-7.81h.69v3.12h1.27v.58Z"/>
        <path class="cls-1" d="M48.8,240.48h-3.23v.76c1.48.06,2.35.52,2.36,1.33,0,.86-1.01,1.33-2.69,1.33s-2.69-.47-2.7-1.33c0-.8.87-1.27,2.36-1.33v-.76h-3.22v-.56h7.12v.56ZM42.35,236.4h5.77v.57h-1.2v1.64h1.18v.57h-5.72v-.57h1.18v-1.64h-1.2v-.57ZM45.25,243.36c1.24,0,1.99-.28,1.99-.79s-.75-.8-1.99-.8c-1.25,0-2,.29-2,.8,0,.51.74.8,2,.79ZM46.24,238.61v-1.64h-2v1.64h2Z"/>
        <path class="cls-1" d="M53.26,241.95h-3.61v-5.08h3.61v5.08ZM52.59,241.39v-3.96h-2.26v3.96h2.26ZM54.94,236.1h.69v7.83h-.69v-7.83Z"/>
        <path class="cls-1" d="M65.82,240.4h-7.13v-.58h7.13v.58ZM62.25,241.08c1.67,0,2.68.51,2.69,1.41,0,.91-1.02,1.41-2.69,1.41s-2.7-.5-2.7-1.41c0-.9,1.01-1.41,2.7-1.41ZM59.6,236.42h5.33v.58h-4.66v1.51h4.71v.56h-5.39v-2.65ZM62.25,243.35c1.24,0,1.99-.31,2-.86,0-.54-.76-.86-2-.87-1.25,0-2,.33-2,.87,0,.55.74.86,2,.86Z"/>
        <path class="cls-1" d="M72.56,236.85c0,.47,0,1.16-.19,2.07.31-.02.62-.05.93-.08l.04.45c-.76.11-1.56.17-2.34.22v1.24h-.68v-1.22c-.74.03-1.45.03-2.08.03l-.08-.52c1.05,0,2.29-.01,3.5-.07.07-.33.11-.62.15-.87l-3.03.2-.11-.52,3.19-.15c.02-.26.02-.48.02-.68h-2.97v-.53h3.66v.43ZM69.36,241h5.27v1.6h-4.56v.72h4.82v.51h-5.49v-1.71h4.55v-.62h-4.59v-.5ZM72.35,239.81h1.58v-3.7h.69v4.61h-.69v-.44h-1.58v-.47Z"/>
        <path class="cls-1" d="M76.14,236.83h3.64v2.78h-2.92v1.85c1.3,0,2.45-.06,3.85-.28l.07.58c-1.44.22-2.62.28-3.97.28h-.65v-2.99h2.93v-1.64h-2.94v-.57ZM82.15,243.93h-.69v-7.83h.69v7.83Z"/>
        <path class="cls-1" d="M87.51,237.39h-3.12v1.62h2.84v.56h-2.84v1.89c1.46,0,2.46-.05,3.66-.25l.07.57c-1.24.21-2.29.25-3.79.25h-.62v-5.22h3.81v.58ZM88.97,236.1h.69v7.81h-.69v-7.81Z"/>
        <path class="cls-1" d="M94.04,237.52h-2.91v-.58h3.61c0,2.21-1.04,4.23-3.59,5.48l-.39-.54c2.02-1,3.12-2.51,3.27-4.36ZM96.76,239.28h1.27v.58h-1.27v4.05h-.69v-7.81h.69v3.18Z"/>
        <path class="cls-1" d="M104.1,239.35h3.25v.57h-7.15v-.57h3.22v-.92h.68v.92ZM103.32,236.89h-2.46v-.54h5.84v.54h-2.47c.07.8,1.37,1.38,2.73,1.49l-.23.52c-1.3-.12-2.53-.63-2.95-1.45-.42.82-1.65,1.33-2.96,1.45l-.23-.52c1.35-.11,2.66-.69,2.73-1.49ZM100.88,240.96h2.55v-.74h.69v.74h2.57v.54h-5.8v-.54ZM103.77,241.89c1.51,0,2.36.35,2.36,1.03s-.86,1.04-2.36,1.04c-1.52,0-2.36-.35-2.36-1.04,0-.68.83-1.02,2.36-1.03ZM103.77,243.47c1.06,0,1.66-.19,1.66-.55,0-.36-.6-.54-1.66-.54-1.05,0-1.66.18-1.66.54s.61.56,1.66.55Z"/>
        <path class="cls-1" d="M108.06,236.86h3.65v.57h-2.96v3.96c1.42,0,2.41-.07,3.58-.28l.09.6c-1.23.22-2.25.26-3.74.26h-.62v-5.11ZM113.77,239.19h1.31v.58h-1.31v4.16h-.69v-7.83h.69v3.09Z"/>
        <path class="cls-1" d="M119.18,237.48h1.83v-1.37h.69v5.7h-.69v-2.08h-1.83v.7h-3.59v-3.65h3.59v.69ZM118.5,239.88v-2.52h-2.22v2.52h2.22ZM116.65,241.3h.69v1.86h4.54v.58h-5.23v-2.44ZM121.01,239.16v-1.1h-1.83v1.1h1.83Z"/>
        <path class="cls-1" d="M128.05,237.52h-2.91v-.58h3.61c0,2.21-1.04,4.23-3.59,5.48l-.39-.54c2.02-1,3.12-2.51,3.27-4.36ZM130.77,239.28h1.27v.58h-1.27v4.05h-.69v-7.81h.69v3.18Z"/>
        <path class="cls-1" d="M136.26,237.51h1.76v-1.4h.69v4.66h-.69v-1.04h-2.07v-.57h2.07v-1.08h-1.95c-.53,1.23-1.75,2.12-3.44,2.58l-.27-.55c1.91-.53,3.12-1.57,3.26-2.91h-2.86v-.56h3.6c0,.3-.04.59-.1.87ZM133.45,241.11h5.26v2.79h-.69v-2.24h-4.56v-.55Z"/>
        <path class="cls-1" d="M146.86,240.78h-7.12v-.56h7.12v.56ZM143.3,236.38c1.68,0,2.76.57,2.76,1.55,0,.97-1.08,1.56-2.76,1.56s-2.77-.58-2.77-1.56,1.07-1.56,2.77-1.55ZM140.66,241.47h.69v1.7h4.71v.58h-5.41v-2.28ZM143.3,238.92c1.25,0,2.05-.37,2.06-.99,0-.61-.8-.99-2.06-.99s-2.06.38-2.06.99c0,.62.79.99,2.06.99Z"/>
        <path class="cls-1" d="M153.79,239.79l-.38.54c-.86-.32-1.54-.96-1.89-1.78-.33.93-1.03,1.64-1.95,2l-.37-.55c1.17-.44,1.96-1.48,1.96-2.69v-.81h.68v.86c0,1.06.81,2.04,1.94,2.43ZM152.84,241.06c1.6,0,2.58.52,2.58,1.42s-.97,1.42-2.58,1.42-2.59-.51-2.59-1.42c0-.89.98-1.42,2.59-1.42ZM152.84,243.35c1.18,0,1.9-.33,1.91-.88,0-.53-.73-.86-1.91-.86s-1.91.33-1.9.86c0,.55.72.87,1.9.88ZM154.66,236.1h.69v2.04h1.18v.58h-1.18v2.14h-.69v-4.75Z"/>
        <path class="cls-1" d="M158.38,240.14v-1.7h.69v1.68c.87-.04,1.76-.1,2.58-.21l.04.51c-1.64.28-3.52.31-4.91.32l-.07-.57c.51,0,1.08,0,1.68-.02ZM161.08,237.12c0,.51,0,1.29-.2,2.31l-.69-.05c.19-.93.21-1.6.21-2.09h-3.21v-.58h3.89v.41ZM157.91,241.45h.69v1.71h4.53v.58h-5.22v-2.29ZM162.17,236.1h.7v2.55h1.14v.59h-1.14v2.74h-.7v-5.88Z"/>
        <path class="cls-1" d="M11.82,250.45c1.05,0,1.85.59,2,1.49h1.63v-1.85h.69v4.14h-.69v-1.72h-1.63c-.14.92-.94,1.53-2,1.53-1.19,0-2.04-.73-2.03-1.8,0-1.07.84-1.79,2.03-1.79ZM11.82,253.47c.79,0,1.35-.51,1.35-1.23s-.57-1.21-1.35-1.21-1.37.5-1.37,1.21.57,1.23,1.37,1.23ZM11.22,255.66h1.42v-.98h.64v3.12h-2.72v-3.12h.65v.98ZM12.64,257.26v-1.07h-1.42v1.07h1.42ZM14.83,255.3v-.67h.69v.67c0,.82.49,1.69,1.44,2.04l-.36.53c-.72-.29-1.19-.84-1.43-1.49-.25.64-.73,1.19-1.42,1.49l-.36-.53c.94-.39,1.44-1.25,1.44-2.04Z"/>
        <path class="cls-1" d="M17.51,250.86h3.65v.57h-2.96v3.96c1.42,0,2.41-.07,3.58-.28l.09.6c-1.23.22-2.25.26-3.74.26h-.62v-5.11ZM23.22,253.19h1.31v.58h-1.31v4.16h-.69v-7.83h.69v3.09Z"/>
        <path class="cls-1" d="M24.67,254.09h7.15v.56h-7.15v-.56ZM25.6,255.45h.69v1.7h4.75v.57h-5.44v-2.27ZM31,253.03h-5.35v-2.64h.69v2.08h4.67v.55Z"/>
        <path class="cls-1" d="M34.18,254.56h7.12v.57h-3.23v2.79h-.68v-2.79h-3.21v-.57ZM40.88,253.34l-.25.54c-1.22-.21-2.41-.86-2.88-1.8-.47.94-1.67,1.59-2.87,1.8l-.27-.54c1.36-.2,2.75-1.09,2.75-2.14v-.05h-2.5v-.56h5.77v.56h-2.5v.05c0,1.05,1.39,1.93,2.75,2.14Z"/>
        <path class="cls-1" d="M46.89,255.36l.05.51c-1.79.33-3.71.34-5.12.34l-.1-.59c1.44,0,3.43,0,5.16-.26ZM46.34,252.51c0,1.09-.87,1.83-2.1,1.84-1.23,0-2.11-.75-2.11-1.84,0-1.09.88-1.83,2.11-1.84,1.23,0,2.1.75,2.1,1.84ZM44.24,253.74c.83,0,1.43-.5,1.42-1.23,0-.73-.6-1.23-1.42-1.23s-1.44.51-1.43,1.23c0,.73.6,1.23,1.43,1.23ZM47.41,250.1h.69v7.83h-.69v-7.83Z"/>
        <path class="cls-1" d="M49.54,250.86h3.65v.57h-2.96v3.96c1.42,0,2.41-.07,3.58-.28l.09.6c-1.23.22-2.25.26-3.74.26h-.62v-5.11ZM55.24,253.19h1.31v.58h-1.31v4.16h-.69v-7.83h.69v3.09Z"/>
        <path class="cls-1" d="M56.97,256.68c0-.31.25-.56.56-.56s.57.25.56.56c0,.31-.25.57-.56.57-.31,0-.57-.26-.56-.57Z"/>
        <path class="cls-1" d="M62.98,250.71c1.16,0,2,1.06,2,2.72,0,1.67-.83,2.72-2,2.72-1.17,0-1.99-1.05-2-2.72,0-1.66.83-2.72,2-2.72ZM62.98,255.53c.79,0,1.33-.83,1.33-2.1s-.54-2.1-1.33-2.11c-.78,0-1.33.84-1.33,2.11s.54,2.1,1.33,2.1ZM67.14,257.93h-.69v-7.83h.69v7.83Z"/>
        <path class="cls-1" d="M72.13,255.93h-3.6v-5.04h3.6v5.04ZM71.44,255.36v-3.92h-2.25v3.92h2.25ZM73.56,250.1h.69v3.12h1.31v.6h-1.31v4.1h-.69v-7.81Z"/>
        <path class="cls-1" d="M75.71,256.32h7.15v.57h-7.15v-.57ZM82.04,254.89h-5.41v-4.11h5.32v.58h-4.61v1.16h4.45v.55h-4.45v1.26h4.7v.56Z"/>
        <path class="cls-1" d="M88.42,255.36l.05.51c-1.79.33-3.71.34-5.12.34l-.1-.59c1.44,0,3.43,0,5.16-.26ZM87.88,252.51c0,1.09-.87,1.83-2.1,1.84-1.23,0-2.11-.75-2.11-1.84,0-1.09.88-1.83,2.11-1.84,1.23,0,2.1.75,2.1,1.84ZM85.78,253.74c.83,0,1.43-.5,1.42-1.23,0-.73-.6-1.23-1.42-1.23s-1.44.51-1.43,1.23c0,.73.6,1.23,1.43,1.23ZM88.94,250.1h.69v7.83h-.69v-7.83Z"/>
        <path class="cls-1" d="M93.79,255.38v-3.86h-.88v-.57h4.46v.57h-.89v3.76c.44-.03.87-.07,1.29-.12l.04.52c-1.71.26-3.59.29-5.04.3l-.08-.59c.34,0,.7,0,1.08,0ZM95.81,255.32v-3.8h-1.34v3.85c.44,0,.89-.03,1.34-.05ZM99.18,257.91h-.69v-7.81h.69v7.81Z"/>
        <path class="cls-1" d="M100.22,256.26h2.79v-2.02h.68v2.02h3.65v.59h-7.12v-.59ZM106.47,251.62c0,.95,0,2.02-.33,3.61l-.68-.08c.15-.71.23-1.33.27-1.88l-4.77.29-.11-.61,4.92-.2c.02-.41.02-.78.02-1.13v-.18h-4.71v-.57h5.39v.76Z"/>
        <path class="cls-1" d="M107.73,256.23h7.12v.58h-7.12v-.58ZM113.96,251.87c0,1.15,0,2.21-.33,3.8l-.69-.06c.18-.75.26-1.4.3-2.01l-4.77.26-.1-.57,4.9-.2c.01-.41.02-.81.02-1.21v-.39h-4.7v-.58h5.37v.97Z"/>
        <path class="cls-1" d="M124.38,256.88h-7.15v-.58h7.15v.58ZM118.07,250.66h.69v1.46h4.06v-1.46h.68v4.07h-5.43v-4.07ZM122.83,254.18v-1.5h-4.06v1.5h4.06Z"/>
        <path class="cls-1" d="M125.08,250.78h2.96v2.23h-2.28v1.19c1.03,0,1.82-.05,2.74-.24l.08.55c-1.02.2-1.85.24-2.98.24h-.51v-2.29h2.29v-1.12h-2.3v-.56ZM126.25,255.39h.69v1.78h4.68v.58h-5.36v-2.36ZM131.37,255.93h-.66v-2.9h-1.1v2.67h-.64v-5.44h.64v2.19h1.1v-2.34h.66v5.82Z"/>
        <path class="cls-1" d="M132.25,256.27h7.15v.58h-7.15v-.58ZM138.56,254.43h-5.4v-3.6h5.32v.57h-4.63v2.46h4.71v.57Z"/>
        <path class="cls-1" d="M142.25,250.85h3.72v.58h-3.02v3.96c1.52,0,2.52-.04,3.69-.25l.07.58c-1.21.22-2.24.27-3.82.27h-.63v-5.14ZM148.18,257.93h-.69v-7.83h.69v7.83Z"/>
        <path class="cls-1" d="M151.26,252.42v-.94h-1.78v-.57h4.27v.57h-1.79v.94c0,1.3.94,2.72,2.07,3.23l-.41.55c-.89-.44-1.64-1.38-2-2.47-.35,1.16-1.12,2.17-2.02,2.63l-.42-.54c1.13-.55,2.08-2.02,2.08-3.41ZM155.73,257.93h-.69v-4.41h-1.71v-.57h1.71v-2.85h.69v7.83Z"/>
        <path class="cls-1" d="M156.76,256.32h7.15v.57h-7.15v-.57ZM163.09,254.89h-5.41v-4.11h5.32v.58h-4.61v1.16h4.45v.55h-4.45v1.26h4.7v.56Z"/>
        <path class="cls-1" d="M164.58,250.83h3.55v2.79h-2.85v1.83c1.45,0,2.46-.05,3.65-.27l.07.57c-1.23.22-2.27.28-3.78.29h-.62v-2.99h2.85v-1.65h-2.87v-.57ZM170.31,253.21h1.31v.58h-1.31v4.14h-.69v-7.83h.69v3.11Z"/>
        <path class="cls-1" d="M175.73,251.48h1.83v-1.37h.69v5.7h-.69v-2.08h-1.83v.7h-3.59v-3.65h3.59v.69ZM175.05,253.88v-2.52h-2.22v2.52h2.22ZM173.2,255.3h.69v1.86h4.54v.58h-5.23v-2.44ZM177.56,253.16v-1.1h-1.83v1.1h1.83Z"/>
        <path class="cls-1" d="M11.9,264.65c1.17,0,2.04.79,2.05,1.92,0,1.14-.88,1.93-2.05,1.92-1.17,0-2.05-.79-2.05-1.92,0-1.12.88-1.91,2.05-1.92ZM11.9,267.89c.78,0,1.37-.54,1.37-1.32s-.59-1.31-1.37-1.31-1.38.54-1.37,1.31c0,.78.58,1.32,1.37,1.32ZM11.07,269.24h.69v1.92h4.61v.58h-5.29v-2.5ZM16.12,269.82h-.69v-5.71h.69v5.71Z"/>
        <path class="cls-1" d="M19.19,265.54v-.29h-1.77v-.58h4.21v.58h-1.75v.28c0,1.02.78,1.99,1.92,2.38l-.36.55c-.87-.32-1.56-.98-1.89-1.78-.33.91-1.06,1.64-1.99,2l-.36-.55c1.16-.42,1.99-1.48,1.99-2.59ZM21.06,269c1.62,0,2.62.53,2.62,1.45s-1,1.45-2.62,1.46c-1.63,0-2.62-.54-2.62-1.46,0-.92.99-1.45,2.62-1.45ZM21.06,271.36c1.2,0,1.93-.34,1.93-.91s-.74-.91-1.93-.91-1.94.34-1.93.91c0,.57.73.91,1.93.91ZM23.65,268.76h-.69v-2.05h-1.57v-.57h1.57v-2.04h.69v4.66Z"/>
        <path class="cls-1" d="M26.97,264.71c1.16,0,2,1.06,2,2.72,0,1.67-.83,2.72-2,2.72-1.17,0-1.99-1.05-2-2.72,0-1.66.83-2.72,2-2.72ZM26.97,269.53c.79,0,1.33-.83,1.33-2.1s-.54-2.1-1.33-2.11c-.78,0-1.33.84-1.33,2.11s.54,2.1,1.33,2.1ZM31.12,271.93h-.69v-7.83h.69v7.83Z"/>
        <path class="cls-1" d="M32.5,264.83h3.55v2.79h-2.85v1.83c1.45,0,2.47-.05,3.65-.27l.07.57c-1.23.22-2.27.28-3.78.29h-.62v-2.99h2.85v-1.65h-2.87v-.57ZM38.24,267.21h1.31v.58h-1.31v4.14h-.69v-7.83h.69v3.11Z"/>
        <path class="cls-1" d="M39.7,270.23h2.79v-2.79h.68v2.79h3.65v.57h-7.12v-.57ZM45.96,265.67c0,.96,0,2.03-.29,3.6l-.7-.08c.29-1.49.29-2.59.3-3.52v-.21h-4.82v-.57h5.51v.78Z"/>
        <path class="cls-1" d="M49.21,265.07h1.99v-.96h.69v.96h1.99v.56h-4.66v-.56ZM51.54,266.06c1.12,0,1.87.57,1.88,1.46,0,.88-.76,1.45-1.88,1.44-1.13,0-1.89-.56-1.88-1.44,0-.89.75-1.46,1.88-1.46ZM51.54,268.42c.73,0,1.22-.35,1.23-.9,0-.56-.5-.92-1.23-.91-.74,0-1.23.36-1.22.91,0,.55.48.91,1.22.9ZM50.42,269.5h.68v1.67h4.57v.58h-5.25v-2.25ZM55.3,266.68h1.18v.58h-1.18v2.7h-.69v-5.85h.69v2.58Z"/>
        <path class="cls-1" d="M57.04,264.86h3.65v.57h-2.96v3.96c1.42,0,2.41-.07,3.58-.28l.09.6c-1.23.22-2.25.26-3.74.26h-.62v-5.11ZM62.75,267.19h1.31v.58h-1.31v4.16h-.69v-7.83h.69v3.09Z"/>
        <path class="cls-1" d="M64.47,270.68c0-.31.25-.56.56-.56s.57.25.56.56c0,.31-.25.57-.56.57-.31,0-.57-.26-.56-.57Z"/>
      </g>
      <g>
        <path class="cls-1" d="M37.2,188.32h.93l-.44,2.5h-1.25l.76-2.5ZM39.15,188.32h.93l-.44,2.5h-1.25l.76-2.5Z"/>
        <path class="cls-1" d="M41.02,188.21h3.89v.91h-2.77v3.54c1.43,0,2.32-.04,3.32-.22l.11.92c-1.11.21-2.13.25-3.86.25h-.69v-5.41ZM47.24,195.52h-1.13v-8.02h1.13v8.02Z"/>
        <path class="cls-1" d="M49.92,189.51v-.33h-1.66v-.9h4.47v.9h-1.66v.33c0,1.41.65,2.87,2,3.45l-.66.89c-.93-.43-1.56-1.27-1.9-2.29-.35,1.09-.98,2-1.92,2.46l-.67-.89c1.34-.62,2-2.14,2-3.62ZM54.8,195.52h-1.12v-4.32h-1.43v-.91h1.43v-2.79h1.12v8.02Z"/>
        <path class="cls-1" d="M55.55,193.65h7.32v.91h-7.32v-.91ZM62.08,192.52h-5.66v-4.43h5.6v.91h-4.46v.84h4.27v.88h-4.27v.91h4.52v.89Z"/>
        <path class="cls-1" d="M64.82,188.7h1.81v-1.07h1.12v1.07h1.77v.9h-4.7v-.9ZM67.2,190.04c1.16,0,2.04.79,2.04,1.91s-.88,1.9-2.04,1.91c-1.18,0-2.05-.79-2.05-1.91,0-1.12.87-1.91,2.05-1.91ZM67.2,192.93c.56,0,.97-.36.97-.98s-.41-.99-.97-1c-.57,0-.98.39-.98,1s.41.99.98.98ZM71.18,190.63h1.18v.92h-1.18v3.95h-1.11v-8h1.11v3.13Z"/>
        <path class="cls-1" d="M72.63,188.27h1.12v4.34c1.02-.02,2.12-.11,3.28-.35l.11.93c-1.34.27-2.64.34-3.81.34h-.69v-5.26ZM79.82,191.45h-1.13v4.03h-1.12v-7.98h1.12v3.03h1.13v.91Z"/>
        <path class="cls-1" d="M86.41,191.97h-2.32v1.71h3.12v.91h-7.32v-.91h3.08v-1.71h-2.22v-3.9h5.6v.9h-4.47v2.12h4.54v.89Z"/>
        <path class="cls-1" d="M89.2,193.53h7.29v.92h-7.29v-.92ZM95.59,189.2c0,1.1,0,2.18-.29,3.84l-1.13-.1c.3-1.54.3-2.68.31-3.74v-.06h-4.53v-.9h5.64v.96Z"/>
        <path class="cls-1" d="M97.03,187.95h1.12v2.81c.97-.01,2.01-.1,3.12-.32l.13.91c-1.32.26-2.56.34-3.69.34h-.69v-3.74ZM100.41,192.27c1.64,0,2.71.62,2.72,1.61,0,1.02-1.07,1.63-2.72,1.63s-2.74-.61-2.74-1.63,1.08-1.62,2.74-1.61ZM100.41,194.62c1.01,0,1.61-.25,1.61-.74s-.6-.71-1.61-.71-1.64.23-1.63.71c0,.48.6.74,1.63.74ZM104.1,189.44h-1.05v.78h1.05v.94h-1.05v1.02h-1.12v-4.68h1.12v1.02h1.05v.91Z"/>
        <path class="cls-1" d="M106.35,188.07h3.8v1.34h1.49v-1.92h1.12v4.73h-1.12v-1.92h-1.49v1.49h-3.8v-3.73ZM112.76,195.51h-1.12v-2.02h-4.38v-.89h5.49v2.91ZM109.05,190.91v-1.93h-1.58v1.93h1.58Z"/>
        <path class="cls-1" d="M113.53,190.73h7.29v.89h-7.29v-.89ZM120.08,188.98c0,.89-1.07,1.37-2.91,1.37s-2.92-.48-2.92-1.37,1.07-1.36,2.92-1.36,2.9.48,2.91,1.36ZM114.37,192.08h5.56v2.04h-4.46v.48h4.67v.84h-5.77v-2.11h4.45v-.44h-4.46v-.82ZM117.17,189.52c1.18,0,1.75-.15,1.75-.54,0-.36-.57-.54-1.75-.54s-1.74.19-1.74.54c0,.39.57.54,1.74.54Z"/>
        <path class="cls-1" d="M122.83,191.43h7.32v.9h-3.01v1.38h-1.11v-1.38h-3.2v-.9ZM129.76,190.09l-.42.89c-1.35-.2-2.34-.82-2.85-1.64-.51.83-1.51,1.46-2.86,1.66l-.41-.88c1.75-.25,2.69-1.22,2.7-2.14v-.26h1.15v.26c0,.89.94,1.88,2.7,2.12ZM123.69,193.01h1.12v1.45h4.54v.9h-5.65v-2.35Z"/>
        <path class="cls-1" d="M134.38,187.8c1.01,0,1.83.57,2.05,1.42h1.34v-1.71h1.12v4.24h-1.12v-1.6h-1.34c-.21.87-1.03,1.44-2.05,1.44-1.23,0-2.14-.78-2.13-1.9,0-1.1.9-1.88,2.13-1.88ZM134.08,192.98h.86v-.8h1.04v2.43c.89-.4,1.27-1.15,1.27-1.88v-.62h1.12v.62c0,.82.39,1.59,1.39,1.92l-.58.83c-.69-.24-1.13-.69-1.39-1.27-.26.56-.7,1.02-1.35,1.27l-.46-.69v.62h-2.94v-3.23h1.04v.8ZM134.38,190.67c.61,0,1.04-.38,1.05-.98,0-.59-.44-.95-1.05-.96-.63,0-1.07.37-1.06.96,0,.61.44.98,1.06.98ZM134.94,194.56v-.76h-.86v.76h.86Z"/>
        <path class="cls-1" d="M144.76,192.92l-.61.88c-.94-.4-1.59-1.2-1.95-2.16-.36,1.05-1.02,1.93-1.97,2.36l-.64-.89c1.33-.59,2.01-2.07,2.01-3.43v-.49h-1.7v-.91h4.52v.91h-1.67v.49c0,1.29.66,2.68,2,3.23ZM145.22,187.5h1.13v8h-1.13v-8Z"/>
        <path class="cls-1" d="M147.86,188.33h1.25l-.76,2.5h-.93l.44-2.5ZM150.3,190.83h-.93l.44-2.5h1.25l-.76,2.5Z"/>
      </g>
      <polygon class="cls-1" points="187.5 199.93 187 199.93 187 183.92 .5 183.92 .5 199.93 0 199.93 0 183.42 187.5 183.42 187.5 199.93"/>
    </g>
    <g>
      <path class="cls-1" d="M110.97,104.47v.59h-5.12l2.1-2.28c.44-.47.79-.86,1.06-1.18.27-.32.47-.6.62-.83.14-.23.24-.44.29-.63.05-.18.08-.37.08-.56,0-.19-.02-.38-.09-.56-.06-.18-.16-.34-.29-.48-.13-.14-.3-.25-.5-.34s-.44-.13-.72-.13c-.37,0-.67.06-.9.18-.23.12-.4.27-.52.44-.12.17-.2.35-.24.53-.04.18-.06.33-.06.44h-.63c.02-.43.1-.78.25-1.05.15-.27.33-.49.54-.65.22-.16.46-.27.72-.33.26-.06.52-.09.78-.09.34,0,.65.04.93.12.28.08.52.21.72.37s.35.38.46.64c.11.26.17.56.17.91,0,.24-.03.46-.08.67s-.15.43-.28.67c-.13.24-.32.5-.55.79-.23.29-.53.63-.89,1.03l-1.56,1.71h3.71Z"/>
      <path class="cls-1" d="M111.44,100.37c0-.96.24-1.67.71-2.12.47-.46,1.16-.68,2.08-.68s1.6.23,2.07.68c.47.46.71,1.16.71,2.12v2.14c0,.95-.24,1.66-.71,2.11-.47.45-1.16.68-2.07.68s-1.6-.23-2.08-.68c-.47-.45-.71-1.16-.71-2.11v-2.14ZM112.07,102.68c0,.66.19,1.16.58,1.51.39.34.91.52,1.57.52s1.18-.17,1.57-.52c.39-.35.58-.85.58-1.51v-2.5c0-.33-.05-.62-.16-.88-.11-.25-.25-.47-.44-.63-.19-.17-.42-.3-.68-.38-.26-.09-.56-.13-.87-.13s-.62.04-.88.13c-.26.09-.49.21-.68.38-.19.17-.33.38-.44.63-.1.25-.15.55-.15.88v2.5Z"/>
      <path class="cls-1" d="M122.67,104.47v.59h-5.12l2.1-2.28c.44-.47.79-.86,1.06-1.18.27-.32.47-.6.62-.83.14-.23.24-.44.29-.63s.08-.37.08-.56c0-.19-.02-.38-.09-.56-.06-.18-.16-.34-.29-.48s-.3-.25-.5-.34c-.2-.08-.44-.13-.72-.13-.37,0-.67.06-.9.18-.23.12-.4.27-.52.44-.12.17-.2.35-.24.53-.04.18-.06.33-.06.44h-.63c.02-.43.1-.78.25-1.05.15-.27.33-.49.54-.65.22-.16.46-.27.72-.33s.53-.09.78-.09c.34,0,.65.04.93.12s.52.21.72.37c.2.17.35.38.46.64s.17.56.17.91c0,.24-.03.46-.08.67-.05.21-.15.43-.28.67-.13.24-.32.5-.55.79-.23.29-.53.63-.89,1.03l-1.56,1.71h3.71Z"/>
      <path class="cls-1" d="M127.38,104.7c-.44.4-1.04.6-1.81.6-.25,0-.51-.04-.76-.11-.26-.07-.5-.19-.71-.35-.22-.16-.4-.37-.54-.63-.14-.26-.23-.57-.24-.95h.63c.03.45.18.8.45,1.06.27.25.67.38,1.19.38.25,0,.49-.03.71-.09.22-.06.42-.16.58-.3.17-.14.29-.32.39-.56s.14-.53.14-.88c0-.51-.16-.91-.48-1.21s-.76-.44-1.31-.44h-2.16v-3.44h4.24v.59h-3.61v2.25h1.41c.39,0,.74.05,1.06.15.32.1.58.25.8.44.22.19.39.42.5.7.12.28.18.59.18.94,0,.82-.22,1.43-.65,1.84Z"/>
      <path class="cls-1" d="M129.2,105.81v-1.1h1.18v1.1h-1.18Z"/>
      <path class="cls-1" d="M133.19,105.07v-6.58l-1.61.59v-.62l2.25-.85v7.45h-.64Z"/>
      <path class="cls-1" d="M135.51,100.37c0-.96.24-1.67.71-2.12.47-.46,1.16-.68,2.07-.68s1.6.23,2.07.68c.47.46.71,1.16.71,2.12v2.14c0,.95-.24,1.66-.71,2.11-.47.45-1.16.68-2.07.68s-1.6-.23-2.07-.68c-.47-.45-.71-1.16-.71-2.11v-2.14ZM136.14,102.68c0,.66.19,1.16.58,1.51.39.34.91.52,1.57.52s1.18-.17,1.57-.52c.39-.35.58-.85.58-1.51v-2.5c0-.33-.05-.62-.16-.88-.1-.25-.25-.47-.44-.63-.19-.17-.42-.3-.68-.38-.26-.09-.55-.13-.87-.13s-.62.04-.88.13c-.26.09-.49.21-.68.38-.19.17-.33.38-.44.63-.1.25-.15.55-.15.88v2.5Z"/>
      <path class="cls-1" d="M142.17,105.81v-1.1h1.18v1.1h-1.18Z"/>
      <path class="cls-1" d="M146.16,105.07v-6.58l-1.61.59v-.62l2.25-.85v7.45h-.64Z"/>
      <path class="cls-1" d="M152.71,104.7c-.43.4-1.04.6-1.81.6-.25,0-.51-.04-.76-.11-.26-.07-.5-.19-.71-.35s-.4-.37-.54-.63c-.14-.26-.22-.57-.24-.95h.63c.03.45.18.8.46,1.06.27.25.67.38,1.19.38.25,0,.49-.03.71-.09s.42-.16.58-.3c.17-.14.29-.32.39-.56.09-.23.14-.53.14-.88,0-.51-.16-.91-.48-1.21-.32-.29-.76-.44-1.31-.44h-2.16v-3.44h4.24v.59h-3.61v2.25h1.41c.39,0,.74.05,1.06.15.31.1.58.25.8.44.22.19.39.42.5.7s.18.59.18.94c0,.82-.22,1.43-.65,1.84Z"/>
      <path class="cls-1" d="M159.92,101.86h-3.35v-.59h3.35v.59Z"/>
      <path class="cls-1" d="M164.73,105.07v-6.58l-1.61.59v-.62l2.25-.85v7.45h-.64Z"/>
      <path class="cls-1" d="M167.05,100.37c0-.96.24-1.67.71-2.12.47-.46,1.16-.68,2.08-.68s1.6.23,2.07.68c.47.46.71,1.16.71,2.12v2.14c0,.95-.24,1.66-.71,2.11-.47.45-1.16.68-2.07.68s-1.6-.23-2.08-.68c-.47-.45-.71-1.16-.71-2.11v-2.14ZM167.68,102.68c0,.66.19,1.16.58,1.51.39.34.91.52,1.57.52s1.18-.17,1.57-.52c.39-.35.58-.85.58-1.51v-2.5c0-.33-.05-.62-.16-.88-.11-.25-.25-.47-.44-.63-.19-.17-.42-.3-.68-.38-.26-.09-.56-.13-.87-.13s-.62.04-.88.13c-.26.09-.49.21-.68.38-.19.17-.33.38-.44.63-.1.25-.15.55-.15.88v2.5Z"/>
      <path class="cls-1" d="M173.71,105.81v-1.1h1.18v1.1h-1.18Z"/>
      <path class="cls-1" d="M181,104.47v.59h-5.12l2.1-2.28c.44-.47.79-.86,1.06-1.18.27-.32.47-.6.62-.83.14-.23.24-.44.29-.63.05-.18.08-.37.08-.56,0-.19-.02-.38-.09-.56-.06-.18-.16-.34-.29-.48-.13-.14-.3-.25-.5-.34s-.44-.13-.72-.13c-.37,0-.67.06-.9.18-.23.12-.4.27-.52.44-.12.17-.2.35-.24.53-.04.18-.06.33-.06.44h-.63c.02-.43.1-.78.25-1.05.15-.27.33-.49.54-.65.22-.16.46-.27.72-.33.26-.06.52-.09.78-.09.34,0,.65.04.93.12.28.08.52.21.72.37s.35.38.46.64c.11.26.17.56.17.91,0,.24-.03.46-.08.67s-.15.43-.28.67c-.13.24-.32.5-.55.79-.23.29-.53.63-.89,1.03l-1.56,1.71h3.71Z"/>
      <path class="cls-1" d="M185.25,100.68c.3.12.56.29.77.5s.38.45.5.73c.12.28.18.59.18.94,0,.41-.06.77-.18,1.07-.12.31-.29.56-.51.77-.22.21-.49.36-.8.47-.31.1-.66.16-1.04.16-.44,0-.82-.07-1.14-.22s-.58-.34-.78-.58-.35-.5-.45-.8c-.1-.3-.14-.59-.14-.89,0-.17.01-.34.04-.51s.07-.33.11-.49c.04-.16.09-.3.14-.43.05-.13.09-.24.13-.32l1.48-3.28h.73l-1.38,3.07c.1-.08.21-.15.34-.2.13-.05.26-.09.39-.12.13-.03.24-.04.36-.05.11,0,.2-.01.27-.01.36.01.69.08.99.2ZM184.99,104.57c.23-.09.43-.22.59-.38.16-.16.28-.36.36-.58s.12-.47.12-.73c0-.23-.04-.46-.1-.67-.07-.21-.18-.4-.33-.56-.15-.16-.35-.29-.59-.39s-.53-.15-.88-.15c-.27,0-.52.04-.75.12-.23.08-.42.2-.59.36-.17.16-.29.34-.39.57-.1.22-.14.47-.14.75,0,.25.04.49.12.71.08.22.2.42.36.58.16.16.36.29.59.39.24.09.51.14.81.14s.58-.05.82-.14Z"/>
    </g>
  </g>
</svg>