<svg width="109" height="24" viewBox="0 0 109 24" fill="none" xmlns="http://www.w3.org/2000/svg">
<path d="M74.6951 18.5466V18.8693L87.8084 18.9469C87.9625 19.0207 88.0295 19.1174 88.0515 19.285C88.1252 19.8471 88.1176 21.6235 88.0496 22.1943C88.0295 22.3629 87.9616 22.5142 87.8553 22.6454C86.2111 22.6904 84.5622 22.6932 82.917 22.6798C79.7062 22.654 76.458 22.5908 73.2471 22.5448C71.9159 22.5257 70.556 22.6243 69.2372 22.4912C69.0926 22.4768 68.7328 22.5726 68.6428 22.3121C68.5653 22.0861 68.6476 21.2223 68.6352 20.8996C68.5768 19.3779 68.4294 17.429 68.5653 15.9294C68.6132 15.3988 68.9022 15.4122 69.3721 15.3806C69.8659 15.3471 70.3301 15.4467 70.7914 15.4515C74.0635 15.4869 77.3299 15.3356 80.602 15.3873C80.8211 15.4314 80.8996 15.1403 80.7962 14.9928C80.7245 14.8903 79.8803 14.9277 79.6956 14.9334C76.0752 15.0435 72.4375 15.0541 68.8074 15.0483L68.4342 14.7735L68.5002 12.1218C68.4983 12.025 68.5242 11.9599 68.5959 11.8948C68.8438 11.6736 70.3071 11.7856 70.7311 11.7722C74.8741 11.6448 79.0286 11.6764 83.1802 11.6429C84.5918 11.6314 86.0867 11.4543 87.5022 11.573C87.9769 11.6132 88.0065 11.9484 88.0467 12.3832C88.2257 14.3358 87.9271 16.3593 87.9175 18.3187C87.9223 18.3867 87.7922 18.5466 87.7577 18.5466H74.6951Z" fill="white"/>
<path d="M89.2088 6.34845V1.34569C89.2088 1.26429 89.3533 1.03062 89.4624 1.01913C89.7925 1.02009 90.1476 0.939646 90.4634 0.923366C93.9317 0.750032 97.6747 0.937731 101.176 0.929112C101.327 0.929112 101.463 0.846753 101.61 0.871652C102.148 0.961671 102.042 2.10798 102.048 2.51019C102.109 6.40208 100.959 11.063 97.6536 13.4753C95.1548 15.2977 92.2215 15.3858 89.2547 14.9845C88.8058 14.8572 89.0767 13.5902 89.0824 13.2253C89.1016 12.0417 89.0623 10.8561 89.0796 9.67245C89.1705 9.17352 90.5189 9.67149 90.8539 9.70405C92.8531 9.90037 94.8227 8.96954 95.5147 7.01019C95.8429 6.07839 95.507 6.39442 94.8553 6.41548C93.5326 6.45858 92.1727 6.46337 90.8558 6.47965C90.3007 6.48635 89.7476 6.48444 89.2078 6.34749L89.2088 6.34845Z" fill="white"/>
<path d="M95.2924 17.6876C95.4302 17.8351 95.7556 17.861 95.9575 17.8926C97.9711 18.2076 100.957 18.0879 103.047 18.0324C104.273 17.9998 106.78 17.6273 107.851 17.8667C107.906 17.8791 108.276 18.0333 108.303 18.0601C108.474 18.2249 108.419 20.2014 108.428 20.5816C108.432 20.7339 108.496 20.8756 108.498 21.0279C108.505 21.5728 108.496 22.1206 108.451 22.6597C108.293 22.8762 108.152 22.9154 107.885 22.9365C105.365 23.1319 102.668 22.8426 100.146 23.0658C97.6123 22.8235 94.6186 23.4469 92.1495 23.0581C89.5875 22.6549 89.1023 20.3068 89.0133 18.064C88.9989 17.7106 88.9779 15.96 89.109 15.7656L94.8435 15.7158C95.213 15.8403 94.901 17.2663 95.2943 17.6857L95.2924 17.6876Z" fill="white"/>
<path d="M7.32961 1.23366C14.2914 0.609707 15.4505 7.7301 14.463 13.1225C14.3706 13.629 14.0625 13.6892 13.618 13.7612C12.6393 13.9182 11.0812 14.0298 10.0732 14.0724C8.84961 14.1252 7.63331 13.999 6.41262 13.9711C6.33192 13.977 6.26737 14.0093 6.20428 14.0592C5.79493 14.3734 6.1676 16.2584 6.06636 16.7884C6.40968 19.525 9.23401 19.1154 9.59934 16.5653C9.64482 16.2526 9.54945 15.3218 9.71965 15.2014C11.1971 14.9753 12.7274 14.9826 14.2283 14.9533C14.9296 15.0237 14.7946 16.0456 14.7668 16.5902C14.5144 21.5011 10.864 24.2964 6.04436 22.9443C3.92721 22.3497 2.24289 20.3706 1.54451 18.3432C-0.333486 12.8876 -0.36283 1.92368 7.32961 1.23366ZM10.2038 9.30393C10.6454 6.90061 7.73308 4.70577 6.12212 7.1502C5.72011 7.76093 5.28435 8.75339 5.73185 9.40376L10.2038 9.3054V9.30393Z" fill="white"/>
<path d="M56.72 23.0483C56.406 22.7341 56.7801 22.3024 56.8462 21.9853C57.3215 19.7171 56.3899 21.1206 55.4025 21.7284C53.2956 23.0233 49.6834 23.1877 47.2523 23.1716C46.7475 23.1686 46.0609 23.013 45.5195 23.0248C45.0955 22.6856 45.3434 22.2158 45.3273 21.84C45.2848 20.8563 45.3038 20.1311 45.3273 19.168C45.3405 18.6395 45.2187 17.4151 45.342 17.0055C45.4197 16.7485 45.8247 16.6678 46.0653 16.6399C47.3931 16.4901 49.0393 16.7016 50.4199 16.6443C52.4813 16.5577 54.305 16.2009 56.1991 15.4023C57.3377 14.9222 57.301 14.6711 57.3861 13.4232C57.6135 10.1156 57.6414 5.0241 57.0252 1.81332C56.9533 1.43601 56.6158 0.856099 56.7596 0.53458L57.634 0.213061L62.5579 0.136719C62.9335 0.204252 63.0333 0.616795 63.0274 0.951527C63.0127 1.71789 62.7031 2.88651 62.6298 3.72775C62.1603 9.16127 62.4082 14.539 62.8264 19.9564C62.9042 20.9635 62.778 21.9178 63.2093 22.9029L62.7853 23.2626C61.993 23.1202 61.1142 23.1525 60.3014 23.1672C60.0197 23.1716 59.7761 23.2714 59.5194 23.2743C59.0689 23.2802 56.9635 23.2905 56.7214 23.0483H56.72Z" fill="white"/>
<path d="M103.851 6.5425C103.461 6.54442 102.958 6.95717 102.6 6.72925C102.263 6.51473 102.385 4.99782 102.37 4.57166C102.351 3.99037 102.221 3.35162 102.301 2.76362C102.406 1.9793 103.752 2.8364 103.851 2.73393C103.887 1.87684 103.009 0.946959 104.397 0.923018C104.637 0.919187 104.853 1.00155 105.044 0.996757C106.029 0.972816 107.159 0.793736 108.143 0.923976C108.337 0.949833 108.425 1.00633 108.436 1.21702L108.115 2.90248C107.987 6.21595 107.823 9.65391 108.109 12.9645C108.161 13.5726 108.365 14.309 108.366 14.9018C108.367 15.8087 106.73 15.3797 106.143 15.3826C105.651 15.3854 104.947 15.5243 104.46 15.5061C104.395 15.5032 103.986 15.2964 103.95 15.2533C103.846 15.1297 103.562 14.4307 103.595 14.2592C103.672 13.8436 103.773 13.4146 103.789 12.9674C103.802 12.5786 103.817 12.1438 103.72 11.7722C103.646 11.7205 102.748 12.1917 102.429 11.8718C102.207 11.6487 102.37 11.4619 102.37 11.2254C102.373 10.3654 102.233 9.16551 102.301 8.38023C102.402 7.20137 103.155 8.09677 103.851 8.09294V6.54346V6.5425Z" fill="white"/>
<path d="M35.2145 0.739053C36.02 0.711158 36.8167 0.435151 37.0089 1.45843C37.0485 4.98633 37.025 8.52304 36.912 12.0363C36.8944 12.5736 37.0221 14.4337 36.8665 14.7611C36.733 15.0415 35.9818 15.1369 35.684 15.1604C34.522 15.2515 33.2059 15.1252 32.0175 15.1531C30.3229 15.1927 28.5799 15.3249 26.8838 15.3601C26.4495 15.3689 24.7814 15.4408 24.5525 15.2089L24.4058 1.30281C24.5921 0.988634 25.7101 1.12811 26.0872 1.10462C29.1169 0.913759 32.173 0.844758 35.2145 0.739053ZM32.0703 10.3083V6.00374L31.8224 5.85546C31.4292 5.97438 29.202 5.48403 29.202 6.00374V10.2584C29.202 10.2995 29.4367 10.5168 29.5409 10.4977L32.0703 10.3083Z" fill="white"/>
<path d="M17.8514 0.937284C19.5181 0.847728 21.1951 0.941688 22.8633 0.910857C23.4575 1.02537 23.3357 2.15729 23.3093 2.63884C23.1905 4.82634 22.7797 7.01531 22.7122 9.26595C22.6344 11.9306 22.586 15.0357 22.7122 17.6856C22.7929 19.3916 23.1171 21.0726 23.5118 22.7257L22.8428 23.2513C20.8283 23.1148 18.3987 23.5053 16.4341 23.2748C16.1333 23.2395 15.7563 23.0531 15.6947 22.7242C15.6492 22.4761 15.9455 21.1387 16.0174 20.776C17.0606 15.5187 17.0415 10.1835 16.4752 4.82781C16.4239 4.34039 16.2419 3.75902 16.1906 3.23343C16.1539 2.85759 16.06 1.87835 16.0864 1.5539C16.1011 1.37038 16.1671 1.0885 16.3549 1.02537C16.5192 0.969582 17.5433 0.956369 17.8514 0.938752V0.937284Z" fill="white"/>
<path d="M88.3549 7.36418C88.1482 7.57391 87.642 7.19181 87.4037 7.1219C87.3893 8.0106 87.4639 8.91079 87.6927 9.76884C87.8047 10.1883 88.2296 10.8002 87.4381 10.8682C86.305 10.9649 84.835 10.8682 83.6932 10.8021C83.1965 10.7734 82.3486 10.9965 82.3696 10.2563C82.385 9.74681 82.5802 9.05252 82.629 8.50953C82.8596 5.92675 82.9094 3.98751 82.629 1.41048C82.5802 0.957509 82.5706 0.781301 83.0491 0.732461C83.8167 0.653934 84.9814 0.63957 85.7614 0.664469C86.3126 0.682664 87.0208 0.729589 87.5683 0.792794C87.7329 0.811947 87.7999 0.85121 87.8286 1.02263C87.5625 1.92569 87.5041 2.8661 87.3989 3.7979L87.4994 3.95878C87.7874 3.75672 88.0573 3.13712 88.4564 3.38994C88.7492 3.57476 88.5645 4.17425 88.5607 4.44144C88.5531 4.99017 88.5301 5.51688 88.4995 6.05891C88.4822 6.36918 88.5665 7.15063 88.354 7.36514L88.3549 7.36418Z" fill="white"/>
<path d="M50.8348 0.0396072C55.3127 -0.557919 57.3212 5.74914 56.7813 9.25502C56.2649 12.6141 53.0488 16.7175 49.3119 14.8765C44.2501 12.3836 44.7328 0.852948 50.8363 0.0396072H50.8348ZM51.1282 5.08408C50.6514 5.19566 50.0235 6.30556 49.9178 6.74159C49.7109 7.60338 50.0308 10.2856 51.0285 10.5837C52.7759 11.1034 52.9857 8.21412 52.836 7.09247C52.7143 6.17783 52.3093 4.80807 51.1268 5.08408H51.1282Z" fill="white"/>
<path d="M39.1926 20.3015C37.5112 21.6067 35.4894 22.558 33.3811 22.9471C31.4723 23.298 28.4147 23.4404 26.4868 23.2686C26.167 23.2407 25.1341 23.0543 25.002 22.7753C24.9052 22.5713 24.9052 19.2078 24.9521 18.7659C24.9756 18.553 24.9962 18.3137 25.2412 18.2638L27.7662 18.4253C30.8165 18.5192 33.8125 17.7455 36.5884 16.5593C37.0344 16.3684 37.7738 15.8458 38.1759 15.7738C39.0312 15.6182 42.9867 15.6256 43.8935 15.7459C44.8002 15.8663 44.3395 18.0759 44.3292 18.7644C44.3189 19.4794 44.4598 22.9368 44.1825 23.2686C44.0475 23.4286 43.6998 23.4565 43.4973 23.4727C42.6405 23.5432 41.3039 23.4521 40.4294 23.3684C40.0025 23.3273 39.1926 23.2965 39.1926 22.7269V20.303V20.3015Z" fill="white"/>
<path d="M43.6262 4.56903C44.0003 4.16089 44.7544 3.22716 45.0171 4.22108C44.8219 6.12524 44.8029 8.03527 44.7985 9.94823C44.1412 10.4724 43.7142 9.84106 43.3782 9.31988C43.3049 9.40796 43.2476 9.65461 43.2491 9.76472C43.2623 10.6852 43.4927 11.9302 43.7289 12.8272C43.8404 13.2471 44.4463 14.5038 44.2277 14.8018C42.2118 14.8914 40.1402 15.2482 38.1419 14.9531C37.6357 14.2601 38.1374 13.3734 38.2548 12.6055C38.6319 10.1435 38.6392 6.44089 38.4866 3.92159C38.4573 3.42683 37.9878 1.23199 38.1081 1.02792C38.2915 0.958914 38.469 0.772463 38.651 0.731355C38.9327 0.668226 39.7616 0.631523 40.1152 0.612437C40.6287 0.586011 43.566 0.539031 43.8228 0.660885C43.9181 0.706397 44.0429 0.898721 44.0751 1.00296C44.2893 1.69151 43.4633 3.71165 43.6262 4.56903Z" fill="white"/>
<path d="M76.5669 2.60497C76.631 2.54081 76.4693 0.996124 76.8703 0.87546C77.5919 0.743305 78.324 0.823747 79.0533 0.800764C79.2246 0.795018 79.3796 0.733727 79.5634 0.730854C79.9338 0.724151 82.0172 0.670523 82.1502 0.85918L81.9856 10.7718C81.8162 10.8752 81.6363 10.9174 81.4392 10.9346C79.1691 11.1424 76.6272 10.8178 74.3437 11.0639H68.9843C68.6168 11.0361 68.5776 10.6128 68.5651 10.3217C68.7355 7.51005 68.3479 4.44941 68.5651 1.66744C68.6034 1.17712 68.7001 0.92813 69.2437 0.861095C70.3931 0.72032 72.1559 0.861095 73.3761 0.865883C73.6738 0.866841 73.6862 0.706914 73.9887 0.958775C74.449 1.34184 74.1399 2.11657 74.3695 2.64232L76.5669 2.60593V2.60497ZM75.4041 8.15455C75.3888 8.46004 76.164 9.02697 76.4109 9.05762C77.143 9.14955 77.8283 8.26181 78.0187 7.63934C78.1977 7.05326 78.1384 5.67999 77.8876 5.12168C77.412 4.06156 75.9822 3.79629 75.4347 4.93015L75.2864 4.91482C74.3925 3.53868 72.8775 4.44749 72.6325 5.76617C73.7369 4.50591 74.895 5.27394 74.6021 6.86651C74.4614 7.63359 73.7369 8.19382 73.023 7.66615L72.5675 7.12221C72.6057 8.15072 73.5838 9.2683 74.6758 8.74829C74.9687 8.60944 75.1304 8.29724 75.4041 8.15455Z" fill="white"/>
<path d="M76.0971 5.13766C76.6618 4.9921 77.2609 5.52359 77.3336 6.06275C77.4217 6.71108 77.0389 7.90143 76.2263 7.75204C75.0903 7.54327 75.0827 5.39814 76.0971 5.1367V5.13766Z" fill="white"/>
</svg>
