<svg width="94" height="20" viewBox="0 0 94 20" fill="none" xmlns="http://www.w3.org/2000/svg">
<g clip-path="url(#clip0_500_159)">
<path d="M6.27979 0.712891C5.76631 0.712891 0.116772 0.802348 0.00167011 9.29901C-0.11045 17.5828 5.45798 17.8297 6.05257 17.7939C6.5744 17.8255 10.9286 17.6388 11.9096 11.9911C11.9538 11.737 11.7576 11.5044 11.4993 11.5044H7.74809C7.52742 11.5044 7.34553 11.6762 7.333 11.8969C7.28648 12.7103 7.05211 14.506 5.89035 14.506C4.37435 14.506 4.07914 12.0686 4.30576 10.487L11.754 10.5121C11.9782 10.5127 12.1631 10.3361 12.1709 10.1119C12.2371 8.28874 12.1446 0.872125 6.28039 0.713487L6.27979 0.712891ZM7.49522 6.91587H4.61886C4.51092 6.91587 4.42743 6.81985 4.44234 6.7125C4.66777 5.09571 5.26177 4.37647 6.10088 4.37647C6.93999 4.37647 7.50655 5.17681 7.67294 6.71787C7.68427 6.82343 7.60138 6.91587 7.49522 6.91587Z" fill="white" fill-opacity="0.8"/>
<path d="M17.0481 0.403751C17.0743 0.188457 16.89 0 16.6515 0H13.069C12.8311 0 12.6462 0.188457 12.6724 0.403751C12.9879 2.98907 13.1459 5.5887 13.1459 8.19012V11.076C13.1459 13.6774 12.9879 16.2771 12.6724 18.8624C12.6462 19.0777 12.8305 19.2661 13.069 19.2661H16.6515C16.8894 19.2661 17.0743 19.0777 17.0481 18.8624C16.7326 16.2771 16.5745 13.6774 16.5745 11.076V8.19012C16.5745 5.5887 16.7326 2.98907 17.0481 0.403751Z" fill="white" fill-opacity="0.8"/>
<path d="M75.1149 9.99854H59.6215C59.4247 9.99854 59.2649 10.1584 59.2649 10.3552V12.4616C59.2649 12.6065 59.312 12.7491 59.4044 12.8612C59.4068 12.8642 59.4092 12.8665 59.411 12.8695C59.4915 12.9655 59.6149 13.0133 59.7396 13.0007C62.0726 12.7634 64.55 12.6113 67.3494 12.6155C68.7211 12.6173 70.0683 12.6572 71.3601 12.7252C71.3816 12.7485 71.3947 12.7616 71.4162 12.7848V13.5202C71.3929 13.5434 71.3798 13.5566 71.3565 13.5798H59.5863C59.408 13.5798 59.2637 13.7241 59.2637 13.9025V17.1021V19.4017V19.4357C59.2637 19.614 59.4086 19.7589 59.5869 19.7589H75.0768C75.2736 19.7589 75.4334 19.5991 75.4334 19.4023V17.2488C75.4334 17.145 75.4018 17.043 75.3416 16.9589C75.3398 16.9565 75.338 16.9541 75.3362 16.9512C75.2378 16.8158 75.0726 16.7454 74.9062 16.7621C72.5887 16.9959 70.1274 17.1462 67.3488 17.142C65.9772 17.1402 64.6299 17.1003 63.3382 17.0323C63.3167 17.009 63.3036 16.9959 63.2821 16.9726V16.2373C63.3054 16.214 63.3185 16.2009 63.3417 16.1777H75.0774C75.2742 16.1777 75.434 16.0178 75.434 15.821V12.656V10.3558V10.3182C75.434 10.1417 75.2909 9.99854 75.1143 9.99854H75.1149Z" fill="white" fill-opacity="0.8"/>
<path d="M92.8527 15.5156C87.9731 16.3649 82.416 16.3541 81.3515 16.344C81.2507 16.3428 81.1708 16.2587 81.1756 16.1579C81.1946 15.7565 81.2579 15.0105 81.2996 14.695L81.4636 13.4545C81.4922 13.2386 81.3008 13.0496 81.0551 13.0496H77.503C77.2567 13.0496 77.054 13.1563 77.0939 13.4545L77.1047 13.5094C77.4011 15.0343 77.5591 16.5861 77.5806 18.1421C77.5806 18.1498 77.5806 18.1582 77.5806 18.1659V19.3951C77.5806 19.5955 77.7356 19.7577 77.9265 19.7577H92.9416C93.1324 19.7577 93.2875 19.5955 93.2875 19.3951V15.8657C93.2875 15.6271 93.0776 15.4756 92.8527 15.515V15.5156Z" fill="white" fill-opacity="0.8"/>
<path d="M59.3814 7.86748L59.2388 8.7215C59.2138 8.87 59.3802 9.00061 59.5943 9.00061H70.517C70.7311 9.00061 70.8975 8.87 70.8725 8.7215L70.7299 7.86748C70.5904 7.03433 70.5033 6.19761 70.4675 5.35909V3.64151C70.5033 2.803 70.5904 1.96627 70.7299 1.13313L70.8725 0.279107C70.8975 0.130608 70.7311 0 70.517 0H67.3341C67.1254 0 66.8952 0.171162 66.8952 0.382878V1.53926C66.8952 1.63767 66.8153 1.71758 66.7169 1.71758H63.3944C63.296 1.71758 63.2161 1.63767 63.2161 1.53926V0.382878C63.2161 0.171162 63.0467 0 62.8386 0H59.5943C59.3802 0 59.2138 0.130608 59.2388 0.279107L59.3814 1.13313C59.5173 1.94659 59.6032 2.76364 59.6402 3.58128V5.41873C59.6032 6.23697 59.5173 7.05401 59.3814 7.86748Z" fill="white" fill-opacity="0.8"/>
<path d="M76.1518 3.14294C76.1518 2.87158 75.8965 2.67179 75.6341 2.73978C75.5554 2.76006 75.4749 2.77974 75.3926 2.79882C75.2823 2.82387 75.1755 2.84534 75.0711 2.86502C75.1183 2.28653 75.1904 1.70923 75.2882 1.13313L75.4331 0.279107C75.457 0.130608 75.2888 0 75.0717 0H71.8179C71.6008 0 71.432 0.130608 71.4577 0.279107L71.6026 1.13313C71.7922 2.25075 71.8871 3.37493 71.8871 4.5003C71.8871 5.62568 71.7922 6.74986 71.6026 7.86748L71.4577 8.7215C71.4326 8.87 71.6008 9.00061 71.8179 9.00061H75.0717C75.2888 9.00061 75.4576 8.87 75.4319 8.7215L75.287 7.86748C75.1892 7.29197 75.1177 6.71408 75.0699 6.13558C75.1749 6.15527 75.2817 6.17674 75.3914 6.20178C75.4737 6.22087 75.5548 6.24055 75.6329 6.26083C75.8953 6.32881 76.1506 6.12903 76.1506 5.85767V4.5003V3.14234L76.1518 3.14294Z" fill="white" fill-opacity="0.8"/>
<path d="M93.3109 11.4225C93.1212 9.79976 93.0264 8.16806 93.0264 6.53397C93.0264 4.90048 93.1212 3.26818 93.3109 1.64542L93.4558 0.404944C93.4808 0.189053 93.3126 0 93.0956 0H89.8417C89.6246 0 89.4558 0.189053 89.4815 0.404944L89.6264 1.64542C89.6431 1.78736 89.658 1.92989 89.6729 2.07243C89.5202 2.06766 89.3473 2.05096 89.16 2.01279C89.0569 1.99192 88.9602 1.96627 88.8702 1.93824C88.6024 1.85535 88.3317 2.05513 88.3317 2.33543V4.9136C88.3317 5.1939 88.6024 5.39369 88.8702 5.31079C88.9602 5.28276 89.0575 5.25771 89.16 5.23624C89.4415 5.17839 89.6908 5.16945 89.8876 5.1772C89.9013 5.61017 89.9091 6.04255 89.9097 6.47612C89.7093 6.48566 89.4523 6.47791 89.1594 6.41827C89.0563 6.3974 88.9596 6.37175 88.8696 6.34372C88.6018 6.26083 88.3311 6.46061 88.3311 6.74091V9.31908C88.3311 9.59938 88.6018 9.79916 88.8696 9.71627C88.9596 9.68824 89.0569 9.66319 89.1594 9.64172C89.401 9.59222 89.618 9.5785 89.7993 9.58089C89.7546 10.1958 89.6968 10.81 89.6252 11.4225L89.4803 12.663C89.4552 12.8789 89.6234 13.0679 89.8405 13.0679H93.0944C93.3114 13.0679 93.4802 12.8789 93.4546 12.663L93.3097 11.4225H93.3109Z" fill="white" fill-opacity="0.8"/>
<path d="M77.2908 11.6146C79.9388 11.5835 82.2659 11.1577 83.9954 9.99836C87.4097 8.25155 87.851 2.11239 87.9076 0.429396C87.9154 0.194421 87.7269 0 87.492 0H86.9618H77.589C77.4071 0 77.2598 0.159831 77.2598 0.356637V3.44232C77.2598 3.70115 77.4936 3.89676 77.7483 3.85204L78.6035 3.71904C79.1432 3.63495 79.6859 3.56637 80.2304 3.52403C80.9586 3.46737 82.1215 3.44292 83.8063 3.56339C83.99 3.57651 84.1176 3.75304 84.0735 3.93135C83.2171 7.38381 79.8099 7.82096 77.4572 7.24188C77.2622 7.19416 77.0898 7.39693 77.0898 7.60448V11.4046C77.0898 11.5209 77.1805 11.6163 77.2914 11.6151L77.2908 11.6146Z" fill="white" fill-opacity="0.8"/>
<path d="M55.6888 0.403751C55.7151 0.188457 55.5308 0 55.2922 0H51.7097C51.4718 0 51.2869 0.188457 51.3132 0.403751C51.6286 2.98907 51.7867 5.5887 51.7867 8.19012V11.0301C50.5563 13.393 44.2156 14.2172 40.1846 12.8431C39.7994 12.7119 39.5155 13.0435 39.5155 13.5236L39.5 16.8234C39.5 17.1424 39.7236 17.3512 40.1369 17.4144C40.4614 17.4639 40.7834 17.4979 41.1055 17.5277C45.6254 17.9452 48.905 16.9647 51.3442 15.7791C51.4676 15.7189 51.6102 15.8155 51.6 15.9526C51.5261 16.9241 51.4318 17.8939 51.3132 18.8618C51.2869 19.0771 51.4712 19.2655 51.7097 19.2655H55.2922C55.5302 19.2655 55.7151 19.0771 55.6888 18.8618C55.3733 16.2765 55.2153 13.6768 55.2153 11.0754V8.18953C55.2153 5.58811 55.3733 2.98847 55.6888 0.403155V0.403751Z" fill="white" fill-opacity="0.8"/>
<path d="M45.3198 12.0016C48.3399 12.0016 50.788 9.3149 50.788 6.0008C50.788 2.6867 48.3399 0 45.3198 0C42.2997 0 39.8516 2.6867 39.8516 6.0008C39.8516 9.3149 42.2997 12.0016 45.3198 12.0016ZM45.3198 3.97966C45.8911 3.97966 46.3539 4.88437 46.3539 6.0008C46.3539 7.11723 45.8905 8.02194 45.3198 8.02194C44.7491 8.02194 44.2857 7.11723 44.2857 6.0008C44.2857 4.88437 44.7491 3.97966 45.3198 3.97966Z" fill="white" fill-opacity="0.8"/>
<path d="M38.7365 4.78597C38.7365 4.51462 38.4813 4.31483 38.2188 4.38282C38.1401 4.40309 38.0596 4.42277 37.9773 4.44186C37.7388 4.49613 37.5133 4.53668 37.301 4.56769C37.3511 3.59142 37.4376 2.61693 37.5628 1.64542L37.7221 0.404944C37.7495 0.189053 37.5646 0 37.3255 0H33.746C33.5074 0 33.3219 0.189053 33.3494 0.404944L33.5086 1.64542C33.7168 3.26818 33.8217 4.89988 33.8217 6.53397C33.8217 8.16746 33.7173 9.01969 33.5086 10.6424L33.3494 11.8829C33.3219 12.0988 33.5068 12.2879 33.746 12.2879H37.3255C37.564 12.2879 37.7495 12.0988 37.7221 11.8829L37.5628 10.6424C37.4108 9.45744 37.3141 8.68333 37.273 7.716C37.493 7.74761 37.7286 7.78935 37.9773 7.84601C38.0596 7.86509 38.1407 7.88478 38.2188 7.90505C38.4813 7.97304 38.7365 7.77325 38.7365 7.5019V6.14453V4.78657V4.78597Z" fill="white" fill-opacity="0.8"/>
<path d="M21.5269 10.5271C21.5019 10.7024 21.6688 10.8563 21.8835 10.8563H32.4204C32.6351 10.8563 32.8021 10.7024 32.7771 10.5271L32.6339 9.51919C32.4467 8.20059 32.3524 6.87483 32.3524 5.54728C32.3524 4.21973 32.4467 2.89397 32.6339 1.57537L32.7771 0.567484C32.8021 0.392148 32.6351 0.238281 32.4204 0.238281H21.8835C21.6688 0.238281 21.5019 0.392148 21.5269 0.567484L21.67 1.57537C21.8573 2.89397 21.9515 4.21973 21.9515 5.54728C21.9515 6.87483 21.8573 8.20059 21.67 9.51919L21.5269 10.5271ZM26.3379 3.66629H27.9655C28.0054 3.66629 28.0358 3.72772 28.0299 3.7969C27.9869 4.29309 27.9559 4.86919 27.9547 5.5103C27.9535 6.18123 27.9851 6.78239 28.0299 7.29647C28.0358 7.36565 28.0054 7.42767 27.9655 7.42767H26.3379C26.298 7.42767 26.2676 7.36565 26.2735 7.29647C26.3176 6.78239 26.3499 6.18123 26.3487 5.5103C26.3475 4.86919 26.3165 4.29309 26.2735 3.7969C26.2676 3.72772 26.298 3.66629 26.3379 3.66629Z" fill="white" fill-opacity="0.8"/>
<path d="M37.5672 14.8767C35.7464 14.9203 33.0728 14.0913 32.5349 12.1924C32.4771 11.9879 32.319 11.8453 32.1043 11.8447H28.9447C28.73 11.8453 28.5761 11.9867 28.5236 12.1924C28.0907 13.8939 24.3496 15.2572 21.2496 14.8767C20.7277 14.8129 20.6061 15.1374 20.6061 15.4678L20.5947 18.656C20.5947 18.9685 20.6925 19.2077 21.0557 19.2452C21.3664 19.2768 21.5221 19.2631 21.7565 19.2572C24.448 19.1862 28.9459 17.5241 30.1112 16.0134C30.2168 15.8769 30.376 15.816 30.5293 15.8327C30.6825 15.816 30.8418 15.8769 30.9473 16.0134C32.1121 17.5241 34.209 19.2572 36.901 19.2572C37.1336 19.2572 37.365 19.2655 37.6018 19.2452C37.891 19.2202 38.0628 18.9846 38.0628 18.656L38.0514 15.4678C38.0974 15.1529 37.8678 14.8696 37.5672 14.8767Z" fill="white" fill-opacity="0.8"/>
<path d="M66.1391 7.57159C65.6358 7.57159 65.2744 7.3068 65.0633 6.78437C64.8593 7.3068 64.4931 7.57159 63.9725 7.57159C63.1256 7.57159 62.6777 6.80822 62.6777 5.36319C62.6777 3.91815 63.1256 3.15479 63.9725 3.15479C64.486 3.15479 64.851 3.42375 65.0585 3.95453C65.2696 3.42316 65.6322 3.15479 66.1391 3.15479C66.9979 3.15479 67.4339 3.89788 67.4339 5.36319C67.4339 6.8285 67.0105 7.57159 66.1391 7.57159Z" fill="white" fill-opacity="0.8"/>
<path d="M66.1392 3.21474C67.0875 3.21474 67.3743 4.1761 67.3743 5.3635C67.3743 6.5509 67.1197 7.51227 66.1392 7.51227C65.5697 7.51227 65.2363 7.15444 65.0621 6.60457C64.8975 7.15325 64.5695 7.51227 63.9726 7.51227C63.0398 7.51227 62.7374 6.5509 62.7374 5.3635C62.7374 4.1761 63.0392 3.21474 63.9726 3.21474C64.5564 3.21474 64.8892 3.57972 65.0586 4.13615C65.2315 3.57972 65.5661 3.21474 66.1392 3.21474ZM66.1392 3.09546C65.6555 3.09546 65.287 3.33998 65.0598 3.80635C64.8355 3.33401 64.4711 3.09546 63.9726 3.09546C63.3547 3.09546 62.6182 3.48907 62.6182 5.3635C62.6182 7.23793 63.3547 7.63155 63.9726 7.63155C64.4771 7.63155 64.8433 7.39657 65.0645 6.93199C65.2917 7.3912 65.6585 7.63155 66.1392 7.63155C66.6199 7.63155 67.0099 7.39717 67.2318 6.93437C67.4077 6.567 67.4936 6.05292 67.4936 5.3635C67.4936 4.67408 67.4012 4.16358 67.2199 3.79203C66.9938 3.33043 66.6306 3.09606 66.1398 3.09606L66.1392 3.09546Z" fill="black"/>
<path d="M66.5836 5.3498C66.5836 6.07917 66.4262 6.67078 65.8196 6.67078C65.2131 6.67078 65.0557 6.07977 65.0557 5.3498C65.0557 4.61982 65.2429 4.02881 65.8196 4.02881C66.3963 4.02881 66.5836 4.61982 66.5836 5.3498Z" fill="black"/>
<path d="M64.2662 5.3498C64.2662 6.07917 64.1088 6.67078 63.5023 6.67078C62.8957 6.67078 62.7383 6.07977 62.7383 5.3498C62.7383 4.61982 62.9255 4.02881 63.5023 4.02881C64.079 4.02881 64.2662 4.61982 64.2662 5.3498Z" fill="black"/>
</g>
<defs>
<clipPath id="clip0_500_159">
<rect width="93.4579" height="19.7588" fill="white"/>
</clipPath>
</defs>
</svg>
