<svg width="24" height="24" viewBox="0 0 24 24" fill="none" xmlns="http://www.w3.org/2000/svg">
<path d="M14.0186 1.93555C14.3765 1.57762 14.9565 1.57773 15.3145 1.93555L18.6484 5.26855C19.0064 5.62654 19.0064 6.20745 18.6484 6.56543L15.3145 9.89844C14.9565 10.2563 14.3765 10.2564 14.0186 9.89844C13.6606 9.54051 13.6607 8.96053 14.0186 8.60254L16.7041 5.91699L14.0186 3.23145C13.6607 2.87345 13.6606 2.29347 14.0186 1.93555Z" fill="white" stroke="white" stroke-width="0.5" stroke-linecap="round" stroke-linejoin="round"/>
<path d="M18 5C18.5063 5 18.917 5.41073 18.917 5.91699C18.9168 6.4231 18.5062 6.83301 18 6.83301H11.667C10.4639 6.83301 9.28748 7.19004 8.28711 7.8584L8.10156 7.9873C7.19008 8.64652 6.47848 9.54689 6.04688 10.5889C5.58644 11.7004 5.46547 12.9235 5.7002 14.1035C5.93491 15.2835 6.51458 16.3671 7.36523 17.2178C8.21596 18.0685 9.29967 18.6481 10.4795 18.8828C11.6595 19.1176 12.8835 18.9975 13.9951 18.5371C15.1065 18.0766 16.0562 17.2963 16.7246 16.2959C17.3929 15.2957 17.7499 14.12 17.75 12.917C17.75 12.4107 18.1607 12 18.667 12C19.1731 12.0002 19.583 12.4108 19.583 12.917C19.5829 14.4825 19.1188 16.0128 18.249 17.3145C17.3791 18.6163 16.1428 19.6312 14.6963 20.2305C13.2498 20.8295 11.6578 20.9871 10.1221 20.6816C8.58634 20.3763 7.17546 19.6217 6.06836 18.5146C4.96128 17.4075 4.20779 15.9965 3.90234 14.4609C3.59692 12.9253 3.75336 11.3333 4.35254 9.88672C4.95175 8.44026 5.96675 7.20382 7.26855 6.33398C8.5704 5.46419 10.1013 5 11.667 5H18Z" fill="white" stroke="white" stroke-width="0.5" stroke-linecap="round" stroke-linejoin="round"/>
</svg>
