<svg width="24" height="24" viewBox="0 0 24 24" fill="none" xmlns="http://www.w3.org/2000/svg">
<path fill-rule="evenodd" clip-rule="evenodd" d="M4.99962 4.99953C5.4292 4.56995 6.12568 4.56995 6.55525 4.99953L19.0003 17.4446C19.4299 17.8742 19.4299 18.5707 19.0003 19.0002C18.5708 19.4298 17.8743 19.4298 17.4447 19.0002L4.99962 6.55516C4.57004 6.12558 4.57004 5.4291 4.99962 4.99953Z" fill="white" stroke="white" stroke-width="0.5" stroke-linecap="round" stroke-linejoin="round"/>
<path fill-rule="evenodd" clip-rule="evenodd" d="M4.99962 19.0005C4.57004 18.5709 4.57004 17.8744 4.99962 17.4448L17.4447 4.99976C17.8743 4.57018 18.5708 4.57018 19.0003 4.99976C19.4299 5.42934 19.4299 6.12582 19.0003 6.5554L6.55525 19.0005C6.12568 19.4301 5.4292 19.4301 4.99962 19.0005Z" fill="white" stroke="white" stroke-width="0.5" stroke-linecap="round" stroke-linejoin="round"/>
</svg>
